<svg height="19" viewBox="0 0 110 19" width="110" xmlns="http://www.w3.org/2000/svg"><path d="m18.748 3.365s-.653-2.213-1.469-2.683c-.815-.47-3.915.243-3.915.243s-3.396.743-8.483 2.092l.8 2.637c2.344.06 4.895.137 5.83.137 1.897 0 2.58.333 3.351 1.41.771 1.075 2.343 4.244 3.277 6.396.09.197.164.379.253.576l2.61-.788c-1.112-6.518-2.254-10.02-2.254-10.02zm2.647 12.932-1.872.554c.157.321.318.64.483.958 0 0 .513 1.124 1.268 1.064.529-.045.242-1.738.242-1.738-.046-.3-.09-.569-.121-.838zm-.295-2.124-2.464.728c.182.394.365.758.517 1.092l2.145-.622c-.061-.41-.137-.804-.198-1.198zm-18.142-10.629.63 2.104c.353.016.749.016 1.145.031l-.733-2.427c-.338.092-.69.184-1.042.292zm-2.442.63c-.483.135-.529.436-.514.752.03.601 1.163.556 1.163.556s.649.015 1.645.045l-.574-1.82c-.573.15-1.131.301-1.72.466zm83.278 3.509 3.315-7.3h.507l3.315 7.3h-.58l-1.569-3.475h-2.872l-1.565 3.475h-.55zm2.34-3.965h2.425l-1.206-2.743-1.22 2.743zm-59.318 3.914v-7.549h2.947c.408 0 .77.06 1.084.18.316.118.574.281.772.488.306.323.458.72.458 1.19v.022c0 .259-.036.485-.107.679a1.77 1.77 0 0 1 -.674.865c-.146.097-.29.178-.433.245.21.057.414.133.61.229.19.091.364.215.514.366a1.647 1.647 0 0 1 .488 1.206v.02c0 .316-.06.601-.184.856-.122.254-.3.475-.52.647a2.443 2.443 0 0 1 -.806.411 3.571 3.571 0 0 1 -1.048.145h-3.1zm.528-4.064h2.359c.265 0 .51-.034.734-.103a1.72 1.72 0 0 0 .58-.297c.162-.13.292-.295.38-.485.092-.192.138-.415.138-.668v-.021c0-.418-.153-.754-.458-1.008-.306-.255-.747-.382-1.325-.382h-2.408zm0 3.547h2.593c.61 0 1.096-.138 1.456-.415s.54-.653.54-1.127v-.02c0-.468-.185-.829-.555-1.085s-.909-.385-1.615-.385h-2.42v3.032zm8.172-3.112v-.021c0-.499.086-.976.259-1.433.172-.456.414-.857.726-1.203a3.449 3.449 0 0 1 2.609-1.136 3.44 3.44 0 0 1 1.468.308c.442.205.82.48 1.133.822.314.343.555.74.724 1.194.17.456.256.94.254 1.428a.016.016 0 0 1 .005.01.014.014 0 0 1 -.005.01c0 .499-.087.976-.259 1.433a3.778 3.778 0 0 1 -.73 1.206 3.461 3.461 0 0 1 -1.136.83 3.471 3.471 0 0 1 -1.474.308 3.43 3.43 0 0 1 -2.598-1.133 3.681 3.681 0 0 1 -.722-1.196 4.053 4.053 0 0 1 -.253-1.427zm.547-.021c0 .451.077.878.23 1.277.151.401.362.75.631 1.044.27.296.59.53.963.703s.782.259 1.225.259a2.894 2.894 0 0 0 2.177-.951c.27-.296.478-.642.628-1.039.149-.397.223-.821.223-1.272v-.021c0-.451-.076-.877-.228-1.275a3.303 3.303 0 0 0 -.632-1.043 2.949 2.949 0 0 0 -.966-.705 2.879 2.879 0 0 0 -1.225-.26 2.888 2.888 0 0 0 -2.175.954 3.231 3.231 0 0 0 -.627 1.039c-.15.395-.224.818-.224 1.27zm9.77.02v-.02c0-.499.086-.976.259-1.433.172-.456.414-.857.726-1.203a3.454 3.454 0 0 1 2.609-1.136 3.44 3.44 0 0 1 1.469.308c.441.205.818.48 1.132.822.313.343.555.74.724 1.194.17.456.256.94.254 1.428a.014.014 0 0 1 .005.01c0 .003-.001.007-.005.01 0 .499-.086.976-.259 1.433a3.78 3.78 0 0 1 -.729 1.206 3.47 3.47 0 0 1 -2.61 1.138 3.434 3.434 0 0 1 -1.474-.308 3.497 3.497 0 0 1 -1.125-.825 3.681 3.681 0 0 1 -.721-1.196 4.04 4.04 0 0 1 -.255-1.427zm.547-.02c0 .451.077.878.229 1.277.153.401.364.75.632 1.044.269.296.59.53.963.703.374.173.782.259 1.225.259a2.898 2.898 0 0 0 2.177-.951c.27-.296.478-.642.627-1.039a3.58 3.58 0 0 0 .225-1.272v-.021c0-.451-.077-.877-.23-1.275a3.294 3.294 0 0 0 -.632-1.043 2.947 2.947 0 0 0 -.965-.705 2.88 2.88 0 0 0 -1.225-.26 2.886 2.886 0 0 0 -2.175.954 3.243 3.243 0 0 0 -.627 1.039c-.15.395-.224.818-.224 1.27zm10.062 3.65v-7.345h.502l2.884 4.343 2.882-4.343h.505v7.345h-.535v-6.377l-2.84 4.226h-.04l-2.845-4.226v6.377h-.51zm10.522 0v-7.3h5.078v.504h-4.55v2.866h3.493v.499h-3.493v2.931h4.599v.5zm8.486 0v-7.3h2.996c.442 0 .832.065 1.172.194s.62.305.839.529c.17.174.304.38.395.609.096.236.144.49.143.745v.02c0 .306-.053.578-.157.818a1.86 1.86 0 0 1 -.438.62c-.188.175-.409.316-.664.423-.267.11-.547.186-.832.227l2.355 3.115h-.673l-2.274-3.024h-2.335v3.024zm.527-3.513h2.41c.298 0 .575-.037.83-.114a2 2 0 0 0 .658-.328c.18-.14.328-.318.433-.522a1.51 1.51 0 0 0 .159-.705v-.02c0-.493-.178-.881-.535-1.166s-.862-.428-1.516-.428h-2.439zm18.2 3.513v-7.3h.499l4.927 6.353v-6.353h.508v7.3h-.398l-5.028-6.485v6.485h-.507zm9.641-5.07c.166-.455.403-.856.712-1.204.308-.348.68-.626 1.115-.835a3.306 3.306 0 0 1 1.448-.313c.292 0 .56.02.801.061.242.041.468.104.675.188.207.085.404.186.59.303.19.121.371.256.542.405l-.343.407a3.848 3.848 0 0 0 -.953-.626c-.357-.166-.804-.25-1.342-.25a2.71 2.71 0 0 0 -1.192.26c-.355.17-.673.411-.933.71-.262.301-.465.648-.608 1.044a3.65 3.65 0 0 0 -.213 1.25c0 .492.07.93.208 1.333.14.404.342.752.608 1.044.265.292.586.52.963.687.376.166.802.25 1.277.25.225 0 .447-.023.664-.067a3.703 3.703 0 0 0 1.61-.763v-2.097h-2.185v-.5h2.698v2.816a4.738 4.738 0 0 1 -1.207.765 3.812 3.812 0 0 1 -1.6.328c-.564 0-1.069-.099-1.513-.297a3.271 3.271 0 0 1 -1.125-.81 3.567 3.567 0 0 1 -.702-1.193 4.298 4.298 0 0 1 -.244-1.456c0-.512.083-.985.25-1.44zm-77.314 12.518v-.021c0-.513.08-.998.244-1.453.163-.456.389-.854.677-1.196a3.208 3.208 0 0 1 1.026-.807 2.868 2.868 0 0 1 1.296-.296c.29 0 .553.028.788.083.236.056.455.136.655.238.2.103.39.226.566.368.18.145.353.303.514.47l-.34.396a5.146 5.146 0 0 0 -.445-.425 2.697 2.697 0 0 0 -1.747-.644c-.39 0-.751.083-1.085.248-.333.165-.628.4-.867.689a3.308 3.308 0 0 0 -.576 1.033c-.139.395-.208.82-.208 1.276v.02c0 .456.071.883.213 1.281.142.399.335.745.58 1.039.24.29.535.525.868.693.333.169.695.254 1.084.254.471 0 .88-.097 1.226-.29a3.98 3.98 0 0 0 1.012-.84l.326.354a5.9 5.9 0 0 1 -.534.512 3.38 3.38 0 0 1 -.587.4 3.007 3.007 0 0 1 -1.461.355c-.465 0-.896-.097-1.291-.292a3.17 3.17 0 0 1 -1.024-.794 3.695 3.695 0 0 1 -.67-1.188 4.388 4.388 0 0 1 -.24-1.463zm10.706 0v-.021c0-.498.086-.976.259-1.433.172-.456.415-.857.726-1.203a3.46 3.46 0 0 1 1.133-.828 3.467 3.467 0 0 1 1.475-.308c.538 0 1.027.103 1.469.308a3.529 3.529 0 0 1 1.856 2.016c.17.453.254.93.254 1.428a.013.013 0 0 1 .005.01c0 .003-.001.007-.005.01 0 .5-.086.977-.259 1.433a3.777 3.777 0 0 1 -.729 1.206 3.47 3.47 0 0 1 -2.61 1.138 3.435 3.435 0 0 1 -1.474-.308 3.5 3.5 0 0 1 -1.124-.824 3.689 3.689 0 0 1 -.722-1.197 4.034 4.034 0 0 1 -.254-1.427zm.547-.021c0 .452.077.877.23 1.278.152.4.363.748.631 1.043.269.295.59.53.963.703.374.173.782.26 1.225.26a2.895 2.895 0 0 0 2.178-.952c.268-.296.477-.642.626-1.039.15-.397.225-.821.225-1.272v-.021c0-.45-.077-.876-.23-1.275a3.292 3.292 0 0 0 -.632-1.043 2.946 2.946 0 0 0 -.965-.705 2.88 2.88 0 0 0 -1.224-.26 2.885 2.885 0 0 0 -2.175.954 3.226 3.226 0 0 0 -.627 1.04c-.15.394-.224.817-.224 1.269v.02zm11.612 3.65v-7.3h.498l2.868 4.317 2.861-4.316h.503v7.299h-.532v-6.339l-2.823 4.2h-.04l-2.827-4.2v6.338h-.508zm12.03 0v-7.3h.499l2.867 4.317 2.861-4.316h.503v7.299h-.532v-6.339l-2.823 4.2h-.04l-2.827-4.2v6.338h-.507zm12.031 0v-7.3h5.077v.504h-4.55v2.867h4.092v.498h-4.092v2.932h4.6v.499zm10.015 0v-7.3h2.996c.441 0 .832.065 1.172.194.34.13.62.305.839.53.17.173.304.38.395.608.096.236.144.49.142.745v.021c0 .305-.052.577-.156.817a1.85 1.85 0 0 1 -.439.621 2.23 2.23 0 0 1 -.664.422c-.267.11-.546.186-.831.227l2.354 3.115h-.672l-2.275-3.024h-2.334v3.024zm.527-3.512h2.41c.298 0 .575-.038.83-.114.256-.078.475-.187.657-.329a1.51 1.51 0 0 0 .593-1.227v-.02c0-.492-.179-.88-.535-1.166-.357-.285-.862-.428-1.516-.428h-2.439zm9.71-.117v-.021a3.9 3.9 0 0 1 .276-1.46c.176-.447.435-.855.761-1.202a3.54 3.54 0 0 1 2.61-1.11c.326 0 .622.028.886.084a3.544 3.544 0 0 1 1.373.609c.198.142.391.3.578.473l-.381.397a5.674 5.674 0 0 0 -.503-.427 3.096 3.096 0 0 0 -.56-.339 3.221 3.221 0 0 0 -1.403-.308 2.957 2.957 0 0 0 -2.195.942c-.275.295-.49.641-.646 1.038a3.469 3.469 0 0 0 -.235 1.283v.02c0 .458.08.887.24 1.288.16.4.376.748.652 1.044s.608.533.975.697c.375.17.781.255 1.22.255.529 0 .988-.097 1.377-.291a4.385 4.385 0 0 0 1.138-.845l.367.357a6.32 6.32 0 0 1 -.601.513 3.65 3.65 0 0 1 -1.416.665 3.947 3.947 0 0 1 -.886.094 3.568 3.568 0 0 1 -2.603-1.091 3.642 3.642 0 0 1 -.753-1.194 3.989 3.989 0 0 1 -.27-1.471zm11.02-3.67h5.078v.503h-4.55v2.867h4.092v.498h-4.091v2.932h4.599v.499h-5.127v-7.3z" fill="#7e8f9f"/></svg>