<svg height="18" viewBox="0 0 92 18" width="92" xmlns="http://www.w3.org/2000/svg"><g fill="#7e8f9f" fill-rule="evenodd"><path d="m73.403 13.902-4.035-13.596h-5.452l-4.036 13.577h3.873l4.77-4.155 1.04 4.155 3.839.02zm-8.608-4.29 1.847-7.314 1.847 7.296-3.694.019zm-56.743-2.718c1.22-.288 1.92-1.417 1.92-3.103 0-1.723-1.22-3.446-3.713-3.446h-6.259v13.575h7.03c2.493 0 3.461-1.723 3.461-3.695 0-1.705-1.076-3.103-2.439-3.332zm-5.04-3.62h2.476c.663 0 1.13.48 1.13 1.13 0 .67-.467 1.15-1.13 1.15h-2.475v-2.28zm0 7.68v-2.434h2.87c.807 0 1.274.556 1.274 1.226 0 .727-.485 1.225-1.274 1.225 0-.019-2.87-.019-2.87-.019z" fill-rule="nonzero"/><path d="m34.648 3.964c0-.709.753-1.015 1.686-1.034 1.255-.039 2.618.421 3.945 1.379l1.22-2.95c-1.4-.976-3.21-1.34-5.04-1.34-3.228 0-5.11 2.03-5.129 4.27-.018 5.764 6.654 3.62 6.654 5.84 0 .633-.556 1.111-1.668 1.111-1.668 0-2.87-.593-3.874-1.378l-1.291 2.968c1.291.938 2.995 1.436 5.04 1.436 3.389 0 5.074-1.877 5.057-4.557.017-5.42-6.6-3.735-6.6-5.745zm-17.181 9.919v-1.187c-.573.69-1.65 1.417-3.174 1.417-2.098 0-3.03-1.264-3.03-3.064v-6.99h2.94v5.726c0 1.187.574 1.609 1.543 1.609.843 0 1.417-.498 1.757-.977v-6.377h2.941v9.843zm4.448 1.053c.197.134.502.192.735.192.664 0 1.094-.154 1.256-.556l.197-.536-3.659-9.996h3.085l2.08 6.243 2.099-6.243h3.12l-4.16 11.26c-.754 2.087-2.135 2.547-3.892 2.566-.27 0-.95-.057-1.273-.172z"/><path d="m41.857 8.98c0-2.852 2.045-5.17 4.914-5.17 2.726 0 4.717 2.164 4.717 5.496v.67h-6.546c.18.92.968 1.762 2.313 1.762.646 0 1.776-.306 2.278-.842l1.255 1.972c-.932.88-2.439 1.321-3.855 1.321-2.87-.057-5.076-2.03-5.076-5.208zm4.896-2.737c-1.291 0-1.775.995-1.9 1.704h3.801c-.072-.709-.52-1.704-1.9-1.704z" fill-rule="nonzero"/><path d="m52.349 13.883v-13.577h2.94v13.577zm3.963 0v-13.577h2.941v13.577z"/><path d="m79.877 13.883v-1.149c-.771.957-1.704 1.379-2.726 1.379-2.26 0-4.089-1.839-4.089-5.19 0-3.217 1.775-5.17 4.089-5.17 1.004 0 1.99.421 2.726 1.398v-4.883h2.923v13.615zm0-3.409v-3.024c-.395-.536-1.148-.88-1.776-.88-1.165 0-2.044.918-2.044 2.374 0 1.474.86 2.393 2.044 2.393.628 0 1.4-.345 1.776-.862z" fill-rule="nonzero"/><path d="m83.302 12.638 1.238-2.183c.681.651 2.152 1.322 3.246 1.322.896 0 1.255-.307 1.255-.747 0-1.302-5.362-.02-5.362-3.983 0-1.743 1.399-3.236 3.945-3.236 1.56 0 2.852.536 3.856 1.32l-1.13 2.089c-.556-.574-1.614-1.072-2.708-1.072-.681 0-1.166.306-1.166.708 0 1.15 5.363.02 5.363 4.06 0 1.876-1.56 3.255-4.215 3.255-1.632-.038-3.353-.613-4.322-1.532z"/></g></svg>