<svg xmlns="http://www.w3.org/2000/svg" viewBox="0 0 80 80"><path d="M40 45.2c-3.8 0-6.9-3.1-6.9-7s3.1-7 6.9-7c3.8 0 6.9 3.1 6.9 7 0 3.8-3.1 7-6.9 7zm0-12c-2.7 0-4.9 2.2-4.9 5s2.2 5 4.9 5 4.9-2.2 4.9-5-2.2-5-4.9-5zm16 23.6h-2c0-4.1-6.4-7.6-14-7.6s-14 3.5-14 7.6h-2c0-5.4 7-9.6 16-9.6 9-.1 16 4.2 16 9.6zM20.1 35.1c-3.3 0-6-2.7-6-5.9 0-3.3 2.7-5.9 6-5.9s6 2.7 6 5.9-2.7 5.9-6 5.9zm0-9.9c-2.2 0-4 1.8-4 3.9 0 2.2 1.8 3.9 4 3.9s4-1.8 4-3.9-1.8-3.9-4-3.9zM32 45.7h-2c0-3.8-4.2-6.6-10-6.6s-10 2.8-10 6.6H8c0-5 5.1-8.6 12-8.6 7 .1 12 3.7 12 8.6zm28-10.5c-3.3 0-6-2.7-6-6s2.7-6 6-6 6 2.7 6 6-2.7 6-6 6zm0-9.9c-2.2 0-4 1.8-4 4s1.8 4 4 4 4-1.8 4-4c0-2.3-1.8-4-4-4zm12 20.4h-2c0-3.8-4.2-6.6-10-6.6s-10 2.8-10 6.6h-2c0-5 5-8.6 12-8.6s12 3.6 12 8.6z" fill="#00a5c9"/></svg>