<svg version="1.1" id="Layer_1" xmlns="http://www.w3.org/2000/svg" x="0" y="0" viewBox="0 0 80 80" xml:space="preserve"><style>.st0{fill:#00a5c9}</style><path class="st0" d="M18.6 69.8c-.5 0-1-.2-1.4-.6L11 63.1c-.4-.4-.6-.9-.6-1.5 0-.5.2-1 .6-1.4l16.1-16.3c-2.1-3.5-3.2-7.5-3.2-11.6C24 19.7 34.2 9.5 46.7 9.5s22.7 10.2 22.7 22.7S59.3 55 46.7 55c-3.5 0-7-.8-10.2-2.4L20.1 69.2c-.4.4-1 .6-1.5.6zm28.1-58.3C35.3 11.5 26 20.8 26 32.3c0 4 1.2 7.9 3.3 11.2l.4.7-17.2 17.4-.1.1 6.2 6.1.1-.1L36.2 50l.7.4c3 1.6 6.4 2.5 9.9 2.5 11.4 0 20.7-9.3 20.7-20.7s-9.3-20.7-20.8-20.7z"/><path class="st0" d="M46.6 48.7c-8.9 0-16.1-7.3-16.1-16.3s7.2-16.3 16.1-16.3v2c-7.8 0-14.1 6.4-14.1 14.3s6.3 14.3 14.1 14.3c3.8 0 7.3-1.5 10-4.2s4.1-6.3 4.1-10.1h2c0 4.4-1.7 8.4-4.7 11.5-3 3.1-7.1 4.8-11.4 4.8z"/></svg>