<svg version="1.1" id="Layer_1" xmlns="http://www.w3.org/2000/svg" x="0" y="0" viewBox="0 0 71 50" xml:space="preserve"><style>.st0{fill:none;stroke:#00a5c9;stroke-width:2}</style><g id="Page-1"><g id="Group-8" transform="translate(1 1)"><path id="Shape" class="st0" d="M1.3 38.6c-2.7-6.4-.6-13.9 5-18s13.4-3.7 18.6.8 6.7 12.2 3.4 18.3-10.4 9.3-17.1 7.5"/><path class="st0" d="M14.5 43.2c-5.4 0-9.8-4.4-9.8-9.8m35.5 5.2c-2.7-6.4-.7-13.9 4.9-18s13.4-3.8 18.6.8 6.7 12.2 3.4 18.3c-3.1 6.2-10.2 9.3-17 7.5M30.2 26c2.9-.6 5.9-.7 8.8-.1M0 30S5.6 7.2 7.9 3.3s10-3.2 10-3.2"/><path class="st0" d="M69 30S63.4 7.2 61.1 3.3 51.1 0 51.1 0"/></g></g></svg>