<svg width="259" height="595" xmlns="http://www.w3.org/2000/svg"><g fill="none" fill-rule="evenodd"><path d="M78 148v89.858M78 369v89.858" stroke="#D8D8D8" stroke-width="4" stroke-linecap="round" stroke-linejoin="round" stroke-dasharray="1,12"/><path d="M187.5 77.5l14-8m-14 8l14 8" stroke="#D8D8D8" stroke-linecap="round" stroke-width="3"/><path d="M189 77.5h68v444H155" stroke="#D8D8D8" stroke-width="4" stroke-linecap="round" stroke-linejoin="round" stroke-dasharray="1,12"/><g transform="translate(0 221)"><circle fill="#00A5C9" cx="77.5" cy="77.5" r="77.5"/><g stroke="#FFF" stroke-linecap="round" stroke-width="8"><path d="M60.957 87.478c3.09-12.676 7.724-19.014 13.904-19.014 9.27 0 9.27 9.507 18.539 9.507 6.18 0 10.814-6.338 13.904-19.014" stroke-linejoin="round"/><path d="M43.13 41.13v63.74a4 4 0 004 4h63.74"/></g></g><g transform="translate(0 440)"><circle fill="#00A5C9" cx="77.5" cy="77.5" r="77.5"/><g transform="translate(36 36)" stroke="#FFF" stroke-width="8"><rect x="10.696" y="10.696" width="60.609" height="60.609" rx="8"/><path d="M57.043 24.957c-10.016 8.11-17.153 17.616-21.411 28.521-2.84-4.366-6.222-8.967-10.675-11.43" stroke-linecap="round" stroke-linejoin="round"/></g></g><circle fill="#00A5C9" cx="77.5" cy="77.5" r="77.5"/><g transform="translate(36 33)" stroke="#FFF"><rect stroke-width="8" x="14.261" y="7.13" width="53.478" height="71.304" rx="8"/><rect stroke-width="4" fill="#D8D8D8" x="26.957" y="23.391" width="28.087" height="3.13" rx="1.565"/><rect stroke-width="4" fill="#D8D8D8" x="26.957" y="41.217" width="28.087" height="3.13" rx="1.565"/><rect stroke-width="4" fill="#D8D8D8" x="26.957" y="59.043" width="13.826" height="3.13" rx="1.565"/></g></g></svg>