<svg xmlns="http://www.w3.org/2000/svg" width="98" height="101" viewBox="0 0 98 101"><defs><linearGradient id="4ooqb" x1="48.68" x2="48.68" y1="29.1" y2="4.67" gradientUnits="userSpaceOnUse"><stop offset="0" stop-color="#fff"/><stop offset=".87" stop-color="#fff" stop-opacity="0"/></linearGradient><clipPath id="4ooqa"><path d="M91.854 23.08c9.06 23.216-7.437 67.116-21.29 72.22-17.812 6.564-56.157-17.119-65.218-40.336-9.06-23.217 8.519-34.93 32.409-43.735C61.643 2.424 82.796-.136 91.854 23.079z"/></clipPath></defs><g><g><g><path fill="#fff" d="M94.523 20.527c9.62 25.366-7.899 73.33-22.609 78.907-18.911 7.174-59.628-18.706-69.248-44.073-9.619-25.364 9.047-38.164 34.413-47.783C62.444-2.04 84.904-4.839 94.523 20.527z"/></g><g><g><path fill="#005392" d="M91.854 23.08c9.06 23.216-7.437 67.116-21.29 72.22-17.812 6.564-56.157-17.119-65.218-40.336-9.06-23.217 8.519-34.93 32.409-43.735C61.643 2.424 82.796-.136 91.854 23.079z"/></g><g><g><path fill="#005392" d="M91.854 23.08c9.06 23.216-7.437 67.116-21.29 72.22-17.812 6.564-56.157-17.119-65.218-40.336-9.06-23.217 8.519-34.93 32.409-43.735C61.643 2.424 82.796-.136 91.854 23.079z"/></g><g clip-path="url(#4ooqa)"><g><path fill="#ffcb06" d="M30.108-7.742h13.771v51.988h61.988V58.02H43.879v49.738H30.108V58.02H-4.327V44.246h34.435z"/></g></g></g></g><g opacity=".15"><path fill="url(#4ooqb)" d="M94.43 41.068c-31.512-27.001-64.837-7.699-91.529 0 1.875-14.7 16.205-22.857 34.678-29.708C59.924 3.076 80.012.148 89.764 18.582c4.564 8.628 4.858 16.124 4.666 22.486z"/></g></g></g></svg>