<svg xmlns="http://www.w3.org/2000/svg" width="98" height="101" viewBox="0 0 98 101"><defs><linearGradient id="2qbdb" x1="49.38" x2="49.38" y1="29.1" y2="4.67" gradientUnits="userSpaceOnUse"><stop offset="0" stop-color="#fff"/><stop offset=".87" stop-color="#fff" stop-opacity="0"/></linearGradient><clipPath id="2qbda"><path d="M92.554 23.08c9.06 23.215-7.437 67.116-21.291 72.219-17.811 6.565-56.157-17.119-65.217-40.336-9.06-23.216 8.519-34.929 32.409-43.734C62.342 2.424 83.496-.136 92.554 23.079z"/></clipPath></defs><g><g><g><path fill="#fff" d="M95.223 20.527c9.62 25.365-7.899 73.33-22.609 78.906-18.911 7.174-59.628-18.705-69.248-44.072-9.62-25.363 9.047-38.164 34.413-47.783C63.144-2.04 85.604-4.838 95.223 20.527z"/></g><g><g><path fill="#c52127" d="M92.554 23.08c9.06 23.215-7.437 67.116-21.291 72.219-17.811 6.565-56.157-17.119-65.217-40.336-9.06-23.216 8.519-34.929 32.409-43.734C62.342 2.424 83.496-.136 92.554 23.079z"/></g><g><g><path fill="#c52127" d="M92.554 23.08c9.06 23.215-7.437 67.116-21.291 72.219-17.811 6.565-56.157-17.119-65.217-40.336-9.06-23.216 8.519-34.929 32.409-43.734C62.342 2.424 83.496-.136 92.554 23.079z"/></g><g clip-path="url(#2qbda)"><g><path fill="#fff" d="M15.495 40.987h16.002V24.982h13.72v16.005h16v13.716h-16v16.005h-13.72V54.703H15.495z"/></g></g></g></g><g opacity=".15"><path fill="url(#2qbdb)" d="M95.129 41.068c-31.511-27.002-64.836-7.699-91.528 0 1.874-14.7 16.205-22.857 34.678-29.71C60.623 3.077 80.711.149 90.464 18.583c4.564 8.628 4.858 16.124 4.665 22.486z"/></g></g></g></svg>