<svg xmlns="http://www.w3.org/2000/svg" width="101" height="101" viewBox="0 0 101 101"><defs><linearGradient id="i9qnb" x1="50.68" x2="50.68" y1="29.1" y2="4.67" gradientUnits="userSpaceOnUse"><stop offset="0" stop-color="#fff"/><stop offset=".87" stop-color="#fff" stop-opacity="0"/></linearGradient><clipPath id="i9qna"><path d="M93.854 23.08c9.06 23.216-7.437 67.116-21.291 72.22-17.811 6.564-56.157-17.12-65.218-40.336-9.059-23.217 8.52-34.93 32.41-43.735 23.887-8.804 45.04-11.365 54.099 11.85z"/></clipPath></defs><g><g><g><path fill="#fff" d="M97.851 20.528c9.9 25.365-8.127 73.329-23.264 78.906-19.459 7.173-61.357-18.706-71.255-44.073-9.898-25.363 9.309-38.163 35.411-47.783 26.099-9.619 49.21-12.416 59.108 12.95z"/></g><g><g><path fill="#2a3376" d="M93.854 23.08c9.06 23.216-7.437 67.116-21.291 72.22-17.811 6.564-56.157-17.12-65.218-40.336-9.059-23.217 8.52-34.93 32.41-43.735 23.887-8.804 45.04-11.365 54.099 11.85z"/></g><g><g><path fill="#2a3376" d="M93.854 23.08c9.06 23.216-7.437 67.116-21.291 72.22-17.811 6.564-56.157-17.12-65.218-40.336-9.059-23.217 8.52-34.93 32.41-43.735 23.887-8.804 45.04-11.365 54.099 11.85z"/></g><g clip-path="url(#i9qna)"><g><path fill="#fff" d="M107.533 21.227H95.708l-32.2 16.1V1.58H45.937v35.758L13.72 21.227H1.952v5.942l23.337 11.668H1.952v17.589h23.353L1.952 68.1v5.936H13.71l32.226-16.108v40.319h17.573v-40.3l32.176 16.089h11.848v-5.892L84.1 56.425h23.433V38.838H84.137l23.396-11.692z"/></g><g><path fill="#d1202d" d="M45.215 56.447l.006-.005-7.91.005-.005.001L2.199 74.014h7.905zM99.804 21.25L64.64 38.864h7.872v-.001l34.733-17.372v-.24z"/></g><g><path fill="#d1202d" d="M49.416 2.915v39.43H1.952v10.572h47.464v46.998h10.567V52.917h47.55V42.345h-47.55V2.915z"/></g><g><path fill="#d1202d" d="M2.15 25.292v-3.946l35.249 17.619h-7.918zm105.143 44.672v3.953L72.501 56.525l7.955.019z"/></g></g></g></g><g opacity=".15"><path fill="url(#i9qnb)" d="M96.429 41.069c-31.511-27.002-64.836-7.7-91.528 0 1.874-14.7 16.205-22.858 34.678-29.71C61.923 3.077 82.011.149 91.764 18.583c4.564 8.628 4.857 16.124 4.665 22.487z"/></g></g></g></svg>