<svg xmlns="http://www.w3.org/2000/svg" width="98" height="101" viewBox="0 0 98 101"><defs><linearGradient id="a93ob" x1="49.36" x2="49.36" y1="29.1" y2="4.67" gradientUnits="userSpaceOnUse"><stop offset="0" stop-color="#fff"/><stop offset=".87" stop-color="#fff" stop-opacity="0"/></linearGradient><clipPath id="a93oa"><path d="M92.525 23.08c9.06 23.215-7.437 67.116-21.29 72.219-17.812 6.565-56.157-17.119-65.218-40.336-9.059-23.216 8.519-34.929 32.409-43.734C62.314 2.424 83.467-.136 92.525 23.079z"/></clipPath></defs><g><g><g><path fill="#fff" d="M95.194 20.527c9.62 25.365-7.898 73.33-22.608 78.906-18.911 7.174-59.629-18.705-69.248-44.072-9.62-25.363 9.046-38.164 34.413-47.783C63.115-2.04 85.575-4.838 95.194 20.527z"/></g><g><g><path fill="#ed2d2e" d="M92.525 23.08c9.06 23.215-7.437 67.116-21.29 72.219-17.812 6.565-56.157-17.119-65.218-40.336-9.059-23.216 8.519-34.929 32.409-43.734C62.314 2.424 83.467-.136 92.525 23.079z"/></g><g><g><path fill="#ed2d2e" d="M92.525 23.08c9.06 23.215-7.437 67.116-21.29 72.219-17.812 6.565-56.157-17.119-65.218-40.336-9.059-23.216 8.519-34.929 32.409-43.734C62.314 2.424 83.467-.136 92.525 23.079z"/></g><g clip-path="url(#a93oa)"><g><path fill="#fff" d="M26.487-.568l-.1 43.49-25.763.097v17.272l25.871-.004-.006 41.812h17.27l-.117-41.705 60.709-.096V43.021l-60.71-.1.118-43.489z"/></g><g><path fill="#212f64" d="M30.825-.568l.09 47.91-30.29.019v8.596l30.155.017.046 46.125h8.593l.004-46.142 64.928.003V47.36l-64.94-.004.014-47.923z"/></g></g></g></g><g opacity=".15"><path fill="url(#a93ob)" d="M95.101 41.068c-31.511-27.002-64.837-7.699-91.529 0 1.875-14.7 16.205-22.857 34.678-29.71C60.595 3.077 80.683.149 90.435 18.583c4.564 8.628 4.858 16.124 4.666 22.486z"/></g></g></g></svg>