<svg xmlns="http://www.w3.org/2000/svg" width="101" height="101" viewBox="0 0 101 101"><defs><linearGradient id="luaub" x1="50.67" x2="50.67" y1="29.1" y2="4.67" gradientUnits="userSpaceOnUse"><stop offset="0" stop-color="#fff"/><stop offset=".87" stop-color="#fff" stop-opacity="0"/></linearGradient><clipPath id="luaua"><path d="M93.833 23.08c9.06 23.216-7.437 67.116-21.29 72.22-17.812 6.564-56.157-17.12-65.218-40.337-9.059-23.216 8.519-34.929 32.409-43.734C63.622 2.425 84.775-.136 93.833 23.079z"/></clipPath></defs><g><g><g><path fill="#fff" d="M97.83 20.528c9.9 25.365-8.126 73.329-23.263 78.906-19.459 7.173-61.357-18.706-71.255-44.073-9.899-25.363 9.309-38.163 35.41-47.783 26.1-9.619 49.211-12.416 59.108 12.95z"/></g><g><g><g/><g clip-path="url(#luaua)"><path fill="#ec293a" d="M70.365 98.038V2.692h32.366v95.346z"/></g><g clip-path="url(#luaua)"><path d="M-2.981 98.037V2.7h36.607v95.338z"/></g><g clip-path="url(#luaua)"><path fill="#f9df41" d="M33.63 98.037V2.707h36.65v95.33z"/></g></g></g><g opacity=".15"><path fill="url(#luaub)" d="M96.414 41.069c-31.511-27.002-64.836-7.7-91.528 0 1.874-14.7 16.205-22.858 34.678-29.71C61.908 3.077 81.996.149 91.748 18.583c4.565 8.628 4.858 16.124 4.666 22.487z"/></g></g></g></svg>