<svg xmlns="http://www.w3.org/2000/svg" width="98" height="101" viewBox="0 0 98 101"><defs><linearGradient id="xjyib" x1="49.36" x2="49.36" y1="29.1" y2="4.67" gradientUnits="userSpaceOnUse"><stop offset="0" stop-color="#fff"/><stop offset=".87" stop-color="#fff" stop-opacity="0"/></linearGradient><clipPath id="xjyia"><path d="M92.521 23.08c9.06 23.216-7.437 67.116-21.29 72.219-17.812 6.565-56.157-17.119-65.218-40.335-9.059-23.217 8.519-34.93 32.409-43.735C62.31 2.424 83.463-.136 92.521 23.079z"/></clipPath></defs><g><g><g><path fill="#fff" d="M95.19 20.527c9.62 25.366-7.898 73.33-22.608 78.907-18.911 7.174-59.629-18.706-69.248-44.073-9.62-25.364 9.046-38.164 34.413-47.783C63.111-2.04 85.571-4.839 95.19 20.527z"/></g><g><g><g/><g clip-path="url(#xjyia)"><g><path fill="#ae1f28" d="M1.866 32.697V-.748H105.47v33.445z"/></g><g><path fill="#fff" d="M1.866 66.141V32.697H105.47V66.14z"/></g><g><path fill="#1f478a" d="M1.866 99.585V66.141H105.47v33.444z"/></g></g></g></g><g opacity=".15"><path fill="url(#xjyib)" d="M95.097 41.068c-31.511-27.001-64.837-7.699-91.529 0 1.875-14.7 16.205-22.857 34.678-29.708C60.591 3.076 80.679.148 90.431 18.582c4.564 8.628 4.858 16.124 4.666 22.486z"/></g></g></g></svg>