<svg xmlns="http://www.w3.org/2000/svg" width="101" height="101" viewBox="0 0 101 101"><defs><linearGradient id="a9dcb" x1="50.38" x2="50.38" y1="29.1" y2="4.67" gradientUnits="userSpaceOnUse"><stop offset="0" stop-color="#fff"/><stop offset=".87" stop-color="#fff" stop-opacity="0"/></linearGradient><clipPath id="a9dca"><path d="M93.555 23.08c9.059 23.216-7.438 67.116-21.292 72.219-17.811 6.565-56.158-17.119-65.22-40.336-9.058-23.216 8.521-34.929 32.412-43.734 23.887-8.805 45.041-11.365 54.1 11.85z"/></clipPath></defs><g><g><g><path fill="#fff" d="M97.551 20.528c9.899 25.365-8.127 73.329-23.264 78.906-19.459 7.174-61.357-18.706-71.255-44.073-9.898-25.364 9.309-38.164 35.411-47.783 26.099-9.619 49.21-12.417 59.108 12.95z"/></g><g><g><path fill="#ec283a" d="M93.555 23.08c9.059 23.216-7.438 67.116-21.292 72.219-17.811 6.565-56.158-17.119-65.22-40.336-9.058-23.216 8.521-34.929 32.412-43.734 23.887-8.805 45.041-11.365 54.1 11.85z"/></g><g><g><path fill="#ec283a" d="M93.555 23.08c9.059 23.216-7.438 67.116-21.292 72.219-17.811 6.565-56.158-17.119-65.22-40.336-9.058-23.216 8.521-34.929 32.412-43.734 23.887-8.805 45.041-11.365 54.1 11.85z"/></g><g clip-path="url(#a9dca)"><path fill="#fff" d="M-2.89 66.607V34.43h107.194v32.178z"/></g></g></g><g opacity=".15"><path fill="url(#a9dcb)" d="M96.129 41.068c-31.511-27.001-64.836-7.699-91.528 0 1.874-14.7 16.205-22.857 34.678-29.708C61.623 3.076 81.711.148 91.463 18.582c4.565 8.628 4.858 16.124 4.666 22.486z"/></g></g></g></svg>