<svg xmlns="http://www.w3.org/2000/svg" width="101" height="101" viewBox="0 0 101 101"><defs><linearGradient id="1w1xb" x1="50.81" x2="50.81" y1="29.1" y2="4.67" gradientUnits="userSpaceOnUse"><stop offset="0" stop-color="#fff"/><stop offset=".87" stop-color="#fff" stop-opacity="0"/></linearGradient><clipPath id="1w1xa"><path d="M93.98 23.08c9.06 23.216-7.437 67.116-21.29 72.219-17.812 6.565-56.157-17.119-65.218-40.335-9.06-23.217 8.519-34.93 32.409-43.735C63.768 2.424 84.922-.136 93.98 23.079z"/></clipPath></defs><g><g><g><path fill="#fff" d="M97.977 20.528c9.9 25.365-8.126 73.329-23.263 78.906-19.459 7.174-61.357-18.706-71.256-44.072-9.898-25.365 9.31-38.165 35.411-47.784 26.1-9.619 49.211-12.417 59.108 12.95z"/></g><g><g><path fill="#d02035" d="M93.98 23.08c9.06 23.216-7.437 67.116-21.29 72.219-17.812 6.565-56.157-17.119-65.218-40.335-9.06-23.217 8.519-34.93 32.409-43.735C63.768 2.424 84.922-.136 93.98 23.079z"/></g><g><g><path fill="#d02035" d="M93.98 23.08c9.06 23.216-7.437 67.116-21.29 72.219-17.812 6.565-56.157-17.119-65.218-40.335-9.06-23.217 8.519-34.93 32.409-43.735C63.768 2.424 84.922-.136 93.98 23.079z"/></g><g clip-path="url(#1w1xa)"><path fill="#fff" d="M31.595.66v42.636h-42.614v14.226h42.614v42.638H45.83V57.522h74.634V43.296H45.83V.66z"/></g></g></g><g opacity=".15"><path fill="url(#1w1xb)" d="M96.556 41.068c-31.512-27.001-64.837-7.699-91.529 0 1.875-14.7 16.205-22.857 34.678-29.708C62.05 3.076 82.138.148 91.89 18.582c4.564 8.628 4.858 16.124 4.666 22.486z"/></g></g></g></svg>