<svg xmlns="http://www.w3.org/2000/svg" width="98" height="101" viewBox="0 0 98 101"><defs><linearGradient id="qzg9b" x1="49.36" x2="49.36" y1="29.1" y2="4.67" gradientUnits="userSpaceOnUse"><stop offset="0" stop-color="#fff"/><stop offset=".87" stop-color="#fff" stop-opacity="0"/></linearGradient><clipPath id="qzg9a"><path d="M92.525 23.08c9.06 23.216-7.437 67.116-21.29 72.22-17.812 6.564-56.157-17.119-65.218-40.336-9.059-23.217 8.519-34.93 32.409-43.735C62.314 2.424 83.467-.136 92.525 23.079z"/></clipPath></defs><g><g><g><path fill="#fff" d="M95.194 20.527c9.62 25.366-7.898 73.33-22.608 78.907-18.911 7.174-59.629-18.706-69.248-44.073-9.62-25.364 9.046-38.164 34.413-47.783C63.115-2.04 85.575-4.839 95.194 20.527z"/></g><g><g><g/><g clip-path="url(#qzg9a)"><g><path fill="#fff" d="M-1.256 99.629V.349h105.89v99.28z"/></g><g><path fill="#ec1e24" d="M-1.256 99.629V66.544h105.89v33.085z"/></g><g><path fill="#3853a3" d="M-1.256 66.53V33.448h105.89V66.53z"/></g></g></g></g><g opacity=".15"><path fill="url(#qzg9b)" d="M95.101 41.068c-31.511-27.001-64.837-7.699-91.529 0C5.447 26.368 19.777 18.21 38.25 11.36 60.595 3.076 80.683.148 90.435 18.582c4.564 8.628 4.858 16.124 4.666 22.486z"/></g></g></g></svg>