<svg xmlns="http://www.w3.org/2000/svg" width="98" height="101" viewBox="0 0 98 101"><defs><linearGradient id="bfbjb" x1="48.67" x2="48.67" y1="29.1" y2="4.67" gradientUnits="userSpaceOnUse"><stop offset="0" stop-color="#fff"/><stop offset=".87" stop-color="#fff" stop-opacity="0"/></linearGradient><clipPath id="bfbja"><path d="M91.833 23.08c9.06 23.215-7.437 67.116-21.29 72.219-17.812 6.565-56.157-17.119-65.218-40.336-9.059-23.216 8.519-34.929 32.409-43.734C61.622 2.424 82.775-.136 91.833 23.079z"/></clipPath></defs><g><g><g><path fill="#fff" d="M94.502 20.527c9.62 25.365-7.898 73.33-22.608 78.906-18.911 7.174-59.629-18.705-69.248-44.072-9.62-25.363 9.046-38.164 34.413-47.783C62.423-2.04 84.883-4.838 94.502 20.527z"/></g><g><g><g/><g clip-path="url(#bfbja)"><path fill="#ec293a" d="M68.4 103.598V.453h34.493v103.145z"/></g><g clip-path="url(#bfbja)"><path fill="#fff" d="M33.907 103.598V.453H68.4v103.145z"/></g><g clip-path="url(#bfbja)"><path fill="#2a3688" d="M-.585 103.598V.453h34.492v103.145z"/></g></g></g><g opacity=".15"><path fill="url(#bfbjb)" d="M94.41 41.068c-31.512-27.002-64.838-7.699-91.53 0 1.875-14.7 16.205-22.857 34.678-29.71C59.903 3.077 79.991.149 89.743 18.583c4.565 8.628 4.858 16.124 4.666 22.486z"/></g></g></g></svg>