<svg id="Layer_1" data-name="Layer 1" xmlns="http://www.w3.org/2000/svg" viewBox="0 0 76.54 76.54"><defs><clipPath id="clip-path"><path class="cls-1" d="M-26.61-330.51a12 12 0 0012-11.95 12 12 0 00-12-12 12 12 0 00-12 12 12 12 0 0012 11.95z"/></clipPath><clipPath id="clip-path-2"><path class="cls-1" d="M-26.07-331a12 12 0 0012-12 12 12 0 00-12-12 12 12 0 00-12 12 12 12 0 0012 12z"/></clipPath><style>.cls-1,.cls-2,.cls-4{fill:#00a5c9}.cls-1{clip-rule:evenodd}.cls-2{fill-rule:evenodd}.cls-5{clip-path:url(#clip-path-2)}.cls-6{fill:#fff}</style></defs><path class="cls-2" d="M-26.61-330.51a12 12 0 0012-11.95 12 12 0 00-12-12 12 12 0 00-12 12 12 12 0 0012 11.95z"/><g clip-path="url(#clip-path)"><path class="cls-4" d="M-778.61-484.46h1440v1337h-1440z"/></g><path class="cls-2" d="M-26.07-331a12 12 0 0012-12 12 12 0 00-12-12 12 12 0 00-12 12 12 12 0 0012 12z"/><g class="cls-5"><path class="cls-4" d="M-778.07-484.93h1440v1337h-1440z"/></g><path class="cls-2" d="M-26.07-331a12 12 0 0012-12 12 12 0 00-12-12 12 12 0 00-12 12 12 12 0 0012 12z"/><g class="cls-5"><path class="cls-4" d="M-778.07-484.93h1440v1337h-1440z"/></g><path class="cls-4" d="M38.66 5.27a33 33 0 11-33 33 33 33 0 0133-33m0-4a37 37 0 1037 37 37 37 0 00-37-37z"/><path class="cls-6" d="M43 50.46c.61-1.14-.71-1.18-.07-2.3 2.51-4.45 5.66-6 7.1-10.41a23.65 23.65 0 00.79-5.33c0-5.35-4.12-9.92-9.6-11a21.81 21.81 0 00-2.51-.14 21.23 21.23 0 00-2.47.14A11.66 11.66 0 0026.65 31a9.62 9.62 0 00-.12 1.43 10.86 10.86 0 00.06 1.1c0 .54.05 1.07.1 1.6a10.48 10.48 0 00.79 3.23c1.45 3.5 4.65 5.69 7 9.79.64 1.13-.66 1.18-.05 2.32"/><path class="cls-4" d="M33.53 50.93a2 2 0 010-2.13l.06-.09v-.07A30.56 30.56 0 0030.14 44a19.85 19.85 0 01-3.59-5.24 11.79 11.79 0 01-.86-3.52c-.05-.55-.09-1.1-.1-1.66a10.8 10.8 0 01-.05-1.13 11.33 11.33 0 01.12-1.57A12.58 12.58 0 0136 20.45a22.42 22.42 0 015.24 0h.17a12.51 12.51 0 0110.41 12A24.27 24.27 0 0151 38a17.17 17.17 0 01-3.91 6.23 26.28 26.28 0 00-3.29 4.43v.06a.41.41 0 000 .09 2 2 0 01.06 2.13l-1.76-1a.49.49 0 000-.11h-.07a1.92 1.92 0 010-2.15 28.55 28.55 0 013.52-4.76 15.25 15.25 0 003.5-5.47 22.83 22.83 0 00.74-5 10.49 10.49 0 00-8.76-10 21.56 21.56 0 00-4.75 0 10.73 10.73 0 00-8.64 8.71 8.87 8.87 0 00-.1 1.29v1c0 .57.06 1.08.1 1.59A9.76 9.76 0 0028.4 38a18 18 0 003.26 4.72 31.58 31.58 0 013.67 5 2 2 0 010 2.14l-.06.11v.08z"/><path class="cls-6" d="M35 56.9c.3 1.79 1.84 1.11 3.69 1.11s3.39.68 3.69-1.11"/><path class="cls-4" d="M40.75 59.13c-.33 0-.66 0-1-.05a14.21 14.21 0 00-2.26 0c-1.26.11-3.16.28-3.55-2l2-.34c.07.44.07.47 1.39.36a16.37 16.37 0 012.62 0c1.32.11 1.33.08 1.4-.35l2 .33a2.29 2.29 0 01-2.6 2.05zm-6.84-5h9.5v1.7h-9.5zm0-2.42h9.5v1.7h-9.5z"/><path class="cls-6" d="M36.88 45.81c0-11.67-4.29-11-4.29-9.07s1.84 2.95 3.79 2.95a3.7 3.7 0 003.67-3.53c0-1-.58-1.76-1.39-1.76s-1.34.78-1.34 1.82a3.6 3.6 0 003.62 3.47c2 0 3.79-1.1 3.79-3s-4.25-2.18-4.25 9.25"/><path class="cls-4" d="M41.33 45.89h-1.7a32 32 0 01.37-5.45 4.28 4.28 0 01-1.39-.54 4.68 4.68 0 01-1.31.53 32.22 32.22 0 01.39 5.38H36a29.27 29.27 0 00-.41-5.32c-2-.26-3.88-1.53-3.88-3.75a1.88 1.88 0 011.88-1.93c.66 0 1.92.34 2.89 2.61a10.65 10.65 0 01.52 1.35l.32-.1a4.17 4.17 0 01-.82-2.45c0-1.55.92-2.67 2.19-2.67a2.37 2.37 0 012.24 2.61 4.16 4.16 0 01-.93 2.52 2.22 2.22 0 00.39.1 9.85 9.85 0 01.47-1.36c1-2.4 2.38-2.66 2.91-2.66a1.79 1.79 0 011.78 1.88c0 2.25-1.81 3.56-3.82 3.84a29 29 0 00-.4 5.41zm-7.71-9.38c-.18 0-.18.21-.18.23a2.1 2.1 0 001.72 1.92c-.07-.22-.15-.41-.22-.58-.53-1.24-1.1-1.57-1.32-1.57zm10.18 0c-.18 0-.77.29-1.35 1.63l-.2.53a2.12 2.12 0 001.63-2s0-.21-.08-.21zm-5.14-1.21c-.32 0-.49.5-.49 1a2.47 2.47 0 00.5 1.45 2.52 2.52 0 00.53-1.51c0-.53-.2-.99-.54-.99z"/></svg>