<svg height="21" viewBox="0 0 73 21" width="73" xmlns="http://www.w3.org/2000/svg"><g fill="#7e8f9f" fill-rule="evenodd"><path d="m7.898 3.415v5.614h-5.355v-5.614h-2.543v13.401h2.543v-5.432h5.355v5.432h2.542v-13.401zm10.68 9.069c0 1.118-.942 2.025-2.104 2.025-1.161 0-2.103-.907-2.103-2.025v-5.74h-2.412v5.74c0 2.399 2.02 4.343 4.51 4.343 2.492 0 4.512-1.944 4.512-4.343v-5.74h-2.403zm17.868-5.149c0-1.176.809-1.55 1.695-1.55.713 0 1.656.524 2.273 1.158l1.58-1.792c-.789-1.026-2.388-1.736-3.698-1.736-2.616 0-4.508 1.475-4.508 3.92 0 4.537 5.76 3.098 5.76 5.637 0 .783-.79 1.475-1.694 1.475-1.426 0-1.888-.671-2.544-1.381l-1.752 1.754c1.12 1.326 2.504 1.999 4.16 1.999 2.486 0 4.485-1.494 4.485-3.828 0-5.037-5.76-3.472-5.76-5.656m35.639 7.34c-1.425 0-1.83-.593-1.83-1.503v-4.022h2.215v-2.04h-2.215v-2.69l-2.445 1.057v8.197c0 2.096 1.502 3.153 3.562 3.153.323.005.646-.02.965-.075l.596-2.114c-.269.018-.578.036-.848.036"/><g fill-rule="nonzero"><path d="m27.757 6.811c-1.194 0-2.028.334-2.834 1.095v-4.411h-2.415v8.176c0 3.06 2.298 5.157 4.88 5.157 2.866 0 5.386-2.134 5.386-5.007 0-2.838-2.32-5.009-5.017-5.009m-.015 7.676c-1.513 0-2.74-1.181-2.74-2.638 0-1.458 1.227-2.639 2.74-2.639 1.514 0 2.741 1.181 2.741 2.639 0 1.457-1.227 2.638-2.74 2.638m26.242-2.79c0-2.878-2.515-5.007-5.385-5.007-2.583 0-4.881 2.097-4.881 5.157v8.181h2.416v-4.417c.804.76 1.639 1.095 2.832 1.095 2.697 0 5.017-2.17 5.017-5.009m-2.286-.028c0 1.457-1.227 2.638-2.74 2.638-1.514 0-2.741-1.181-2.741-2.638 0-1.458 1.227-2.639 2.74-2.639 1.514 0 2.741 1.181 2.741 2.639"/><path d="m61.788 6.578v-2.336a1.796 1.796 0 0 0 1.078-1.621v-.054c0-.994-.837-1.8-1.869-1.8h-.056c-1.032 0-1.868.806-1.868 1.8v.054a1.796 1.796 0 0 0 1.077 1.621v2.336a5.394 5.394 0 0 0 -2.516 1.067l-6.655-4.99a1.94 1.94 0 0 0 .075-.506c.001-.82-.51-1.56-1.297-1.875a2.165 2.165 0 0 0 -2.295.436 1.972 1.972 0 0 0 -.46 2.209c.325.758 1.093 1.253 1.944 1.254a2.145 2.145 0 0 0 1.037-.272l6.553 4.91a4.954 4.954 0 0 0 .081 5.756l-1.993 1.92a1.772 1.772 0 0 0 -.498-.079c-.955.001-1.728.746-1.728 1.665 0 .92.774 1.665 1.729 1.665.954 0 1.729-.745 1.73-1.664a1.587 1.587 0 0 0 -.082-.48l1.972-1.898a5.485 5.485 0 0 0 6.065.281c1.884-1.136 2.835-3.281 2.384-5.377-.452-2.096-2.21-3.7-4.408-4.022m-.817 7.683c-1.506 0-2.726-1.177-2.725-2.627 0-1.45 1.221-2.626 2.728-2.626 1.506 0 2.727 1.176 2.728 2.626 0 1.45-1.222 2.626-2.728 2.626"/></g></g></svg>