<svg xmlns="http://www.w3.org/2000/svg" xmlns:xlink="http://www.w3.org/1999/xlink" width="53" height="53" viewBox="0 0 53 53"><defs><path id="j7k1a" d="M1248.688 5553.662c-14.269 0-25.876 11.607-25.876 25.875 0 14.267 11.608 25.875 25.876 25.875 14.267 0 25.874-11.608 25.874-25.875 0-14.268-11.606-25.875-25.874-25.875zm0 46.244c-11.232 0-20.37-9.137-20.37-20.37 0-11.231 9.139-20.368 20.37-20.368 11.23 0 20.368 9.137 20.368 20.369s-9.138 20.369-20.369 20.369z"/><path id="j7k1b" d="M1262.172 5578.738h-11.628v-13.981a2.13 2.13 0 1 0-4.261 0v16.11a2.13 2.13 0 0 0 2.13 2.132h13.759a2.13 2.13 0 1 0 0-4.261z"/></defs><g><g transform="translate(-1222 -5553)"><use fill="#13c36e" xlink:href="#j7k1a"/></g><g transform="translate(-1222 -5553)"><use fill="#13c36e" xlink:href="#j7k1b"/></g></g></svg>