<svg xmlns="http://www.w3.org/2000/svg" xmlns:xlink="http://www.w3.org/1999/xlink" width="53" height="53" viewBox="0 0 53 53"><defs><path id="e9faa" d="M370.702 5550.662c-14.268 0-25.875 11.607-25.875 25.875 0 14.267 11.607 25.875 25.875 25.875s25.875-11.608 25.875-25.875c0-14.268-11.607-25.875-25.875-25.875zm0 46.244c-11.23 0-20.37-9.137-20.37-20.37 0-11.231 9.14-20.368 20.37-20.368 11.231 0 20.37 9.137 20.37 20.369s-9.139 20.369-20.37 20.369z"/><path id="e9fab" d="M384.187 5575.738h-11.628v-13.981a2.13 2.13 0 1 0-4.261 0v16.11a2.13 2.13 0 0 0 2.13 2.132h13.759a2.13 2.13 0 0 0 0-4.261z"/></defs><g><g transform="translate(-344 -5550)"><use fill="#ff0524" xlink:href="#e9faa"/></g><g transform="translate(-344 -5550)"><use fill="#ff0524" xlink:href="#e9fab"/></g></g></svg>