<svg xmlns="http://www.w3.org/2000/svg" xmlns:xlink="http://www.w3.org/1999/xlink" width="95" height="94" viewBox="0 0 95 94"><defs><path id="2wm3a" d="M668.196 4794.276c0 25.833-20.942 46.776-46.777 46.776-25.833 0-46.775-20.943-46.775-46.776 0-25.834 20.942-46.776 46.775-46.776 25.835 0 46.777 20.942 46.777 46.776z"/><path id="2wm3b" d="M600.127 4794.598a3.408 3.408 0 0 1-3.398-3.397v-11.78a3.408 3.408 0 0 1 3.398-3.398 3.408 3.408 0 0 1 3.398 3.398v11.78a3.408 3.408 0 0 1-3.398 3.397z"/><path id="2wm3c" d="M642.714 4794.598a3.408 3.408 0 0 1-3.398-3.397v-11.78a3.408 3.408 0 0 1 3.398-3.398 3.408 3.408 0 0 1 3.398 3.398v11.78a3.408 3.408 0 0 1-3.398 3.397z"/><path id="2wm3d" d="M604.658 4815.137a2.375 2.375 0 0 1-2.287-3.027c1.396-4.887 7.19-14.128 19.124-14.128 11.949 0 17.64 9.191 18.98 14.051a2.38 2.38 0 0 1-4.585 1.265c-.12-.422-3.135-10.559-14.395-10.559-11.277 0-14.424 10.25-14.553 10.686a2.385 2.385 0 0 1-2.284 1.712z"/></defs><g><g transform="translate(-574 -4747)"><use fill="#ffca1f" xlink:href="#2wm3a"/></g><g transform="translate(-574 -4747)"><use fill="#403408" xlink:href="#2wm3b"/></g><g transform="translate(-574 -4747)"><use fill="#403408" xlink:href="#2wm3c"/></g><g transform="translate(-574 -4747)"><use fill="#403408" xlink:href="#2wm3d"/></g></g></svg>