<?xml version="1.0" encoding="UTF-8"?>
<svg width="48px" height="48px" viewBox="0 0 48 48" version="1.1" xmlns="http://www.w3.org/2000/svg" xmlns:xlink="http://www.w3.org/1999/xlink">
    <!-- Generator: Sketch 43.2 (39069) - http://www.bohemiancoding.com/sketch -->
    <title>theicons.co/svg/text-01</title>
    <desc>Created with Sketch.</desc>
    <defs></defs>
    <g id="The-Icons" stroke="none" stroke-width="1" fill="none" fill-rule="evenodd">
        <path d="M16,12.0053227 C16,9.78571717 14.2123594,8 11.9966691,8 L10.0033309,8 C8.89876145,8 8.00333095,7.1045695 8.00333095,6 C8.00333095,4.8954305 8.89876145,4 10.0033309,4 L11.9966691,4 C14.3897376,4 16.5357162,5.04630171 18.0016655,6.70811 C19.4676148,5.04630171 21.6135934,4 24.0066619,4 L26,4 C27.1045695,4 28,4.8954305 28,6 C28,7.1045695 27.1045695,8 26,8 L24.0066619,8 C21.7909715,8 20.0033309,9.78571717 20.0033309,12.0053227 L20.0033309,14 L42.0027084,14 C43.1057821,14 44,14.8982124 44,15.9907951 L44,32.0092049 C44,33.1086907 43.1084602,34 42.0027084,34 L20.0033309,34 L20.0033309,35.9946773 C20.0033309,38.2107758 21.7899567,40 24.0066619,40 L26,40 C27.1045695,40 28,40.8954305 28,42 C28,43.1045695 27.1045695,44 26,44 L24.0066619,44 C21.6124298,44 19.4670806,42.9525441 18.0016655,41.2908365 C16.5362504,42.9525441 14.3909011,44 11.9966691,44 L10.0033309,44 C8.89876145,44 8.00333095,43.1045695 8.00333095,42 C8.00333095,40.8954305 8.89876145,40 10.0033309,40 L11.9966691,40 C14.2133742,40 16,38.2107758 16,35.9946773 L16,34 L5.99729162,34 C4.89421792,34 4,33.1017876 4,32.0092049 L4,15.9907951 C4,14.8913093 4.89153983,14 5.99729162,14 L16,14 L16,12.0053227 Z M16,18 L8,18 L8,30 L16,30 L16,18 Z M20.0033309,18 L20.0033309,30 L40,30 L40,18 L20.0033309,18 Z" id="Combined-Shape" fill="#2c3336"></path>
    </g>
</svg>