<?xml version="1.0" encoding="UTF-8"?>
<svg width="48px" height="48px" viewBox="0 0 48 48" version="1.1" xmlns="http://www.w3.org/2000/svg" xmlns:xlink="http://www.w3.org/1999/xlink">
    <!-- Generator: Sketch 43.2 (39069) - http://www.bohemiancoding.com/sketch -->
    <title>theicons.co/svg/phone-05</title>
    <desc>Created with Sketch.</desc>
    <defs></defs>
    <g id="The-Icons" stroke="none" stroke-width="1" fill="none" fill-rule="evenodd">
        <path d="M22,36.2091175 L17.5247087,33.0124808 L12.772561,42.1061793 C12.260981,43.0851378 11.0526608,43.4640228 10.0737023,42.9524427 C9.0947439,42.4408626 8.71585889,41.2325424 9.22743896,40.253584 L20.6584182,18.379289 C20.2422328,17.7482499 20,16.9923541 20,16.1798817 C20,13.9707427 21.790861,12.1798817 24,12.1798817 C26.209139,12.1798817 28,13.9707427 28,16.1798817 C28,16.97856 27.7659225,17.7225666 27.3626289,18.3470403 L38.7746891,40.3081675 C39.2840138,41.2883013 38.9023477,42.4957459 37.922214,43.0050706 C36.9420803,43.5143953 35.7346356,43.1327292 35.2253109,42.1525955 L30.4755651,33.0122852 L26,36.2091175 L26,41.1802667 C26,42.2846236 25.1122704,43.1798817 24,43.1798817 C22.8954305,43.1798817 22,42.2924484 22,41.1802667 L22,36.2091175 Z M19.3946366,29.4341912 L24,32.7299488 L28.6132735,29.4285305 L24.0183779,20.5862107 L19.3946366,29.4341912 Z M8.3789992,5.58769851 C9.15899178,4.80559535 10.4253206,4.80388439 11.2074237,5.58387697 C11.9895269,6.36386955 11.9912379,7.63019835 11.2112453,8.41230151 C9.16678115,10.4622978 8,13.2262263 8,16.1798817 C8,19.1592033 9.18731236,21.9451832 11.2634055,23.9994169 C12.0485767,24.776321 12.0552786,26.0426332 11.2783745,26.8278044 C10.5014705,27.6129756 9.23515825,27.6196775 8.44998702,26.8427734 C5.62212952,24.0446908 4,20.2384302 4,16.1798817 C4,12.1563592 5.59413183,8.38010145 8.3789992,5.58769851 Z M39.5588046,26.8340672 C38.7742711,27.6116152 37.5079538,27.6059522 36.7304058,26.8214186 C35.9528578,26.036885 35.9585208,24.7705677 36.7430544,23.9930198 C38.8152334,21.9392918 40,19.1560332 40,16.1798817 C40,13.2405788 38.8446203,10.4890001 36.8177811,8.44151476 C36.0407003,7.65651838 36.0471172,6.39020468 36.8321136,5.61312395 C37.61711,4.83604322 38.8834237,4.84246013 39.6605044,5.62745651 C42.4214169,8.41649271 44,12.1759455 44,16.1798817 C44,20.2341041 42.3813419,24.0366623 39.5588046,26.8340672 Z M12.6289264,9.82304115 C13.4091053,9.04112389 14.6754345,9.03971469 15.4573518,9.81989362 C16.239269,10.6000726 16.2406782,11.8664017 15.4604993,12.648319 C14.5299806,13.580911 14,14.8359261 14,16.1798817 C14,17.5463805 14.5481042,18.8207859 15.506542,19.7570009 C16.2966974,20.5288353 16.3115495,21.7950781 15.5397151,22.5852335 C14.7678807,23.3753888 13.5016379,23.3902409 12.7114825,22.6184065 C10.9902191,20.9370533 10,18.6346797 10,16.1798817 C10,13.7657234 10.957598,11.4980935 12.6289264,9.82304115 Z M35.3672161,22.540586 C34.5865653,23.3220321 33.3202355,23.3226768 32.5387893,22.542026 C31.7573432,21.7613752 31.7566985,20.4950454 32.5373493,19.7135993 C33.4691747,18.7808246 34,17.5248967 34,16.1798817 C34,14.8440666 33.4764871,13.5960705 32.5559914,12.6649233 C31.7794486,11.8793948 31.786733,10.6130858 32.5722616,9.83654298 C33.3577901,9.0600002 34.6240991,9.0672846 35.4006419,9.85281315 C37.0540459,11.5253495 38,13.780398 38,16.1798817 C38,18.5959497 37.0408814,20.8652156 35.3672161,22.540586 Z" id="Combined-Shape" fill="#2c3336"></path>
    </g>
</svg>