<?xml version="1.0" encoding="UTF-8"?>
<svg width="48px" height="48px" viewBox="0 0 48 48" version="1.1" xmlns="http://www.w3.org/2000/svg" xmlns:xlink="http://www.w3.org/1999/xlink">
    <!-- Generator: Sketch 43.2 (39069) - http://www.bohemiancoding.com/sketch -->
    <title>theicons.co/svg/text-07</title>
    <desc>Created with Sketch.</desc>
    <defs></defs>
    <g id="The-Icons" stroke="none" stroke-width="1" fill="none" fill-rule="evenodd">
        <path d="M2.58807941,22.5580467 L10.5880794,14.5839256 C11.3703923,13.8041434 12.6367206,13.8061949 13.4165028,14.5885078 C14.196285,15.3708207 14.1942335,16.637149 13.4119206,17.4169312 L6.82522902,24.0004284 L13.4164954,30.5885004 C14.1962817,31.3708092 14.1942369,32.6371375 13.411928,33.4169238 C12.6296192,34.1967101 11.3632909,34.1946652 10.5835046,33.4123564 L2.5835046,25.3864775 C1.8037154,24.6041658 1.80576362,23.3378318 2.58807941,22.5580467 Z M45.4119206,22.5580467 C46.1942364,23.3378318 46.1962846,24.6041658 45.4164954,25.3864775 L37.4164954,33.4123564 C36.6367091,34.1946652 35.3703808,34.1967101 34.588072,33.4169238 C33.8057632,32.6371375 33.8037183,31.3708092 34.5835046,30.5885004 L41.174771,24.0004284 L34.5880794,17.4169312 C33.8057665,16.637149 33.803715,15.3708207 34.5834972,14.5885078 C35.3632794,13.8061949 36.6296077,13.8041434 37.4119206,14.5839256 L45.4119206,22.5580467 Z M29.9523741,6.43428932 L21.9523741,42.4342893 C21.7127594,43.5125558 20.6444056,44.1924173 19.5661391,43.9528025 C18.4878726,43.7131878 17.8080111,42.6448339 18.0476259,41.5665675 L26.0476259,5.56656749 C26.2872407,4.48830104 27.3555945,3.80843952 28.4338609,4.04805429 C29.5121274,4.28766906 30.1919889,5.35602287 29.9523741,6.43428932 Z" id="Combined-Shape" fill="#2c3336" fill-rule="nonzero"></path>
    </g>
</svg>