<?xml version="1.0" encoding="UTF-8"?>
<svg width="48px" height="48px" viewBox="0 0 48 48" version="1.1" xmlns="http://www.w3.org/2000/svg" xmlns:xlink="http://www.w3.org/1999/xlink">
    <!-- Generator: Sketch 43.2 (39069) - http://www.bohemiancoding.com/sketch -->
    <title>theicons.co/svg/sports-07</title>
    <desc>Created with Sketch.</desc>
    <defs></defs>
    <g id="The-Icons" stroke="none" stroke-width="1" fill="none" fill-rule="evenodd">
        <path d="M28,24.3850688 C28,26.5942078 26.209139,28.3850688 24,28.3850688 C21.790861,28.3850688 20,26.5942078 20,24.3850688 C20,22.1759298 21.790861,20.3850688 24,20.3850688 C24.3588636,20.3850688 24.7066895,20.4323267 25.0375939,20.5209588 L28.0720555,17.4864972 L26.8677582,11.4650111 C26.7366141,10.8092905 26.9418592,10.1314121 27.414706,9.65856525 L34.4857739,2.58749744 C35.6152997,1.4579716 37.5478747,2.04310822 37.8611488,3.60947873 L39.0138741,9.37310565 L44.7775011,10.525831 C46.3438716,10.8391051 46.9290082,12.7716801 45.7994823,13.9012059 L38.7284145,20.9722738 C38.2555677,21.4451206 37.5776893,21.6503657 36.9219687,21.5192215 L30.9004826,20.3149243 L27.8649165,23.3504904 C27.9530287,23.6804923 28,24.0272952 28,24.3850688 Z M35.1349797,10.423573 L34.6452872,8.08483835 L31.0093341,11.7207915 L31.4770839,14.0814688 L35.1349797,10.423573 Z M34.3085251,16.9068818 L36.6711412,17.3726928 L40.3429357,13.7008983 L37.9759756,13.2394313 L34.3085251,16.9068818 Z M21.649502,12.6155633 C22.7328744,12.4002079 23.7857013,13.1038748 24.0010567,14.1872472 C24.2164121,15.2706196 23.5127453,16.3234466 22.4293729,16.538802 C18.7175417,17.2766488 16,20.5516426 16,24.3850688 C16,28.8033468 19.581722,32.3850688 24,32.3850688 C27.8090712,32.3850688 31.0694184,29.7014979 31.8330738,26.0206478 C32.0574575,24.9391092 33.1161167,24.2442478 34.1976553,24.4686315 C35.2791939,24.6930152 35.9740552,25.7516744 35.7496715,26.833213 C34.6027396,32.3614717 29.7143562,36.3850688 24,36.3850688 C17.372583,36.3850688 12,31.0124858 12,24.3850688 C12,18.6341275 16.0745451,13.7237668 21.649502,12.6155633 Z M24,4.38506882 C25.1045695,4.38506882 26,5.28049932 26,6.38506882 C26,7.48963832 25.1045695,8.38506882 24,8.38506882 C15.163444,8.38506882 8,15.5485128 8,24.3850688 C8,33.2216248 15.163444,40.3850688 24,40.3850688 C32.836556,40.3850688 40,33.2216248 40,24.3850688 C40,23.2804993 40.8954305,22.3850688 42,22.3850688 C43.1045695,22.3850688 44,23.2804993 44,24.3850688 C44,35.4307638 35.045695,44.3850688 24,44.3850688 C12.954305,44.3850688 4,35.4307638 4,24.3850688 C4,13.3393738 12.954305,4.38506882 24,4.38506882 Z" id="Combined-Shape" fill="#2c3336"></path>
    </g>
</svg>