<svg xmlns="http://www.w3.org/2000/svg" xmlns:xlink="http://www.w3.org/1999/xlink" width="60" height="60" viewBox="0 0 60 60"><defs><path id="mfqka" d="M568.318 1780c-16.393 0-29.682 13.289-29.682 29.682 0 16.392 13.29 29.681 29.682 29.681 16.393 0 29.682-13.289 29.682-29.681 0-16.393-13.289-29.682-29.682-29.682z"/><path id="mfqkb" d="M568.318 1780c16.393 0 29.682 13.289 29.682 29.682 0 16.392-13.289 29.681-29.682 29.681s-29.682-13.289-29.682-29.681c0-16.393 13.29-29.682 29.682-29.682z"/><path id="mfqkc" d="M578.872 1821.555a22.282 22.282 0 0 1-15.859-6.568 22.282 22.282 0 0 1-6.568-15.86 1.32 1.32 0 0 1 1.32-1.318h4.616a1.32 1.32 0 0 1 1.32 1.319c-.004 1.6.25 3.19.751 4.71.154.47.026.987-.329 1.332l-2.902 2.916a19.982 19.982 0 0 0 8.694 8.68l2.902-2.902a1.344 1.344 0 0 1 1.345-.317c1.52.5 3.11.756 4.71.754.727 0 1.317.59 1.32 1.317v4.617a1.321 1.321 0 0 1-1.32 1.32zm-10.554-10.884v-12.862h11.873v9.004h-7.915z"/></defs><g><g transform="translate(-538 -1780)"><use fill="#fff" xlink:href="#mfqka"/></g><g transform="translate(-538 -1780)"><use fill="#b4cc48" xlink:href="#mfqkb"/></g><g transform="translate(-538 -1780)"><use fill="#fff" xlink:href="#mfqkc"/></g></g></svg>