<svg xmlns="http://www.w3.org/2000/svg" width="29.33" height="36.67" viewBox="0 0 44 55"><g><g><path fill="#ffc107" d="M26.35 53.392l15.718-15.717a5.89 5.89 0 0 0 0-8.334 5.89 5.89 0 0 0-8.334 0L22.18 40.889 10.633 29.34a5.89 5.89 0 0 0-8.334 0 5.85 5.85 0 0 0-1.73 4.165c0 1.509.575 3.018 1.726 4.169l15.717 15.717a5.902 5.902 0 0 0 8.338 0z"/></g><g><path fill="#ffc107" d="M26.35 25.887L42.068 10.17a5.89 5.89 0 0 0 0-8.334 5.89 5.89 0 0 0-8.334 0L22.18 13.384 10.633 1.836a5.89 5.89 0 0 0-8.334 0A5.848 5.848 0 0 0 .569 6c0 1.509.575 3.018 1.726 4.169l15.717 15.717a5.902 5.902 0 0 0 8.338 0z"/></g></g></svg>