<svg xmlns="http://www.w3.org/2000/svg" width="272" height="156" viewBox="0 0 272 156"><g><g><g><g><path fill="#fff" d="M253.638 122.523l-.003-.1c-.072-3.445 2.667-6.403 6.109-6.582a6.454 6.454 0 0 1 6.786 6.837c-.17 2.814.799 5.575 2.489 7.832a11.107 11.107 0 0 1 2.202 7.32c-.322 5.73-5.059 10.333-10.795 10.503-6.313.186-11.49-4.876-11.49-11.147 0-2.507.827-4.82 2.224-6.682a12.51 12.51 0 0 0 2.478-7.981z"/></g><g><path fill="#424242" d="M259.769 116.333a5.908 5.908 0 0 1 4.423 1.629 5.91 5.91 0 0 1 1.847 4.687c-.169 2.807.75 5.704 2.586 8.156 1.499 2 2.246 4.485 2.105 6.998-.308 5.467-4.84 9.876-10.319 10.038a10.599 10.599 0 0 1-7.748-3.006 10.577 10.577 0 0 1-3.235-7.649c0-2.324.735-4.533 2.125-6.386 1.77-2.36 2.685-5.305 2.576-8.295v-.001l-.002-.09c-.067-3.189 2.464-5.917 5.642-6.081zm-7.791 29.207a11.549 11.549 0 0 0 8.462 3.284c5.985-.177 10.936-4.994 11.272-10.966a11.674 11.674 0 0 0-2.299-7.643c-1.698-2.266-2.547-4.932-2.393-7.508a6.881 6.881 0 0 0-2.151-5.458 6.898 6.898 0 0 0-5.151-1.899c-3.703.192-6.652 3.37-6.574 7.083l.003.108c.1 2.765-.746 5.489-2.381 7.669a11.538 11.538 0 0 0-2.322 6.976 11.55 11.55 0 0 0 3.534 8.354z"/></g><g><g><path fill="#5e35b1" d="M260.087 132.105v23.403"/></g><g><path fill="#424242" d="M260.087 156c.272 0 .492-.22.492-.492v-23.403a.492.492 0 1 0-.983 0v23.403c0 .272.22.492.491.492z"/></g></g><g><g><path fill="#5e35b1" d="M264.39 139.104l-4.303 2.835"/></g><g><path fill="#424242" d="M260.088 142.43a.487.487 0 0 0 .27-.08l4.303-2.836a.491.491 0 0 0-.542-.82l-4.302 2.835a.49.49 0 0 0 .271.902z"/></g></g><g><g><path fill="#ffc107" d="M265.496 155.508H254.68"/></g><g><path fill="#424242" d="M254.679 156h10.818a.491.491 0 0 0 0-.983h-10.818a.491.491 0 1 0 0 .983z"/></g></g><g><path fill="#f8f9f9" d="M256.311 121.76v34.11h-72.673v-34.11z"/></g><g><path fill="#424242" d="M255.819 154.438H184.13v-33.126h71.689zm-72.181.983h72.673c.272 0 .492-.22.492-.491v-34.11a.492.492 0 0 0-.492-.492h-72.673a.492.492 0 0 0-.492.492v34.11c0 .27.22.49.492.49z"/></g><g><path fill="#eceff1" d="M228.542 120.82v34.11h-17.926v-34.11z"/></g><g><path fill="#424242" d="M228.05 154.438h-16.943v-33.126h16.943zm-17.434.983h17.926c.272 0 .492-.22.492-.491v-34.11a.492.492 0 0 0-.492-.492h-17.926a.492.492 0 0 0-.492.492v34.11c0 .27.22.49.492.49z"/></g><g><path fill="#337d3e" d="M214.82 141.139c0 .36-.36.72-.72.72h-.711c-.36 0-.72-.36-.72-.72v-4.748c0-.36.36-.72.72-.72h.711c.36 0 .72.36.72.72z"/></g><g><path fill="#424242" d="M213.744 136.162c.323 0 .585.262.585.585v4.036a.585.585 0 0 1-1.169 0v-4.036c0-.323.262-.585.584-.585zm0 6.19a1.57 1.57 0 0 0 1.568-1.569v-4.036a1.57 1.57 0 0 0-1.568-1.568 1.57 1.57 0 0 0-1.567 1.568v4.036a1.57 1.57 0 0 0 1.567 1.568z"/></g><g><g><path fill="#5e35b1" d="M260.087 155.508h-80.442"/></g><g><path fill="#424242" d="M179.645 156h80.442a.492.492 0 1 0 0-.983h-80.442a.491.491 0 1 0 0 .983z"/></g></g><g><path fill="#9bbd37" d="M255.726 89.967v10.239h-72.032V89.967z"/></g><g><path fill="#424242" d="M255.234 99.714h-71.048V90.46h71.048zm-71.54.983h72.032c.271 0 .491-.22.491-.491V89.967a.492.492 0 0 0-.491-.492h-72.032a.492.492 0 0 0-.492.492v10.239c0 .271.22.491.492.491z"/></g><g><path fill="#424242" d="M207.107 141.367H184.13v-20.055h22.977zm-23.469.984h23.96c.272 0 .492-.22.492-.492V120.82a.492.492 0 0 0-.492-.492h-23.96a.492.492 0 0 0-.492.492v21.039c0 .272.22.492.492.492z"/></g><g><g><path fill="#424242" d="M207.107 141.367H184.13v-20.055h22.977zm-23.469.984h23.96c.272 0 .492-.22.492-.492V120.82a.492.492 0 0 0-.492-.492h-23.96a.492.492 0 0 0-.492.492v21.039c0 .272.22.492.492.492z"/></g></g><g><g><path fill="#eceff1" d="M195.618 120.82v21.04"/></g><g><path fill="#424242" d="M195.618 142.351c.272 0 .492-.22.492-.492V120.82a.492.492 0 1 0-.984 0v21.039c0 .272.221.492.492.492z"/></g></g><g><g><path fill="#424242" d="M255.819 141.367h-22.976v-20.055h22.976zm-23.468.984h23.96c.272 0 .492-.22.492-.492V120.82a.492.492 0 0 0-.492-.492h-23.96a.492.492 0 0 0-.492.492v21.039c0 .272.22.492.492.492z"/></g></g><g><g><path fill="#eceff1" d="M244.331 120.82v21.04"/></g><g><path fill="#424242" d="M244.331 142.351c.272 0 .492-.22.492-.492V120.82a.492.492 0 1 0-.984 0v21.039c0 .272.22.492.492.492z"/></g></g><g><path fill="#337d3e" d="M261.728 122.86c0 2.413-2.412 4.826-4.825 4.826h-2.355c-2.412 0-4.825-2.413-4.825-4.825v-15.517c0-.77.77-1.54 1.54-1.54h8.925c.77 0 1.54.77 1.54 1.54z"/></g><g><path fill="#424242" d="M261.237 106.295v15.388a5.518 5.518 0 0 1-5.511 5.511 5.517 5.517 0 0 1-5.511-5.51v-15.39zm-12.006 15.388a6.503 6.503 0 0 0 6.495 6.495 6.502 6.502 0 0 0 6.494-6.495v-15.879a.492.492 0 0 0-.492-.492h-12.005a.492.492 0 0 0-.492.492v15.88z"/></g><g><path fill="#9bbd37" d="M249.723 122.86c0 2.413-2.413 4.826-4.825 4.826h-2.355c-2.413 0-4.825-2.413-4.825-4.825v-15.55c0-.754.753-1.507 1.506-1.507h8.992c.754 0 1.507.753 1.507 1.507z"/></g><g><path fill="#424242" d="M249.231 106.295v15.388a5.517 5.517 0 0 1-5.51 5.511 5.517 5.517 0 0 1-5.511-5.51v-15.39zm-12.005 15.388a6.503 6.503 0 0 0 6.495 6.495 6.503 6.503 0 0 0 6.494-6.495v-15.879a.492.492 0 0 0-.492-.492h-12.005a.492.492 0 0 0-.492.492v15.88z"/></g><g><path fill="#337d3e" d="M237.718 122.86c0 2.413-2.413 4.826-4.825 4.826h-2.355c-2.413 0-4.825-2.413-4.825-4.825v-15.41c0-.823.823-1.647 1.647-1.647h8.71c.824 0 1.648.824 1.648 1.648z"/></g><g><path fill="#424242" d="M237.226 106.295v15.388a5.517 5.517 0 0 1-5.511 5.511 5.517 5.517 0 0 1-5.511-5.51v-15.39zm-12.005 15.388a6.502 6.502 0 0 0 6.494 6.495 6.503 6.503 0 0 0 6.495-6.495v-15.879a.492.492 0 0 0-.492-.492h-12.006a.491.491 0 0 0-.491.492v15.88z"/></g><g><path fill="#9bbd37" d="M225.713 122.86c0 2.413-2.413 4.826-4.826 4.826h-2.354c-2.413 0-4.826-2.413-4.826-4.825v-15.416c0-.82.82-1.64 1.642-1.64h8.722c.82-.001 1.642.82 1.642 1.64z"/></g><g><path fill="#424242" d="M225.221 106.295v15.388a5.517 5.517 0 0 1-5.511 5.511 5.517 5.517 0 0 1-5.511-5.51v-15.39zm-12.006 15.388a6.503 6.503 0 0 0 6.495 6.495 6.502 6.502 0 0 0 6.494-6.495v-15.879a.492.492 0 0 0-.492-.492h-12.005a.492.492 0 0 0-.492.492v15.88z"/></g><g><path fill="#337d3e" d="M213.707 122.86c0 2.413-2.412 4.826-4.825 4.826h-2.355c-2.412 0-4.825-2.413-4.825-4.825v-15.43c0-.814.813-1.627 1.627-1.627h8.752c.813 0 1.626.813 1.626 1.627z"/></g><g><path fill="#424242" d="M213.215 106.295v15.388a5.517 5.517 0 0 1-5.51 5.511 5.517 5.517 0 0 1-5.511-5.51v-15.39zm-12.005 15.388a6.503 6.503 0 0 0 6.495 6.495 6.502 6.502 0 0 0 6.494-6.495v-15.879a.492.492 0 0 0-.492-.492h-12.005a.492.492 0 0 0-.492.492v15.88z"/></g><g><path fill="#9bbd37" d="M201.702 122.86c0 2.413-2.413 4.826-4.825 4.826h-2.355c-2.413 0-4.825-2.413-4.825-4.825v-15.542c0-.757.757-1.515 1.515-1.515h8.975c.757 0 1.515.758 1.515 1.515z"/></g><g><path fill="#424242" d="M201.21 106.295v15.388a5.517 5.517 0 0 1-5.511 5.511 5.518 5.518 0 0 1-5.511-5.51v-15.39zm-12.005 15.388a6.502 6.502 0 0 0 6.494 6.495 6.503 6.503 0 0 0 6.495-6.495v-15.879a.492.492 0 0 0-.492-.492h-12.005a.492.492 0 0 0-.492.492v15.88z"/></g><g><path fill="#337d3e" d="M189.697 122.86c0 2.413-2.413 4.826-4.826 4.826h-2.354c-2.413 0-4.825-2.413-4.825-4.825v-15.77c0-.644.643-1.287 1.286-1.287h9.432c.644 0 1.287.643 1.287 1.286z"/></g><g><path fill="#424242" d="M189.205 106.295v15.388a5.517 5.517 0 0 1-5.511 5.511 5.517 5.517 0 0 1-5.511-5.51v-15.39zm-5.511 21.883a6.502 6.502 0 0 0 6.494-6.495v-15.879a.491.491 0 0 0-.491-.492h-12.006a.491.491 0 0 0-.491.492v15.88a6.502 6.502 0 0 0 6.494 6.494z"/></g><g><path fill="#337d3e" d="M177.691 105.804h84.037l-6.002-5.598h-72.032z"/></g><g><path fill="#424242" d="M260.48 105.312h-81.54l4.948-4.615h71.644zm-83.246.672a.49.49 0 0 0 .457.31h84.037a.491.491 0 0 0 .336-.85l-6.003-5.598a.491.491 0 0 0-.335-.132h-72.032a.491.491 0 0 0-.335.132l-6.003 5.598a.491.491 0 0 0-.122.54z"/></g></g><g><g><path fill="#fff" d="M18.643 122.523l.003-.1c.072-3.445-2.667-6.403-6.109-6.582a6.454 6.454 0 0 0-6.786 6.837c.17 2.814-.799 5.575-2.489 7.832a11.106 11.106 0 0 0-2.202 7.32c.322 5.73 5.059 10.333 10.795 10.503 6.313.186 11.49-4.876 11.49-11.147 0-2.507-.827-4.82-2.224-6.682a12.51 12.51 0 0 1-2.478-7.981z"/></g><g><path fill="#424242" d="M12.191 116.324c.106 0 .213.003.321.009 3.178.164 5.709 2.892 5.642 6.081l-.002.09c-.109 2.991.806 5.937 2.576 8.296a10.563 10.563 0 0 1 2.125 6.386c0 2.907-1.149 5.623-3.235 7.649a10.6 10.6 0 0 1-7.748 3.006c-5.479-.162-10.011-4.571-10.319-10.038a10.682 10.682 0 0 1 2.105-6.998c1.836-2.452 2.755-5.349 2.586-8.156a5.91 5.91 0 0 1 1.847-4.687 5.91 5.91 0 0 1 4.102-1.638zm.006 32.505c3.047 0 5.914-1.16 8.106-3.289a11.55 11.55 0 0 0 3.534-8.354c0-2.539-.803-4.95-2.322-6.976-1.635-2.18-2.481-4.904-2.381-7.669l.003-.108c.078-3.713-2.871-6.891-6.574-7.083a6.898 6.898 0 0 0-5.151 1.899 6.881 6.881 0 0 0-2.151 5.458c.154 2.576-.695 5.242-2.393 7.508a11.675 11.675 0 0 0-2.299 7.643c.336 5.972 5.287 10.789 11.272 10.966.119.003.237.005.356.005z"/></g><g><g><path fill="#5e35b1" d="M12.194 132.105v23.403"/></g><g><path fill="#424242" d="M12.194 156a.492.492 0 0 1-.492-.492v-23.403a.492.492 0 1 1 .983 0v23.403c0 .272-.22.492-.491.492z"/></g></g><g><g><path fill="#5e35b1" d="M7.891 139.104l4.303 2.835"/></g><g><path fill="#424242" d="M12.193 142.43a.487.487 0 0 1-.27-.08l-4.303-2.836a.491.491 0 0 1 .542-.82l4.302 2.835a.49.49 0 0 1-.271.902z"/></g></g><g><g><path fill="#ffc107" d="M6.785 155.508h10.817"/></g><g><path fill="#424242" d="M17.603 156H6.784a.491.491 0 0 1 0-.983h10.819a.491.491 0 0 1 0 .983z"/></g></g><g><path fill="#f8f9f9" d="M15.97 155.87v-34.109h72.673v34.11z"/></g><g><path fill="#424242" d="M16.462 121.312h71.689v33.126H16.462zm72.673 33.618v-34.11a.492.492 0 0 0-.492-.492H15.97a.492.492 0 0 0-.492.492v34.11c0 .27.22.49.492.49h72.673c.272 0 .492-.22.492-.49z"/></g><g><path fill="#eceff1" d="M43.74 154.93v-34.11h17.925v34.11z"/></g><g><path fill="#424242" d="M44.231 121.312h16.943v33.126H44.231zm17.926 33.618v-34.11a.492.492 0 0 0-.492-.492H43.739a.492.492 0 0 0-.492.492v34.11c0 .27.22.49.492.49h17.926c.272 0 .492-.22.492-.49z"/></g><g><path fill="#337d3e" d="M57.46 136.39c0-.36.36-.72.72-.72h.712c.36 0 .72.36.72.72v4.749c0 .36-.36.72-.72.72h-.711c-.36 0-.72-.36-.72-.72z"/></g><g><path fill="#424242" d="M59.121 136.747v4.036a.585.585 0 0 1-1.169 0v-4.036a.585.585 0 0 1 1.169 0zm.983 4.036v-4.036a1.57 1.57 0 0 0-1.567-1.568 1.57 1.57 0 0 0-1.568 1.568v4.036a1.57 1.57 0 0 0 1.568 1.568 1.57 1.57 0 0 0 1.567-1.568z"/></g><g><g><path fill="#5e35b1" d="M12.194 155.508h80.443"/></g><g><path fill="#424242" d="M92.637 156H12.194a.492.492 0 1 1 0-.983h80.443a.491.491 0 0 1 0 .983z"/></g></g><g><path fill="#9bbd37" d="M16.555 100.206V89.967h72.032v10.239z"/></g><g><path fill="#424242" d="M17.047 90.459h71.048v9.255H17.047zm72.032 9.747V89.967a.492.492 0 0 0-.492-.492H16.555a.492.492 0 0 0-.491.492v10.239c0 .271.22.491.491.491h72.032c.272 0 .492-.22.492-.49z"/></g><g><path fill="#424242" d="M65.174 121.312h22.977v20.055H65.174zm23.961 20.547V120.82a.492.492 0 0 0-.492-.492h-23.96a.492.492 0 0 0-.492.492v21.039c0 .272.22.492.492.492h23.96c.272 0 .492-.22.492-.492z"/></g><g><g><path fill="#424242" d="M65.174 121.312h22.977v20.055H65.174zm23.961 20.547V120.82a.492.492 0 0 0-.492-.492h-23.96a.492.492 0 0 0-.492.492v21.039c0 .272.22.492.492.492h23.96c.272 0 .492-.22.492-.492z"/></g></g><g><g><path fill="#eceff1" d="M76.663 120.82v21.04"/></g><g><path fill="#424242" d="M76.663 142.351a.492.492 0 0 1-.492-.492V120.82a.492.492 0 1 1 .984 0v21.039a.492.492 0 0 1-.492.492z"/></g></g><g><g><path fill="#424242" d="M16.462 121.312h22.976v20.055H16.462zm23.96 20.547V120.82a.492.492 0 0 0-.492-.492H15.97a.492.492 0 0 0-.492.492v21.039c0 .272.22.492.492.492h23.96c.272 0 .492-.22.492-.492z"/></g></g><g><g><path fill="#eceff1" d="M27.95 120.82v21.04"/></g><g><path fill="#424242" d="M27.95 142.351a.492.492 0 0 1-.492-.492V120.82a.492.492 0 1 1 .984 0v21.039c0 .272-.22.492-.492.492z"/></g></g><g><path fill="#337d3e" d="M10.553 107.344c0-.77.77-1.54 1.54-1.54h8.925c.77 0 1.54.77 1.54 1.54v15.516c0 2.413-2.413 4.826-4.825 4.826h-2.355c-2.413 0-4.825-2.413-4.825-4.826z"/></g><g><path fill="#424242" d="M22.066 106.295v15.388a5.517 5.517 0 0 1-5.511 5.511 5.518 5.518 0 0 1-5.511-5.51v-15.39zm-5.511 21.883a6.503 6.503 0 0 0 6.495-6.495v-15.879a.492.492 0 0 0-.492-.492H10.553a.492.492 0 0 0-.492.492v15.88a6.502 6.502 0 0 0 6.494 6.494z"/></g><g><path fill="#9bbd37" d="M22.558 107.31c0-.753.753-1.506 1.507-1.506h8.992c.753 0 1.506.753 1.506 1.506v15.55c0 2.413-2.412 4.826-4.825 4.826h-2.355c-2.412 0-4.825-2.413-4.825-4.826z"/></g><g><path fill="#424242" d="M34.071 106.295v15.388a5.517 5.517 0 0 1-5.51 5.511 5.517 5.517 0 0 1-5.511-5.51v-15.39zm-5.51 21.883a6.503 6.503 0 0 0 6.494-6.495v-15.879a.492.492 0 0 0-.492-.492H22.558a.492.492 0 0 0-.492.492v15.88a6.503 6.503 0 0 0 6.495 6.494z"/></g><g><path fill="#337d3e" d="M34.563 107.451c0-.823.824-1.647 1.648-1.647h8.71c.824 0 1.647.824 1.647 1.647v15.41c0 2.412-2.412 4.825-4.825 4.825h-2.355c-2.412 0-4.825-2.413-4.825-4.826z"/></g><g><path fill="#424242" d="M46.077 106.295v15.388a5.517 5.517 0 0 1-5.511 5.511 5.517 5.517 0 0 1-5.511-5.51v-15.39zm-5.511 21.883a6.502 6.502 0 0 0 6.494-6.495v-15.879a.491.491 0 0 0-.491-.492H34.563a.492.492 0 0 0-.492.492v15.88a6.503 6.503 0 0 0 6.495 6.494z"/></g><g><path fill="#9bbd37" d="M46.568 107.445c0-.82.821-1.641 1.642-1.641h8.722c.821 0 1.642.82 1.642 1.641v15.415c0 2.413-2.413 4.826-4.826 4.826h-2.354c-2.413 0-4.826-2.413-4.826-4.826z"/></g><g><path fill="#424242" d="M58.082 106.295v15.388a5.517 5.517 0 0 1-5.511 5.511 5.517 5.517 0 0 1-5.511-5.51v-15.39zm-5.511 21.883a6.503 6.503 0 0 0 6.495-6.495v-15.879a.492.492 0 0 0-.492-.492H46.569a.492.492 0 0 0-.492.492v15.88a6.502 6.502 0 0 0 6.494 6.494z"/></g><g><path fill="#337d3e" d="M58.574 107.43c0-.813.813-1.626 1.626-1.626h8.752c.814 0 1.627.813 1.627 1.626v15.43c0 2.413-2.413 4.826-4.825 4.826h-2.355c-2.413 0-4.825-2.413-4.825-4.826z"/></g><g><path fill="#424242" d="M70.087 106.295v15.388a5.517 5.517 0 0 1-5.511 5.511 5.517 5.517 0 0 1-5.51-5.51v-15.39zm-5.511 21.883a6.503 6.503 0 0 0 6.495-6.495v-15.879a.492.492 0 0 0-.492-.492H58.574a.492.492 0 0 0-.492.492v15.88a6.503 6.503 0 0 0 6.494 6.494z"/></g><g><path fill="#9bbd37" d="M70.579 107.32c0-.759.758-1.516 1.515-1.516h8.975c.758 0 1.515.757 1.515 1.515v15.541c0 2.413-2.412 4.826-4.825 4.826h-2.355c-2.412 0-4.825-2.413-4.825-4.826z"/></g><g><path fill="#424242" d="M82.093 106.295v15.388a5.518 5.518 0 0 1-5.511 5.511 5.517 5.517 0 0 1-5.511-5.51v-15.39zm-5.511 21.883a6.502 6.502 0 0 0 6.494-6.495v-15.879a.492.492 0 0 0-.492-.492H70.579a.492.492 0 0 0-.492.492v15.88a6.503 6.503 0 0 0 6.495 6.494z"/></g><g><path fill="#337d3e" d="M82.584 107.09c0-.643.644-1.286 1.287-1.286h9.432c.643 0 1.287.643 1.287 1.286v15.77c0 2.413-2.413 4.826-4.826 4.826H87.41c-2.413 0-4.826-2.413-4.826-4.826z"/></g><g><path fill="#424242" d="M94.098 106.295v15.388a5.517 5.517 0 0 1-5.511 5.511 5.517 5.517 0 0 1-5.511-5.51v-15.39zm.983 15.388v-15.879a.491.491 0 0 0-.491-.492H82.584a.491.491 0 0 0-.491.492v15.88a6.502 6.502 0 0 0 6.494 6.494 6.502 6.502 0 0 0 6.494-6.495z"/></g><g><path fill="#337d3e" d="M94.59 105.804H10.553l6.002-5.598h72.032z"/></g><g><path fill="#424242" d="M16.749 100.697h71.644l4.948 4.615h-81.54z"/></g></g><g><path fill="#f8f9f9" d="M87.984 155.35V59.273h96.077v96.077z"/></g><g><path fill="#424242" d="M88.635 59.923h94.776V154.7H88.635zm96.076 95.427V59.273a.65.65 0 0 0-.65-.65H87.984a.65.65 0 0 0-.65.65v96.077c0 .359.291.65.65.65h96.077a.65.65 0 0 0 .65-.65z"/></g><g><path fill="#424242" d="M125.347 114.498h22.398V154.7h-22.398zm23.699 40.852v-41.502a.65.65 0 0 0-.65-.65h-23.699a.65.65 0 0 0-.65.65v41.502c0 .359.291.65.65.65h23.699a.65.65 0 0 0 .65-.65z"/></g><g><path fill="#9bbd37" d="M142.836 132.55c0-.36.36-.72.721-.72h1.405c.36 0 .72.36.72.72v6.74c0 .36-.36.72-.72.72h-1.405c-.36 0-.72-.36-.72-.72z"/></g><g><path fill="#424242" d="M145.032 133.252v5.336a.773.773 0 0 1-1.546 0v-5.336a.774.774 0 0 1 1.546 0zm1.3 5.336v-5.336c0-1.143-.93-2.073-2.073-2.073-1.143 0-2.073.93-2.073 2.073v5.336c0 1.143.93 2.073 2.073 2.073 1.143 0 2.073-.93 2.073-2.073z"/></g><g><g><path fill="#5e35b1" d="M82.992 155.35H189.34"/></g><g><path fill="#424242" d="M189.34 156H82.992a.65.65 0 1 1 0-1.3H189.34a.65.65 0 1 1 0 1.3z"/></g></g><g><path fill="#9bbd37" d="M88.759 51.8V38.263h95.228v13.535z"/></g><g><path fill="#424242" d="M89.409 38.914h93.928V51.15H89.409zM184.637 51.8V38.264a.65.65 0 0 0-.65-.65H88.759a.65.65 0 0 0-.651.65v13.535c0 .359.291.65.651.65h95.228a.65.65 0 0 0 .65-.65z"/></g><g><g><path fill="#424242" d="M153.034 79.702h30.377v26.515h-30.377zm31.677 27.165V79.052a.65.65 0 0 0-.65-.65h-31.677a.65.65 0 0 0-.65.65v27.815c0 .36.291.65.65.65h31.677a.65.65 0 0 0 .65-.65z"/></g></g><g><g><path fill="#eceff1" d="M168.223 79.052v27.814"/></g><g><path fill="#424242" d="M168.223 107.517a.65.65 0 0 1-.65-.65V79.052a.65.65 0 0 1 1.3 0v27.815a.65.65 0 0 1-.65.65z"/></g></g><g><g><path fill="#424242" d="M153.034 114.498h30.377v26.514h-30.377zm31.677 27.164v-27.814a.65.65 0 0 0-.65-.65h-31.677a.65.65 0 0 0-.65.65v27.814c0 .359.291.65.65.65h31.677a.65.65 0 0 0 .65-.65z"/></g></g><g><g><path fill="#eceff1" d="M168.223 113.848v27.814"/></g><g><path fill="#424242" d="M168.223 142.312a.65.65 0 0 1-.65-.65v-27.814a.65.65 0 0 1 1.3 0v27.814a.65.65 0 0 1-.65.65z"/></g></g><g><g><path fill="#424242" d="M88.635 79.702h30.376v26.515H88.635zm31.676 27.165V79.052a.65.65 0 0 0-.65-.65H87.984a.65.65 0 0 0-.65.65v27.815c0 .36.291.65.65.65h31.677a.65.65 0 0 0 .65-.65z"/></g></g><g><g><path fill="#eceff1" d="M103.823 79.052v27.814"/></g><g><path fill="#424242" d="M103.823 107.517a.65.65 0 0 1-.65-.65V79.052a.65.65 0 0 1 1.3 0v27.815a.65.65 0 0 1-.65.65z"/></g></g><g><g><path fill="#424242" d="M88.635 114.498h30.376v26.514H88.635zm31.676 27.164v-27.814a.65.65 0 0 0-.65-.65H87.984a.65.65 0 0 0-.65.65v27.814c0 .359.291.65.65.65h31.677a.65.65 0 0 0 .65-.65z"/></g></g><g><g><path fill="#eceff1" d="M103.823 113.848v27.814"/></g><g><path fill="#424242" d="M103.823 142.312a.65.65 0 0 1-.65-.65v-27.814a.65.65 0 0 1 1.3 0v27.814a.65.65 0 0 1-.65.65z"/></g></g><g><path fill="#337d3e" d="M80.823 60.974c0-.887.887-1.774 1.774-1.774H94.92c.887 0 1.774.887 1.774 1.774v21.363c0 2.896-2.896 5.792-5.792 5.792h-4.287c-2.896 0-5.792-2.896-5.792-5.792z"/></g><g><path fill="#424242" d="M96.044 59.85v20.343c0 4.018-3.268 7.286-7.285 7.286-4.018 0-7.286-3.268-7.286-7.286V59.85zM88.759 88.78c4.734 0 8.585-3.851 8.585-8.586V59.2a.65.65 0 0 0-.65-.65H80.823a.65.65 0 0 0-.65.65v20.993c0 4.735 3.851 8.586 8.586 8.586z"/></g><g><path fill="#9bbd37" d="M96.694 61.026c0-.913.913-1.826 1.826-1.826h12.22c.913 0 1.826.913 1.826 1.826v21.259c0 2.922-2.922 5.844-5.845 5.844h-4.183c-2.922 0-5.844-2.922-5.844-5.844z"/></g><g><path fill="#424242" d="M111.916 59.85v20.343c0 4.018-3.269 7.286-7.286 7.286-4.017 0-7.286-3.268-7.286-7.286V59.85zM104.63 88.78c4.734 0 8.586-3.851 8.586-8.586V59.2a.65.65 0 0 0-.65-.65H96.694a.65.65 0 0 0-.65.65v20.993c0 4.735 3.852 8.586 8.586 8.586z"/></g><g><path fill="#337d3e" d="M112.566 61.11c0-.955.954-1.91 1.909-1.91h12.053c.954 0 1.909.955 1.909 1.91V82.2c0 2.964-2.964 5.928-5.928 5.928h-4.016c-2.964 0-5.927-2.964-5.927-5.928z"/></g><g><path fill="#424242" d="M127.787 59.85v20.343c0 4.018-3.269 7.286-7.286 7.286-4.017 0-7.285-3.268-7.285-7.286V59.85zm-7.286 28.929c4.734 0 8.586-3.851 8.586-8.586V59.2a.65.65 0 0 0-.65-.65h-15.871a.65.65 0 0 0-.65.65v20.993c0 4.735 3.851 8.586 8.585 8.586z"/></g><g><path fill="#9bbd37" d="M128.437 61.153c0-.976.976-1.953 1.953-1.953h11.966c.976 0 1.952.977 1.952 1.953v21.005c0 2.985-2.985 5.971-5.971 5.971h-3.929c-2.985 0-5.971-2.986-5.971-5.971z"/></g><g><path fill="#424242" d="M143.658 59.85v20.343c0 4.018-3.268 7.286-7.285 7.286-4.018 0-7.286-3.268-7.286-7.286V59.85zm-7.285 28.929c4.734 0 8.585-3.851 8.585-8.586V59.2a.65.65 0 0 0-.65-.65h-15.871a.65.65 0 0 0-.65.65v20.993c0 4.735 3.851 8.586 8.586 8.586z"/></g><g><path fill="#337d3e" d="M144.308 61.181c0-.99.99-1.98 1.981-1.98h11.91c.99 0 1.98.99 1.98 1.98V82.13c0 3-2.999 6-5.999 6h-3.872c-3 0-6-3-6-6z"/></g><g><path fill="#424242" d="M159.53 59.85v20.343c0 4.018-3.269 7.286-7.286 7.286-4.017 0-7.286-3.268-7.286-7.286V59.85zm-7.286 28.929c4.734 0 8.586-3.851 8.586-8.586V59.2a.65.65 0 0 0-.65-.65h-15.872a.65.65 0 0 0-.65.65v20.993c0 4.735 3.852 8.586 8.586 8.586z"/></g><g><path fill="#9bbd37" d="M160.18 61.057c0-.928.928-1.857 1.856-1.857h12.158c.929 0 1.857.929 1.857 1.857v21.197c0 2.937-2.938 5.875-5.875 5.875h-4.12c-2.939 0-5.876-2.938-5.876-5.875z"/></g><g><path fill="#424242" d="M175.401 59.85v20.343c0 4.018-3.268 7.286-7.286 7.286-4.017 0-7.285-3.268-7.285-7.286V59.85zm-7.286 28.929c4.735 0 8.586-3.851 8.586-8.586V59.2a.65.65 0 0 0-.65-.65H160.18a.65.65 0 0 0-.65.65v20.993c0 4.735 3.851 8.586 8.585 8.586z"/></g><g><path fill="#337d3e" d="M176.051 61.3c0-1.05 1.05-2.1 2.1-2.1h11.672c1.05 0 2.1 1.05 2.1 2.1v20.71c0 3.06-3.06 6.12-6.12 6.12h-3.633c-3.06 0-6.119-3.06-6.119-6.12z"/></g><g><path fill="#424242" d="M191.272 59.85v20.343c0 4.018-3.268 7.286-7.285 7.286s-7.286-3.268-7.286-7.286V59.85zm-7.285 28.929c4.734 0 8.586-3.851 8.586-8.586V59.2a.65.65 0 0 0-.65-.65h-15.872a.65.65 0 0 0-.65.65v20.993c0 4.735 3.851 8.586 8.586 8.586z"/></g><g><path fill="#337d3e" d="M191.923 59.2h-111.1l7.936-7.4h95.228z"/></g><g><path fill="#424242" d="M89.014 52.449h94.717l6.541 6.101H82.473zm103.513 6.99a.65.65 0 0 0-.161-.714l-7.936-7.401a.65.65 0 0 0-.443-.175H88.759a.653.653 0 0 0-.444.175l-7.936 7.401a.65.65 0 0 0 .444 1.125h111.1a.65.65 0 0 0 .604-.411z"/></g><g><g><path fill="#fff" d="M81.229 15.981c.029-.369.048-.741.048-1.117 0-7.668-6.216-13.883-13.883-13.883-6.139 0-11.344 3.986-13.176 9.51-.234-.017-.468-.035-.707-.035a9.145 9.145 0 0 0-9.145 9.145 9.145 9.145 0 0 0 9.145 9.146H75.2a7.806 7.806 0 0 0 6.029-12.766z"/></g><g><path fill="#424242" d="M53.511 11.055c.216 0 .432.017.661.034a.598.598 0 0 0 .615-.408 13.26 13.26 0 0 1 12.607-9.1c7.325 0 13.284 5.958 13.284 13.283 0 .324-.015.674-.047 1.07a.599.599 0 0 0 .135.428 7.224 7.224 0 0 1 1.641 4.579c0 3.974-3.233 7.206-7.207 7.206H53.511c-4.712 0-8.546-3.833-8.546-8.546 0-4.712 3.834-8.546 8.546-8.546zM75.2 29.345c4.635 0 8.406-3.77 8.406-8.404a8.424 8.424 0 0 0-1.762-5.15c.022-.334.033-.639.033-.927C81.877 6.878 75.38.381 67.394.381a14.46 14.46 0 0 0-13.592 9.482 6.654 6.654 0 0 0-.291-.007c-5.373 0-9.745 4.372-9.745 9.745 0 5.374 4.372 9.745 9.745 9.745z"/></g></g><g><g><path fill="#fff" d="M52.417 60.928c-.269 0-.535.016-.797.041-1.752-4.656-6.234-7.974-11.502-7.974-5.268 0-9.75 3.318-11.502 7.974a8.42 8.42 0 0 0-.797-.041 8.332 8.332 0 0 0-8.332 8.333 8.332 8.332 0 0 0 8.332 8.332h24.598a8.332 8.332 0 1 0 0-16.665z"/></g><g><path fill="#424242" d="M28.536 61.826a.86.86 0 0 0 .887-.554c1.669-4.435 5.967-7.415 10.695-7.415 4.728 0 9.026 2.98 10.695 7.415a.854.854 0 0 0 .887.554c.236-.021.475-.035.717-.035 4.119 0 7.47 3.351 7.47 7.47s-3.351 7.47-7.47 7.47H27.819c-4.119 0-7.47-3.351-7.47-7.47s3.351-7.47 7.47-7.47c.242 0 .48.014.717.035zm33.075 7.435c0-5.07-4.124-9.194-9.194-9.194l-.231.003c-2.07-4.773-6.841-7.937-12.068-7.937-5.227 0-9.998 3.164-12.067 7.937a9.334 9.334 0 0 0-.232-.003c-5.069 0-9.194 4.124-9.194 9.194 0 5.07 4.125 9.194 9.194 9.194h24.598c5.07 0 9.194-4.125 9.194-9.194z"/></g></g><g><g><path fill="#fff" d="M249.169 63.254c.03-.369.049-.741.049-1.118 0-7.668-6.216-13.883-13.883-13.883-6.139 0-11.344 3.986-13.177 9.51-.234-.017-.468-.035-.706-.035a9.146 9.146 0 0 0 0 18.291h21.689a7.806 7.806 0 0 0 6.028-12.765z"/></g><g><path fill="#424242" d="M221.452 58.327c.215 0 .432.017.661.034a.595.595 0 0 0 .614-.408 13.263 13.263 0 0 1 12.608-9.101c7.324 0 13.284 5.959 13.284 13.284 0 .324-.016.674-.047 1.07a.597.597 0 0 0 .135.428 7.224 7.224 0 0 1 1.641 4.579c0 3.974-3.233 7.207-7.207 7.207h-21.689c-4.713 0-8.546-3.834-8.546-8.546 0-4.713 3.833-8.547 8.546-8.547zm21.689 18.292c4.635 0 8.406-3.771 8.406-8.406a8.425 8.425 0 0 0-1.763-5.15c.022-.334.033-.639.033-.927 0-7.986-6.496-14.483-14.482-14.483a14.46 14.46 0 0 0-13.592 9.482 7.092 7.092 0 0 0-.291-.007c-5.374 0-9.745 4.372-9.745 9.746 0 5.373 4.371 9.745 9.745 9.745h21.689z"/></g></g><g><g><path fill="#fff" d="M201.897 17.225c.029-.369.049-.741.049-1.117 0-7.668-6.216-13.883-13.883-13.883-6.14 0-11.344 3.986-13.177 9.51-.234-.017-.468-.035-.706-.035a9.145 9.145 0 1 0 0 18.291h21.689a7.806 7.806 0 0 0 6.028-12.766z"/></g><g><path fill="#424242" d="M174.179 12.3c.216 0 .433.016.661.033a.597.597 0 0 0 .615-.408 13.263 13.263 0 0 1 12.608-9.101c7.324 0 13.283 5.959 13.283 13.284 0 .324-.015.674-.046 1.07a.598.598 0 0 0 .134.428 7.22 7.22 0 0 1 1.642 4.58c0 3.973-3.233 7.205-7.207 7.205h-21.69c-4.712 0-8.545-3.833-8.545-8.546 0-4.712 3.833-8.546 8.545-8.546zm21.69 18.29c4.635 0 8.405-3.77 8.405-8.405a8.425 8.425 0 0 0-1.762-5.15c.022-.334.033-.639.033-.927 0-7.986-6.497-14.483-14.482-14.483a14.46 14.46 0 0 0-13.592 9.482 7.147 7.147 0 0 0-.292-.007c-5.373 0-9.744 4.372-9.744 9.745 0 5.374 4.371 9.745 9.744 9.745h21.69z"/></g></g></g></g></svg>