<?xml version="1.0" encoding="UTF-8"?>
<svg width="48px" height="48px" viewBox="0 0 48 48" version="1.1" xmlns="http://www.w3.org/2000/svg" xmlns:xlink="http://www.w3.org/1999/xlink">
    <!-- Generator: Sketch 43.2 (39069) - http://www.bohemiancoding.com/sketch -->
    <title>theicons.co/svg/ui-52</title>
    <desc>Created with Sketch.</desc>
    <defs></defs>
    <g id="The-Icons" stroke="none" stroke-width="1" fill="none" fill-rule="evenodd">
        <path d="M30.3828692,17.2407336 C31.1639178,18.0217821 31.1619507,19.2900792 30.389378,20.0626519 L19.0626519,31.389378 C18.285198,32.1668319 17.0272275,32.1693631 16.2407336,31.3828692 C15.459685,30.6018206 15.4616521,29.3335236 16.2342247,28.5609509 L27.5609509,17.2342247 C28.3384047,16.4567709 29.5963753,16.4542396 30.3828692,17.2407336 Z M16.2407622,39.8681219 C13.9000386,42.2088455 10.0946803,42.2073787 7.75545218,39.8681506 C5.41425193,37.5269503 5.41543747,33.7228839 7.75548081,31.3828406 L13.4123064,25.7260149 C14.193355,24.9449663 14.193355,23.6786364 13.4123064,22.8975878 C12.6312578,22.1165392 11.3649279,22.1165392 10.5838793,22.8975878 L4.92705368,28.5544134 C1.0253077,32.4561594 1.02333285,38.7928855 4.92702506,42.6965777 C8.82786249,46.5974151 15.1658803,46.5998581 19.0691893,42.6965491 L24.7260149,37.0397234 C25.5070635,36.2586748 25.5070635,34.9923449 24.7260149,34.2112963 C23.9449663,33.4302477 22.6786364,33.4302477 21.8975878,34.2112963 L16.2407622,39.8681219 Z M41.6965491,20.0691893 C45.5998581,16.1658803 45.5974151,9.82786249 41.6965777,5.92702506 C37.7928855,2.02333285 31.4561594,2.0253077 27.5544134,5.92705368 L21.8975878,11.5838793 C21.1165392,12.3649279 21.1165392,13.6312578 21.8975878,14.4123064 C22.6786364,15.193355 23.9449663,15.193355 24.7260149,14.4123064 L30.3828406,8.75548081 C32.7228839,6.41543747 36.5269503,6.41425193 38.8681506,8.75545218 C41.2073787,11.0946803 41.2088455,14.9000386 38.8681219,17.2407622 L33.2112963,22.8975878 C32.4302477,23.6786364 32.4302477,24.9449663 33.2112963,25.7260149 C33.9923449,26.5070635 35.2586748,26.5070635 36.0397234,25.7260149 L41.6965491,20.0691893 Z" id="Combined-Shape" fill="#2c3336"></path>
    </g>
</svg>