<?xml version="1.0" encoding="UTF-8"?>
<svg width="48px" height="48px" viewBox="0 0 48 48" version="1.1" xmlns="http://www.w3.org/2000/svg" xmlns:xlink="http://www.w3.org/1999/xlink">
    <!-- Generator: Sketch 43.2 (39069) - http://www.bohemiancoding.com/sketch -->
    <title>theicons.co/svg/ui-45</title>
    <desc>Created with Sketch.</desc>
    <defs></defs>
    <g id="The-Icons" stroke="none" stroke-width="1" fill="none" fill-rule="evenodd">
        <path d="M7.62204636,38.2082123 L6.02020539,22.1898026 C5.7923769,19.9115177 7.51864604,18 9.81294357,18 L37.8094569,18 C40.0990137,18 41.830417,19.907584 41.6021951,22.1898026 L40.0003541,38.2082123 C39.7885257,40.3264968 37.9424246,42 35.8199559,42 L11.8024446,42 C9.67205942,42 7.83453458,40.3330945 7.62204636,38.2082123 Z M37.5996444,22.0158073 L10.0220176,22.0084227 L11.8112003,38 L35.8112003,38 L37.5996444,22.0158073 Z M13.8112003,8 C13.8112003,6.8954305 14.7094126,6 15.8019954,6 L31.8204051,6 C32.9198909,6 33.8112003,6.88772964 33.8112003,8 C33.8112003,9.1045695 32.9129879,10 31.8204051,10 L15.8019954,10 C14.7025096,10 13.8112003,9.11227036 13.8112003,8 Z M9.81120025,14 C9.81120025,12.8954305 10.7110978,12 11.8024446,12 L35.8199559,12 C36.9196898,12 37.8112003,12.8877296 37.8112003,14 C37.8112003,15.1045695 36.9113027,16 35.8199559,16 L11.8024446,16 C10.7027107,16 9.81120025,15.1122704 9.81120025,14 Z" id="Combined-Shape" fill="#2c3336"></path>
    </g>
</svg>