<?xml version="1.0" encoding="UTF-8"?>
<svg width="48px" height="48px" viewBox="0 0 48 48" version="1.1" xmlns="http://www.w3.org/2000/svg" xmlns:xlink="http://www.w3.org/1999/xlink">
    <!-- Generator: Sketch 43.2 (39069) - http://www.bohemiancoding.com/sketch -->
    <title>theicons.co/svg/social-09</title>
    <desc>Created with Sketch.</desc>
    <defs></defs>
    <g id="The-Icons" stroke="none" stroke-width="1" fill="none" fill-rule="evenodd">
        <path d="M7.98985111,6.56574824 C7.98985111,6.56574824 13.5,6 24,6 C34.5,6 40.0217015,6.56647494 40.0217015,6.56647494 C43.3234246,6.80590422 46.4995253,9.63300138 47.0322216,12.9022849 C47.0322216,12.9022849 48,16.5 48,24 C48,31.5 47.0292931,35.117346 47.0292931,35.117346 C46.4608302,38.3662461 43.3300886,41.2023649 40.0160579,41.4233652 C40.0160579,41.4233652 34,42 24,42 C14,42 7.97229998,41.4226406 7.97229998,41.4226406 C4.67388978,41.1892226 1.50047466,38.3669986 0.967778396,35.0977151 C0.967778396,35.0977151 0,31.5 0,24 C0,16.5 0.97070685,12.882654 0.97070685,12.882654 C1.53916976,9.63375389 4.68012268,6.79036723 7.98985111,6.56574824 Z M4.4510787,16.1513431 C4.17061124,18.2799989 4,20.8930806 4,24 C4,27.1070962 4.17008557,29.7165594 4.44963837,31.8390229 C4.608106,33.042165 4.91571411,34.4544394 4.91571411,34.4544394 C5.14519961,35.8628464 6.77538891,37.3279356 8.35369187,37.4408646 C8.51502254,37.4563175 11.2695691,37.6552362 12.4452851,37.7167912 C15.823426,37.8936551 19.6965582,38 24,38 C28.3034761,38 32.1744357,37.8937893 35.5489355,37.7171514 C36.7233417,37.6556772 39.4735047,37.4570364 39.6344099,37.4416138 C41.2137607,37.3346107 42.8364511,35.8721803 43.0891518,34.427936 C43.0891518,34.427936 43.3898137,33.0562312 43.5489213,31.8486569 C43.8293888,29.7200011 44,27.1069194 44,24 C44,20.8929038 43.8299144,18.2834406 43.5503616,16.1609771 C43.391894,14.957835 43.0842859,13.5455606 43.0842859,13.5455606 C42.8545025,12.1353254 41.2185381,10.6637688 39.7323954,10.555999 C39.4732923,10.5312079 36.8827607,10.3379047 35.7382843,10.2777177 C32.4416246,10.104349 28.5232135,10 24,10 C19.4767524,10 15.5604937,10.1042145 12.2674479,10.2773566 C11.1242772,10.3374624 8.26069327,10.5565683 8.26069327,10.5565683 C6.79677388,10.655919 5.16342284,12.1285401 4.9108482,13.572064 C4.9108482,13.572064 4.61018628,14.9437688 4.4510787,16.1513431 Z M19.0142947,19.3169951 C19.0169845,18.2071789 19.8063103,17.7458161 20.7636066,18.2788855 L29.2715497,23.0165246 C30.2349781,23.5530087 30.2267114,24.4302888 29.2668193,24.968287 L20.7358052,29.7497306 C19.7697642,30.2911751 18.9888183,29.8285651 18.9915036,28.7206026 L19.0142947,19.3169951 Z" id="Combined-Shape" fill="#2c3336" fill-rule="nonzero"></path>
    </g>
</svg>