<svg xmlns="http://www.w3.org/2000/svg" xmlns:xlink="http://www.w3.org/1999/xlink" width="15" height="15" viewBox="0 0 15 15"><defs><path id="80mja" d="M324.215 3273.2l3.699-5.341c1.387-1.849 1.186-4.889-.43-6.505a4.593 4.593 0 0 0-3.269-1.354 4.592 4.592 0 0 0-3.268 1.354c-1.616 1.616-1.817 4.655-.435 6.497z"/><path id="80mjb" d="M327.179 3270.904a.238.238 0 0 0-.267.211.24.24 0 0 0 .211.267c2.535.299 3.885 1.103 3.885 1.569 0 .654-2.568 1.567-6.75 1.567s-6.75-.913-6.75-1.567c0-.466 1.35-1.27 3.885-1.569a.24.24 0 1 0-.056-.478c-2.538.298-4.311 1.14-4.311 2.047 0 1.018 2.484 2.049 7.232 2.049s7.232-1.031 7.232-2.05c0-.906-1.773-1.748-4.311-2.046z"/><path id="80mjc" d="M324.258 3263.375a1.206 1.206 0 0 1 0 2.41 1.206 1.206 0 0 1 0-2.41zm0 2.893a1.69 1.69 0 0 0 1.688-1.688 1.69 1.69 0 0 0-1.688-1.687 1.69 1.69 0 0 0-1.687 1.687c0 .931.757 1.688 1.687 1.688z"/></defs><g><g transform="translate(-317 -3260)"><g><use fill="#2f4050" xlink:href="#80mja"/></g><g><use fill="#2f4050" xlink:href="#80mjb"/></g><g><use fill="#fff" xlink:href="#80mjc"/></g></g></g></svg>