<?xml version="1.0" encoding="UTF-8"?>
<svg width="48px" height="48px" viewBox="0 0 48 48" version="1.1" xmlns="http://www.w3.org/2000/svg" xmlns:xlink="http://www.w3.org/1999/xlink">
    <!-- Generator: Sketch 43.2 (39069) - http://www.bohemiancoding.com/sketch -->
    <title>theicons.co/svg/documents-09</title>
    <desc>Created with Sketch.</desc>
    <defs></defs>
    <g id="The-Icons" stroke="none" stroke-width="1" fill="none" fill-rule="evenodd">
        <path d="M6.99094127,5 L7,36.9999745 C7,36.9999745 11.0673663,36.9981819 15.8529625,36.9983983 C15.3005658,35.4349563 15,33.7525786 15,32 C15,26.4430743 18.0217165,21.5919082 22.5116513,19 L19.0006104,19 C17.8960409,19 17.0006104,18.1045695 17.0006104,17 L17.0006104,5 L6.99094127,5 Z M30.9999993,15 L21.0006104,15 L21.0006104,5.00061035 L30.9999993,15 Z M32,27.0085302 C32,25.9019504 31.1045695,25 30,25 C28.8877296,25 28,25.8992496 28,27.0085302 L28,32.170497 L26.4142136,30.5857864 C25.633165,29.8047379 24.366835,29.8047379 23.5857864,30.5857864 C22.8047379,31.366835 22.8047379,32.633165 23.5857864,33.4142136 L28.5857864,38.4142136 C29.366835,39.1952621 30.633165,39.1952621 31.4142136,38.4142136 L36.4142136,33.4142136 C37.1952621,32.633165 37.1952621,31.366835 36.4142136,30.5857864 C35.633165,29.8047379 34.366835,29.8047379 33.5857864,30.5857864 L32,32.2244303 L32,27.0085302 Z M35,14.3985099 C35,13.8559261 34.6857316,13.0855164 34.2980619,12.6977016 L23.3066744,1.70220075 C22.923594,1.31897704 22.1573996,1 21.6055819,1 L6.99094127,1 C4.79176129,1 3,2.79087243 3,5.00002553 L3,36.9999745 C3,39.2035752 4.79276724,41 7.0042577,41 L17.9989014,41 C20.7355204,44.6433401 25.0925465,47 30,47 C38.2842712,47 45,40.2842712 45,32 C45,25.4689059 40.8259619,19.9127106 35,17.8535285 L35,14.3985099 Z M41,32 C41,25.9248678 36.0751322,21 30,21 C23.9248678,21 19,25.9248678 19,32 C19,38.0751322 23.9248678,43 30,43 C36.0751322,43 41,38.0751322 41,32 Z" id="Combined-Shape" fill="#2c3336"></path>
    </g>
</svg>