<?xml version="1.0" encoding="UTF-8"?>
<svg width="48px" height="48px" viewBox="0 0 48 48" version="1.1" xmlns="http://www.w3.org/2000/svg" xmlns:xlink="http://www.w3.org/1999/xlink">
    <!-- Generator: Sketch 43.2 (39069) - http://www.bohemiancoding.com/sketch -->
    <title>theicons.co/svg/mail-06</title>
    <desc>Created with Sketch.</desc>
    <defs></defs>
    <g id="The-Icons" stroke="none" stroke-width="1" fill="none" fill-rule="evenodd">
        <path d="M30.0019063,26.8292292 L27.4169219,29.4142136 C26.6387249,30.1924107 25.378026,30.1956669 24.5958193,29.4215003 L20.6257219,25.4922103 C19.840649,24.7152069 19.8341073,23.4488938 20.6111107,22.6638209 C21.3881141,21.878748 22.6544272,21.8722063 23.4395001,22.6492097 L26.0027084,25.224756 L41.1815603,10 L2,10 C0.8954305,10 0,9.1045695 0,8 C0,6.8954305 0.8954305,6 2,6 L44.0054168,6 C46.2153823,6 48.0027084,7.78701418 48.0027084,10.0017433 L48.0027084,37.9982567 C48.0027084,40.2078772 46.2162272,42 44.0054168,42 L14,42 C12.8954305,42 12,41.1045695 12,40 C12,38.8954305 12.8954305,38 14,38 C14,38 33.6999789,38.001022 41.1736502,37.9996541 L30.0019063,26.8292292 Z M44.0055177,12.8256178 L32.8303335,24.000802 L44.0030735,35.1722229 L44.0055177,12.8256178 Z M4.00270838,18 C4.00270838,16.8954305 4.8997685,16 6.00856704,16 L15.9968497,16 C17.1046549,16 18.0027084,16.8877296 18.0027084,18 C18.0027084,19.1045695 17.1056483,20 15.9968497,20 L6.00856704,20 C4.90076189,20 4.00270838,19.1122704 4.00270838,18 Z M8.00270838,30 C8.00270838,28.8954305 8.89014167,28 10.0023234,28 L16.0030934,28 C17.1074503,28 18.0027084,28.8877296 18.0027084,30 C18.0027084,31.1045695 17.1152751,32 16.0030934,32 L10.0023234,32 C8.8979665,32 8.00270838,31.1122704 8.00270838,30 Z" id="Combined-Shape" fill="#2c3336"></path>
    </g>
</svg>