<svg xmlns="http://www.w3.org/2000/svg" width="105.33" height="66" viewBox="0 0 158 99"><g><g><g><path fill="#fc0619" d="M89.079 22.488c0-1.153-.985-2.126-2.151-2.126H75.34c-1.166 0-2.151.973-2.151 2.126v19.287H53.548c-1.166 0-2.151.974-2.151 2.127v11.387c0 1.153.985 2.127 2.151 2.127h19.641v19.287c0 1.153.985 2.127 2.151 2.127h11.588c.595 0 1.114-.209 1.501-.605.419-.381.65-.92.65-1.522V57.416h19.64c1.166 0 2.151-.974 2.151-2.127V43.902c0-.585-.22-1.114-.621-1.494-.384-.408-.926-.633-1.53-.633h-19.64z"/></g><g><path fill="#2c90e7" d="M62.735 85.739c15.362 3.458 41.029 5.986 55.14-10.592 19.831-23.297-4.281-48.217-4.281-48.217 8.15 14.788 6.293 32.894-2.479 43.954-7.733 9.75-31.269 16.512-48.38 14.855z"/></g><g><path fill="#81d1f3" d="M62.735 85.739c-7.53-1.695-12.584-3.614-12.584-3.614"/></g><g><path fill="#2c90e7" d="M142.549 0c10.298 23.815 5.719 52.521-13.743 71.982-21.534 21.534-54.387 24.851-79.407 9.95 0 0 59.554 39.971 97.602-6.724 2.936-3.603 5.277-7.216 7.113-10.809-3.261 5.834-6.046 9.462-6.046 9.462 18.612-30.854 4.07-59.982-5.519-73.861z"/></g><g><path fill="#2c90e7" d="M95.265 13.453C79.904 9.995 54.236 7.466 40.124 24.045c-19.83 23.297 4.282 48.216 4.282 48.216-8.15-14.787-6.293-32.893 2.479-43.953 7.733-9.751 31.269-16.513 48.38-14.855z"/></g><g><path fill="#81d1f3" d="M95.265 13.453c7.53 1.695 12.584 3.613 12.584 3.613"/></g><g><path fill="#2c90e7" d="M15.451 99.192C5.153 75.377 9.732 46.671 29.194 27.209c21.534-21.534 54.387-24.85 79.407-9.949 0 0-59.554-39.972-97.602 6.724-2.936 3.603-5.277 7.216-7.113 10.808 3.26-5.833 6.046-9.46 6.046-9.46-18.612 30.852-4.07 59.981 5.519 73.86z"/></g></g></g></svg>