<?xml version="1.0" encoding="UTF-8"?>
<svg width="48px" height="48px" viewBox="0 0 48 48" version="1.1" xmlns="http://www.w3.org/2000/svg" xmlns:xlink="http://www.w3.org/1999/xlink">
    <!-- Generator: Sketch 43.2 (39069) - http://www.bohemiancoding.com/sketch -->
    <title>theicons.co/svg/finance-46</title>
    <desc>Created with Sketch.</desc>
    <defs></defs>
    <g id="The-Icons" stroke="none" stroke-width="1" fill="none" fill-rule="evenodd">
        <path d="M22.5493355,28.2711706 C22.9990804,28.0960754 23.4883204,28 24,28 C24.0795856,28 24.1586282,28.0023243 24.2370639,28.0069086 L34.5198817,11.9734075 C34.1889772,11.3911097 34,10.7176239 34,10 C34,7.790861 35.790861,6 38,6 C40.209139,6 42,7.790861 42,10 C42,12.209139 40.209139,14 38,14 C37.9903881,14 27.5743629,30.202537 27.5743629,30.202537 C27.8466574,30.7429492 28,31.3535671 28,32 C28,34.209139 26.209139,36 24,36 C21.790861,36 20,34.209139 20,32 C20,31.7929747 20.0157276,31.5896228 20.0460532,31.3910739 L15.4946072,27.7114198 C15.0328555,27.897546 14.5283925,28 14,28 C11.790861,28 10,26.209139 10,24 C10,21.790861 11.790861,20 14,20 C16.209139,20 18,21.790861 18,24 C18,24.1906078 17.9866679,24.3781018 17.9608855,24.5616002 L22.5493355,28.2711706 Z M8,40 L42.0027084,40 C43.1057821,40 44,40.8877296 44,42 C44,43.1045695 43.1084602,44 42.0027084,44 L5.99729162,44 C5.44620226,44 4.94724215,43.7784276 4.5858732,43.4179797 C4.22349185,43.0540909 4,42.5551324 4,42.0027084 L4,5.99729162 C4,4.89421792 4.88772964,4 6,4 C7.1045695,4 8,4.89153983 8,5.99729162 L8,40 Z" id="Combined-Shape" fill="#2c3336"></path>
    </g>
</svg>