<?xml version="1.0" encoding="UTF-8"?>
<svg width="48px" height="48px" viewBox="0 0 48 48" version="1.1" xmlns="http://www.w3.org/2000/svg" xmlns:xlink="http://www.w3.org/1999/xlink">
    <!-- Generator: Sketch 43.2 (39069) - http://www.bohemiancoding.com/sketch -->
    <title>theicons.co/svg/phone-18</title>
    <desc>Created with Sketch.</desc>
    <defs></defs>
    <g id="The-Icons" stroke="none" stroke-width="1" fill="none" fill-rule="evenodd">
        <path d="M32,17.0909091 L38.1911437,12.5882591 C38.6378627,12.2633726 39.4378814,12 40.0029293,12 L43.9940809,12 C45.1019194,12 46,12.8970262 46,14.0049466 L46,33.9950534 C46,35.1023548 45.1134452,36 43.9940809,36 L40.0029293,36 C39.4490268,36 38.6340103,35.7338257 38.1911437,35.4117409 L32,30.9090909 L32,35.9957423 C32,38.2072328 30.2132053,40 28.0007252,40 L5.9992748,40 C3.79053632,40 2,38.2109725 2,35.9957423 L2,12.0042577 C2,9.79276724 3.78679466,8 5.9992748,8 L28.0007252,8 C30.2094637,8 32,9.78902751 32,12.0042577 L32,17.0909091 L32,17.0909091 Z M6,12 L6,36 L28,36 L28,12 L6,12 Z M10,30 C10,28.8954305 10.8970601,28 12.0058587,28 L21.9941413,28 C23.1019465,28 24,28.8877296 24,30 C24,31.1045695 23.1029399,32 21.9941413,32 L12.0058587,32 C10.8980535,32 10,31.1122704 10,30 Z M32.024251,25.9807387 L40.3139069,31.9997054 L42,31.9981079 L42,15.9970805 L40.3082087,15.9945648 L32.0247881,22.0188706 L32.024251,25.9807387 Z" id="Combined-Shape" fill="#2c3336"></path>
    </g>
</svg>