<?xml version="1.0" encoding="UTF-8"?>
<svg width="48px" height="48px" viewBox="0 0 48 48" version="1.1" xmlns="http://www.w3.org/2000/svg" xmlns:xlink="http://www.w3.org/1999/xlink">
    <!-- Generator: Sketch 43.2 (39069) - http://www.bohemiancoding.com/sketch -->
    <title>theicons.co/svg/mail-12</title>
    <desc>Created with Sketch.</desc>
    <defs></defs>
    <g id="The-Icons" stroke="none" stroke-width="1" fill="none" fill-rule="evenodd">
        <path d="M44,41.7118768 C44,43.9261601 42.5591022,44.6437111 40.8031923,43.3306699 L31,36 L8.00002553,36 C5.79087243,36 4,34.2109725 4,31.9957423 L4,8.0042577 C4,5.79276724 5.79642476,4 8.00002553,4 L39.9999745,4 C42.2091276,4 44,5.78902751 44,8.0042577 L44,41.7118768 Z M40,8.0042577 L8.00002553,8 L8,31.9957423 L32.330179,32 L40.0379583,37.7637537 L40,8.0042577 Z M24,23 C22.3431458,23 21,21.6568542 21,20 C21,18.3431458 22.3431458,17 24,17 C25.6568542,17 27,18.3431458 27,20 C27,21.6568542 25.6568542,23 24,23 Z M16,23 C14.3431458,23 13,21.6568542 13,20 C13,18.3431458 14.3431458,17 16,17 C17.6568542,17 19,18.3431458 19,20 C19,21.6568542 17.6568542,23 16,23 Z M32,23 C30.3431458,23 29,21.6568542 29,20 C29,18.3431458 30.3431458,17 32,17 C33.6568542,17 35,18.3431458 35,20 C35,21.6568542 33.6568542,23 32,23 Z" id="Combined-Shape" fill="#2c3336"></path>
    </g>
</svg>