<svg xmlns="http://www.w3.org/2000/svg" width="114" height="113" viewBox="0 0 114 113"><g><g><g><path fill="#fff" d="M112.214 31.144c.024-.297.04-.596.04-.899 0-6.163-4.997-11.16-11.161-11.16-4.934 0-9.118 3.205-10.591 7.646a7.123 7.123 0 0 0-.568-.029 7.352 7.352 0 1 0 0 14.704h17.435a6.276 6.276 0 0 0 4.845-10.262z"/></g><g><path fill="#424242" d="M89.934 27.184c.173 0 .347.013.531.027a.479.479 0 0 0 .494-.328 10.66 10.66 0 0 1 10.134-7.316c5.889 0 10.679 4.79 10.679 10.678 0 .261-.013.542-.038.861a.482.482 0 0 0 .108.344 5.802 5.802 0 0 1 1.32 3.681 5.8 5.8 0 0 1-5.793 5.793H89.934a6.878 6.878 0 0 1-6.87-6.87 6.878 6.878 0 0 1 6.87-6.87zm17.435 14.703a6.764 6.764 0 0 0 6.756-6.756 6.77 6.77 0 0 0-1.416-4.14c.018-.268.026-.514.026-.746 0-6.419-5.222-11.641-11.642-11.641a11.62 11.62 0 0 0-10.925 7.622 4.479 4.479 0 0 0-.234-.006c-4.32 0-7.834 3.514-7.834 7.834 0 4.319 3.514 7.833 7.834 7.833h17.435z"/></g><g><path fill="#fff" d="M24.842 7.167c-.198 0-.392.012-.585.03-1.284-3.413-4.569-5.845-8.431-5.845-3.862 0-7.147 2.432-8.431 5.845a6.108 6.108 0 1 0-.585 12.186h18.032a6.108 6.108 0 0 0 0-12.216z"/></g><g><path fill="#424242" d="M7.336 7.826a.63.63 0 0 0 .65-.407c1.224-3.251 4.374-5.435 7.84-5.435s6.616 2.184 7.84 5.435c.1.267.363.435.65.407a5.483 5.483 0 0 1 6.002 5.449 5.482 5.482 0 0 1-5.476 5.476H6.81a5.481 5.481 0 0 1-5.475-5.476 5.482 5.482 0 0 1 6.001-5.449zm24.245 5.449a6.746 6.746 0 0 0-6.739-6.739c-.056 0-.113 0-.17.002C23.155 3.039 19.658.72 15.826.72S8.497 3.039 6.98 6.538c-.057-.002-.114-.002-.17-.002a6.746 6.746 0 0 0-6.739 6.739 6.747 6.747 0 0 0 6.739 6.74h18.032a6.747 6.747 0 0 0 6.739-6.74z"/></g><g><path fill="#fff" d="M108.606 77.238l.003-.106c.077-3.661-2.834-6.805-6.492-6.994a6.859 6.859 0 0 0-7.211 7.265c.18 2.99-.85 5.925-2.646 8.323a11.806 11.806 0 0 0-2.34 7.78c.343 6.088 5.377 10.98 11.473 11.161 6.709.198 12.21-5.182 12.21-11.846 0-2.664-.879-5.122-2.363-7.101-1.833-2.442-2.744-5.431-2.634-8.482z"/></g><g><path fill="#424242" d="M108.606 77.238h.003m-6.86-6.587c.113 0 .227.003.341.008 3.377.175 6.067 3.074 5.997 6.463l-.003.098c-.115 3.177.857 6.307 2.738 8.814a11.23 11.23 0 0 1 2.258 6.787c0 3.089-1.221 5.976-3.438 8.128a11.245 11.245 0 0 1-8.234 3.195c-5.823-.172-10.639-4.858-10.966-10.668-.15-2.67.644-5.311 2.237-7.437 1.951-2.606 2.928-5.684 2.748-8.668a6.28 6.28 0 0 1 1.963-4.98 6.282 6.282 0 0 1 4.359-1.74zm.006 34.544c3.239 0 6.285-1.233 8.615-3.496a12.273 12.273 0 0 0 3.755-8.878c0-2.698-.853-5.262-2.467-7.414-1.738-2.316-2.636-5.211-2.53-8.15v-.001l.003-.113c.083-3.946-3.052-7.323-6.987-7.527a7.332 7.332 0 0 0-5.474 2.017 7.314 7.314 0 0 0-2.286 5.801c.164 2.737-.738 5.57-2.542 7.979a12.397 12.397 0 0 0-2.443 8.122c.356 6.347 5.618 11.466 11.978 11.654.126.004.253.006.378.006z"/></g><g><g><path fill="#5e35b1" d="M101.752 87.421v24.872"/></g><g><path fill="#424242" d="M101.752 112.815a.523.523 0 0 1-.523-.522V87.421a.523.523 0 0 1 1.045 0v24.872a.522.522 0 0 1-.522.522z"/></g></g><g><g><path fill="#5e35b1" d="M97.18 94.859l4.572 3.013"/></g><g><path fill="#424242" d="M101.751 98.395a.526.526 0 0 1-.287-.086l-4.572-3.014a.522.522 0 1 1 .575-.872l4.572 3.013a.523.523 0 0 1-.288.959z"/></g></g><g><g><path fill="#ffc107" d="M96.004 112.292H107.5"/></g><g><path fill="#424242" d="M107.5 112.815H96.004a.523.523 0 1 1 0-1.045H107.5a.523.523 0 1 1 0 1.045z"/></g></g><g><path fill="#fff" d="M19.298 77.238l.003-.106c.076-3.661-2.834-6.805-6.492-6.994a6.859 6.859 0 0 0-7.211 7.265c.179 2.99-.85 5.925-2.646 8.323a11.806 11.806 0 0 0-2.34 7.78c.343 6.088 5.377 10.98 11.472 11.161 6.71.198 12.211-5.182 12.211-11.846 0-2.664-.879-5.122-2.364-7.101-1.832-2.442-2.743-5.431-2.633-8.482z"/></g><g><path fill="#424242" d="M19.302 77.238h-.004m-6.857-6.587c.113 0 .227.003.341.008 3.377.175 6.067 3.074 5.997 6.461l-.003.1c-.115 3.177.857 6.307 2.738 8.814a11.23 11.23 0 0 1 2.258 6.787c0 3.089-1.221 5.976-3.438 8.128a11.227 11.227 0 0 1-8.234 3.195c-5.823-.172-10.639-4.858-10.966-10.668-.15-2.67.644-5.311 2.236-7.437 1.952-2.606 2.929-5.684 2.749-8.668a6.28 6.28 0 0 1 1.963-4.98 6.28 6.28 0 0 1 4.359-1.74zm.006 34.544c3.239 0 6.285-1.233 8.615-3.496a12.273 12.273 0 0 0 3.755-8.878c0-2.698-.853-5.262-2.467-7.414-1.738-2.316-2.636-5.211-2.53-8.15v-.001l.003-.113c.083-3.946-3.051-7.323-6.987-7.527a7.332 7.332 0 0 0-5.474 2.017 7.314 7.314 0 0 0-2.286 5.801c.165 2.737-.738 5.57-2.542 7.979A12.398 12.398 0 0 0 .09 93.535c.357 6.347 5.619 11.466 11.979 11.654.126.004.253.006.378.006z"/></g><g><g><path fill="#5e35b1" d="M12.444 87.421v24.872"/></g><g><path fill="#424242" d="M12.444 112.815a.523.523 0 0 1-.523-.522V87.421a.523.523 0 0 1 1.045 0v24.872a.522.522 0 0 1-.522.522z"/></g></g><g><g><path fill="#5e35b1" d="M7.872 94.859l4.572 3.013"/></g><g><path fill="#424242" d="M12.443 98.395a.525.525 0 0 1-.287-.086l-4.572-3.014a.522.522 0 1 1 .575-.872l4.572 3.013a.523.523 0 0 1-.288.959z"/></g></g><g><g><path fill="#ffc107" d="M6.696 112.292h11.496"/></g><g><path fill="#424242" d="M18.192 112.815H6.696a.523.523 0 1 1 0-1.045h11.496a.523.523 0 1 1 0 1.045z"/></g></g><g><path fill="#f8f9f9" d="M18.823 112.133V57.646h76.55v54.487z"/></g><g><path fill="#424242" d="M19.346 58.168H94.85v53.442H19.346zm76.549 53.965V57.646a.523.523 0 0 0-.522-.523h-76.55a.523.523 0 0 0-.523.523v54.487c0 .288.234.522.523.522h76.55a.522.522 0 0 0 .522-.522z"/></g><g><path fill="#424242" d="M57.62 58.168h37.23v32.563H57.62zm38.275 33.086V57.646a.523.523 0 0 0-.522-.523H57.098a.523.523 0 0 0-.523.523v33.608c0 .288.234.522.523.522h38.275a.522.522 0 0 0 .522-.522z"/></g><g><g/></g><g><g><path fill="#424242" d="M57.62 58.168h37.23v32.563H57.62zm38.275 33.086V57.646a.523.523 0 0 0-.522-.523H57.098a.523.523 0 0 0-.523.523v33.608c0 .288.234.522.523.522h38.275a.522.522 0 0 0 .522-.522z"/></g></g><g><path fill="#fff" d="M23.643 112.133V57.646h28.635v54.487z"/></g><g><path fill="#424242" d="M24.165 58.168h27.591v53.442H24.165zm28.636 53.965V57.646a.523.523 0 0 0-.523-.523H23.643a.523.523 0 0 0-.523.523v54.487c0 .288.234.522.523.522h28.635a.523.523 0 0 0 .523-.522z"/></g><g><path fill="#337d3e" d="M45.561 82.451c0-.542.542-1.083 1.083-1.083h1.273c.541 0 1.083.541 1.083 1.083v7.72c0 .541-.542 1.083-1.083 1.083h-1.273c-.541 0-1.083-.542-1.083-1.083z"/></g><g><path fill="#424242" d="M48.477 83.087v6.447a1.198 1.198 0 0 1-2.393 0v-6.447a1.198 1.198 0 0 1 2.393 0zm1.045 6.447v-6.447a2.245 2.245 0 0 0-2.242-2.242 2.244 2.244 0 0 0-2.241 2.242v6.447a2.243 2.243 0 0 0 2.241 2.242 2.244 2.244 0 0 0 2.242-2.242z"/></g><g><g><path fill="#5e35b1" d="M12.444 112.133h89.308"/></g><g><path fill="#424242" d="M101.752 112.655H12.444a.523.523 0 1 1 0-1.045h89.308a.522.522 0 1 1 0 1.045z"/></g></g><g><path fill="#337d3e" d="M12.444 50.603h12.758V69.84c0 2.01-2.01 4.019-4.019 4.019h-4.72c-2.01 0-4.02-2.01-4.02-4.019z"/></g><g><path fill="#424242" d="M24.68 51.126v16.352a5.864 5.864 0 0 1-5.857 5.857 5.864 5.864 0 0 1-5.857-5.857V51.126zm1.045 16.352V50.603a.523.523 0 0 0-.523-.522H12.444a.523.523 0 0 0-.523.522v16.875a6.91 6.91 0 0 0 6.902 6.902 6.91 6.91 0 0 0 6.902-6.902z"/></g><g><path fill="#9bbd37" d="M25.202 50.603H37.96V69.84c0 2.01-2.009 4.019-4.018 4.019H29.22c-2.01 0-4.019-2.01-4.019-4.019z"/></g><g><path fill="#424242" d="M37.438 51.126v16.352a5.863 5.863 0 0 1-5.857 5.857 5.863 5.863 0 0 1-5.856-5.857V51.126zm1.045 16.352V50.603a.523.523 0 0 0-.523-.522H25.202a.522.522 0 0 0-.522.522v16.875a6.91 6.91 0 0 0 6.901 6.902 6.91 6.91 0 0 0 6.902-6.902z"/></g><g><path fill="#337d3e" d="M37.96 50.603H50.72V69.84c0 2.01-2.01 4.019-4.019 4.019h-4.72c-2.01 0-4.02-2.01-4.02-4.019z"/></g><g><path fill="#424242" d="M50.196 51.126v16.352a5.863 5.863 0 0 1-5.856 5.857 5.863 5.863 0 0 1-5.857-5.857V51.126zM44.34 74.38a6.91 6.91 0 0 0 6.901-6.902V50.603a.522.522 0 0 0-.522-.522H37.96a.522.522 0 0 0-.522.522v16.875a6.91 6.91 0 0 0 6.902 6.902z"/></g><g><path fill="#9bbd37" d="M50.719 50.603h12.758V69.84c0 2.01-2.01 4.019-4.019 4.019h-4.72c-2.01 0-4.02-2.01-4.02-4.019z"/></g><g><path fill="#424242" d="M62.954 51.126v16.352a5.863 5.863 0 0 1-5.856 5.857 5.864 5.864 0 0 1-5.857-5.857V51.126zM64 67.478V50.603a.523.523 0 0 0-.523-.522H50.719a.523.523 0 0 0-.523.522v16.875a6.91 6.91 0 0 0 6.902 6.902A6.91 6.91 0 0 0 64 67.478z"/></g><g><path fill="#337d3e" d="M63.477 50.603h12.758V69.84c0 2.01-2.009 4.019-4.018 4.019h-4.721c-2.01 0-4.019-2.01-4.019-4.019z"/></g><g><path fill="#424242" d="M75.713 51.126v16.352a5.864 5.864 0 0 1-5.857 5.857A5.863 5.863 0 0 1 64 67.478V51.126zm1.045 16.352V50.603a.523.523 0 0 0-.523-.522H63.477a.523.523 0 0 0-.523.522v16.875a6.91 6.91 0 0 0 6.902 6.902 6.91 6.91 0 0 0 6.902-6.902z"/></g><g><path fill="#9bbd37" d="M76.235 50.603h12.759V69.84c0 2.01-2.01 4.019-4.02 4.019h-4.72c-2.01 0-4.019-2.01-4.019-4.019z"/></g><g><path fill="#424242" d="M88.471 51.126v16.352a5.863 5.863 0 0 1-5.856 5.857 5.863 5.863 0 0 1-5.857-5.857V51.126zM82.615 74.38a6.91 6.91 0 0 0 6.901-6.902V50.603a.522.522 0 0 0-.522-.522H76.235a.522.522 0 0 0-.522.522v16.875a6.91 6.91 0 0 0 6.902 6.902z"/></g><g><path fill="#337d3e" d="M88.994 50.603h12.758V69.84c0 2.01-2.01 4.019-4.019 4.019h-4.72c-2.01 0-4.02-2.01-4.02-4.019z"/></g><g><path fill="#424242" d="M101.229 51.126v16.352a5.863 5.863 0 0 1-5.856 5.857 5.863 5.863 0 0 1-5.857-5.857V51.126zm1.045 16.352V50.603a.522.522 0 0 0-.522-.522H88.994a.523.523 0 0 0-.523.522v16.875a6.91 6.91 0 0 0 6.902 6.902 6.91 6.91 0 0 0 6.901-6.902z"/></g><g><path fill="#337d3e" d="M101.752 50.603H12.444l6.38-5.95h76.549z"/></g><g><path fill="#424242" d="M19.029 45.176h76.138l5.258 4.905H13.77zm82.723 5.95a.524.524 0 0 0 .356-.905l-6.379-5.949a.52.52 0 0 0-.356-.141h-76.55c-.132 0-.26.05-.356.141l-6.38 5.949a.522.522 0 0 0 .357.905z"/></g><g><path fill="#9bbd37" d="M18.823 44.654v-10.88h76.55v10.88z"/></g><g><path fill="#424242" d="M19.346 34.296H94.85v9.835H19.346zm76.549 10.358V33.773a.522.522 0 0 0-.522-.522h-76.55a.523.523 0 0 0-.523.522v10.881c0 .288.234.522.523.522h76.55a.522.522 0 0 0 .522-.522z"/></g><g><g><path fill="#eceff1" d="M76.235 57.646v33.608"/></g><g><path fill="#424242" d="M76.235 91.776a.522.522 0 0 1-.522-.522V57.646a.523.523 0 1 1 1.045 0v33.608a.523.523 0 0 1-.523.522z"/></g></g></g></g></svg>