<svg xmlns="http://www.w3.org/2000/svg" xmlns:xlink="http://www.w3.org/1999/xlink" width="94" height="94" viewBox="0 0 94 94"><defs><path id="gje6a" d="M1366.044 4794.276c0 25.833-20.941 46.776-46.775 46.776-25.833 0-46.777-20.943-46.777-46.776 0-25.834 20.944-46.776 46.777-46.776 25.834 0 46.775 20.942 46.775 46.776z"/><path id="gje6b" d="M1297.975 4794.956a3.407 3.407 0 0 1-3.397-3.398v-8.155a3.407 3.407 0 0 1 3.397-3.398 3.408 3.408 0 0 1 3.398 3.398v8.155a3.408 3.408 0 0 1-3.398 3.398z"/><path id="gje6c" d="M1340.562 4794.956a3.408 3.408 0 0 1-3.397-3.398v-8.155a3.408 3.408 0 0 1 3.397-3.398 3.408 3.408 0 0 1 3.398 3.398v8.155a3.408 3.408 0 0 1-3.399 3.398z"/><path id="gje6d" d="M1319.38 4821.348c-11.948 0-17.641-9.192-18.98-14.052a2.377 2.377 0 1 1 4.585-1.264c.12.421 3.136 10.56 14.395 10.56 11.369 0 14.52-10.572 14.55-10.678a2.378 2.378 0 1 1 4.573 1.306c-1.394 4.887-7.187 14.128-19.123 14.128z"/></defs><g><g transform="translate(-1272 -4747)"><use fill="#ffca1f" xlink:href="#gje6a"/></g><g transform="translate(-1272 -4747)"><use fill="#403408" xlink:href="#gje6b"/></g><g transform="translate(-1272 -4747)"><use fill="#403408" xlink:href="#gje6c"/></g><g transform="translate(-1272 -4747)"><use fill="#403408" xlink:href="#gje6d"/></g></g></svg>