<svg xmlns="http://www.w3.org/2000/svg" width="110" height="113" viewBox="0 0 110 113"><g><g><g><path fill="#424242" d="M8.379 27.842c.188 0 .376.014.576.029a.52.52 0 0 0 .536-.356 11.562 11.562 0 0 1 10.991-7.934c6.385 0 11.58 5.195 11.58 11.581 0 .282-.013.587-.041.933a.524.524 0 0 0 .118.373 6.299 6.299 0 0 1 1.43 3.992 6.29 6.29 0 0 1-6.282 6.282H8.379c-4.108 0-7.45-3.342-7.45-7.45 0-4.108 3.342-7.45 7.45-7.45zm18.908 15.945c4.04 0 7.328-3.287 7.328-7.327 0-1.625-.545-3.21-1.537-4.49.02-.291.03-.557.03-.808 0-6.962-5.665-12.626-12.626-12.626a12.605 12.605 0 0 0-11.849 8.267 5.365 5.365 0 0 0-.254-.006c-4.685 0-8.496 3.811-8.496 8.495 0 4.684 3.811 8.495 8.496 8.495h18.908z"/></g><g><path fill="#424242" d="M90.066 6.258a.522.522 0 0 0 .538-.336 6.966 6.966 0 0 1 6.484-4.496 6.966 6.966 0 0 1 6.484 4.496c.083.22.3.359.538.336a4.534 4.534 0 0 1 4.963 4.507 4.534 4.534 0 0 1-4.53 4.529H89.632a4.534 4.534 0 0 1-4.528-4.529 4.534 4.534 0 0 1 4.963-4.507zm20.053 4.507a5.581 5.581 0 0 0-5.575-5.574l-.14.002C103.15 2.299 100.257.381 97.088.381c-3.169 0-6.061 1.918-7.316 4.812l-.141-.002a5.58 5.58 0 0 0-5.573 5.574 5.58 5.58 0 0 0 5.573 5.574h14.913a5.58 5.58 0 0 0 5.575-5.574z"/></g><g><path fill="#fff" d="M19.111 76.899l.003-.106c.076-3.661-2.835-6.805-6.492-6.994a6.859 6.859 0 0 0-7.212 7.265c.18 2.99-.849 5.925-2.645 8.323a11.8 11.8 0 0 0-2.34 7.78c.342 6.088 5.376 10.98 11.472 11.161 6.709.198 12.21-5.182 12.21-11.846 0-2.664-.879-5.122-2.363-7.101-1.832-2.442-2.744-5.431-2.633-8.482z"/></g><g><path fill="#424242" d="M19.114 76.899h-.003m-6.858-6.587c.114 0 .227.003.342.009 3.377.175 6.067 3.073 5.996 6.459l-.003.101c-.114 3.177.858 6.307 2.738 8.814a11.224 11.224 0 0 1 2.259 6.787c0 3.089-1.221 5.976-3.438 8.128a11.223 11.223 0 0 1-8.235 3.195C6.09 103.633 1.272 98.947.946 93.137c-.15-2.67.644-5.311 2.237-7.437 1.952-2.606 2.928-5.684 2.749-8.668a6.278 6.278 0 0 1 1.963-4.98 6.28 6.28 0 0 1 4.358-1.74zm8.622 31.048a12.276 12.276 0 0 0 3.755-8.878c0-2.698-.854-5.262-2.468-7.414-1.737-2.317-2.635-5.211-2.529-8.15v-.001l.003-.113c.082-3.947-3.052-7.323-6.987-7.527a7.327 7.327 0 0 0-5.474 2.017 7.318 7.318 0 0 0-2.286 5.801c.164 2.737-.739 5.571-2.543 7.978a12.41 12.41 0 0 0-2.443 8.123C.26 99.543 5.52 104.662 11.88 104.85a12.274 12.274 0 0 0 8.994-3.49z"/></g><g><g><path fill="#5e35b1" d="M12.256 87.082v24.871"/></g><g><path fill="#424242" d="M12.256 112.476a.522.522 0 0 1-.522-.522V87.082a.523.523 0 1 1 1.045 0v24.872a.523.523 0 0 1-.523.522z"/></g></g><g><g><path fill="#5e35b1" d="M7.684 94.52l4.572 3.013"/></g><g><path fill="#424242" d="M12.256 98.056a.52.52 0 0 1-.287-.086l-4.572-3.014a.524.524 0 0 1 .575-.873l4.572 3.014a.522.522 0 0 1-.288.959z"/></g></g><g><g><path fill="#ffc107" d="M6.508 111.953h11.497"/></g><g><path fill="#424242" d="M18.005 112.476H6.508a.523.523 0 1 1 0-1.045h11.497a.523.523 0 0 1 0 1.045z"/></g></g><g><path fill="#fff" d="M104.599 76.899l.003-.106c.077-3.661-2.834-6.805-6.492-6.994a6.859 6.859 0 0 0-7.211 7.265c.18 2.99-.849 5.925-2.646 8.323a11.807 11.807 0 0 0-2.34 7.78c.343 6.088 5.377 10.98 11.473 11.161 6.709.198 12.21-5.182 12.21-11.846 0-2.664-.879-5.122-2.363-7.101-1.833-2.442-2.744-5.431-2.634-8.482z"/></g><g><path fill="#424242" d="M104.603 76.899h-.004m-6.857-6.587c.113 0 .227.003.341.009 3.377.175 6.067 3.073 5.997 6.462l-.003.098c-.115 3.177.857 6.307 2.738 8.814a11.229 11.229 0 0 1 2.258 6.787c0 3.089-1.221 5.976-3.438 8.128-2.216 2.152-5.141 3.282-8.234 3.195-5.822-.172-10.64-4.858-10.966-10.668-.15-2.67.644-5.311 2.237-7.437 1.952-2.605 2.928-5.684 2.748-8.667a6.28 6.28 0 0 1 1.963-4.981 6.282 6.282 0 0 1 4.359-1.74zm8.621 31.048a12.273 12.273 0 0 0 3.756-8.878c0-2.698-.854-5.262-2.468-7.414-1.738-2.317-2.636-5.211-2.53-8.15v-.001l.004-.113c.082-3.947-3.053-7.323-6.988-7.527a7.331 7.331 0 0 0-5.474 2.017 7.318 7.318 0 0 0-2.286 5.801c.165 2.737-.738 5.571-2.542 7.978a12.403 12.403 0 0 0-2.443 8.123c.357 6.347 5.618 11.466 11.978 11.654a12.272 12.272 0 0 0 8.993-3.49z"/></g><g><g><path fill="#5e35b1" d="M97.745 87.082v24.871"/></g><g><path fill="#424242" d="M97.745 112.476a.523.523 0 0 1-.523-.522V87.082a.523.523 0 1 1 1.046 0v24.872a.523.523 0 0 1-.523.522z"/></g></g><g><g><path fill="#5e35b1" d="M93.173 94.52l4.572 3.013"/></g><g><path fill="#424242" d="M97.744 98.056a.52.52 0 0 1-.286-.086l-4.573-3.014a.522.522 0 0 1 .575-.873l4.572 3.014a.523.523 0 0 1-.288.959z"/></g></g><g><g><path fill="#ffc107" d="M91.997 111.953h11.496"/></g><g><path fill="#424242" d="M103.493 112.476H91.997a.523.523 0 1 1 0-1.045h11.496a.523.523 0 1 1 0 1.045z"/></g></g><g><path fill="#f8f9f9" d="M16.27 111.953V34.722H93.5v77.231z"/></g><g><path fill="#424242" d="M16.792 35.244h76.187v76.187H16.792zm77.232 76.71V34.722a.523.523 0 0 0-.523-.523H16.269a.523.523 0 0 0-.522.523v77.232c0 .288.234.522.522.522h77.232c.289 0 .523-.234.523-.522z"/></g><g><path fill="#424242" d="M46.303 79.115h18.006v32.316H46.303zm19.051 32.839V78.592a.523.523 0 0 0-.523-.523h-19.05a.523.523 0 0 0-.523.523v33.362c0 .288.234.522.523.522h19.05a.523.523 0 0 0 .523-.522z"/></g><g><path fill="#9bbd37" d="M60.363 93.767c0-.36.36-.72.72-.72h.846c.36 0 .721.36.721.72v5.135c0 .36-.36.721-.72.721h-.847c-.36 0-.72-.36-.72-.72z"/></g><g><path fill="#424242" d="M62.128 94.19v4.289a.622.622 0 0 1-1.243 0V94.19a.622.622 0 0 1 1.243 0zm1.045 4.289V94.19a1.667 1.667 0 0 0-3.333 0v4.289c0 .919.747 1.667 1.666 1.667a1.67 1.67 0 0 0 1.667-1.667z"/></g><g><g><path fill="#5e35b1" d="M12.256 111.953h85.489"/></g><g><path fill="#424242" d="M97.745 112.476H12.256a.522.522 0 0 1 0-1.045h85.489a.523.523 0 1 1 0 1.045z"/></g></g><g><path fill="#9bbd37" d="M16.892 28.714v-10.88h76.55v10.88z"/></g><g><path fill="#424242" d="M17.414 18.356h75.505v9.835H17.414zm76.55 10.358V17.833a.523.523 0 0 0-.523-.522H16.892a.523.523 0 0 0-.523.522v10.881c0 .288.234.522.523.522h76.549a.523.523 0 0 0 .523-.522z"/></g><g><g><path fill="#424242" d="M68.56 51.144H92.98v21.314H68.56zM94.024 72.98V50.621a.523.523 0 0 0-.523-.522H68.038a.523.523 0 0 0-.523.522V72.98c0 .289.234.523.523.523h25.463c.289 0 .523-.234.523-.523z"/></g></g><g><g><path fill="#eceff1" d="M80.77 50.621V72.98"/></g><g><path fill="#424242" d="M80.769 73.503a.523.523 0 0 1-.522-.523V50.621a.522.522 0 0 1 1.045 0V72.98a.523.523 0 0 1-.523.523z"/></g></g><g><g><path fill="#424242" d="M68.56 79.115H92.98v21.313H68.56zm25.464 21.835V78.592a.523.523 0 0 0-.523-.523H68.038a.523.523 0 0 0-.523.523v22.358c0 .289.234.523.523.523h25.463c.289 0 .523-.234.523-.523z"/></g></g><g><g><path fill="#eceff1" d="M80.77 78.592v22.358"/></g><g><path fill="#424242" d="M80.769 101.473a.523.523 0 0 1-.522-.523V78.592a.523.523 0 1 1 1.045 0v22.358a.523.523 0 0 1-.523.523z"/></g></g><g><g><path fill="#424242" d="M16.792 51.144H41.21v21.314H16.792zM42.255 72.98V50.621a.522.522 0 0 0-.522-.522H16.269a.522.522 0 0 0-.522.522V72.98c0 .289.234.523.522.523h25.464a.522.522 0 0 0 .522-.523z"/></g></g><g><g><path fill="#eceff1" d="M29.001 50.621V72.98"/></g><g><path fill="#424242" d="M29.001 73.503a.522.522 0 0 1-.522-.523V50.621a.522.522 0 1 1 1.045 0V72.98a.523.523 0 0 1-.523.523z"/></g></g><g><g><path fill="#424242" d="M16.792 79.115H41.21v21.313H16.792zm25.463 21.835V78.592a.522.522 0 0 0-.522-.523H16.269a.523.523 0 0 0-.522.523v22.358c0 .289.234.523.522.523h25.464a.522.522 0 0 0 .522-.523z"/></g></g><g><g><path fill="#eceff1" d="M29.001 78.592v22.358"/></g><g><path fill="#424242" d="M29.001 101.473a.522.522 0 0 1-.522-.523V78.592a.522.522 0 1 1 1.045 0v22.358a.523.523 0 0 1-.523.523z"/></g></g><g><path fill="#337d3e" d="M10.513 36.437c0-.887.886-1.774 1.773-1.774h9.211c.887 0 1.774.887 1.774 1.774v15.688c0 2.897-2.896 5.793-5.793 5.793h-1.173c-2.896 0-5.792-2.896-5.792-5.793z"/></g><g><path fill="#424242" d="M22.748 35.186v16.352a5.863 5.863 0 0 1-5.856 5.857 5.863 5.863 0 0 1-5.857-5.857V35.186zm1.045 16.352V34.663a.522.522 0 0 0-.522-.522H10.513a.523.523 0 0 0-.523.522v16.875a6.91 6.91 0 0 0 6.902 6.902 6.91 6.91 0 0 0 6.901-6.902z"/></g><g><path fill="#9bbd37" d="M23.27 36.489c0-.913.913-1.826 1.826-1.826h9.108c.912 0 1.825.913 1.825 1.826v15.585c0 2.922-2.922 5.844-5.844 5.844h-1.07c-2.922 0-5.844-2.922-5.844-5.844z"/></g><g><path fill="#424242" d="M35.507 35.186v16.352a5.864 5.864 0 0 1-5.857 5.857 5.864 5.864 0 0 1-5.857-5.857V35.186zm1.045 16.352V34.663a.523.523 0 0 0-.523-.522H23.271a.523.523 0 0 0-.523.522v16.875a6.91 6.91 0 0 0 6.902 6.902 6.91 6.91 0 0 0 6.902-6.902z"/></g><g><path fill="#337d3e" d="M36.03 36.572c0-.954.954-1.909 1.908-1.909h8.94c.955 0 1.91.955 1.91 1.91V51.99c0 2.964-2.964 5.928-5.928 5.928h-.903c-2.964 0-5.928-2.964-5.928-5.928z"/></g><g><path fill="#424242" d="M48.265 35.186v16.352a5.863 5.863 0 0 1-5.857 5.857 5.863 5.863 0 0 1-5.856-5.857V35.186zM42.408 58.44a6.91 6.91 0 0 0 6.902-6.902V34.663a.523.523 0 0 0-.523-.522H36.029a.522.522 0 0 0-.522.522v16.875a6.91 6.91 0 0 0 6.901 6.902z"/></g><g><path fill="#9bbd37" d="M48.787 36.616c0-.976.977-1.953 1.953-1.953h8.853c.976 0 1.953.977 1.953 1.953v15.33c0 2.986-2.986 5.972-5.972 5.972h-.815c-2.986 0-5.972-2.986-5.972-5.972z"/></g><g><path fill="#424242" d="M61.023 35.186v16.352a5.863 5.863 0 0 1-5.856 5.857 5.863 5.863 0 0 1-5.857-5.857V35.186zM55.167 58.44a6.91 6.91 0 0 0 6.901-6.902V34.663a.522.522 0 0 0-.522-.522H48.787a.522.522 0 0 0-.522.522v16.875a6.91 6.91 0 0 0 6.902 6.902z"/></g><g><path fill="#337d3e" d="M61.546 36.644c0-.99.99-1.98 1.98-1.98h8.797c.99 0 1.981.99 1.981 1.98v15.275c0 3-3 5.999-6 5.999h-.759c-3 0-6-3-6-6z"/></g><g><path fill="#424242" d="M73.782 35.186v16.352a5.864 5.864 0 0 1-5.857 5.857 5.864 5.864 0 0 1-5.857-5.857V35.186zM67.925 58.44a6.91 6.91 0 0 0 6.902-6.902V34.663a.523.523 0 0 0-.523-.522H61.546a.523.523 0 0 0-.523.522v16.875a6.91 6.91 0 0 0 6.902 6.902z"/></g><g><path fill="#9bbd37" d="M74.304 36.52c0-.928.928-1.857 1.857-1.857h9.045c.928 0 1.856.929 1.856 1.857v15.522c0 2.938-2.937 5.876-5.875 5.876H80.18c-2.938 0-5.876-2.938-5.876-5.876z"/></g><g><path fill="#424242" d="M86.54 35.186v16.352a5.864 5.864 0 0 1-5.857 5.857 5.863 5.863 0 0 1-5.856-5.857V35.186zm1.045 16.352V34.663a.523.523 0 0 0-.523-.522H74.304a.522.522 0 0 0-.522.522v16.875a6.91 6.91 0 0 0 6.901 6.902 6.91 6.91 0 0 0 6.902-6.902z"/></g><g><path fill="#337d3e" d="M87.062 36.763c0-1.05 1.05-2.1 2.1-2.1h8.559c1.05 0 2.1 1.05 2.1 2.1V51.8c0 3.06-3.06 6.119-6.12 6.119h-.52c-3.06 0-6.119-3.06-6.119-6.119z"/></g><g><path fill="#424242" d="M99.298 35.186v16.352a5.863 5.863 0 0 1-5.857 5.857 5.863 5.863 0 0 1-5.856-5.857V35.186zM93.441 58.44a6.91 6.91 0 0 0 6.902-6.902V34.663a.522.522 0 0 0-.522-.522H87.062a.522.522 0 0 0-.522.522v16.875a6.91 6.91 0 0 0 6.901 6.902z"/></g><g><path fill="#337d3e" d="M99.82 34.663H10.514l6.379-5.949h76.55z"/></g><g><path fill="#424242" d="M17.097 29.236h76.139l5.258 4.905H11.839z"/></g></g></g></svg>