<svg xmlns="http://www.w3.org/2000/svg" width="111" height="113" viewBox="0 0 111 113"><g><g><g><path fill="#fff" d="M108.839 12.921c.023-.296.039-.595.039-.898 0-6.164-4.997-11.16-11.16-11.16-4.935 0-9.119 3.205-10.592 7.645-.188-.014-.376-.028-.568-.028a7.352 7.352 0 1 0 0 14.703h17.435a6.275 6.275 0 0 0 4.846-10.262z"/></g><g><path fill="#424242" d="M87.089 8.989a.48.48 0 0 0 .494-.329 10.662 10.662 0 0 1 10.135-7.315c5.888 0 10.678 4.79 10.678 10.678 0 .26-.012.542-.037.861a.48.48 0 0 0 .108.344 5.806 5.806 0 0 1 1.319 3.68 5.8 5.8 0 0 1-5.793 5.793H86.558a6.878 6.878 0 0 1-6.87-6.87 6.878 6.878 0 0 1 6.87-6.87c.173 0 .347.014.531.028zm23.661 7.919a6.77 6.77 0 0 0-1.417-4.14c.018-.268.027-.513.027-.745 0-6.419-5.223-11.642-11.642-11.642a11.623 11.623 0 0 0-10.926 7.622 6.02 6.02 0 0 0-.234-.005c-4.32 0-7.834 3.514-7.834 7.833 0 4.32 3.514 7.834 7.834 7.834h17.435a6.764 6.764 0 0 0 6.757-6.757z"/></g><g><path fill="#fff" d="M27.678 25.052c-.216 0-.429.013-.641.033-1.408-3.743-5.01-6.41-9.245-6.41-4.235 0-7.837 2.667-9.246 6.41a6.698 6.698 0 1 0-.641 13.363h19.773a6.698 6.698 0 0 0 0-13.396z"/></g><g><path fill="#424242" d="M7.905 25.745c.195 0 .386.012.577.029a.693.693 0 0 0 .713-.445c1.341-3.566 4.796-5.961 8.597-5.961 3.8 0 7.255 2.395 8.597 5.961.11.292.398.476.713.445a6.011 6.011 0 0 1 6.581 5.976 6.011 6.011 0 0 1-6.005 6.005H7.905A6.012 6.012 0 0 1 1.9 31.75a6.012 6.012 0 0 1 6.005-6.005z"/></g><g><path fill="#fff" d="M105.23 76.899c.002-.035.003-.071.003-.106.077-3.661-2.834-6.805-6.492-6.994a6.86 6.86 0 0 0-7.211 7.265c.18 2.99-.849 5.925-2.646 8.323a11.814 11.814 0 0 0-2.34 7.78c.343 6.089 5.377 10.98 11.473 11.161 6.709.198 12.21-5.181 12.21-11.846 0-2.664-.879-5.122-2.363-7.101-1.832-2.442-2.744-5.43-2.634-8.482z"/></g><g><path fill="#424242" d="M98.373 70.312c.113 0 .227.003.342.009 3.377.175 6.067 3.073 5.996 6.462l-.003.096v.001c-.115 3.178.857 6.308 2.738 8.815a11.23 11.23 0 0 1 2.258 6.787c0 3.089-1.22 5.976-3.437 8.128a11.26 11.26 0 0 1-8.235 3.195c-5.822-.172-10.639-4.858-10.966-10.668-.15-2.67.644-5.311 2.237-7.437 1.952-2.605 2.928-5.684 2.749-8.667a6.28 6.28 0 0 1 1.962-4.981 6.282 6.282 0 0 1 4.359-1.74zm8.622 31.048a12.276 12.276 0 0 0 3.755-8.878c0-2.698-.854-5.262-2.468-7.414-1.738-2.316-2.636-5.211-2.53-8.15l.004-.114c.082-3.946-3.052-7.323-6.987-7.527a7.325 7.325 0 0 0-5.474 2.017 7.319 7.319 0 0 0-2.287 5.801c.165 2.737-.738 5.571-2.542 7.979a12.397 12.397 0 0 0-2.443 8.122c.357 6.347 5.618 11.466 11.978 11.654a12.274 12.274 0 0 0 8.994-3.49z"/></g><g><g><path fill="#5e35b1" d="M98.376 87.082v24.872"/></g><g><path fill="#424242" d="M98.376 112.476a.522.522 0 0 1-.522-.522V87.082a.522.522 0 1 1 1.045 0v24.872a.523.523 0 0 1-.523.522z"/></g></g><g><g><path fill="#5e35b1" d="M93.804 94.52l4.572 3.013"/></g><g><path fill="#424242" d="M98.376 98.056a.52.52 0 0 1-.287-.086l-4.573-3.014a.521.521 0 1 1 .575-.872l4.573 3.014a.52.52 0 0 1-.288.958z"/></g></g><g><g><path fill="#ffc107" d="M92.628 111.953h11.496"/></g><g><path fill="#424242" d="M104.124 112.476H92.628a.523.523 0 1 1 0-1.045h11.496a.523.523 0 1 1 0 1.045z"/></g></g><g><path fill="#fff" d="M19.742 76.899l.003-.106c.076-3.661-2.835-6.805-6.492-6.994a6.859 6.859 0 0 0-7.212 7.265c.18 2.99-.849 5.925-2.645 8.323a11.803 11.803 0 0 0-2.34 7.78c.342 6.089 5.376 10.98 11.472 11.161 6.709.198 12.21-5.181 12.21-11.846 0-2.664-.879-5.122-2.363-7.101-1.832-2.442-2.744-5.43-2.633-8.482z"/></g><g><path fill="#424242" d="M12.884 70.312c.114 0 .228.003.342.009 3.377.175 6.067 3.073 5.996 6.462l-.003.096v.001c-.115 3.178.858 6.308 2.738 8.815a11.224 11.224 0 0 1 2.259 6.787c0 3.089-1.221 5.976-3.438 8.128a11.258 11.258 0 0 1-8.234 3.195c-5.823-.172-10.64-4.858-10.966-10.668A11.352 11.352 0 0 1 3.814 85.7c1.952-2.605 2.928-5.684 2.749-8.667a6.282 6.282 0 0 1 1.963-4.981 6.28 6.28 0 0 1 4.358-1.74zm.007 34.544c3.238 0 6.285-1.233 8.615-3.496a12.276 12.276 0 0 0 3.755-8.878c0-2.698-.853-5.262-2.468-7.414-1.737-2.316-2.636-5.211-2.529-8.15l.003-.114c.082-3.946-3.052-7.323-6.987-7.527a7.327 7.327 0 0 0-5.474 2.017 7.318 7.318 0 0 0-2.286 5.801c.164 2.737-.739 5.571-2.542 7.979a12.397 12.397 0 0 0-2.444 8.122c.357 6.347 5.619 11.466 11.979 11.654.126.004.252.006.378.006z"/></g><g><g><path fill="#5e35b1" d="M12.888 87.082v24.872"/></g><g><path fill="#424242" d="M12.888 112.476a.523.523 0 0 1-.523-.522V87.082a.523.523 0 0 1 1.045 0v24.872a.522.522 0 0 1-.522.522z"/></g></g><g><g><path fill="#5e35b1" d="M8.315 94.52l4.573 3.013"/></g><g><path fill="#424242" d="M12.887 98.056a.52.52 0 0 1-.287-.086l-4.572-3.014a.521.521 0 1 1 .575-.872l4.572 3.014a.521.521 0 0 1-.288.958z"/></g></g><g><g><path fill="#ffc107" d="M7.14 111.953h11.496"/></g><g><path fill="#424242" d="M18.636 112.476H7.139a.522.522 0 0 1 0-1.045h11.497a.523.523 0 0 1 0 1.045z"/></g></g><g><path fill="#f8f9f9" d="M16.9 112.338V76.09h77.232v36.25z"/></g><g><path fill="#424242" d="M17.423 75.612H93.61v35.204H17.423zm77.232 35.727v-36.25a.523.523 0 0 0-.523-.522H16.901a.523.523 0 0 0-.523.522v36.25c0 .288.234.522.523.522h77.231a.523.523 0 0 0 .523-.522z"/></g><g><path fill="#eceff1" d="M46.412 111.338V75.09h19.05v36.25z"/></g><g><path fill="#424242" d="M46.934 75.612H64.94v35.204H46.934zm19.051 35.727v-36.25a.523.523 0 0 0-.523-.522h-19.05a.523.523 0 0 0-.523.522v36.25c0 .288.234.522.523.522h19.05a.523.523 0 0 0 .523-.522z"/></g><g><path fill="#337d3e" d="M60.994 91.592c0-.36.36-.72.72-.72h.847c.36 0 .72.36.72.72v5.136c0 .36-.36.72-.72.72h-.847c-.36 0-.72-.36-.72-.72z"/></g><g><path fill="#424242" d="M62.758 92.015v4.289a.622.622 0 1 1-1.242 0v-4.289a.622.622 0 0 1 1.242 0zm1.046 4.289v-4.289a1.667 1.667 0 0 0-3.333 0v4.289c0 .919.747 1.667 1.666 1.667a1.67 1.67 0 0 0 1.667-1.667z"/></g><g><g><path fill="#5e35b1" d="M12.888 111.953h85.488"/></g><g><path fill="#424242" d="M98.376 112.476H12.888a.523.523 0 1 1 0-1.045h85.488a.523.523 0 1 1 0 1.045z"/></g></g><g><path fill="#9bbd37" d="M17.523 53.182v-10.88h76.55v10.88z"/></g><g><path fill="#424242" d="M18.045 42.824H93.55v9.836H18.045zm76.55 10.358V42.301a.522.522 0 0 0-.522-.522h-76.55a.523.523 0 0 0-.523.522v10.881c0 .289.234.523.523.523h76.55a.523.523 0 0 0 .522-.523z"/></g><g><path fill="#424242" d="M69.191 75.612H93.61v21.314H69.191zm25.464 21.836V75.089a.523.523 0 0 0-.523-.522H68.669a.523.523 0 0 0-.523.522v22.359c0 .289.234.523.523.523h25.463a.523.523 0 0 0 .523-.523z"/></g><g><g><path fill="#424242" d="M69.191 75.612H93.61v21.314H69.191zm25.464 21.836V75.089a.523.523 0 0 0-.523-.522H68.669a.523.523 0 0 0-.523.522v22.359c0 .289.234.523.523.523h25.463a.523.523 0 0 0 .523-.523z"/></g></g><g><g><path fill="#eceff1" d="M81.4 75.09v22.358"/></g><g><path fill="#424242" d="M81.401 97.971a.523.523 0 0 1-.523-.523V75.089a.523.523 0 0 1 1.045 0v22.359a.523.523 0 0 1-.522.523z"/></g></g><g><g><path fill="#424242" d="M17.423 75.612h24.418v21.314H17.423zm25.463 21.836V75.089a.522.522 0 0 0-.522-.522H16.901a.523.523 0 0 0-.523.522v22.359c0 .289.234.523.523.523h25.463a.522.522 0 0 0 .522-.523z"/></g></g><g><g><path fill="#eceff1" d="M29.632 75.09v22.358"/></g><g><path fill="#424242" d="M29.632 97.971a.523.523 0 0 1-.522-.523V75.089a.522.522 0 0 1 1.045 0v22.359a.523.523 0 0 1-.523.523z"/></g></g><g><path fill="#337d3e" d="M11.144 61.016c0-.942.942-1.885 1.884-1.885h8.99c.942 0 1.884.943 1.884 1.885v15.467c0 2.951-2.952 5.903-5.903 5.903h-.952c-2.952 0-5.903-2.952-5.903-5.903z"/></g><g><path fill="#424242" d="M23.38 59.654v16.353a5.863 5.863 0 0 1-5.857 5.856 5.863 5.863 0 0 1-5.857-5.856V59.654zm1.045 16.353V59.131a.523.523 0 0 0-.523-.522H11.144a.523.523 0 0 0-.523.522v16.876a6.91 6.91 0 0 0 6.902 6.902 6.91 6.91 0 0 0 6.902-6.902z"/></g><g><path fill="#9bbd37" d="M23.902 60.956c0-.912.912-1.825 1.825-1.825h9.109c.912 0 1.824.913 1.824 1.825v15.587c0 2.921-2.921 5.843-5.843 5.843h-1.072c-2.921 0-5.843-2.922-5.843-5.843z"/></g><g><path fill="#424242" d="M36.138 59.654v16.353a5.863 5.863 0 0 1-5.857 5.856 5.863 5.863 0 0 1-5.856-5.856V59.654zm1.045 16.353V59.131a.523.523 0 0 0-.523-.522H23.902a.522.522 0 0 0-.522.522v16.876a6.91 6.91 0 0 0 6.901 6.902 6.91 6.91 0 0 0 6.902-6.902z"/></g><g><path fill="#337d3e" d="M36.66 61.215c0-1.042 1.042-2.084 2.084-2.084h8.59c1.043 0 2.085 1.042 2.085 2.084v15.069c0 3.05-3.052 6.102-6.103 6.102h-.553c-3.051 0-6.103-3.051-6.103-6.102z"/></g><g><path fill="#424242" d="M48.896 59.654v16.353a5.863 5.863 0 0 1-5.857 5.856 5.863 5.863 0 0 1-5.856-5.856V59.654zm-5.857 23.255a6.91 6.91 0 0 0 6.902-6.902V59.131a.522.522 0 0 0-.522-.522H36.66a.522.522 0 0 0-.522.522v16.876a6.91 6.91 0 0 0 6.901 6.902z"/></g><g><path fill="#9bbd37" d="M49.419 61.203c0-1.036 1.035-2.072 2.071-2.072h8.615c1.036 0 2.072 1.036 2.072 2.072v15.093c0 3.045-3.045 6.09-6.09 6.09h-.578c-3.045 0-6.09-3.045-6.09-6.09z"/></g><g><path fill="#424242" d="M61.654 59.654v16.353a5.863 5.863 0 0 1-5.856 5.856 5.863 5.863 0 0 1-5.857-5.856V59.654zM62.7 76.007V59.131a.523.523 0 0 0-.523-.522H49.419a.523.523 0 0 0-.523.522v16.876a6.91 6.91 0 0 0 6.902 6.902 6.91 6.91 0 0 0 6.902-6.902z"/></g><g><path fill="#337d3e" d="M62.177 61.175c0-1.022 1.022-2.044 2.043-2.044h8.672c1.021 0 2.043 1.022 2.043 2.044v15.149c0 3.03-3.031 6.062-6.062 6.062h-.634c-3.031 0-6.062-3.031-6.062-6.062z"/></g><g><path fill="#424242" d="M74.412 59.654v16.353a5.863 5.863 0 0 1-5.856 5.856 5.863 5.863 0 0 1-5.856-5.856V59.654zm1.046 16.353V59.131a.523.523 0 0 0-.523-.522H62.177a.523.523 0 0 0-.523.522v16.876a6.91 6.91 0 0 0 6.902 6.902 6.91 6.91 0 0 0 6.902-6.902z"/></g><g><path fill="#9bbd37" d="M74.935 60.971c0-.92.92-1.84 1.84-1.84h9.079c.92 0 1.84.92 1.84 1.84v15.556c0 2.93-2.93 5.859-5.86 5.859h-1.04c-2.93 0-5.859-2.93-5.859-5.859z"/></g><g><path fill="#424242" d="M87.171 59.654v16.353a5.863 5.863 0 0 1-5.857 5.856 5.863 5.863 0 0 1-5.856-5.856V59.654zm1.045 16.353V59.131a.523.523 0 0 0-.523-.522H74.935a.523.523 0 0 0-.523.522v16.876a6.91 6.91 0 0 0 6.902 6.902 6.91 6.91 0 0 0 6.902-6.902z"/></g><g><path fill="#337d3e" d="M87.693 60.592c0-.73.73-1.46 1.461-1.46h9.837c.73 0 1.46.73 1.46 1.46v16.315c0 2.74-2.739 5.479-5.479 5.479h-1.8c-2.739 0-5.479-2.74-5.479-5.48z"/></g><g><path fill="#424242" d="M99.929 59.654v16.353a5.863 5.863 0 0 1-5.856 5.856 5.863 5.863 0 0 1-5.857-5.856V59.654zm-5.856 23.255a6.91 6.91 0 0 0 6.901-6.902V59.131a.522.522 0 0 0-.522-.522H87.693a.522.522 0 0 0-.522.522v16.876a6.91 6.91 0 0 0 6.902 6.902z"/></g><g><path fill="#337d3e" d="M100.452 59.131H11.144l6.379-5.949h76.55z"/></g><g><path fill="#424242" d="M17.729 53.705h76.138l5.258 4.904H12.47zm82.723 5.949a.523.523 0 0 0 .356-.905L94.429 52.8a.524.524 0 0 0-.356-.14h-76.55c-.133 0-.26.05-.357.14l-6.379 5.949a.522.522 0 0 0 .357.905z"/></g></g></g></svg>