<svg fill="none" height="250" width="588" xmlns="http://www.w3.org/2000/svg"><path d="m403.9 133.9a25.8 25.8 0 0 0 -1.2 16.8c.9 4 2.8 7.6 5.6 10.5 3.7 3.6 8.6 5.7 13.7 6 5.1.2 10.2-.7 15-2.7 5.9-2.2 11.3-5.5 16-9.7 3-2.6 6-6.3 5-10.1a60.6 60.6 0 0 1 -46.3-6c-2.3-2-4.5-5-7.4-4.3" fill="#fff"/><path d="m154.3 112.4a16.4 16.4 0 0 0 4.7 32c.8 0 1.5.1 2.2.5.6.5 1 1.2 1 2l2 7.5c.6-3.5 2-7.8 5.4-8.4 1.8-.3 3.7.6 5.5.7 2.8.2 5.5-1.2 7.6-3.1 7.8-7 8.2-20.3 1.3-28.1a22.8 22.8 0 0 0 -28.5-3.6m117.2 12.5a27.3 27.3 0 0 0 -11.8 22.3 17 17 0 0 0 4 11.6c5.3 5.8 14.6 5.2 22.3 3a4 4 0 0 1 2.3-.1 4 4 0 0 1 1.8 1.6l5.6 7.8.8-9.2c0-.8.2-1.6.6-2.3.6-.7 1.4-1.3 2.3-1.7a19 19 0 0 0 8.4-8.3c3.6-7.5.4-16.7-4.5-23.5a23.7 23.7 0 0 0 -10.6-9c-5.8-2.2-12.4-.5-17.6 2.8a60.4 60.4 0 0 0 -13.2 13" fill="#ffd000"/><path clip-rule="evenodd" d="m461 119.7c1.5 1 2.3 2.6 2.2 4.4-.1 1.3-.6 2.6-1 4l-.8 2c-.5 2.4-.3 4.9 0 7.4l.2 4.4c-.1 3.3-1 6.6-2 9.8-1 3.5-1.9 7-1.8 10.7l.1 1.8c.1 1.8.3 3.7-.4 5.4-1.2 3-4.6 4.5-7.7 5.6-5.8 2.1-12 4.1-17.9 2.7-1-.3-2-.4-3-.3-.8.3-1.5.8-2.1 1.4l-11 10.2c-1.8-1.6-1-4-.2-6.6.7-2.4 1.5-4.9 0-6.6a7 7 0 0 0 -3.2-1.7 32.8 32.8 0 0 1 -19.3-17.4 31.3 31.3 0 0 1 .1-25.8c4.1-8.6 12-14.9 21-18 9-3 18.7-3.3 28-2 7 1 14.4 3.2 18.8 8.6zm-10.6 37.9c1.7-1.9 3.4-3.8 5.5-4.7 5.1-2 3.1-10.5-2.4-8.5-11.7 4.3-24.2-.2-35.7-4.4l-7-2.4c-.5-.2-1-.2-1.4-.2a8.5 8.5 0 0 0 -2.3-2.2c-4.8-3.2-9.2 4.5-4.5 7.7-.6-.5-.4 0-.1.7l.3 1a37.3 37.3 0 0 1 .6 4c.2 3 .7 5.9 1.5 8.8 2 6.2 8 9.3 14.2 10.2a41.3 41.3 0 0 0 28.4-7z" fill="#ffd000" fill-rule="evenodd"/><g fill="#000"><path d="m402.6 148.5c7.4 1 14.7 2.8 21.7 5.7 7.2 3 14.8 5.2 22.5 6.6 2 .3 2.7-2.6.8-3-7.7-1.2-15.3-3.5-22.5-6.6a88 88 0 0 0 -21.7-5.6c-2-.3-2.7 2.6-.8 2.9zm-233.3-61.2-36.6-8.1c-2-.4-2.7 2.5-.8 2.9l36.6 8c1.9.5 2.7-2.4.8-2.8z"/><path d="m129.4 81.3c-6.5 28.8-11 58.2-13.1 87.7 0 .7.4 1.3 1 1.4 24 7 48.1 13 72.5 18.1.6.2 1.3-.1 1.7-.7a328.6 328.6 0 0 0 25-84.2c.3-2.8.2-5-2.6-6.3-4.7-2.4-11.6-2.7-16.7-3.9l-19-4.2c-2-.4-2.7 2.5-.8 3l30.3 6.6c1.3.2 2.6.5 3.8.9 2.3 1.2 2.1 2.7 1.8 4.9a230.8 230.8 0 0 1 -4.5 22.9 325 325 0 0 1 -20 58.7l1.8-.6c-24.4-5-48.5-11.1-72.4-18l1 1.4c2.3-29.3 6.6-58.3 13-87 .5-1.8-2.4-2.6-2.8-.7z"/><path d="m134.9 89.9c-6.2 24.3-10.6 49-13 74 0 .6.4 1.2 1 1.4l61.5 14.8c.8.2 1.6-.2 1.9-1 9-24.2 15.7-49.2 20-74.6.3-2-2.6-2.8-2.9-.8-4.3 25.4-11 50.4-20 74.6l1.9-1-61.6-15 1.1 1.5c2.5-24.6 6.8-49 13-73.1.5-1.9-2.4-2.7-2.9-.8z"/><path d="m205.3 102.2-66.7-14.4c-1.9-.4-2.7 2.5-.8 2.9l66.7 14.4c1.8.4 2.7-2.5.8-2.9zm-53.9 8.6c-8.3 5.6-14.2 16-10.3 26 1.8 4.5 5.2 8.2 9.6 10.2 2 1 4 .9 6 1.3 4.3 1 4.3 6.1 5.2 9.8a1.5 1.5 0 0 0 2.8.3l6-10.3-2.1.5a14 14 0 0 0 16-3.4c5.2-5.4 5.6-13.5 4.6-20.5-1.2-7.5-4-12.1-11.3-14.4a39.8 39.8 0 0 0 -26.6 1.2c-1.8.7-1 3.6.8 2.9 9.4-3.7 29.5-6 33.2 6.5 1.5 5.1 2.1 11.4.4 16.5-2 6.3-8.7 11.7-15.5 8.6-.8-.4-1.7-.1-2 .6l-6 10.3 2.7.4c-.8-3-1-9.1-3.7-11.2-1.1-.9-2.4-.7-3.7-.8-3-.2-5.5-.7-8-2.5-11-8-6.3-22.8 3.4-29.3 1.6-1 .1-3.7-1.5-2.6z"/><path d="m158.7 122.5a1.5 1.5 0 1 0 0-3 1.5 1.5 0 0 0 0 3zm11.7 0a1.5 1.5 0 1 0 0-3 1.5 1.5 0 0 0 0 3zm-11.7 9.1c3.6-.3 7.2-.1 10.8.3 2 .3 2.7-2.6.8-2.8-3.8-.6-7.7-.7-11.6-.5-2 .1-2 3.1 0 3zm111.2-28a740.5 740.5 0 0 0 -30.8 9c-1.8.6-1 3.5.8 3 10.2-3.3 20.5-6.3 30.8-9a1.5 1.5 0 0 0 -.8-3z"/><path d="m237.7 113.1a528.1 528.1 0 0 0 12.9 80.9c.7 2.8 1.2 7 4.6 8.2 3.3 1 8-1.1 11.2-1.8l16.8-4a466 466 0 0 0 33.3-9.2c6.5-2 16.5-3.8 19.6-10.8 3.7-8-1.6-19.6-3.6-27.4l-8.4-32.4c-1.8-7.3-2.2-20.9-11.9-22-4.8-.5-10.1 1.3-14.8 2.3-6.4 1.4-12.8 3-19.2 4.6-1.8.5-1 3.4.8 2.9 9-2.3 17.9-4.6 27-6.3 5.8-1 10-.3 11.8 6 1.3 4.4 2.3 9 3.4 13.4l6.9 26.7 3.4 13.3c1 4.2 2.7 8.5 2.7 12.9.2 10.6-14.1 12.7-22.2 15.2a438 438 0 0 1 -25.8 7.1c-8.6 2.1-17.5 5-26.2 6.1-1.7.2-3.3 1.4-5-.5-.6-.7-.8-2.4-1-3.2l-1.6-6.5a494.3 494.3 0 0 1 -11.8-75.4c-.1-2-3.1-2-3 0z"/><path d="m244.1 123c3.8 20.3 7.9 40.6 12.6 60.8 1.5 6.5 4.2 8.7 11 7.4a393 393 0 0 0 44-12.6c3.6-1.4 9-2.3 12.2-4.7 4.8-3.7.2-15.5-.9-20.2l-7.3-30.5c-1.1-4.8-2-9.7-3.5-14.4-.8-2.6-1.7-4.2-4.5-4.9-9-2.4-20.5 2.8-29 5.4a526.2 526.2 0 0 0 -33 11.3c-1.7.7-1 3.6.9 3 15-5.8 30.2-10.9 45.6-15 3.7-1 8.7-3 12.6-2 3.4.7 4.3 2 5 5l1.6 6.6a28125.7 28125.7 0 0 1 8.8 36.3c.9 4 2.7 9 2.5 13-.2 2.7 1.5 2.3-3 4.8a305.4 305.4 0 0 1 -19.8 7 405 405 0 0 1 -23.7 6.8c-3.7.9-7.7 2.3-11.5 2.6-5.1.3-5.4-6.7-6.2-10.5-4.2-18.6-8-37.2-11.5-56-.3-1.9-3.3-1-2.9.8z"/><path d="m267.1 126c-9.6 5.7-10.8 24-5 32.7 3.6 5.3 9.7 6.9 15.7 6.5 1.7-.1 3.5-.4 5.1-.7 3.1-.6 3.7-.8 5.7 1.7 2.3 2.6 3.9 5 6.7 7.2 1 .7 2.2-.3 2.3-1.3.2-4.2.1-8.5-.2-12.7l-1 1.5c14.4-2.6 19.9-20 11.7-31.4-9.6-13.6-28.2-12.8-40.5-3.4-1.5 1.1 0 3.7 1.5 2.6 10.3-7.8 25.5-9.9 34.9.4 8.8 9.7 5.3 26.4-8.5 28.9-.6.2-1 .8-1 1.4.2 4.2.3 8.5 0 12.7l2.4-1.3c-3-2.3-4.6-4.9-6.6-8-.6-1.1-1.7-2-3-2-1.9-.3-4.1.6-6 1-3.5.5-7.3.9-10.8-.2-11.7-3.8-11.8-27.2-2-33a1.5 1.5 0 0 0 -1.5-2.6z"/><path d="m277.4 138.2a1.5 1.5 0 1 0 0-3 1.5 1.5 0 0 0 0 3zm8.3-2.5a1.5 1.5 0 1 0 0-3 1.5 1.5 0 0 0 0 3zm-8.3 12.8c6.4 1.7 13-1.4 15.8-7.3.8-1.8-1.8-3.3-2.6-1.5a10.7 10.7 0 0 1 -12.4 5.9 1.5 1.5 0 0 0 -.8 2.9zm100-51c-1.2 20.8-3.2 41.7-3.6 62.5a85 85 0 0 0 2.3 25.5c2 7 6.9 11.2 13.4 14 16.5 6.7 35.6 8.2 53.2 10.3 7.7 1 14 .7 18.3-6.4a56.4 56.4 0 0 0 7-24.6c.1-1.9-2.9-1.9-3 0-.6 8-2.5 17.7-7.4 24.3-5.4 7.3-17.7 3.4-25.3 2.4-8.4-1-16.7-2.3-25-4.2-7.1-1.5-15.3-3-21.5-7.1-7.3-4.8-8.2-13.9-8.8-22-.4-7.8-.3-15.7.3-23.5l3.1-51.2c.1-2-2.9-2-3 0z"/><path d="m420.6 88.3c-10.3-.8-21.4-1.8-31.7-.2-6.2.9-12.3 5.4-10.3 12.3a1.5 1.5 0 0 0 2.8-.8c-3.7-13.2 32.3-8.9 39.2-8.3 2 .1 2-2.9 0-3zm48 87.9 3.4-32.2c1.2-10.5 2.9-21.2 2.8-31.8 0-7.2-1.2-13.1-8.6-15.8-10-3.6-21.1-5-31.5-6.5-1.9-.3-2.7 2.6-.8 2.9 9 1.2 17.9 3 26.7 5.1 5.8 1.5 10.4 3.4 11 10 .4 4.5.3 9-.1 13.4-1.5 18.4-4 36.7-6 55-.3 1.9 2.7 1.9 3 0z"/><path d="m386.8 97.8a793.1 793.1 0 0 0 -4.4 35.4c-1.1 11.8-3.3 24.5-1.6 36.3a27.1 27.1 0 0 0 13.3 21c9.8 5.3 21.5 6.5 32.3 8.2 7.6 1.3 19.5 5.8 25.7-1 6.3-6.8 7.1-18.8 8.3-27.4 1.6-12.2 2.5-24.5 3.7-36.7.6-5.7 1.5-11.5 1.7-17.2.1-4.2-1-7.4-4.3-10-8-6.2-21.3-6.9-31-8.2a242.3 242.3 0 0 0 -41.6-2c-2 0-2 3 0 3 19.9-.8 40.1.6 59.5 5.2 4 1 8.9 2 12 5 4.2 3.8 2 11.5 1.5 16.4l-3 30.3c-1 10.2-2 20.5-4.8 30.4-1.4 4.7-3 9.9-8.1 11.3s-11.8-.9-17-1.7c-9.5-1.5-19.3-2.7-28.4-6a24.9 24.9 0 0 1 -17-22.6c-1.2-10.7.6-21.8 1.6-32.4a736 736 0 0 1 4.5-36.5c.2-1.9-2.6-2.7-3-.8z"/><path d="m464.4 121.5a53.3 53.3 0 0 0 -18-10 39 39 0 0 0 -20.3-2.7c-11.9 1.7-25.2 6.2-31 17.5a43.2 43.2 0 0 0 -1 37.8c2.6 4.9 6.5 9 11.3 11.6 2.7 1.6 5.4 1.8 8.2 2.9 1.6.6 2.2-.8 2.7 2.1.3 1.9-1.2 5.3-1.6 7.1a1.5 1.5 0 0 0 2.5 1.5c2.9-2.5 6-6.5 9.4-8.3 2.8-1.7 8-.1 11.5-.5 6.8-.6 13.3-3.3 19.5-6 1.8-.7.3-3.3-1.5-2.6-9 3.9-16.7 6.2-26.5 5.2-2.3-.3-2.8-.1-4.4 1.1-3.6 2.6-6.8 6-10 9l2.4 1.5c.6-2.7 3.8-9.9 1.3-12.2-1.3-1.1-4.5-.7-5.9-1-2.6-.6-5-1.6-7.3-3-12.2-8-14.1-23.6-10.8-36.7 3.5-14 13.9-20.4 27.3-23.2a47.1 47.1 0 0 1 40 11c1.4 1.4 3.5-.7 2.1-2h.1z"/><path d="m402.6 135.3a81 81 0 0 0 55.9 11.5l-2-1.4c-.7 6-7.4 11.8-12 14.9a35 35 0 0 1 -17.5 6c-6.6.3-13.5-1.4-18-6.6-5.8-7-5.6-16.6-4.4-25 .3-2-2.6-2.8-2.9-.9-1.2 8.8-1.5 18.2 3.7 25.9a23.1 23.1 0 0 0 19.3 9.6c7.9 0 15.5-2.3 22-6.8 5.4-3.8 12-10.2 13-17 0-1.2-1.1-1.7-2-1.5a77.8 77.8 0 0 1 -53.6-11.3c-1.6-1-3.1 1.6-1.5 2.6zm28.6-3.6a1.5 1.5 0 1 0 0-3 1.5 1.5 0 0 0 0 3zm6.3 1.3a1.5 1.5 0 1 0 0-3 1.5 1.5 0 0 0 0 3zm-265.4-65.3c-2 8.7-3.7 17.5-5.2 26.3-.2.8.2 1.6 1 1.8 6 1 7.9 2.1 9.3-4.2l5.5-24.2c.2-.8-.2-1.6-1-1.8-3.5-1.4-10.9-3.2-9.7 3 .3 2 3.2 1.2 2.9-.7-.4-2.2 5.8.5 6 .6l-1-1.9-3.6 15.5c-.5 2.5-.8 5.4-1.7 7.7-1.5 3.6-2.2 3.8-6 3.2l1.1 1.8c1.5-8.8 3.3-17.6 5.3-26.3.4-2-2.5-2.7-2.9-.8z"/><path d="m180.6 66.3c.4 8.5 1.1 16.8 2.3 25.2.3 1.9 3.1 1 2.9-.8-1.1-8.1-1.9-16.2-2.2-24.4 0-1.9-3-1.9-3 0zm99.5 36.2c-1.5-8-2.9-16.2-5-24-1.4-5.5-6.9-3.5-11.3-2.5-1.9.4-1 3.3.8 2.9 2.6-.6 6.3-2.2 7.7.4 1.1 2.2 1.2 6 1.7 8.4 1.1 5.2 2.3 10.4 3.2 15.6.4 1.9 3.3 1.1 3-.8z"/><path d="m263 78.4a428 428 0 0 0 7.6 34c.3.8 1.1 1.2 1.9 1l7.4-1.9c.6-.2 1-.8 1-1.4a62 62 0 0 0 -.8-7.6c-.3-2-3.2-1.1-2.9.8.4 2.2.6 4.5.8 6.8l1-1.5-7.3 1.9 1.8 1a383 383 0 0 1 -7.5-33.9c-.3-1.9-3.2-1.1-2.9.8zm9.3-.4c4.7 7.8 9.6 15.5 14.7 23 1 1.6 3.7 0 2.6-1.5a479 479 0 0 1 -14.7-23 1.5 1.5 0 0 0 -2.6 1.5zm149.8-4.2c-.5 4-1 7.9-1.3 11.8-.3 3.7-1.1 8.2-.5 11.8.8 4.5 9.6 3.1 13 3.4.8 0 1.4-.7 1.5-1.5l2.3-23.7c.3-3.8 1.3-8 1-11.9 0-1.2-.5-2.3-1.5-3-2.4-1.6-10.5-2-12.8 0-1.4 1.2-1.4 3.4-1.7 5-.6 3.6-1 7.3-1.3 11-.1 2 2.9 2 3 0 .4-4-.6-13 4.1-14.2 1.7 0 3.4.2 5 .5 1.6-.3 2.2.2 2 1.5.7 1.7-.3 5.2-.5 7-.8 9.3-1.6 18.5-2.6 27.7l1.5-1.5c-2.2-.1-4.9.1-6.9-.5-1.6.3-2.6-.3-3-2v-3.8c.3-5.7.8-11.3 1.6-16.9.3-1.9-2.6-2.7-2.9-.8z"/><path d="m435.4 61.1c1.2 10.8 3 21.6 5.4 32.1.4 2 3.3 1.1 2.9-.8a272 272 0 0 1 -5.3-31.3c-.2-1.9-3.2-1.9-3 0zm-433.4 3.4h-.4c-.8.3-1.2 1.1-1 1.9 1.6 4.7 9.7 2.1 13 1 7.4-2.2 14.2-6.4 21-9.8 15.1-7.6 30.2-12.5 46.2-4.7 6.5 3.2 12.2 7.4 18.9 10.2a73.2 73.2 0 0 0 19 4.9c17.8 2.2 36.3 1 54-.6 1.9-.2 1.9-3.2 0-3a277.7 277.7 0 0 1 -50.6 1 71.8 71.8 0 0 1 -22.6-5.6c-6.2-2.8-11.7-6.8-17.8-9.8a43.6 43.6 0 0 0 -35.6-.9c-4.3 1.6-41.1 21.2-42.6 16.5l-1.1 1.8h.4a1.5 1.5 0 0 0 -.8-3zm180.7 4.3c4.1.8 7 3.3 10.5 5.5 3 1.8 6.3 3.4 9.7 4.5 7.3 2.6 15.1 4 22.7 5.3 14 2.5 28.8 3.3 41.2-4.8 1.6-1 .1-3.6-1.5-2.5-13.5 8.7-29.6 6.3-44.5 3.3-7.3-1.4-14.8-2.8-21.5-6-5.4-2.5-9.8-7.1-15.8-8.2-1.9-.4-2.7 2.5-.8 2.8zm91.1 9a98 98 0 0 1 72.2-25.3c13.3 1 26.6 5 39.8 7.3 13.2 2.2 26.7 4 40.2 3.3 1.9 0 2-3 0-3a198 198 0 0 1 -45.3-4.3c-13-2.3-25.9-6.3-39-6.5-25.3-.6-51.6 9.1-70 26.3-1.4 1.4.7 3.5 2.1 2.2z"/><path d="m436.5 62.9c13.6 4.6 26.8-5.4 38.5-10.9 13.5-6.4 28-12.2 42.9-13.9 6.8-1 13.7-.4 20.4 1.4 7 2.2 13.2 6.6 19.7 10 11.3 6 24 7.5 33.6-2.4 1.3-1.4-.8-3.5-2.1-2.1-12.9 13.1-27.7 3-40.5-4a52.4 52.4 0 0 0 -33.6-5.6 136.4 136.4 0 0 0 -36.4 11.5c-5.8 2.6-11.4 5.4-17 8.3-8 3.8-16 7.8-24.8 4.8-1.8-.6-2.6 2.3-.8 2.9zm-145.3 123.3a1.5 1.5 0 1 0 0-3 1.5 1.5 0 0 0 0 3zm-135.8-76.6-.8.4a1.5 1.5 0 1 0 1.6 2.6l.7-.4c.7-.4.9-1.3.5-2s-1.3-1-2-.5z"/></g></svg>