<svg xmlns="http://www.w3.org/2000/svg" xmlns:xlink="http://www.w3.org/1999/xlink" width="131" height="130" viewBox="0 0 131 130"><defs><path id="qkcaa" d="M507.584 1645.075c0 35.898-29.102 65-65 65-35.898 0-65-29.102-65-65 0-35.899 29.102-65 65-65 35.898 0 65 29.101 65 65z"/><path id="qkcab" d="M447.28 1680.532v8.08h29.02l3.868 3.868v3.87h-73.515v-3.87l3.87-3.869h29.018v-8.083h-41.474c-5.21 0-9.483-4.274-9.483-9.484v-60.395c0-5.21 4.268-9.482 9.483-9.482h90.686c5.222 0 9.485 4.266 9.485 9.482v19.354c-1.195-1.318-2.46-2.56-3.87-3.629v-15.725a5.619 5.619 0 0 0-5.615-5.612h-90.686a5.617 5.617 0 0 0-5.613 5.612v48.79a5.616 5.616 0 0 0 5.613 5.615h55.962c5.26 7.524 13.916 12.145 23.211 12.145 1.545 0 3.076-.167 4.59-.42l2.177 3.756H447.28z"/><path id="qkcac" d="M498.388 1636.656c6.741 11.676 2.728 26.669-8.955 33.398-11.676 6.74-26.662 2.74-33.402-8.952-6.739-11.668-2.728-26.654 8.948-33.393 11.671-6.74 26.665-2.732 33.41 8.946z"/><path id="qkcad" d="M495.577 1668.546l-10.512 6.076 8.102 14.003 10.512-6.076z"/><path id="qkcae" d="M504.767 1684.476c1.681 2.909.687 6.629-2.219 8.298a6.084 6.084 0 0 1-8.301-2.229zM404.72 1649.87V1646h37.72v3.87zm62.284-18.664a20.31 20.31 0 0 1 10.16-2.721c7.061 0 13.938 3.658 17.717 10.202 5.619 9.743 2.275 22.241-7.474 27.879-9.74 5.63-22.24 2.259-27.866-7.485-5.637-9.745-2.282-22.244 7.463-27.875zm-62.284 9.524v-3.87h37.72v3.87zm0-9.14v-3.87h37.72v3.87zm0-9.14v-3.87h50.92v3.87z"/><linearGradient id="qkcaf" x1="432.15" x2="483.32" y1="1677.3" y2="1626.14" gradientUnits="userSpaceOnUse"><stop offset="0" stop-color="#537c44"/><stop offset="1" stop-color="#b0c849"/></linearGradient></defs><g><g transform="translate(-377 -1580)"><use fill="#f4f4f4" xlink:href="#qkcaa"/></g><g transform="translate(-377 -1580)"><use fill="#283238" xlink:href="#qkcab"/></g><g transform="translate(-377 -1580)"><use fill="#283238" xlink:href="#qkcac"/></g><g transform="translate(-377 -1580)"><use xlink:href="#qkcad"/></g><g transform="translate(-377 -1580)"><use fill="url(#qkcaf)" xlink:href="#qkcae"/></g></g></svg>