<svg xmlns="http://www.w3.org/2000/svg" width="503" height="234" fill="none"><path fill="#000" d="M203 81.2c-6.5-3.4-13.4-6.2-20.4-8.3-2.1-.7-3 2.7-1 3.3 6.8 2 13.4 4.8 19.7 8 2 1 3.7-2 1.7-3z"/><path fill="#000" d="M204.7 82a16.6 16.6 0 0 0-7.8-10.2c-5-2.5-10.4-.9-15.3 1-2.1.7-1.2 4 .9 3.2 3.9-1.4 8.6-3.2 12.6-1.2a13 13 0 0 1 6.3 8c.6 2.2 4 1.2 3.3-.9z"/><path fill="#000" d="M180.7 75.4c1 1.4 1.7 3 2.4 4.5l2.3 4.7c1.8 3 4 6 6 8.8l1.5-2.6a10.2 10.2 0 0 1-9-4.7 8.9 8.9 0 0 1-1.3-4.9c0-1 .3-2 .5-3 .1-1 .4-1.8.9-2.5a1.8 1.8 0 0 0 0-2.4 1.7 1.7 0 0 0-2.5 0 14 14 0 0 0-2.3 7.3c-.2 2.4.4 4.9 1.6 7a13.7 13.7 0 0 0 12.1 6.6 1.7 1.7 0 0 0 1.5-2.6c-2-2.8-4.2-5.7-6-8.7-.9-1.6-1.7-3.1-2.4-4.7a26 26 0 0 0-2.3-4.5 1.8 1.8 0 0 0-2.4-.6 1.7 1.7 0 0 0-.6 2.2v.1z"/><path fill="#000" d="M184.5 75.4l-.5-1-.1-.4c0 .2 0 .2 0 0l-.2-.4a50 50 0 0 1-2.1-6.7 1.7 1.7 0 0 0-3.1-.3c-.3.4-.3.9-.2 1.3.7 3.2 1.8 6.3 3.2 9.3a1.7 1.7 0 0 0 2.4.6 1.8 1.8 0 0 0 .6-2.2v-.2z"/><path fill="#000" d="M177.7 68a3 3 0 0 0 3.5.3 3.3 3.3 0 0 0 1.5-3 5 5 0 0 0-3.5-4.4 4.7 4.7 0 0 0-5.4 1.4c-.5 1-.7 2.1-.5 3.2.1 1 .5 2 1.2 2.8a4.2 4.2 0 0 0 6.1.4 1.7 1.7 0 0 0-2.4-2.5l-.1.1c-.2.2-.1.1.1 0h-.3.2-.4.4a3 3 0 0 1-.7 0h.5l-.5-.1h0l-.2-.1c-.2-.1.3.2.1 0l-.3-.3c-.1-.1.2.4 0 .1v-.2l-.2-.2v.1l-.2-1V64v.5l.1-.4c0-.3-.2.3 0 0s-.3.2 0 0l.1-.1-.1.1c.2-.2.2-.1 0 0l.2-.2h.5-.4 1-.5.6c.2 0 .6.3 0 0 .2 0 .4.2.5.3l.3.1c.2.2-.4-.3-.1 0l.3.2c.2.3-.1-.1 0 0l.1.2.1.2c.2.2-.1-.4 0-.1l.2.6v-.5.6-.5l-.1.4c0 .1.2-.4 0-.1-.2.2.2-.3 0-.2 0 .2-.1.2 0 0 .3-.1 0 0 0 0h.5-.3.4c-.2 0-.2-.2.1 0-.2 0 .4.3.1.1a1.9 1.9 0 0 0-2.5 2.8zM183 72.9c-4 .7-8.1 1.4-12.2 1.8a1.8 1.8 0 0 0-1.7 1.7 1.7 1.7 0 0 0 1.7 1.8 187 187 0 0 0 13.2-2 1.7 1.7 0 0 0-1-3.3z"/><path fill="#000" d="M165.2 78c.8.8 1.8 1.1 2.9 1a4.5 4.5 0 0 0 3.7-6.8 5.2 5.2 0 0 0-5.6-2.5 5 5 0 0 0-3.6 6.6c.3.6.6 1 1.1 1.5a3.8 3.8 0 0 0 4.3.6 1.7 1.7 0 0 0 1-1.8 1.7 1.7 0 0 0-2.7-1.2c-.3.2.4-.1 0 0h-.2.3H166h.2 0-.3c-.2-.2.3.2 0 0v-.2c-.2-.2.2.3 0 0l-.2-.4c.2.3 0 .3 0 .1v-.2s-.1-.3 0 0v-.1-.2V74.1v-.2.1c.2-.1.2-.3.3-.4 0-.2-.3.3 0 0l.3-.3c-.3.2.1 0 .2 0 0-.1.4-.2-.1 0l.3-.2h.4.8c-.3 0 0 0 0 0l.4.3c-.3 0-.3-.2-.1 0l.2.1v.1c.3.2-.2-.3 0 0 .2.1.2.3.3.4v.2c-.2-.5 0-.3 0-.1.2.1.1.2.2.3v-.1V74.9c0-.4 0-.3 0 0l-.1.3c0-.3.1-.3 0-.1v.2c-.2.1-.3.2 0-.1l-.3.3c.2-.3.3-.2.2-.1l-.3.1-.1.1c-.3.2.4-.1 0 0l-.4.1h.2-.5s.6.1.2 0H167.6l.2.1c-.2 0-.6-.4-.1 0-.4-.3-.8-.5-1.2-.5a1.7 1.7 0 0 0-1.3 3V78z"/><path fill="#FFD000" d="M126 80.7a6 6 0 0 0-3.5-5.7c-2.6-1.3-5.6-.8-8.2.3-5.1 2-9.9 4.9-14.2 8.2-4.2 3.4-8.1 7.1-11.6 11.3-1.5 1.7-3.2 3.6-5.5 4-2.4.4-4.4-.9-5.9-2.5A31 31 0 0 1 70.8 81c-.5-2.9-.6-5.7-1-8.7-.2-2.5-1.2-5-2.9-6.8-3.4-3.3-8.7-2.8-12.8-1.5a70.7 70.7 0 0 0-21.8 13.8c-2 1.9-4.2 4.8-7 5.4-2.9.7-5-3-6.3-5-2-2.9-3.8-6-5.4-9.1-1-2-4-.2-3 1.7 1.4 2.7 2.9 5.3 4.5 7.8 1.5 2.3 3 4.9 5.2 6.6 4.8 3.6 9.5-.3 13-3.7 4-4 8.6-7.4 13.5-10.3 4.1-2.3 9-5 13.8-4.8a5.5 5.5 0 0 1 5 3.1c1 2.4.9 5.2 1.1 7.7.6 5.9 2.2 11.6 4.8 17 2 4 5.7 8.2 10.6 8.1 5.2 0 8.2-4.7 11.4-8.2a62.7 62.7 0 0 1 22.4-15.7c2.2-.8 7-1.4 6.6 2.3-.2 2.2 3.3 2.1 3.5 0zM110.4 161.6c-.4-5.7-5-10-10.4-11-5.8-1.3-12 .2-17.2 2.7-4.8 2.1-9 5.6-11.9 10a20 20 0 0 0-2.9 7c-.5 3.3-.5 6.6-.2 10 .2 3 .3 6.4-1 9.3-1 2.2-2.5 4-4.5 5.3a12.8 12.8 0 0 1-13.6.6c-4.9-2.7-8.7-7.1-14.2-8.8A18.4 18.4 0 0 0 20 189c-5.7 3.5-7.7 9.4-9.2 15.6-1.3 5.4-3.2 12.7-9.5 14.2-2.1.5-1.2 3.8 1 3.3 5-1.2 8.2-5.6 10-10.2 2-5.4 2.2-11.5 5.5-16.3a14.9 14.9 0 0 1 12.3-6c5.4 0 9.4 3.7 13.6 6.7 4.2 3 8.8 5 14 4a16.9 16.9 0 0 0 11.4-7.6c3.3-5.4 2-11.6 2-17.4a18.8 18.8 0 0 1 6-14 29 29 0 0 1 15.3-7.4c5.6-1 14.2.6 14.6 7.8.2 2.2 3.6 2.2 3.5 0zM105.9 209a19 19 0 0 0-10.7 6 10.5 10.5 0 0 0-1.2 11.3c1 1.9 1.6 4 1.8 6 0 2.1-.4 4.1-1.3 6a12.1 12.1 0 0 1-9.3 6.4c-2.1.3-4.4-.4-6.1 1.4a8.2 8.2 0 0 0-1.8 5.3c-.1 2.2 3.3 2.2 3.5 0 0-1.1 0-3 1.6-3.2 1.8 0 3.6-.2 5.4-.5 3.5-1 6.7-3.2 8.8-6.2a15.5 15.5 0 0 0 .6-16.4 7.1 7.1 0 0 1-.6-5.5c1.4-4.5 6.1-6.3 10.3-7.4 2.1-.5 1.2-3.8-1-3.3zM346 57.2A31.6 31.6 0 0 1 367.7 40c3.3-.7 6.8-.8 8.8 2.5 1.6 2.7 2.6 5.7 4.3 8.4 1.5 2.8 3.7 5.1 6.3 7 5.7 3.7 12.3 1.6 17.2-2.6 5-4.2 8.7-10.3 12.5-15.6 3.8-5.4 7.8-10.9 12.2-16 4.2-5 9.1-9.2 14.7-12.7 2.5-1.4 6.9-4.2 9.4-1.4 2.1 2.5 2.1 6.7 2.3 9.7.4 7.5-.6 18 6.2 23.1 3.2 2.5 6.7 1.9 9.7-.5l11.2-9.1c1.7-1.4-.8-3.8-2.5-2.4l-10 8.1c-1.2 1-2.6 2.4-4.4 2.1A6 6 0 0 1 462 38c-2-3-2.5-6.8-2.8-10.3-.3-4-.2-8-.7-12-.3-3.2-1-6.9-3.5-9-2.6-2.2-6.4-1.8-9.4-.5-6.1 2.7-11.5 7.2-16 12-4.6 4.8-8.8 10-12.6 15.4-3.9 5.4-7.5 11.1-11.9 16.1-4.1 4.8-10.5 9.2-16.6 5a19.8 19.8 0 0 1-5.6-7c-1.6-2.8-2.5-6.2-4.7-8.7-2.6-2.9-6.6-3.1-10.1-2.5a34.9 34.9 0 0 0-25 19.1c-1 2 2 3.7 2.9 1.7zM392.6 111.6c3.4-10 15.7-11.3 24.6-10.6 2.5 0 5 .6 7 1.8a15 15 0 0 1 4.5 5.6c2.4 4.3 4.1 9 7 13 2.6 3.7 6.4 6.3 10.7 7.3 5 1 8.8-1 12.2-4.4l12-12.6 6-6.2c1.5-1.5 3.2-3.4 5.4-3.7 2-.3 4 .6 4.1 2.8.1 2.5-.6 5 1 7a6.3 6.3 0 0 0 6.2 2c2.7-.4 4.9-2.3 7.5-2.7 2.2-.5 1.3-3.8-.9-3.3-2.7.5-10.7 5.9-10.5-.2.1-2.2.5-4.3-.8-6.2a6.7 6.7 0 0 0-5-2.8c-5-.6-8.6 3.7-11.7 7l-12.5 13.1c-3.3 3.5-6.6 8-12 7-4.8-1-8-4.6-10.5-8.6-2.6-4.3-4.2-9.3-7.2-13.4-1.4-2-3.3-3.6-5.5-4.6-2.3-.8-4.8-1.3-7.2-1.3-6-.4-12.1-.1-17.6 2.4a18.8 18.8 0 0 0-10.1 10.7c-.7 2 2.6 3 3.3 1v-.1zM361.2 163.5a41.1 41.1 0 0 1 16.5-11.7c6.2-2.3 13.6-3.7 20.2-2.3a9.2 9.2 0 0 1 6.9 5.6c1 3 1.5 6.3 1.1 9.6-.4 7.5-2.8 14.8-5 22a90.4 90.4 0 0 0-4.8 21.9c-.1 3.4.6 6.8 3.6 8.7a10.4 10.4 0 0 0 9 .7 39 39 0 0 0 9.4-5.4l8-6c5.4-4.2 10.8-8.3 17-11 1.7-.8 3.6-1.5 5.4-2 2-.6 4-.9 6-.7 3.4.6 4.3 4.1 5 7a18 18 0 0 0 4.4 8.7 12.9 12.9 0 0 0 10 3.6c2.2-.2 2.2-3.7 0-3.5a9.5 9.5 0 0 1-8.5-3.4c-1.8-2.3-2.2-5.5-3-8.2-.9-2.8-2.2-5.4-4.7-6.7-3.3-1.8-7.2-1-10.5 0-13.4 3.9-23.2 14.4-34.6 21.8-2.9 1.8-6.3 4-9.8 2.9-3.7-1.2-3.5-5.3-3.1-8.4.7-7.7 3.3-15.1 5.6-22.5 2.1-7 4.1-14.4 4.1-21.8 0-6.5-2.2-13.2-8.8-15.6-3.7-1.3-8-1.3-11.8-1a45.3 45.3 0 0 0-30 15.2c-1.5 1.7 1 4.1 2.4 2.5zM341.3 219.6c3.8-.6 9.3-4.3 12.5-.6 3.2 3.8 1.3 9.1.2 13.2-1.1 4.5-2 10 1 13.8a5.3 5.3 0 0 0 5.6 2c2.4-.7 4.2-2.5 6-4.1l3.4-3.3c.9-1 2-1.8 3.1-2.5 2.3-.9 4 2 5 3.6a1.7 1.7 0 0 0 2.3.6 1.7 1.7 0 0 0 .6-2.3c-1-2-2.5-3.6-4.4-4.8a5.9 5.9 0 0 0-6.3.6 67.7 67.7 0 0 0-6.2 5.6c-1.3 1.2-4.1 4.6-6 2.8-2-1.7-2-4.8-1.6-7 .3-2.8 1.3-5.3 1.9-8 1-4.4 1-9.8-2.7-13.1-4.7-4.4-10.1-.6-15.3.2-2.2.3-1.3 3.6 1 3.3h-.1zM446.4 157.4c9.7-1.2 19.3-3 28.8-5.3 2.2-.5 1.3-3.8-.9-3.3-9.2 2.2-18.5 4-27.9 5.1-2.2.3-2.2 3.7 0 3.5zM462.7 171.8a1.7 1.7 0 1 0 0-3.5 1.7 1.7 0 0 0 0 3.5zM334.4 29.5c3.5-5.6 7.5-10.9 11.8-15.9a1.8 1.8 0 0 0 0-2.4 1.7 1.7 0 0 0-2.4 0c-4.6 5.2-8.7 10.8-12.4 16.6-1.2 1.9 1.8 3.6 3 1.7zM318.8 25l3-7.9a1.7 1.7 0 0 0-1.2-2.1 1.8 1.8 0 0 0-2.1 1.2l-3 8a1.7 1.7 0 0 0 1.2 2 1.8 1.8 0 0 0 2-1.1l.1-.1zM143.4 40.3c-2-12.2-4.9-24.3-8.5-36.2-.6-2.1-4-1.2-3.3 1 3.6 11.8 6.4 23.9 8.5 36.1.4 2.2 3.7 1.3 3.3-.9zM116.3 36.2l-.9-1.9-.4-.5-.6-.3h-.7l-.6.2c-.4.3-.7.6-.8 1v.5c0 .3 0 .6.2.9l.9 1.8c0 .2.2.3.4.5l.6.3h.7l.6-.2a1.7 1.7 0 0 0 .8-1V37c0-.3 0-.6-.2-.9zM67.3 134.7L52 130.2c-4.9-1.5-9.7-3-14.8-3.4-2.3 0-2.3 3.4 0 3.5 5 .3 9.7 1.9 14.4 3.3l14.8 4.5c2 .7 3-2.7.9-3.3zM42.7 153.2a1.7 1.7 0 1 0 0-3.5 1.7 1.7 0 0 0 0 3.5zM94.7 191.6L67 212.3c-1.8 1.3 0 4.3 1.7 3l27.8-20.8c1.7-1.3 0-4.2-1.8-3zM117 208.2c-2 7.1-3.7 14.4-4.8 21.8a1.8 1.8 0 0 0 1.2 2 1.7 1.7 0 0 0 2.1-1c1.2-7.4 2.8-14.7 4.8-21.8a1.7 1.7 0 0 0-3.3-1zM108.3 55.2c-3.5-2.9-7.2-5.4-11.2-7.5a1.7 1.7 0 0 0-1.7 3c3.7 1.9 7.2 4.2 10.4 7a1.8 1.8 0 0 0 2.5 0 1.7 1.7 0 0 0 0-2.5zM177.7 34.7c-.5-11-.7-22-.7-33a1.7 1.7 0 1 0-3.4 0c0 11 .2 22 .7 33 0 2.2 3.5 2.3 3.4 0z"/><path fill="#000" d="M334 201.3c-.7-2-2.8-2.1-4.4-1.6a7.8 7.8 0 0 0-4.3 11.6 6.2 6.2 0 0 0 3.8 2.7c1.6.4 3.2.3 4.7-.3a8.1 8.1 0 0 0 5.6-7.1 6.5 6.5 0 0 0-6.4-6.6 1.7 1.7 0 1 0 0 3.4h.3c.2 0-.2 0 0 0l.7.2c.1 0 .3.1 0 0l.3.2.3.1.1.1a4.4 4.4 0 0 1 .8.9s.3.5.2.2l.2.8v1l-.2.8s-.1.3 0 0l-.2.6c-.5.7-1.2 1.3-2 1.7-.1.2-.3.3-.6.3.3 0 0 0 0 0l-.4.2a9 9 0 0 1-.8.2h-.3-.3-1.5l-.2-.1c.2 0-.2-.2-.2-.2l-.4-.2-.1-.1-.3-.3-.3-.4-.1-.3-.2-.3-.2-.8c-.2-.8 0-1.7.2-2.5l.4-.7.1-.2c.1-.1.1-.1 0 0l.2-.2.6-.6.1-.1.3-.2.7-.4c.3-.1-.2 0 0 0l.5-.1.3-.1h.3-.2.2c-.3-.1-.6-.2-.7-.7a1.8 1.8 0 0 0 2.1 1.2 1.7 1.7 0 0 0 1.2-2.2zM321 214.3c-.6-2-2.7-2.2-4.4-1.6a7.8 7.8 0 0 0-4.2 11.6 6.2 6.2 0 0 0 3.8 2.7c1.6.3 3.2.2 4.7-.3a8.1 8.1 0 0 0 5.6-7.2 6.5 6.5 0 0 0-6.5-6.5 1.7 1.7 0 0 0-1.7 1.7 1.8 1.8 0 0 0 1.7 1.7h.4c.3 0-.2 0 0 0l.7.2c.2 0 .3.1 0 0l.3.1.3.2s.3.3.1 0l.5.6.2.1.1.2.2.3.2.8c0-.2 0 0 0 0v.9c0 .2 0-.2 0 0l-.2.9s-.1.3 0 0l-.2.5c-.5.8-1.2 1.4-2 1.8l-.6.3c.3 0 0 0 0 0l-.5.2-.7.2h-.4H317.1l-.4-.2h-.2l-.2-.1-.4-.3c-.2-.1.2.3-.1 0l-.3-.4-.3-.3-.1-.4-.2-.3-.2-.7c-.2-.9-.1-1.8.2-2.6l.4-.6.1-.3c.1 0 0 0 0 0l.2-.2.6-.6s.3-.2.1 0l.3-.3.7-.4c.3 0-.2.1 0 0l.5-.1.3-.1h.2c-.2 0-.2 0 0 0 0 0 .3.1 0 0-.2-.1-.5-.2-.6-.7a1.8 1.8 0 0 0 2 1.2 1.7 1.7 0 0 0 1.2-2.1h.1zM312 200.5l.5-.1.2-.2c.2-.2.4-.3.5-.6l.2-.4v-.5-.6l-.2-.4-.2-.3-.1-.2a2 2 0 0 0-.9-.5h-.9l-.4.2-.2.2-.2.1-.2.2-.1.2-.2.5v1.2l.2.5v.2l.4.3.4.4.5.2h.7a2.5 2.5 0 0 0 1.7-.6v-.1l.4-.5.1-.2.3-.5a2.3 2.3 0 0 0 0-.8v-.6a3 3 0 0 0-.3-.6v-.1l-.3-.4-.4-.4-.5-.1-.5-.1h-.3c-.4 0-.7.2-1 .4l-.2.2-.2.2-.1.2-.2.4v.7a1.5 1.5 0 0 0 .6 1.2l.6.3h.5c.3 0 .6 0 .8-.2l.4-.3.4-.7-.2.4-.2.3v-.1l-.3.3-.3.1-.4.1h.1-.4l-.3-.2-.3-.3.1.1-.2-.3-.1-.3v.2-.5.3-.4.3l.1-.5-.1.3.2-.3-.2.1.4-.2h-.2l.4-.1h-.2.5-.2.5-.1l.4.2h-.1l.3.3-.1-.2.3.4-.1-.2.1.4v-.2.5-.2.4l-.1.4v-.1l-.3.3-.3.2-1.2.2-.4-.2-.3-.2-.3-.4-.2-.3v-.4.1-.4l.2-.3.3-.3h-.1l.4-.3h-.1l.4-.1-.6.3-.4.5c-.2.1-.2.4-.2.6v.7l.2.4c.1.3.3.5.6.6l.4.2h.9z"/><path fill="#000" d="M314.6 220.9c-1.5-1.7-1.1-4.4-.8-6.4.5-2.6 1-5.2 0-7.7-.9-2.5-2.7-4.3-4.3-6.3L304 194l-11.2-13.6c-3-3.6-7.4-7.7-7.7-12.7-.1-2.2-3.6-2.2-3.4 0 .2 4 2.3 7.4 4.7 10.5 2.9 3.6 6 7 8.8 10.6l9.2 11.2 4.4 5.3c1.4 1.6 2 3.6 2 5.6-.3 4.4-2 8.8 1.2 12.5 1.5 1.7 3.9-.7 2.5-2.4z"/><path fill="#000" d="M334 199.9c-4 0-8.2-1.7-11.8-3.5a53.6 53.6 0 0 1-10.7-7c-9-7.4-18-14.9-26.5-22.8-1.6-1.5-4 1-2.4 2.5 7 6.4 14.2 12.6 21.6 18.7 3 2.6 6.1 5.3 9.4 7.6 3 2 6.1 3.7 9.4 5.1 3.5 1.7 7.2 2.6 11 2.8a1.7 1.7 0 1 0 0-3.4zM325.8 216.6c-1-2.6-2.3-5-4-7.2l-2.4-3.2-1-1.7c-.4-.5-.9-1.1-.8-1.6l-1.7 1.7c1.3.2 2.5.8 3.5 1.7 1.1.9 2 1.8 3 2.9.9 1 1.6 2.3 2.6 3.2 1 1.2 2.6 2 4.2 2a1.7 1.7 0 0 0 1.7-1.6 1.8 1.8 0 0 0-1.7-1.7c-1-.3-2-1-2.5-2l-2.9-3.4c-1-1-2.1-2-3.3-2.8-1.4-1-3-1.6-4.6-1.7a1.8 1.8 0 0 0-1.8 1.7c-.2 1.5 1 3 1.8 4.2l2.5 3.5c1.7 2 3 4.4 4 7 .7 2 4 1.2 3.4-1z"/><path fill="#000" d="M283.8 168.4c6.3 1 11.6 5 15.8 9.6 4.9 5.3 9.2 11.2 13.8 16.7 1.4 1.7 3.8-.7 2.4-2.4-4.8-5.7-9.2-12-14.4-17.4a30.7 30.7 0 0 0-16.8-9.8c-2.1-.4-3 3-.9 3.3zM322.6 105.9a68.7 68.7 0 0 0-53.2 39.1c-.9 2 2 3.8 3 1.8a65.2 65.2 0 0 1 50.2-37.5c2.1-.2 2.2-3.7 0-3.4zM238.3 90.1a59.3 59.3 0 0 0-7.4 14.2l-.1.7a1.7 1.7 0 0 0 2 1.6 1.7 1.7 0 0 0 1.4-1.3 56 56 0 0 1 7-13.5 1.7 1.7 0 1 0-2.9-1.7zM217.8 118.9a41.5 41.5 0 0 1-21.4 13c-4.4 1.4-8.9 2.6-13.4 3.7-5.3 1.3-10.6 2.5-16 3.4-6.2 1-12.5 1.4-18.8 1-2.2-.2-2.2 3.3 0 3.4a110 110 0 0 0 34.4-4.2c9.1-2.3 18.5-4.4 26.8-9 4.5-2.3 8.4-5.6 11.4-9.6 1.3-1.8-1.6-3.5-3-1.8zM163.9 149.5l.3.4c0 .2.2.6 0 .2l.4 1.2.1.5v1.9c0 .2 0 0 0 0v.2l-.2 1-.2.6c0-.2 0-.1 0 0l-.2.3-.6 1a1.7 1.7 0 0 0 .7 2.3 1.8 1.8 0 0 0 2.3-.6 10 10 0 0 0 .3-10.7 1.7 1.7 0 0 0-2.3-.7 1.8 1.8 0 0 0-.6 2.3zM315.4 105.2a1.7 1.7 0 1 0 0-3.4 1.7 1.7 0 0 0 0 3.4zM155.2 150a1.7 1.7 0 1 0 0-3.4 1.7 1.7 0 0 0 0 3.4z"/><path fill="#000" d="M241.2 93a61.6 61.6 0 0 1 70.2-25.3c2.1.6 3-2.7 1-3.3a64.7 64.7 0 0 0-74.1 26.8c-1.2 2 1.7 3.6 3 1.8z"/><path fill="#000" d="M310.7 66.4c.7 6.9 3.6 13 5.7 19.5 2 6.9 2.3 14.1 4.5 21 .8 2 4.1 1 3.4-1-2.3-6.6-2.5-13.8-4.5-20.4-2-6.4-5-12.5-5.6-19.1-.3-2.2-3.7-2.2-3.5 0zM272 145.2c-.3-2.5-.8-5-1.6-7.4a1.8 1.8 0 0 0-1.7-1.2 3 3 0 0 0-2.5 1.6l-.3.6c-.1.2.1 0 0 0 .5-.4 1.1-.3 1.8.3l-.2-.5-.3-1.2-2.3-9.3a1.8 1.8 0 0 0-2.8-.7c-1.7 1.3-2.9 3-3.7 4.9a1.7 1.7 0 0 0 1.2 2 1.8 1.8 0 0 0 2.1-1 8.5 8.5 0 0 1 2.7-3.5l-2.8-.8 1.3 5.4 1.4 5.5c.5 1.5 2 2.7 3.6 1.7.5-.3.9-.7 1.1-1.2l.4-.6c.1-.2-.1 0 0 0 0 0 0-.1-.2 0l-.4.2-1.7-1.3c.8 2.4 1.4 4.9 1.8 7.4a1.7 1.7 0 0 0 2 1.2 1.8 1.8 0 0 0 1.2-2.1zM232 109.3a19 19 0 0 1 7.2-1.4l-1.8-1.7-.3 3.3-.2 2.6a3 3 0 0 0 3.7 2.5c.7-.1 1.4-.4 2-.8l.6-.2c-.3-.2-.4-.2-.3 0l.2.7c.2 2 0 4.2.2 6.3a1.7 1.7 0 0 0 2.1 1.6 18 18 0 0 1 4-1l-1.7-2.2-.8 4.2c-.3 1-.2 2.1.2 3 1.4 2.8 4.9.5 6.9-.2l-2.1-1.2-.1 2.2c-.5 2.2 2.8 3 3.3.9.3-1.3.3-2.7 0-4a1.7 1.7 0 0 0-2-1.2l-2 .9-.9.3-.6.2c-.3 0-.3.2 0 .2l.6.6c-.1-.2-.1-.2 0 0v-.2l.3-1.5.6-3.2c.1-1-.5-2.3-1.7-2.2-1.7.2-3.3.6-4.9 1.2l2.2 1.6c0-2 0-4.2-.2-6.3-.1-1.6-.6-3.3-2.3-3.8-.8-.3-1.7-.2-2.5.1l-1.8.8c.4.6.6.7.5.2v-.4l.2-1.6.3-3.3a1.7 1.7 0 0 0-1.7-1.7 22 22 0 0 0-8.1 1.5 1.8 1.8 0 0 0-1.2 2.1 1.7 1.7 0 0 0 2.1 1.2z"/><path fill="#000" d="M243.6 104c4.8-1.5 9.9-3.1 14.9-2.1 4 .8 7.7 3 10.4 6a18.2 18.2 0 0 1 .1 23.4c-1.4 1.7 1 4.1 2.5 2.4a21.5 21.5 0 0 0-13.3-35.3c-5.3-.8-10.5.7-15.5 2.2-2.2.6-1.3 4 .9 3.3zM220.1 120.4l2 .4-1.1-2.1c-.6 3.2-.8 7.4 2.6 9.3l2.3 1c.9.3 1 .9 1.2 1.8.3 1.7.5 3.2 1.9 4.3 1.2.8 2.6 1.3 4 1.3.7 0 1.3 0 1.8.3.5.4 0 1.4 0 2a5.3 5.3 0 0 0 1.5 5c.9.9 4 2.3 3.8 3.8a1.8 1.8 0 0 0 1.2 2.1h.9l3-.4h3l-.6-.5-.3.8-.4 1.2-1 3a1.7 1.7 0 0 0 2 2.2c2.3-.7 3.7 1.3 2.9 3.3-.7 1.8 1.7 2.7 2.9 1.7.4-.4 1.1 0 1.2.5a1.7 1.7 0 0 0 3.4-1 4.4 4.4 0 0 0-7-2l2.8 1.7a5.7 5.7 0 0 0-7-7.6l2 2.2 1.6-4.6c.4-1.3.7-2.7-.5-3.7s-2.7-.7-4-.7c-1.6.1-3.3.3-5 .7l2.2 2a5.2 5.2 0 0 0-2-5c-1.1-1-3.5-1.9-3.3-3.8.2-1.8.8-3.6-.7-5.1a6 6 0 0 0-3.8-1.5c-1.3-.1-2.5 0-2.9-1.5-.4-1.7-.4-3.4-1.8-4.7-1.1-1.1-3.4-1.1-4.3-2.4-.8-1.3-.5-3.3-.3-4.8a1.8 1.8 0 0 0-1.1-2.1l-2-.4c-2.2-.4-3.1 3-1 3.3z"/><path fill="#000" d="M256.8 162.7c-3 3.8-6.7 7-11 9.1-4.7 2.5-9.5 4.6-14.4 6.5a103.9 103.9 0 0 1-32.6 8.3c-6.2.3-12.4-.3-18.4-2-2.2-.7-3 2.7-1 3.3a67 67 0 0 0 35-.3 154.3 154.3 0 0 0 32.1-12.2 36 36 0 0 0 13.3-11c1.3-1.8-1.7-3.5-3-1.7z"/><path fill="#000" d="M146.2 142.2c.8 8.8 6.3 16 11.5 22.7 6 7.6 12 15 18.5 22.1 1.5 1.7 3.9-.7 2.4-2.4-6-6.8-11.8-13.7-17.5-20.8-5-6.4-10.8-13.3-11.4-21.6-.2-2.2-3.6-2.2-3.5 0zM217.4 126.4c-5 8.2.4 18.9 6.3 25.1a35 35 0 0 0 23.6 11c2.3.1 2.2-3.3 0-3.4a31.5 31.5 0 0 1-20.6-9.4c-5-5-10.7-14.5-6.3-21.6 1.2-1.9-1.8-3.6-3-1.7zM245.7 98.4a75 75 0 0 1 53.5-25.1c2.2 0 2.2-3.5 0-3.5a78.3 78.3 0 0 0-56 26.2c-1.5 1.6 1 4 2.4 2.4z"/><path fill="#000" d="M297.4 72a8.4 8.4 0 0 0 7.4 8.8 1.8 1.8 0 0 0 1.3-.5c.3-.3.5-.8.5-1.2a1.8 1.8 0 0 0-1.7-1.8c-.4 0 .4.1 0 0h-.3l-.5-.2h-.3c.4 0 .2 0 0 0l-.5-.4a4.6 4.6 0 0 1-.5-.3l-.2-.2a8.4 8.4 0 0 1-.8-.7l-.2-.3c0-.2-.2-.3-.3-.5l-.2-.5c.2.4 0 .1 0 0l-.1-.3-.2-.6V73c0-.3 0 .4 0 0v-1a1.7 1.7 0 0 0-1.8-1.8 1.8 1.8 0 0 0-1.7 1.7z"/><path fill="#000" d="M303.2 80.1l5.9 18c.7 2.1 4 1.2 3.3-1l-5.9-17.9c-.6-2.1-4-1.1-3.3.9z"/><path fill="#000" d="M309.1 96.5a7.6 7.6 0 0 0-5.5 7.5 1.8 1.8 0 0 0 1.7 1.8 1.7 1.7 0 0 0 1.7-1.8v-1 .4l.1-.8.2-.3c0-.2.1-.4 0 0l.4-.8.2-.3c.1-.2-.3.3 0 .1v-.1l.6-.6.1-.1c.3-.2-.2.2 0 0l.2-.1.7-.4c.3-.2-.3.1-.1 0h.2l.4-.2a1.7 1.7 0 0 0 1.2-1.5 1.7 1.7 0 0 0-2.1-1.8z"/><path fill="#000" d="M303 103.2a57.9 57.9 0 0 0-23.1 19.5c-1.3 1.8 1.7 3.5 3 1.7 5.5-7.9 13-14.2 21.8-18.2a1.7 1.7 0 0 0 .6-2.3 1.8 1.8 0 0 0-2.3-.6v-.1zM211 131.4c-13.7 9.5-30.4 12.7-46.5 15.6-2.2.4-1.2 3.7 1 3.3 16.3-3 33.3-6.2 47.2-16 1.8-1.3 0-4.3-1.7-3zM164 158.4c3 6 6.6 11.6 10.6 16.9a1.8 1.8 0 0 0 2.4.6 1.7 1.7 0 0 0 .6-2.3c-4-5.3-7.6-11-10.7-16.9-1-2-4-.2-3 1.8z"/><path fill="#000" d="M176.8 175.8l1.7-.5h2l.8.2.9.3.4.1c.5.2-.3-.1.2 0l1.5 1 .3.2c.4.3-.2-.2.2 0l.6.6.6.7s.2.3 0 0l.4.5.4.7.2.4.1.2a1.7 1.7 0 0 0 2.1 1.2 1.7 1.7 0 0 0 1.2-2.2c-2.2-5.5-8.8-8.9-14.5-6.8a1.8 1.8 0 0 0-1.2 2 1.7 1.7 0 0 0 2.1 1.2v.2z"/><path fill="#000" d="M190.4 182.4c18.6-3.7 36.9-8.7 54.8-14.8 2.1-.7 1.2-4-.9-3.3-18 6.1-36.2 11-54.8 14.7-2.2.5-1.3 3.8.9 3.4zM306 73.7a1.7 1.7 0 1 0 0-3.4 1.7 1.7 0 0 0 0 3.4zM180.8 182a1.7 1.7 0 1 0 0-3.4 1.7 1.7 0 0 0 0 3.4zM225 95.2c1-4 1.2-8.2.7-12.4a1.8 1.8 0 0 0-1.7-1.7 1.7 1.7 0 0 0-1.8 1.7c.5 3.9.4 7.7-.4 11.5a1.8 1.8 0 0 0 1.1 2.1 1.7 1.7 0 0 0 2.1-1.1v-.1zM215.8 100.2l-3.6-2.8-.6-.4-.6-.2a1.7 1.7 0 0 0-1.2 3l3.6 2.8.6.4.6.2a1.7 1.7 0 0 0 1.2-3zM211.3 110.2l-6.2.5a1.8 1.8 0 0 0-1.7 1.7 1.7 1.7 0 0 0 1.7 1.7l6.2-.4a1.7 1.7 0 1 0 0-3.5zM269.7 157.6l6 6.2a1.7 1.7 0 0 0 2.4 0 1.8 1.8 0 0 0 0-2.4l-6-6.2a1.7 1.7 0 0 0-2.4 0 1.8 1.8 0 0 0 0 2.4zM224.1 112.7l1.6 1-.3-.2c.7.6 1.4 1.2 2 2l-.3-.4c.4.6.8 1.1 1 1.7a1.7 1.7 0 0 0 2.4.6 1.8 1.8 0 0 0 .6-2.3c-1.1-2.3-3-4.1-5.2-5.3-.4-.3-1-.3-1.4-.2a1.7 1.7 0 0 0-1 .8 1.7 1.7 0 0 0 .6 2.3zM234.6 124.2l8 8a1.7 1.7 0 0 0 2.8-2l-.4-.5-8-8a1.7 1.7 0 0 0-2.4 0 1.8 1.8 0 0 0 0 2.5zM250.6 140.9c2.2 3 4.7 5.7 7.4 8.2a1.7 1.7 0 0 0 2.5-2.5 48.2 48.2 0 0 1-5.5-5.6l-.4-.5-.2-.2-.1-.2-.1-.1-.2-.3-.4-.5a1.8 1.8 0 0 0-2.4-.7 1.7 1.7 0 0 0-.6 2.3zM285.9 160l2.1-7.1a1.7 1.7 0 1 0-3.3-1l-2.1 7.2a1.7 1.7 0 0 0 1.1 2.2 1.8 1.8 0 0 0 2.1-1.2zM274.4 173.5l-5.8 1c-.4.2-.8.5-1 .9-.2.4-.3.9-.2 1.3a1.8 1.8 0 0 0 2.1 1.1l5.9-1c.4-.2.8-.4 1-.8.2-.4.3-.9.2-1.4a1.8 1.8 0 0 0-2.2-1.1z"/></svg>
