<svg xmlns="http://www.w3.org/2000/svg" xmlns:xlink="http://www.w3.org/1999/xlink" width="130" height="131" viewBox="0 0 130 131"><defs><path id="xql1a" d="M1510.025 2058.373c0 35.898-29.102 65-65 65-35.898 0-65-29.102-65-65 0-35.899 29.102-65 65-65 35.898 0 65 29.101 65 65z"/><path id="xql1b" d="M1482.313 2029.708l-36.839 30.7-34.58-33.199c-8.28 8.617-13.385 20.304-13.385 33.198 0 26.49 21.475 47.966 47.966 47.966 26.49 0 47.965-21.476 47.965-47.966 0-11.682-4.187-22.38-11.128-30.699z"/><path id="xql1c" d="M1410.882 2027.199l34.593 33.209v-47.966c-13.598 0-25.865 5.667-34.593 14.757zm39.721 22.14l36.839-30.7.001-.01c-8.798-10.543-22.033-17.256-36.84-17.256z"/><linearGradient id="xql1d" x1="1410.88" x2="1487.44" y1="2030.89" y2="2030.89" gradientUnits="userSpaceOnUse"><stop offset="0" stop-color="#537c44"/><stop offset="1" stop-color="#b0c849"/></linearGradient></defs><g><g transform="translate(-1380 -1993)"><use fill="#f4f4f4" xlink:href="#xql1a"/></g><g transform="translate(-1380 -1993)"><use fill="#283238" xlink:href="#xql1b"/></g><g transform="translate(-1380 -1993)"><use fill="url(#xql1d)" xlink:href="#xql1c"/></g></g></svg>