<svg xmlns="http://www.w3.org/2000/svg" width="362" height="198" fill="none"><path fill="#FFD000" d="M158.8 193.4l1.2-84.5c-3.7 0-7.5-1-10.2-3.5-2.6-2.5-3.9-6.7-2.3-10 1.6-3.4 6.3-5 9.2-2.9a77 77 0 0 1-1-26.7c.1-1.7 1.2-4 2.9-3.6.9.3 1.4 1.2 1.8 2a68 68 0 0 1 5.6 21c.7-4.2 2.3-8.2 5.2-11 3-3 7.5-4.5 11.4-3.1 3.9 1.4 6.6 6 5.2 9.8-.1-3.2 3.5-6 6.7-5.2a5.5 5.5 0 0 1 3 8c-.2-2.4 3.5-3.2 5.2-1.6 1.6 1.6 1.7 4.2 1.6 6.6l-2.5 101.2c0 2-.1 4-1.5 5.3-1 1-2.5 1.2-4 1.3-12 1.4-24.1.6-35.8-2.4"/><path fill="#FFD000" d="M143.5 46c-2.8 4.6-5 10-4.2 15.4.7 5.4 5.2 10.6 10.7 10.5-.3-4.3.8-8.7 3.2-12.3.8-1.2 2-2.5 3.4-2 2.5.7 1.8 5.7 4.4 5.9.7 0 1.5-.4 2-1 2.8-2.7 3.7-6.8 3.9-10.6 0-1.5-.1-2.9-.6-4.3-1.1-2.7-3.9-4.4-6.6-5.6-1.9-1-4-1.5-6.1-1.5-5.3 0-9.3 4.7-12.4 9M25.2 151.8a7.8 7.8 0 0 0-5.2 4.4c-1 2.2-1.4 4.6-1.2 7 0 2 .4 3.9 1 5.7 2 4.9 6.6 8 11.8 8 5.2-.3 9.7-3.8 11.2-8.8.4-1.9.5-3.8.4-5.7 0-3.1-.9-6.2-2.3-8.9a9.8 9.8 0 0 0-7.4-5c-3-.2-6.3 1.8-7 4.9M71.1 144.5a20.3 20.3 0 0 0-9.7 12c-1.3 5 .1 11 4.2 14.3.8.7 1.8 1.2 2.9 1.4 1.6.3 3.2-.4 4.7-1.2 5.5-2.8 10.9-6.8 12.7-12.7 1.8-6.1-.6-12.7-5.9-16.2-2-1.3-4.5-2-6.6-1-2 1-3 3.5-3.7 5.8M235 144.1a16.7 16.7 0 0 0-9.3 9 23.8 23.8 0 0 0-1.6 13.1c.3 2.2 1 4.7 3 5.8 1 .5 2.2.8 3.4.9 3 .3 6 .4 9 .4 1.3 0 2.6-.2 3.9-.6a8.6 8.6 0 0 0 2.9-2.5c5.3-6.3 7-14.8 4.8-22.7-1.2-4-4.1-8.2-8.3-8.7-2.8-.3-5.6 1.2-7.8 3-2.6 2.2-4.7 5-6.1 8.1M287.3 132.4c-5.3 2-9.9 5.6-12.8 10.5-3.7 6.3-4.1 15 .6 20.6 3.2 4.2 9 5.2 13.4 2.2 2.3-1.6 4.4-3.6 6-6 3.2-4.3 5.6-9.5 5.6-15s-2.7-11.1-7.5-13.6c-4.9-2.5-11.7-.8-14.1 4M326.7 143.5c-3.3.9-6.1 3-7.8 6-1.6 3-2.6 6.3-2.8 9.6-.4 5.3.8 11.6 5.5 14.1 2 1 4.4 1.4 6.7 1a18.1 18.1 0 0 0 14-26.4c-1.5-3-4.1-5.6-7.4-6.3-4.4-1-8.9 1.8-12 5"/><path fill="#000" d="M154.2 194.8v-79.4c0-2-3.1-2-3.1 0v79.4c0 2 3.1 2 3.1 0z"/><path fill="#000" d="M153.5 116.5c14.6.3 29.3.2 44-.3 2 0 2-3.2 0-3.2-14.7.6-29.4.7-44 .4-2 0-2 3 0 3.1z"/><path fill="#000" d="M196 114.6v79c0 2 3 2 3 0v-79c0-2-3-2-3 0zM153 113.5c-4.2-2.7-8-6.6-9.6-11.5a13 13 0 0 1-.6-7c1.2-4.4 5.3-4.3 8.6-2.7 1.8.9 3.4-1.8 1.6-2.7-6.7-3.1-13.3-.9-13.6 7.1-.2 8.3 5.4 15.4 12 19.6 1.8 1 3.4-1.6 1.6-2.7z"/><path fill="#000" d="M153.7 97.2c-1-10-1.9-21-.1-30.9.2-1.2 2-9.4 4.7-5.6 1 1.5 1 5.1 1.3 7 1 5.3 1.5 10.7 1.8 16.2.2 2 3.3 2 3.2 0-.4-7.4-1.4-14.8-2.9-22.1-.8-3.7-3.4-8.4-7.7-4.8-4.1 3.4-4 11.6-4.2 16.5-.2 7.9 0 15.8.8 23.7.2 2 3.3 2 3.1 0z"/><path fill="#000" d="M165 84.3a4 4 0 0 1 8-.9c.4 2 3.4 1.2 3-.8a7.1 7.1 0 0 0-14.2 1.7c0 2 3.2 2 3.2 0z"/><path fill="#000" d="M176.6 83a2.5 2.5 0 0 1 2.6-3 3 3 0 0 1 2.6 3.3c-.3 2 2.7 2.9 3 .9.6-3.5-1.9-7.2-5.6-7.3a5.7 5.7 0 0 0-5.6 7c.5 2 3.5 1 3-.9z"/><path fill="#000" d="M185.8 84.2c0-3.4 4.9-5 7-2.8 1 1 1.3 2.5 1.5 4a261.4 261.4 0 0 1-.3 29.3c0 2 3 2 3.2 0 .4-6.4.7-12.8.6-19.2 0-4.4.5-9.8-1.2-14-3-7-13.8-4.6-14 2.8 0 2 3.2 2 3.2 0zM165 68.4l19.5-.1c3.5 0 7.1.3 10.5-.1 1.6-.2 2.9-.3 4-1.6 1.3-1.6 1.3-4.2 1.6-6.2a86 86 0 0 0-.1-26.3 8.4 8.4 0 0 0-7.4-6.3c-5.9-.9-12.3.1-18.2.5-13.4.8-26.8 2.1-40.1 3.8-2 .3-2 3.4 0 3.2A608 608 0 0 1 181 31c4-.2 11.8-1.9 15 1.3 3 3.2 2.5 11.3 2.5 15.7 0 2.4-.2 5-.4 7.4-.3 2.5-.2 7-2.2 8.7-1.8 1.6-5.2.9-7.6 1h-7.5l-15.7.1c-2 0-2 3.2 0 3.2h-.1z"/><path fill="#000" d="M167.7 54.3c3.6-.4 7.2-1 10.7-1.6l-1.9-1 3.2 8.4c.5 1.4 2.6 1.6 3 0 .4-1.6.8-3.8 1.6-5.4.8-1.6 1.6-1.3 3.3-1.2 1.5 0 3.5.4 4.9-.6 1-.9 1.1-2.2 1.2-3.5.1-3.2-.3-6.6-.5-9.8 0-1.4 0-3.3-1.3-4.3-1.6-1-4.7-.3-6.5-.2l-20.7 1.2c-2 .1-2 3.3 0 3.2l15.5-1c2.3 0 5.2-.8 7.4-.4 3.4.6 2.6 4.3 2.7 7.1.2 1.2.2 2.3.2 3.5-.2 1.7-.4 1.4-1.7 1.7-1.5.3-3.2-.5-4.7-.1-3.2.8-3.8 6.4-4.4 9h3l-3.2-8.5a1.6 1.6 0 0 0-2-1.1c-3.2.6-6.5 1.1-9.8 1.5-2 .2-2 3.3 0 3.1z"/><path fill="#000" d="M162.3 39c.2 2.6.8 5.1 1 7.7.1 2 3.3 2 3.1 0-.2-2.6-.8-5.1-1-7.7 0-2-3.2-2-3 0zM232.8 65l2.2 21.7c.5 4-.4 11.7 4.3 13.6 2 .9 4.7.4 7 .3a910.3 910.3 0 0 0 43.7-2.9c2-.2 5.9.3 7.7-1.1 1.3-1 1.3-2.9 1.5-4.4.4-3.7.5-7.5.5-11.3 0-6.2-.2-14-2.3-20-1.6-4.8-7.4-3-11.4-2.8-16.8 1.2-33.7 2.5-50.5 4-2 0-2 3.2 0 3l44.4-3.4 10.7-.8c2.2-.1 3-.4 4 1.8.6 1.2.6 3 .8 4.4a99 99 0 0 1 .8 22.8c-.2 3-1.2 3.8-4 4.5-1.9.4-4.1.3-6 .4a1813.3 1813.3 0 0 1-32.3 2.2c-3.2.2-7.6 1.1-10.8.6-5.1-1-4.4-6.2-4.8-10.2L235.8 65c-.2-2-3.3-2-3.1 0z"/><path fill="#000" d="M267.2 67.3c0 3.4-.3 7 0 10.5.3 1.6.7 2.5 2.2 3 2.3.6 6.6-1.6 8.3-.5.2.1.6 3.4.7 3.8l1.6 3.8a1.6 1.6 0 0 0 2.9-.4c.2-1.4.5-2.8 1-4.2.1-1.3.8-2.4 1.7-3.3h1.2c1.3-.2 3 .2 4-.7 1.3-1 1-2.2 1-3.6 0-2.7.3-5.8 0-8.5-.6-3.5-3-3.4-6.2-3.5-5.3 0-10.7.3-16 1-2 .3-1.2 3.4.8 3 4.6-.6 9.2-.9 13.8-.9l2.9.1c1.5.2 1-.2 1.5 1 .6 1.4.2 5 .1 6.4-.3 4.1-3 1.4-5.5 3-2.5 1.7-2.9 6.7-3.4 9.4l2.9-.4c-1.2-2.4-1.2-5.1-2.2-7.5-.4-1-1.3-1.7-2.4-1.7-1.3 0-2.7 0-4 .3l-2.3.2c-1.2.6-1.6.4-1.4-.6-.5-1 0-3.4 0-4.5v-5.2c0-2-3.2-2-3.2 0zM240.6 73.2c5.8-.8 11.6-1.3 17.4-1.5 2-.1 2-3.3 0-3.2-6 .2-12.2.8-18.2 1.7-2 .3-1.1 3.3.8 3zM242 80.4c5.3-1 10.7-1.7 16-2.1 2-.2 2-3.3 0-3.2-5.6.5-11.2 1.2-16.8 2.3-2 .3-1.1 3.4.9 3zM244.5 91.8c8.2-1.3 16.6-2 24.9-1.9 2 0 2-3.1 0-3.1-8.6-.1-17.2.6-25.7 2-2 .3-1.1 3.4.8 3zM14.6 11.2l2 24.4c.2 3-.3 7.5 1 10.3.6 1.5 1.4 1.8 3 2 3.8.6 8.3 0 12.2 0a562.1 562.1 0 0 0 36.8-1.6 1.6 1.6 0 0 0 1.5-2C68.2 32 67 19.3 67.4 6.6c0-.9-.7-1.6-1.6-1.6L16.3 8.5c-2 .2-2 3.3 0 3.2l49.5-3.5-1.6-1.6c-.4 13 1 26 3.9 38.5l1.5-2c-13.8 1.1-27.6 1.7-41.4 1.7h-4.6c-2.7 0-3 .5-3.3-2.3l-.8-10-1.8-21.3c-.1-2-3.3-2-3.1 0z"/><path fill="#000" d="M20.4 17.3l.7 11.7c0 1 .7 1.6 1.6 1.6l4.3-.2c.9 0 2.7-.5 3.3-.3.9.2 1 1 1.6 2.3l1.9 3.7c.6 1.3 2.4.8 2.8-.4.6-1.6 1-5.2 2.7-6 1.6-.8 5.6 0 7.5 0 .8 0 1.5-.7 1.5-1.6 0-4 .3-8-.2-12-.2-1.7-1-2.7-2.8-3.1-3.2-.7-7.4.2-10.6.5-4.3.3-8.5.9-12.7 1.5-2 .3-1.2 3.3.8 3 6-.9 12-1.5 18-1.8 1 0 2.8-.5 3.6.1.9.7.6 2 .6 3.2l.1 8.7 1.6-1.6c-2.7 0-7.5-1-10 .6-2 1.5-2.4 5.5-3.2 7.7l3-.4c-1-1.9-2-6.2-4-7.2-2.3-1.2-7.3 0-9.8.2l1.6 1.6-.7-11.8c-.2-2-3.3-2-3.2 0zM51.5 19.6c2.5.4 5.2.4 7.7 0 2-.3 1.2-3.3-.8-3-2 .3-4 .3-6.1 0-2-.4-2.8 2.7-.8 3zM52.1 27.6l5-.4c2-.2 2-3.3 0-3.2l-5 .5c-2 .2-2 3.3 0 3.1zM28.1 42.4c10.5-1.4 21.2-2 31.8-1.9 2 0 2-3 0-3.1-10.9-.2-21.8.5-32.6 2-2 .3-1.2 3.3.8 3zM48.8 34.8c2.3.1 4.6.1 7-.1 2-.2 2-3.4 0-3.2-2.4.3-4.7.3-7 .2-2-.2-2 3 0 3zM163 66.5c7.2-3.2 6.9-12.4 4.1-18.6-3-7-11.2-9.4-18-7.2a17.1 17.1 0 0 0-11.7 15.7c-.3 7.4 4.4 14 11 17 1.8 1 3.4-1.8 1.6-2.6-10-4.6-13.5-19.3-3-25.7 4.5-2.8 11.4-3 15.3 1 4.3 4.4 5.5 14.8-1 17.7-1.8.8-.2 3.5 1.6 2.7z"/><path fill="#000" d="M147.2 49.2c-1.2 2.1-1.7 5.6 1.4 6.6a6 6 0 0 0 6.7-3.2 4.3 4.3 0 1 0-8.2-1.7c-.2 2 3 2 3.1 0 .2-1.9 3.1-1 2.1.7-.6.8-1.6 1.2-2.5 1.2-1-.2-.2-1.6.1-2 1-1.8-1.6-3.4-2.7-1.6z"/><path fill="#000" d="M147.6 54.7a18.3 18.3 0 0 0-4.1 13.5c.2 2 3.3 2 3.1 0-.5-4 .7-8.1 3.2-11.3 1.3-1.6-1-3.8-2.2-2.2zM155.4 53.6c3.5-.5 7 .6 9.5 3 1.4 1.4 3.7-.9 2.2-2.2a15 15 0 0 0-12.4-3.8c-2 .3-1.2 3.3.8 3z"/><path fill="#000" d="M132.5 33.8c0 8.7.4 17.4 1.3 26.1.2 2.4 0 6 1.6 8 1.6 2.2 4.4 2.2 6.9 2 2-.3 2-3.4 0-3.2-1.7.2-3.6.5-4.8-1.4-.5-1-.5-4.2-.6-5.4a217.7 217.7 0 0 1-1.3-26c0-2.1-3.1-2.1-3.1 0zM164.6 65.4l-3.2.7a1.6 1.6 0 1 0 .8 3l3.2-.6a1.6 1.6 0 1 0-.8-3zM129.4 75.7a143.2 143.2 0 0 0-28.7 70.3c-.3 2 2.9 2 3.1 0 3-25 12.8-48.8 28.3-68.7 1.2-1.6-1.5-3.1-2.8-1.6z"/><path fill="#000" d="M114.5 138A128.6 128.6 0 0 1 136 87.2c1.1-1.6-1.6-3.2-2.7-1.6a130.6 130.6 0 0 0-21.8 51.6c-.4 2 2.6 2.8 3 .8zM20 154.2a14.2 14.2 0 0 0 1 21.8c7 5.2 19.7 3 24.8-4 5-7.3 2.6-17.2-4.3-22.4-6.5-5-19-1.8-22.5 5.7-.8 1.9 1.9 3.5 2.7 1.6 2.5-5.3 12.4-8.5 17.3-5.3 5.8 3.8 8.3 11.8 4.6 17.8-3.7 6.1-14.3 8.2-20.1 4.5-6.3-4-6.5-12.5-1.3-17.5 1.4-1.4-.8-3.7-2.3-2.3z"/><path fill="#000" d="M27 154.7a5.2 5.2 0 0 0 .3 8.6 6.6 6.6 0 0 0 9.1-2.2c1.7-2.9.6-6.6-2.3-8.3-3-1.7-6.9.2-8 3.3-.7 2 2.4 2.8 3 .9 1.2-3.4 6-1 4.9 2-.6 1.5-2 2.3-3.6 2.2-1.6-.2-3.6-2.4-1.8-3.8 1.6-1.2 0-4-1.6-2.7z"/><path fill="#000" d="M22.2 174.2c6.1-5.4 14.8-9.7 22.2-4.2 1.7 1.2 3.2-1.5 1.6-2.7-8.6-6.4-18.9-1.6-26 4.6-1.5 1.4.7 3.6 2.2 2.3zM70.4 143.7c-7.5 4.8-12.9 13.2-10.7 22.4.9 3.9 3.3 8 7.5 9 4 1 8.7-.1 12.3-2 7.5-4.1 10.7-14.5 7.5-22.4-3-7-11.8-10.6-18.4-6.2-1.7 1-.1 3.8 1.5 2.7 5.5-3.6 12.3-.2 14.3 5.7 2 6.2-.6 14.3-6.5 17.5a15 15 0 0 1-10 1.7c-4-1.1-5.4-6-5.5-9.6-.3-6.9 4-12.5 9.5-16 1.7-1.2.1-4-1.5-2.8z"/><path fill="#000" d="M71.8 151.3a4.7 4.7 0 0 0-2.1 7c2 2.7 6 2.9 8.5 1 2.5-1.8 3.7-5.4 1.6-8-1.8-2.3-5.4-2.7-7.5-.6-1.4 1.4.8 3.7 2.3 2.2.8-.7 2-.6 2.6.2 1 1 .4 2.6-.6 3.5-1 1-2.5 1.1-3.8.5-.9-.5-1.5-2.3-.2-2.8 1.9-.7 1-3.8-.8-3zM62 167.6c4.9-1.9 14.2-3.4 17.5 2 1 1.8 3.8.2 2.7-1.5-4-6.8-14.6-6-21-3.5-1.9.7-1 3.8.8 3zM226.8 148.5c-6.3 5.8-5.6 18.8.7 24.3 7.4 6.4 19.3.7 24.3-6 5.4-7 4.6-18-2.7-23.6-8-6-20-.3-24 7.8-1 1.9 1.8 3.4 2.7 1.6 3-6.1 12.3-11.6 18.8-7.4 6.8 4.4 7.2 14.4 2.3 20.3-4.2 5.1-14.3 10.2-19.9 4.3-4.4-4.6-4.7-14.7 0-19 1.5-1.4-.7-3.7-2.2-2.3z"/><path fill="#000" d="M231 151a5.8 5.8 0 0 0 4 7.2c3 .7 5.7-1.4 6.3-4.3a5 5 0 0 0-3.8-6.2c-2.8-.6-5.6 1-6.6 3.6-.7 2 2.3 2.8 3 .9.8-2.4 4.9-1.9 4.4.9-.2 1.1-1.2 2.4-2.4 2a2.7 2.7 0 0 1-2-3.3c.7-2-2.3-2.7-3-.8zM231.4 173.9c5.2-6.3 11.3-13.2 20.3-12 2 .2 2-3 0-3.2-9.8-1.3-16.8 6-22.5 13-1.3 1.5.9 3.7 2.2 2.2zM276.9 136c-7.2 5.3-9.7 18.8-4.7 26.3 5.6 8.3 17.3 8 24.2 1.7 7-6.5 8.5-18.9 2.8-26.7a12.6 12.6 0 0 0-11.3-5c-4 .2-9.3 1.3-11.1 5.4-.8 1.9 2 3.5 2.7 1.6 1.5-3.4 7-4.2 10.3-4 3.7.4 6.5 2.6 8 5.9a18.2 18.2 0 0 1-3.6 20.6c-5.6 5.1-15.3 5.5-19.6-1.6-3.7-5.8-1.8-17.3 3.8-21.5 1.6-1.2 0-3.9-1.6-2.7z"/><path fill="#000" d="M281.8 142.2c-2.7 2.9-.5 7 3 7.6 3.4.7 7.2-1.4 8.2-4.7 1-3.1-1-6.9-4.3-7.6-3.7-.8-6.7 2.8-6 6.3.3 2 3.3 1.1 3-.9-.3-1.7 1.7-2.8 3.1-2a3 3 0 0 1 1.2 3.4 4 4 0 0 1-3.2 2.5c-1 .2-4.3-.7-2.8-2.4 1.4-1.5-.8-3.7-2.2-2.2zM275.3 159.6c.6.8 5.4-2 6-2.2 1.9-.6 3.8-1 5.7-1.1a13 13 0 0 1 10 3.4c1.4 1.4 3.6-.8 2.1-2.2a17 17 0 0 0-15.9-3.9c-2.2.6-13.5 3.6-10.6 7.6 1.2 1.6 4 0 2.7-1.6zM317.8 152c-5.7 6.6-3 19.2 4 24 7.1 5 19.7 1.2 23-7 3-7.2 1.4-20.1-6.6-23.7-7.8-3.4-21 .7-22.5 9.8-.4 2 2.6 2.8 3 .8 1.2-7.2 13-10.9 19-7.3 5.4 3.1 6 12.5 4.6 18-1.7 6.7-12 10.8-18 7.3-5.8-3.4-8.9-14.4-4.2-19.7 1.3-1.5-1-3.7-2.2-2.2z"/><path fill="#000" d="M324.5 154a5.2 5.2 0 0 0 3.6 7.6c3.7.7 6.9-2.1 7.7-5.5.9-3.5-1-6.7-4.6-7-3.8-.3-6.4 3-7.1 6.4-.5 2 2.5 2.8 3 .8.3-1.6 1.1-3.3 2.7-4a2.2 2.2 0 0 1 3 2.4c-.1 1.6-1.2 3.4-3 3.8-1.7.4-3.7-1.2-2.6-3 1-1.9-1.7-3.3-2.7-1.6zM324.4 176.6c5.1-6 11-12.8 19.7-12.3 2 .1 2-3 0-3.1-9.6-.6-16.2 6.4-22 13.2-1.2 1.6 1 3.8 2.3 2.2zM106.7 150l-1.3.7c-.8.5-1 1.4-.6 2.2.5.7 1.4 1 2.2.5l1.2-.6a1.6 1.6 0 0 0-1.5-2.7zM99.2 159c-.6 1.5-1 3-1 4.6-.2 2 3 2 3 0 .2-1.3.5-2.6 1-3.8a1.6 1.6 0 0 0-1.1-1.9c-.8-.2-1.7.3-2 1.1zM100.7 171.1l1.3 2.6a1.6 1.6 0 1 0 2.7-1.6l-1.3-2.5a1.6 1.6 0 0 0-2.1-.6c-.8.5-1 1.4-.6 2.2zM113.5 177.7h.7a1.6 1.6 0 0 0 0-3.1h-.7a1.6 1.6 0 0 0 0 3.1zM124 176.2l1.9-1.3a1.6 1.6 0 0 0-1.6-2.7l-2 1.3a1.6 1.6 0 1 0 1.6 2.7zM129.1 166.3l.8-4.2a1.6 1.6 0 1 0-3-.8l-.8 4.1c-.2.9.2 1.7 1 2a1.6 1.6 0 0 0 2-1.1zM128.8 154.4l-2.6-2.8a1.6 1.6 0 0 0-2.2 2.2l2.6 2.9a1.6 1.6 0 1 0 2.2-2.3zM122 149.4l-1.5-1a1.6 1.6 0 1 0-1.6 2.7l1.6 1a1.6 1.6 0 0 0 1.6-2.7zM114.2 148.3h-.7a1.6 1.6 0 1 0 0 3h.7a1.6 1.6 0 0 0 0-3zM135.4 21.4l-4.3-5.1c-1.3-1.6-3.5.7-2.2 2.2l4.3 5.2c1.3 1.5 3.5-.7 2.2-2.3zM146.1 16.7a7 7 0 0 1-1.3-3.1 1.6 1.6 0 1 0-3 .8 10 10 0 0 0 2.1 4.6 1.6 1.6 0 0 0 2.2 0c.6-.7.6-1.6 0-2.3zM156.4 21c1.6-1.9 3-4 4.1-6.2 1-1.8-1.8-3.4-2.7-1.6-1 2-2.2 4-3.6 5.7-1.2 1.6 1 3.8 2.2 2.2zM303.2 14l-.3 21.2c0 4.1.6 7.4 5 8.7 5 1.3 10.9.1 15.8-.5l10.3-1.2c2.3-.3 5.5 0 7.6-1 3.8-1.9 2.3-10.3 2.2-13.5a104 104 0 0 0-.9-9.9c-.2-2-.3-4.6-1.5-6.3-1-1.4-2.4-1.5-4-1.7a277.8 277.8 0 0 0-31.7 1.6c-2 .2-2 3.3 0 3.1 9.5-1 19-1.5 28.6-1.5 3.2 0 4.8.3 5.3 3.7a89.9 89.9 0 0 1 1.1 15.6c0 1.1.3 2.7 0 3.8l-.2 1.5c-.8.6-1.8 1-2.9 1-4.5 1-9.3 1.2-13.9 1.7-4.3.5-8.9 1.3-13.3.8-2.7-.3-4-1.6-4.4-4.4-.3-2.3.1-5 .1-7.5l.3-15.1c0-2-3.2-2-3.2 0z"/><path fill="#000" d="M317.6 17.4c-.2 2.8-.8 5.9-.6 8.7 0 1.1.2 2 1.2 2.6 1.4 1 3 .3 4.6.3 1-.8 1.6-.5 1.6.7l.6 1.3 2.4 5.1a1.6 1.6 0 0 0 2.4.3c1-.9 1.8-2.2 2-3.5.1-.7 0-1.5.2-2.2.5-2.1.8-1.7 2.5-2.2 2.8-1 3.2-3.2 3.1-6-.2-3.6.2-5.9-3.7-6.5-4.9-.8-10.1-.3-15 .7-2 .3-1 3.4.9 3a44.9 44.9 0 0 1 13.5-.7c1-.2 1.4.2 1 1.4.5 1.2.5 3.3-.3 4.2-1.3 1.5-3.4.2-4.5 2.6-1 2.2.1 5.3-1.8 7l2.4.3c-1-2.5-2-5.4-3.5-7.7a2.6 2.6 0 0 0-2.2-1.5l-1.2.3a5 5 0 0 1-2 .4c-1.1.4-1.4 0-.9-1.1-.4-2.1.4-5.4.6-7.5 0-2-3-2-3.2 0h-.1zM37.2 95.4a422 422 0 0 1 1.5 19.9c0 .7.5 1.3 1.2 1.5 6.5 1 12.9.3 19.4-.2l10.1-1c2-.1 4.6 0 6.4-1 3.8-2.2 4.1-8.1 4.1-12 0-6.8-.4-13.7-1.3-20.6-.5-4.4-3.3-4.5-7.3-4.2l-20 2c-4.4.3-9.6.3-12.3 4.5-3 4.5-1.2 10.3-1.9 15.2-.3 2 2.9 2 3.2 0 .5-4-.7-8.3.7-12.1 1.8-5.2 9.5-4.5 14-4.9l13.4-1.2c1.8-.2 5.9-1.4 7.1.7.9 1.5.4 5.8.6 7.6.3 4.3.7 8.7.7 13 0 2.5 0 5.1-1.1 7.3-1.4 2.6-3.6 2.4-6.2 2.6-9.4.8-19.3 2.6-28.8 1.3l1.2 1.5c-.4-6.7-.9-13.3-1.5-19.9-.2-2-3.4-2-3.2 0z"/><path fill="#000" d="M54.2 89c.3 2.8.5 5.6.6 8.5 0 .8.7 1.5 1.6 1.5a9 9 0 0 0 6.2-1.5l-2.3-1c1 2.5 2 4.8 3.3 7.1.6 1.1 2.7 1 2.8-.4.3-1.9.3-4.1 1-6l-1 1.2c2.2-.6 5.3.7 5.8-2.5.3-1.7-.3-3.7-.5-5.4-.2-1.7 0-3.7-.6-5.3-.9-2.2-2.8-1.8-5-1.6-3.7.5-7.3 1.6-10.7 3.1-1.9.8-.3 3.5 1.5 2.7a24 24 0 0 1 10.5-2.8c1.4-.4 1.7-.2.8.6l.2 2c.1 1.3.8 3.2.5 4.5.6 1.2.3 1.7-1 1.4h-1.3c-.7 0-1.3.3-1.8.7-1.4 1.3-1.1 4.9-1.4 6.6l2.9-.3c-1.1-2.1-2.1-4.2-3-6.4a1.6 1.6 0 0 0-2.3-1 7 7 0 0 1-4.7 1.2l1.6 1.6c0-2.9-.3-5.7-.6-8.6-.3-2-3.4-2-3.2 0z"/></svg>
