<svg xmlns="http://www.w3.org/2000/svg" xmlns:xlink="http://www.w3.org/1999/xlink" width="130" height="131" viewBox="0 0 130 131"><defs><path id="tekya" d="M1001.025 2058.373c0 35.898-29.102 65-65 65-35.898 0-65-29.102-65-65 0-35.899 29.102-65 65-65 35.898 0 65 29.101 65 65z"/><path id="tekyb" d="M918.367 2012.462v5.628c0 .952.772 1.724 1.724 1.724h31.87c.952 0 1.725-.772 1.725-1.724v-5.628h11.573a8.135 8.135 0 0 1 8.125 8.126v83.34a8.136 8.136 0 0 1-8.125 8.125h-58.466a8.137 8.137 0 0 1-8.126-8.126v-83.339a8.135 8.135 0 0 1 8.126-8.126zm-3.238 78.733a1.724 1.724 0 1 0 0 3.447h26.732a1.724 1.724 0 1 0 0-3.447zm8.14 14.282a1.724 1.724 0 0 0 0-3.448h-8.14a1.724 1.724 0 0 0 0 3.448zm13.668 0a1.723 1.723 0 0 0 0-3.448h-7.496a1.724 1.724 0 0 0 0 3.448zm19.986 0a1.724 1.724 0 0 0 0-3.448h-14.045a1.724 1.724 0 0 0 0 3.448zm1.724-12.559c0-.95-.772-1.723-1.724-1.723h-8.136a1.724 1.724 0 0 0 0 3.447h8.136c.952 0 1.724-.772 1.724-1.724zm-38.223-24.128a8.366 8.366 0 0 0-5.544 5.718c-.028.105-.056.21-.08.315a7.889 7.889 0 0 0-.196 1.824v6.406c0 .952.77 1.724 1.723 1.724h39.394c.952 0 1.724-.772 1.724-1.724v-6.407a7.916 7.916 0 0 0-.278-2.14 8.364 8.364 0 0 0-5.542-5.717l-8.203-2.659v-2.917a13.605 13.605 0 0 0 5.964-8.822l.386-1.327a4.937 4.937 0 0 0 2.83-5.702 4.092 4.092 0 0 0-2.092-2.684v-5.352c-.033-7.998-6.544-14.456-14.543-14.423-7.998.033-14.456 6.544-14.423 14.543v5.23a4.099 4.099 0 0 0-2.1 2.687 4.937 4.937 0 0 0 2.834 5.702l.385 1.327a13.602 13.602 0 0 0 5.964 8.821v2.918z"/><path id="tekyc" d="M930.197 2069.246a13.78 13.78 0 0 0 11.656 0l8.711 2.825a4.932 4.932 0 0 1 3.282 3.348c.017.062.032.125.048.188.074.342.111.691.107 1.041v4.681h-35.95v-4.681a4.564 4.564 0 0 1 .154-1.228 4.93 4.93 0 0 1 3.282-3.349zm1.877-4.43c2.576.785 5.327.785 7.903 0v1.49a10.335 10.335 0 0 1-7.903 0zm-2.556-23.453l.148.002c7.521 6.499 18.124 6.353 19.125 6.324a.666.666 0 0 1 .465.495l.02.089a1.49 1.49 0 0 1-1.202 1.727 1.735 1.735 0 0 0-1.371 1.279l-.647 2.229a1.817 1.817 0 0 0-.039.162 10.173 10.173 0 0 1-9.991 8.288 10.171 10.171 0 0 1-9.991-8.288 1.32 1.32 0 0 0-.04-.162l-.625-2.158a1.726 1.726 0 0 0-1.394-1.35l-.09-.02a1.487 1.487 0 0 1-1.091-1.797.654.654 0 0 1 .364-.454c.037.002.073.005.11.005.2-.001.398-.036.585-.104a6.246 6.246 0 0 0 5.664-6.209zm15.984-4.548a1.722 1.722 0 0 0 .599-1.867c.635 1.415.963 2.948.963 4.499v4.756c-2.518-.143-7.483-.753-11.955-3.236 3.309-.522 7.167-1.678 10.393-4.152zm-14.43-7.234a10.97 10.97 0 0 1 4.943-1.177 11.035 11.035 0 0 1 9.867 6.083l-.061-.089a1.725 1.725 0 0 0-2.417-.319c-6.055 4.645-15.34 3.769-15.431 3.76a1.722 1.722 0 0 0-1.9 1.716v1.864a2.793 2.793 0 0 1-1.08 2.201v-4.173a11.033 11.033 0 0 1 6.079-9.866zm-9.252-13.221v-11.67h28.42v11.67z"/><linearGradient id="tekyd" x1="918.05" x2="954" y1="2043.01" y2="2043.01" gradientUnits="userSpaceOnUse"><stop offset="0" stop-color="#537c44"/><stop offset="1" stop-color="#b0c849"/></linearGradient></defs><g><g transform="translate(-871 -1993)"><use fill="#f4f4f4" xlink:href="#tekya"/></g><g transform="translate(-871 -1993)"><use fill="#283238" xlink:href="#tekyb"/></g><g transform="translate(-871 -1993)"><use fill="url(#tekyd)" xlink:href="#tekyc"/></g></g></svg>