<svg fill="none" height="218" width="460" xmlns="http://www.w3.org/2000/svg"><path d="m201.3 153.4c7.6 5.5 17.8 5 27 6.7.7.1 1.4.4 1.9.8.3.5.6 1 .6 1.6.9 4.4 1.1 9 .7 13.5 1.4-4.9 3.8-9.4 7-13.4.5-.7 1.2-1.3 1.9-1.7.7-.3 1.5-.5 2.3-.6 6.9-.9 13.7-2.7 19.6-6.3a28 28 0 0 0 12.7-16c1.4-5 1-10.3.1-15.5a25.8 25.8 0 0 1 -25 .3c-.7-.5-1.5-.9-2.4-1.1-1.5-.3-3 .5-4.4 1.2a24.6 24.6 0 0 1 -14.2 3.1c-3.7-.6-7-2.5-10.5-4-.4 0-1-.2-1.2 0l-.3.8c-.2 6.4-.8 12.9-3.4 18.7s-7.4 10.9-13.6 12.3" fill="#ffd000"/><path d="m191.4 130.6-.8 5.5c-.2.8.2 1.6 1 1.9.8.2 1.6-.3 1.9-1l.8-5.6c.2-.8-.3-1.6-1-1.9-.8-.2-1.7.3-1.9 1z" fill="#fdd00c"/><path d="m274.6 108.8a69 69 0 0 0 -8.7-18.9c-4-5.7-9.3-10.6-15.9-13-12.2-4.6-25.7-.2-37.8 4.7a24 24 0 0 0 -7.8 4.4c-2.2 2-3.6 5.2-2.8 8.1.4 1 .8 2 1 3 .7 3.8-3.7 6.3-6 9.5-.3.4-.5 1-.5 1.5.1.5.4 1 .7 1.4l9.5 11.2c-4.1 1.7-8.5-1.5-11.9-4.4-.6-.6-1.4-1-2.3-1.2-1.5-.1-2.6 1.5-2.6 3 .2 1.5.9 2.9 2 4 .7.7 1.4 1.7 1.8 2.7.2 1 .2 2.1 0 3.2l-1.7 9.7.4.6c.4 4.1-.5 8.6 1.7 12.1 2.5 4 8.4 4.7 12.5 2.5a17 17 0 0 0 7.6-11.3c1-4.5 1-9.2 1.3-13.9 0-.7.2-1.4.7-2 .5-.3 1-.4 1.6-.4 5.9 0 11.7 2.4 17.4 1 3.1-.7 6-2.5 9.2-2.9 4.7-.5 9 2.3 13.6 3.4 4 1.1 8.3 1 12.2-.3a10 10 0 0 0 4-2.1 8.7 8.7 0 0 0 2.3-5.4c.4-3.4-.5-6.8-1.5-10.2z" fill="#ff2c00"/><path d="m185.9 84.3c1.4 3.3 3.8 6.1 6.9 8 1.4 1 2.9-1 1.8-2.3-1.6-1.7-3-3.5-4.2-5.5l-2.4 1.8 5.9 7 2.1-2-3.6-4.2-2 2a79 79 0 0 0 5.7 5.7c1.2 1 3.5-.3 2.4-1.8l-3.3-4.5c-1.2-1.5-3.8 0-2.6 1.6 2 2.9 4.6 5.3 7.7 7.1 1.4.9 3.1-1.2 1.8-2.4a73 73 0 0 0 -5.3-4.2c-1.2-.9-3 .9-2 2 1 1.6 2.3 3 3.7 4.3l2.1-2-2.6-2.5c-1-1-3 0-2.5 1.5a17 17 0 0 0 2.4 4.7l2.3-1.8-4-5c-1.1-1.4-3.3.3-2.4 1.8 1.3 2 2.7 3.9 4.2 5.7l2.1-2.1-3.2-3.7c-1-1.3-3.3.4-2.3 1.8a41 41 0 0 0 3.8 5c1.3 1.5 3.2-.6 2-2l-2.4-3.3-2.1 2.1c1.8 1.6 4.6 4.3 6.3 1a1.5 1.5 0 0 0 -.9-2.2 2.5 2.5 0 0 0 0 4.7 1.5 1.5 0 0 0 .6-2.5c-3.2-3.7-6.5.4-7.5 3.6a1.5 1.5 0 0 0 1.9 1.8c2.6-.7 3.6-2.6 3-5.2a1.5 1.5 0 0 0 -2.4-.7 8.3 8.3 0 0 0 -2.8 4.7 1.5 1.5 0 0 0 1.8 1.8 4 4 0 0 0 3.3-3 1.5 1.5 0 0 0 -2.2-1.7 6.4 6.4 0 0 0 -3.4 5.6c0 1.4 1.7 1.9 2.6 1 1.5-1.2 2.6-2.8 3.2-4.7.6-1.5-1.5-2.3-2.5-1.4a14.5 14.5 0 0 0 -3.5 4.1 1.5 1.5 0 0 0 2.4 1.8c.7-.6 1.2-1.4 1.3-2.3.4-1.4-1.5-2.7-2.5-1.5-1.4 1.8-2.5 4-3 6.2a1.5 1.5 0 0 0 2.8 1.2c.7-1 1.1-2.1 1-3.3a1.5 1.5 0 0 0 -2.2-1.3c-1.8.7-3 2.3-3.2 4.2a1.5 1.5 0 0 0 2.5 1.4 6.4 6.4 0 0 0 2.3-5.4c0-1-1.3-2-2.2-1.3-1.8 1.3-4.3 5-1 6.5s3.9-3.6 3.8-5.6c-.1-1-1.3-2-2.3-1.3a5.3 5.3 0 0 0 -2.6 4 1.5 1.5 0 0 0 1.9 1.9 3.4 3.4 0 0 0 3-3 1.5 1.5 0 0 0 -1.9-1.9c-2.4.6-4.7 2.1-4.2 4.8.1.5.5 1 1 1 3.1.8 4.4-2.2 5.2-4.9a1.5 1.5 0 0 0 -1.5-1.8c-2 .2-3 1.3-2.6 3.5.2.8 1 1.2 1.9 1 2-.7 4.4-4.4 1.4-5.7-3.7-1.6-4.3 5.6-4.4 7.5 0 2 2.9 2 3 0 .2-.8-.2-1.7-.9-2.2-.5-.4-1.2-.5-1.8-.2-3.9 2.4-1 7.2 1.8 4.4a1.5 1.5 0 0 0 -.7-2.5 3 3 0 0 0 -2.6-.1 1.5 1.5 0 0 0 -.7 2.5c1.3 1.6 3 2.7 5 3.2 1.2.3 2.5-1.1 1.8-2.2a7.1 7.1 0 0 0 -4.3-3.2 1.5 1.5 0 0 0 -1.4 2.5 15 15 0 0 0 6.5 4 1.5 1.5 0 0 0 1.4-2.5c-.9-1-1.9-1.9-3-2.7-1.4-1-2.8 1.2-1.8 2.4 1.6 1.8 3.5 3.3 5.7 4.2 1.2.6 3-.7 2-2-.8-1.2-1.8-2.1-3-3-1.4-1-2.8 1.2-1.8 2.4a18 18 0 0 0 4.7 3.8c1.4.8 3.2-1.3 1.8-2.4a25.2 25.2 0 0 1 -4.6-4.6l-1.8 2.3 1.5 1.4 2.2-2.1-4.6-4-1.8 2.3 2 1.2a1.5 1.5 0 0 0 1.8-2.4l-2.4-2.3a1.5 1.5 0 0 0 -2.5.6c-.2 1-.1 1.9.4 2.7.9 1.7 3.5.2 2.6-1.5v-.4l-2.6.7 2.4 2.3 1.8-2.3-2-1.2c-1.4-.8-3 1.2-1.8 2.4l4.5 4a1.5 1.5 0 0 0 2.2-2.1 10 10 0 0 0 -2.2-1.8c-1.5-1-2.8 1-1.8 2.3 1.3 1.8 2.9 3.3 4.6 4.7l1.8-2.4c-1.5-.9-2.9-2-4-3.3l-1.9 2.3 2 1.9 2-2c-2-1-3.7-2.2-5-3.8l-2 2.4a11 11 0 0 1 2.5 2.1l1.5-2.5a12 12 0 0 1 -5.1-3.1l-1.5 2.5 2.4 1.7 1.7-2.2a5.6 5.6 0 0 1 -3.7-2.4l-.7 2.5 1 .2-.6-2.5 1.8.3-1.8-.3h3c0-.2 1.5-5.4-.9-4.6l1.9 1-.3.3-1.4-2c-1.5 2-1 2.9 1.7 2.9l-1.9-1.9-.9 1 1.9 1.9 1.2-2.3-2.3-1.3c-.3 1.3.3 1.9 1.8 1.7l-2.2-1.3-1.5 3.3 2.5 1.4 1.8-2.3-2.3-1.3-.6 1.7 2.8 1.2c.2-1.8 1-3.5 2.2-4.9l-2.6-1.4-.5 1 2.3 1.8c.8-1.4 1.8-2.6 3-3.5l-2.5-1.5a6.6 6.6 0 0 1 -2.5 3.4l2.6 1 1.9-3-2.2-1.6-1.2 1 1.8 1.8c.2-1.3 1-2.6 2-3.3l-2.5-.7-1 1.6 1.9 1.8 2.5-2.3.6-2.5v1.2l-.8-2.2-1.6-1.7a1.5 1.5 0 0 0 -2.1 2.1l2.4 3.1 2.1-2a37.2 37.2 0 0 1 -3.3-4.5l-2.4 1.8 3.2 3.7c1.3 1.5 3.4-.6 2.2-2.1a47 47 0 0 1 -3.7-5.1l-2.4 1.8 4 5c1.2 1.3 3.4-.4 2.4-1.8-1-1.2-1.6-2.5-2-4l-2.5 1.5 2.5 2.4c1.4 1.3 3.6-.8 2.2-2.2-1.3-1-2.4-2.3-3.3-3.6l-2 2 4.7 3.8 1.8-2.3a21.5 21.5 0 0 1 -6.7-6.1l-2.5 1.5 3.3 4.4 2.3-1.8c-2-1.8-4-3.6-5.8-5.6-1.3-1.4-3.3.7-2.1 2.1l3.5 4.2c1.3 1.5 3.4-.7 2.2-2.1l-6-7c-1-1.3-3.2.4-2.3 1.8a46 46 0 0 0 4.7 6.1l1.8-2.3a15.2 15.2 0 0 1 -5.8-7c-.7-1.9-3.3-.3-2.6 1.4z" fill="#ffd000"/><g fill="#000"><path d="m183 82.3a70.6 70.6 0 0 1 15.3 10.8c2.7 2.5 4.1 3.9 1.4 7.1-2 2.5-4 4.8-6.2 7-.6.6-.6 1.6 0 2.2 3.8 3.8 7.5 8 10.8 12.3l1.9-2.4-19-8.5.6 2 7-10.5c1-1.5 2.9-3.3 2.4-5.3s-3.3-4-4.6-5.6c-3-3.4-5.6-7.2-7.7-11.2-1-1.7-3.6-.2-2.6 1.5a85 85 0 0 0 10.5 14.4c1.2 1.4 1.2 1 .9 2.5-.3 1.2-1.8 2.6-2.5 3.7l-6 9c-.4.7-.2 1.6.5 2l19 8.6a1.5 1.5 0 0 0 1.8-2.4 138 138 0 0 0 -10.9-12.3v2.1c3-3.1 6.8-6.6 9-10.3 1-1.8 1-2.3 0-4-1.9-3.1-6-6-8.9-8.2a74.8 74.8 0 0 0 -11.2-7.1c-1.7-1-3.2 1.6-1.5 2.6z"/><path d="m203.5 100.7c10 .3 11 14.7 6.8 21.3-5 8-21.6 3-19-7a1.5 1.5 0 0 0 -3-.8c-3 11.8 14.7 19.6 22.7 11.7 8-8 5.8-27.8-7.5-28.3-2 0-2 3 0 3z"/><path d="m202.4 92.5c6.8-9.8 22-17.5 33.9-17 12.8.6 23.4 9.7 29.5 20.4 2.8 5.1 5 10.5 6.4 16.2 1 4 2.4 8.5-1.4 11.6-2.7 2.2-6.7 2.2-10 2-3.6-.2-7.1-1.2-10.2-3-1.7-1-2.5-1.7-4.5-1.3-2.3.4-4.3 1.9-6.6 2.5-3.6 1-7.4 1.2-11.2.7-1.9-.3-1.9 2.7 0 3 4 .6 8.1.3 12-.8 1.2-.3 2.3-.8 3.5-1.2 3.3-1.1 5-.2 8 1.1 5 2.4 12.7 3 18 .9 5.3-2.2 7.2-6.5 6.4-11.8a66.7 66.7 0 0 0 -7.5-20.8c-6.4-11.7-17.7-21.4-31.7-22.4a46.3 46.3 0 0 0 -37.3 18.4c-1 1.6 1.6 3.1 2.6 1.5z"/><path d="m228 124.3-6.6-.1c-2 0-4.5.3-6-1.3-1.4-1.4-3.5.8-2.2 2.1a7.3 7.3 0 0 0 5.3 2.1c3.1.2 6.3.2 9.5.2 2 0 2-3 0-3z"/><path d="m192.2 126.5c-1.6 9.9-6.2 29 10 28.3 14.9-.5 16-18.8 14.7-29.5-.3-2-3.3-2-3 0 1.1 8.8 1.6 23.2-9.5 26.2-6 1.7-11.2-2.3-11.4-8.5-.3-5.2 1.3-10.7 2.1-15.7.3-2-2.6-2.7-2.9-.8z"/><path d="m190.3 144.6c1.2 7.4 7.4 11.2 14 13.5 9 3 18.4 4.8 27.9 5.2l-1.5-1.5-1 14.2a1.5 1.5 0 0 0 2.5 1c3-2.7 5.6-5.9 7.9-9.3.6-1 1.7-3.8 2.5-4.4 1.5-1.2 4.5-.6 6.3-.8a33.2 33.2 0 0 0 26.7-45.3c-.7-1.7-3.6-1-3 .8 7.8 20.7-7.9 43.8-30.5 41.5-.6 0-1 .3-1.3.8a51.1 51.1 0 0 1 -10.7 14.6l2.6 1.1 1-14.2c0-.8-.7-1.5-1.5-1.5-7.4-.4-14.7-1.6-21.9-3.5-7.1-2-15.7-4.6-17.2-13-.3-1.9-3.2-1.1-2.8.8z"/><path d="m240.7 134.7a7.6 7.6 0 0 0 14.3 0c.7-1.9-2.3-2.7-3-.9a4.5 4.5 0 0 1 -8.4 0c-.7-1.7-3.6-1-3 .9zm-2.1-18.7a1.5 1.5 0 1 0 0-3 1.5 1.5 0 0 0 0 3zm17.4 0a1.5 1.5 0 1 0 0-3 1.5 1.5 0 0 0 0 3zm-90.4-34.6c-14-18.8-28.7-37-44-54.8-1.2-1.5-3.3.7-2 2.1 14.9 17.6 29.4 35.7 43.4 54.3 1.2 1.5 3.8 0 2.6-1.5zm-6.2 33.1c-18-13.8-36-27.3-54.3-40.8-1.6-1.1-3 1.5-1.5 2.6a3768 3768 0 0 1 54.2 40.8c1.6 1.2 3-1.4 1.6-2.6zm-6.6 17.7-28-13.2c-1.7-.8-3.3 1.8-1.5 2.6l28 13.2c1.7.8 3.3-1.8 1.5-2.6zm4.9 30.9-68.1 47.9c-1.6 1.1-.1 3.7 1.5 2.6l68.1-48c1.6-1 .1-3.6-1.5-2.5zm29.1 9.7-43 34c-1.5 1.1.7 3.2 2.2 2l43-33.9c1.5-1.2-.7-3.3-2.2-2.1zm20.9 8.5-22.2 20.3c-1.4 1.3.7 3.4 2.2 2.1l22-20.3c1.5-1.3-.6-3.4-2-2.1zm58.9 1.1c10 16.3 21 32 33 46.9 1.3 1.5 3.4-.7 2.2-2.2a432.7 432.7 0 0 1 -32.6-46.2c-1-1.7-3.6-.2-2.6 1.5zm25-7.6 7.8 8.9c1.3 1.4 3.4-.7 2.2-2.1l-7.9-9c-1.2-1.4-3.3.7-2 2.2zm9.2-22 68.1 51.2c1.6 1.2 3-1.4 1.5-2.6l-68.1-51.3c-1.6-1.1-3 1.5-1.5 2.6zm-.4-37.3c20.8-24.7 42.6-48.7 65.6-71.7a1.5 1.5 0 0 0 -2.1-2.1c-22.9 23-44.8 46.9-65.6 71.7-1.2 1.5.9 3.6 2.1 2.1zm-1.8-32.5c9-12.2 18.6-24 28.6-35.5 1.3-1.5-.8-3.6-2.1-2.2a630.5 630.5 0 0 0 -29.1 36.2c-1.2 1.6 1.4 3 2.6 1.5zm-17.2-19.3 30.3-41.2c1.2-1.5-1.4-3-2.6-1.5l-30.3 41.2c-1.1 1.6 1.5 3 2.6 1.5zm-72.1-2.5-14.1-29.8c-.8-1.7-3.4-.2-2.6 1.5l14.2 29.8c.8 1.8 3.4.3 2.5-1.5zm39.6-8.1 2.5-24c.2-2-2.8-1.9-3 0l-2.5 24c-.2 2 2.8 2 3 0zm-11.3 136.2c-.1 5.7.1 11.3.7 17 .3 1.9 3.3 2 3 0-.6-5.7-.8-11.3-.7-17 0-2-3-2-3 0zm69.9-58.5 36-6.4c1.9-.3 1-3.2-.8-2.9l-36 6.4c-2 .3-1.1 3.2.8 2.9zm-168.6 17.7-26.1 4.2c-2 .3-1.1 3.2.8 2.9l26-4.2c2-.3 1.2-3.2-.7-2.9zm244.8-44.5 11.5 12.6c1.3 1.5 3.5-.7 2.2-2l-11.6-12.7c-1.3-1.5-3.4.7-2.1 2.1z"/><path d="m394.4 101.6a28.7 28.7 0 0 0 -8.2 10.5c-.8 1.8 1.8 3.3 2.6 1.6 1.7-4 4.4-7.3 7.7-10 1.5-1.2-.6-3.3-2.1-2zm21.6-68a5.8 5.8 0 0 0 1 8.8 6.2 6.2 0 0 0 8.7-2.6c1.4-2.7 1.2-6.6-1.7-8.2-2.4-1.5-6-.7-7.3 2-.7 1.7 1.9 3.3 2.6 1.5a2.1 2.1 0 0 1 3-1.1c1.4.6 1.5 2.5 1 3.8-.6 1.7-2.3 3-4.1 2.3a2.8 2.8 0 0 1 -1.1-4.4c1.2-1.5-.9-3.6-2.1-2.1zm5.3 175a2.5 2.5 0 0 0 -2.9 2.7 2.6 2.6 0 0 0 3.7 2.2 3.5 3.5 0 0 0 1.6-4.4 2.6 2.6 0 0 0 -2.2-1.3 1.8 1.8 0 0 0 -2 1.9c.1.8.8 1.4 1.6 1.5.7 0 1.6-.7 1.5-1.5 0-.6-.4-.2-.9 1h-.4c.3 0-.2-.1 0 0a.6.6 0 0 1 -.3-.2c0-.2 0-.2 0 0v-.2.3c0-.4-.1.3 0 0l-.1.3c0-.1 0-.1 0 0 0 0 .1-.1 0 0h-.1c.1 0 .1 0 0 0 0 0 .4.1.2 0l.3.3c0-.1 0-.1.1 0-.2-.2.1.4 0 0-.1-.3 0 .3 0 0 0-.2 0 .4 0 0 0-.3-.1.2 0 0l-.1.1-.2.1c-.1.1-.4.2-.6 0 .8.3 1.6-.1 1.9-1 .2-.7-.3-1.5-1-1.8zm-29.9-40.8c3.3 4 7.3 7.5 11.7 10.4 1.6 1 3-1.6 1.5-2.6a51 51 0 0 1 -11.1-10c-1.3-1.4-3.4.7-2.1 2.2z"/><path d="m401.5 164.4c-3.6 4.3-7 8.7-10.4 13.2-1.1 1.6 1.5 3 2.6 1.5 3.2-4.3 6.5-8.5 9.9-12.6 1.2-1.5-.9-3.6-2.1-2.1zm-367.7-127.4 13.7 12.7c1.4 1.3 3.5-.8 2-2.1l-13.5-12.8c-1.4-1.3-3.5.9-2.1 2.2z"/><path d="m45.3 32c-4.7 5.3-9 11-12.8 16.9-1 1.6 1.5 3.1 2.6 1.5 3.7-5.7 7.8-11.2 12.4-16.3 1.2-1.4-.9-3.5-2.2-2zm-13.2 98.1a4.9 4.9 0 0 0 .9 7.3c2.8 2 6.7.3 8.5-2.4 2-2.8 1.5-6.6-1.8-8-3.7-1.5-7 1-9.3 3.6-1.2 1.4.9 3.6 2.1 2 1.1-1.2 2.5-2.7 4.2-3s3.5.9 2.8 2.9c-.5 1.5-2.2 3-4 2.8-1.2-.2-2.3-2-1.3-3a1.5 1.5 0 0 0 -2-2.1v-.1zm17.7 77.3c3.6 4.5 7.8 8.6 12.4 12.3 1.5 1.1 3.6-1 2.1-2.2a77.5 77.5 0 0 1 -12.3-12.3c-1.2-1.5-3.4.7-2.1 2.2z"/><path d="m58.5 205.4-7.3 9.2c-1.2 1.5.9 3.6 2 2.1l7.4-9.2c1.2-1.5-.9-3.6-2.1-2.1zm28.2-113.8-.7 1.4c-.1.6 0 1.1.4 1.5 1.2 1.2 3 1.5 4.6.9a3.9 3.9 0 0 0 2.3-4c-.1-.9-.5-1.7-1-2.4-.7-.7-1.7-1-2.6-.5-1.8.5-3 2.1-3 4a1.5 1.5 0 0 0 3 0c0-.7.5-1.2 1.2-1.3l-1-.4c1.2 1-.2 2.7-1.3 1.6l.3 1.4.6-1.5a1.5 1.5 0 1 0 -3-.8zm9.5-70.5c2.4 3.8 5.2 7.3 8.3 10.5 1.3 1.4 3.5-.8 2.1-2.2-2.9-3-5.5-6.2-7.8-9.8-1-1.6-3.6 0-2.6 1.5z"/><path d="m103.9 19.6-10 8.3c-1.5 1.2.6 3.4 2.1 2.1l10-8.3c1.5-1.2-.7-3.3-2.1-2zm-83.1 57.1a3 3 0 0 0 2.7 3.6 2.8 2.8 0 0 0 3-2.7 2.7 2.7 0 0 0 -2.8-3 3 3 0 0 0 -2.7 3.6c.2.7 1 1.2 1.9 1 .7-.3 1.2-1 1-1.9v.4c0-.2 0-.2 0 0-.1 0-.1.1 0 0l.1-.1c.2 0 .2 0 0 0h-.1-.1c-.2 0-.2 0 0 0l-.2-.1c.2.3 0-.3 0 0 0-.2 0-.3 0 0 0-.2 0-.2 0 0-.1.1.4-.2 0 0 .2 0 .6-.2.3-.2.1 0 .2 0 0 0h.1c-.1 0-.1 0 0 0l-.1-.2c0 .2 0 .2 0 0v.3c.2-.8-.3-1.6-1-1.8-.9-.2-1.7.2-2 1v.1zm2.9 96a1.5 1.5 0 1 0 0-3 1.5 1.5 0 0 0 0 3zm423.1-30.1a5.8 5.8 0 0 0 1.4 8 5.4 5.4 0 0 0 7.6-1.6c1.4-2.5.5-5.6-2-7a5 5 0 0 0 -6.7 2.7c-.7 1.8 2.2 2.6 3 .8a2 2 0 0 1 2.5-.8 2.1 2.1 0 0 1 .4 3c-1 1-2.4 1-3.4.1a3 3 0 0 1 -.2-3.7c1-1.6-1.6-3.1-2.6-1.5zm-200.6-133.8a33 33 0 0 0 9.6 9.6c1.6 1 3.1-1.5 1.5-2.6a29.4 29.4 0 0 1 -8.5-8.5c-1-1.6-3.6-.1-2.6 1.5z"/><path d="m253.6 6.1c-3 2.4-5.7 5.4-7.8 8.7-1 1.6 1.6 3.1 2.6 1.5 2-3 4.5-5.8 7.3-8 1.5-1.2-.6-3.3-2.1-2.1v-.2z"/></g></svg>