<svg xmlns="http://www.w3.org/2000/svg" xmlns:xlink="http://www.w3.org/1999/xlink" width="133" height="131" viewBox="0 0 133 131"><defs><path id="al7ca" d="M506.67 2058.373c0 35.898-29.102 65-65 65-35.898 0-65-29.102-65-65 0-35.899 29.102-65 65-65 35.898 0 65 29.101 65 65z"/><path id="al7cb" d="M462.463 2063.53c2.517-.288 5.696-.912 9.328-2.188v46.617a3.01 3.01 0 0 1-3.01 3.01H414.02a3.01 3.01 0 0 1-3.01-3.01v-99.202a3.01 3.01 0 0 1 3.01-3.009h3.56v-.15c0-.83.675-1.504 1.505-1.504h6.118c.83 0 1.505.673 1.505 1.504v.15h42.074a3.006 3.006 0 0 1 2.96 2.485c-5.296 1.097-10.166 3.291-14.165 6.447a28.116 28.116 0 0 0-3.886 3.705h-33.352v75.432h42.124zm-21.062 41.871a3.31 3.31 0 1 0 .001-6.618 3.31 3.31 0 0 0-.001 6.618zm9.759-91.901v-3.41h-19.51v3.41z"/><path id="al7cc" d="M467.797 2033.417c-1.887-.573-4.473-1.356-4.473-4.406 0-2.269 1.993-3.795 4.96-3.795 1.337 0 2.794.404 3.802 1.056l.946.61-1.382 2.214-.976-.629c-.576-.373-1.538-.622-2.39-.622-1.161 0-2.33.361-2.33 1.166 0 .947.625 1.288 2.63 1.894 1.918.58 4.545 1.374 4.52 4.513 0 2.414-2.088 4.042-5.197 4.042-1.802 0-3.68-.773-4.905-2.017l-.795-.809 1.872-1.872.809.854c.689.727 1.901 1.216 3.019 1.216 1.184 0 2.567-.372 2.567-1.423.01-1.025-.594-1.362-2.677-1.992zm17.569-8.201h2.445v14.244h-2.628l-.013-8.023-3.414 6.707h-1.434l-3.426-6.707v8.023h-2.629v-14.244h2.442l4.343 8.523zm8.171 8.201c-1.889-.573-4.473-1.356-4.473-4.406 0-2.269 1.991-3.795 4.958-3.795 1.337 0 2.794.404 3.802 1.056l.947.61-1.383 2.214-.974-.629c-.578-.373-1.538-.622-2.392-.622-1.159 0-2.33.361-2.33 1.166 0 .947.626 1.288 2.631 1.894 1.918.58 4.545 1.374 4.521 4.513 0 2.414-2.09 4.042-5.199 4.042-1.801 0-3.68-.773-4.905-2.017l-.794-.809 1.873-1.872.807.854c.689.727 1.903 1.216 3.019 1.216 1.186 0 2.569-.372 2.569-1.423.009-1.025-.596-1.362-2.677-1.992zm-30.077 16.985c-.271 1.206-1.282 3.944-5.049 7.124a1.277 1.277 0 0 0 .658 2.244c.07.008.714.088 1.853.088 3.236 0 9.827-.637 17.871-4.868.582.028 1.163.042 1.733.042 15.424 0 27.973-10.023 27.973-22.345 0-12.321-12.549-22.345-27.973-22.345-15.426 0-27.975 10.024-27.975 22.345 0 6.932 4.061 13.499 10.909 17.715z"/><linearGradient id="al7cd" x1="452.55" x2="508.5" y1="2035.1" y2="2035.1" gradientUnits="userSpaceOnUse"><stop offset="0" stop-color="#537c44"/><stop offset="1" stop-color="#b0c849"/></linearGradient></defs><g><g transform="translate(-376 -1993)"><use fill="#f4f4f4" xlink:href="#al7ca"/></g><g transform="translate(-376 -1993)"><use xlink:href="#al7cb"/></g><g transform="translate(-376 -1993)"><use fill="url(#al7cd)" xlink:href="#al7cc"/></g></g></svg>