<svg xmlns="http://www.w3.org/2000/svg" xmlns:xlink="http://www.w3.org/1999/xlink" width="130" height="130" viewBox="0 0 130 130"><defs><path id="hfina" d="M1001.025 1645.075c0 35.898-29.102 65-65 65-35.898 0-65-29.102-65-65 0-35.899 29.102-65 65-65 35.898 0 65 29.101 65 65z"/><path id="hfinb" d="M949.668 1668.674c-2.655-2.62-5.97-2.62-8.608 0-2.013 1.996-4.025 3.991-6.004 6.021-.541.558-.997.676-1.658.304-1.301-.71-2.688-1.285-3.94-2.063-5.835-3.67-10.722-8.388-15.052-13.699-2.147-2.638-4.058-5.462-5.394-8.642-.271-.643-.22-1.065.303-1.59 2.013-1.945 3.975-3.94 5.954-5.936 2.756-2.773 2.756-6.02-.017-8.81-1.573-1.59-3.146-3.147-4.719-4.736-1.623-1.624-3.229-3.264-4.87-4.87-2.655-2.588-5.97-2.588-8.608.016-2.03 1.995-3.975 4.042-6.038 6.004-1.911 1.81-2.875 4.025-3.078 6.612-.321 4.212.71 8.186 2.165 12.06 2.976 8.015 7.508 15.135 13.005 21.663 7.424 8.828 16.287 15.813 26.654 20.853 4.668 2.266 9.505 4.008 14.763 4.295 3.62.203 6.766-.71 9.286-3.534 1.724-1.928 3.669-3.687 5.496-5.53 2.706-2.74 2.722-6.055.034-8.76-3.214-3.23-6.444-6.445-9.674-9.658z"/><path id="hfinc" d="M936.869 1615.494c-6.115.614-11.714 3.135-16.201 7.288l4.302 4.652a21.524 21.524 0 0 1 12.545-5.648c4.473-.45 8.907.487 12.818 2.702l3.125-5.506a27.802 27.802 0 0 0-13.766-3.628c-.938 0-1.879.047-2.823.14z"/><path id="hfine" d="M935.505 1599.766c-10.137 1.018-19.429 5.197-26.884 12.1l4.301 4.651c6.445-5.959 14.484-9.567 23.227-10.459 8.307-.835 16.531.888 23.77 4.991l3.125-5.507a46.252 46.252 0 0 0-22.838-6.01c-1.561 0-3.129.078-4.701.234z"/><path id="hfing" d="M951.508 1637.645l-1.658 10.535 2.188 1.313c.97-.687 2.532-1.124 3.94-1.124 1.938 0 4.064 1.063 4.064 3.625 0 2.595-2.219 3.659-4.064 3.659-1.845 0-4.095-.938-5.283-2.595l-2.315 2.97c1.001 1.564 3.628 3.532 7.942 3.532 4.282 0 8.629-2.532 8.629-7.566 0-5.002-4.253-7.065-7.535-7.065-1.407 0-2.22.188-2.877.47l.626-3.877h8.971v-3.877zM929 1640.896l2.127 3.314c1.188-1.5 3.062-2.908 5.219-2.908 2.126 0 3.471 1.189 3.471 3.034 0 1.843-1.219 3.251-3.251 5.096l-7.317 6.596.595 3.189h15.82v-3.908h-10.005l4.471-4.034c1.72-1.531 4.532-3.783 4.532-7.565 0-3.783-2.969-6.378-7.846-6.378-4.878 0-7.534 2.908-7.816 3.564z"/><linearGradient id="hfind" x1="920.67" x2="953.46" y1="1621.39" y2="1621.39" gradientUnits="userSpaceOnUse"><stop offset="0" stop-color="#537c44"/><stop offset="1" stop-color="#b0c849"/></linearGradient><linearGradient id="hfinf" x1="908.62" x2="963.04" y1="1608.02" y2="1608.02" gradientUnits="userSpaceOnUse"><stop offset="0" stop-color="#537c44"/><stop offset="1" stop-color="#b0c849"/></linearGradient><linearGradient id="hfinh" x1="929" x2="964.95" y1="1648.45" y2="1648.45" gradientUnits="userSpaceOnUse"><stop offset="0" stop-color="#537c44"/><stop offset="1" stop-color="#b0c849"/></linearGradient></defs><g><g transform="translate(-871 -1580)"><use fill="#f4f4f4" xlink:href="#hfina"/></g><g transform="translate(-871 -1580)"><use fill="#283238" xlink:href="#hfinb"/></g><g transform="translate(-871 -1580)"><use fill="url(#hfind)" xlink:href="#hfinc"/></g><g transform="translate(-871 -1580)"><use fill="url(#hfinf)" xlink:href="#hfine"/></g><g transform="translate(-871 -1580)"><use fill="url(#hfinh)" xlink:href="#hfing"/></g></g></svg>