<svg xmlns="http://www.w3.org/2000/svg" xmlns:xlink="http://www.w3.org/1999/xlink" width="130" height="130" viewBox="0 0 130 130"><defs><path id="6nuka" d="M1506.025 1645.075c0 35.898-29.102 65-65 65-35.898 0-65-29.102-65-65 0-35.899 29.102-65 65-65 35.898 0 65 29.101 65 65z"/><path id="6nukb" d="M1441.047 1687.9a41.856 41.856 0 0 0 33.959-66.33l-58.252 58.562a41.661 41.661 0 0 0 24.293 7.768z"/><path id="6nukc" d="M1393.483 1644.142a1.903 1.903 0 1 1 0 3.805h-9.513a1.903 1.903 0 0 1 0-3.805zm47.564-39.954h.069a41.726 41.726 0 0 1 29.535 12.252l-59.208 59.208a41.863 41.863 0 0 1-9.064-45.617 41.863 41.863 0 0 1 38.668-25.843zm-40.864-.367a1.901 1.901 0 0 1 1.85.519l6.725 6.727a1.902 1.902 0 0 1-2.69 2.689l-6.724-6.725a1.905 1.905 0 0 1 .839-3.21zm38.961-14.853a1.903 1.903 0 1 1 3.807 0v9.512a1.904 1.904 0 0 1-3.807 0z"/><path id="6nuke" d="M1499.469 1587.622a1.904 1.904 0 0 0-2.69 0l-26.193 26.193c-17.247-15.863-43.934-15.305-60.504 1.264-16.57 16.57-17.126 43.256-1.263 60.504l-26.194 26.192a1.903 1.903 0 1 0 2.69 2.691l114.154-114.153a1.905 1.905 0 0 0 0-2.69zm-98.375 58.422a39.916 39.916 0 0 1 66.802-29.539l-56.387 56.387a39.637 39.637 0 0 1-10.415-26.848z"/><path id="6nukf" d="M1475.155 1619.673a1.864 1.864 0 0 0-1.499.556l-58.252 58.562a1.9 1.9 0 0 0 .244 2.89c17.442 12.442 41.326 10.426 56.436-4.764 15.11-15.19 17-39.085 4.464-56.46a1.902 1.902 0 0 0-1.393-.784z"/><linearGradient id="6nukd" x1="1382.07" x2="1470.65" y1="1631.36" y2="1631.36" gradientUnits="userSpaceOnUse"><stop offset="0" stop-color="#537c44"/><stop offset="1" stop-color="#b0c849"/></linearGradient></defs><g><g transform="translate(-1376 -1580)"><use fill="#f4f4f4" xlink:href="#6nuka"/></g><g transform="translate(-1376 -1580)"><use fill="#283238" xlink:href="#6nukb"/></g><g transform="translate(-1376 -1580)"><use fill="url(#6nukd)" xlink:href="#6nukc"/></g><g transform="translate(-1376 -1580)"><use fill="#283238" xlink:href="#6nuke"/></g><g transform="translate(-1376 -1580)"><use fill="#283238" xlink:href="#6nukf"/></g></g></svg>