<svg xmlns="http://www.w3.org/2000/svg" width="410" height="222" fill="none"><path fill="#FFCF00" d="M310.6 123.8l-5.2-.7a4.1 4.1 0 0 0-4.2-4.8l-9.3-.5.1.7c.4 3.5 1.5 8.2-.2 12 6.2.9 12.5 1.5 18.8 2 5.7.5 5.5-8 0-8.7zM324 139.4c-10.7-1.2-21.4-.9-32.2-.3a79 79 0 0 1-.6 11.1h14.1a77 77 0 0 0 20-2.2c5-1.3 3.4-8-1.2-8.6zM304.8 166.4c-.8-1-2-1.6-3.2-1.7h-2.7a115 115 0 0 1-9-.7c.1 3.1.2 6.2.1 9.3 0 .4 0 .9-.2 1.3l14 .3c5.2 0 5.4-7 1-8.5zM121.3 165.5c-.2-2.2-.6-4.4-1-6.6 0-1.6-.3-3.3-1-4.7l-1.2-5.8c-.6-3.3-4.7-4-7-2.2-2.8-.5-6.2 1.8-5.3 5.4l.3.9-1.3 2.4a12 12 0 0 0-1.4 6c-.2 1.6 0 3.2.4 4.7-2.1-.2-4.3.6-5.7 2.3-2 2.6-1 8 3.1 7.5 1-.1 2.1-.4 3.1-.7a5 5 0 0 0 2.6.9 4 4 0 0 0 3.5 1.9c2.8 0 5.3-1.7 6.2-4.3l.7-.1c3.5-1 4.3-4.5 4-7.6z"/><path fill="#000" d="M279 193.7l39.6-.3h10.3c2.3 0 5 .3 7.1-.3 4.3-1.2 3.4-6.6 3.5-10 .9-26.8 1.3-53.5 1-80.3 0-1-.7-1.8-1.7-1.8l-46.6-.6c-2.3 0-2.3 3.6 0 3.6l46.6.5-1.8-1.7A2017.3 2017.3 0 0 1 336 183c0 1.3.2 3-.2 4.4-.6 2.2-1.4 2-3.3 2.3-2.7.5-6 0-8.6 0l-8.6.1-36.2.3c-2.3 0-2.3 3.5 0 3.5z"/><path fill="#000" d="M292 127.5c3.6.4 7.4.6 11 .7 2.8 0 6.8.7 9.4-.5 4-1.7 3.4-7.7 2.8-11-.4-2.3-3.8-1.4-3.4.9.5 2.7 1 6-2.4 7-1.5.5-4 0-5.5 0-4 0-8-.3-12-.6-2.2-.2-2.2 3.3 0 3.5z"/><path fill="#000" d="M312 114.7c-6.7-.2-13.4-.1-20 .2-2.3.1-2.3 3.7 0 3.6 6.6-.4 13.3-.5 20-.2 2.3 0 2.3-3.5 0-3.6zM291.1 150.5c10.4 0 20.7-.2 31-.8 2.9-.2 8 .5 10.5-1 2.7-1.8 1-6.8.6-9.3-.2-2.3-3.8-2.3-3.5 0 0 .8 1.3 5.7 1 6.2-.3.4-4.6.3-5.2.3a467.9 467.9 0 0 1-34.4 1c-2.3 0-2.3 3.6 0 3.6z"/><path fill="#000" d="M330 137.3c-12.7.6-25.4.6-38 .1-2.3 0-2.3 3.5 0 3.6 12.6.5 25.3.4 38-.2 2.2-.1 2.2-3.7 0-3.5zM291.7 172.4l10.5-.2c2.8 0 6.1.3 9-.3 4-.9 4.7-4.2 4-7.9-.3-2.2-3.7-1.2-3.4 1 .8 4.7-6.8 3.5-9.6 3.6l-10.5.3c-2.2 0-2.2 3.5 0 3.5z"/><path fill="#000" d="M314.6 161.6c-8-.3-16.1-.6-24.2-.7-2.3 0-2.3 3.5 0 3.5 8 .2 16.1.4 24.2.8 2.3 0 2.3-3.5 0-3.6zM82.5 138.2c-.6 10.8-1.2 21.5-1.5 32.3 0 3.8-.2 7.7-.1 11.5 0 1.4-.2 3.6.9 4.6 2 2 8 1.6 10.6 1.8a420.5 420.5 0 0 0 41.8 1.4c2.6-.2 8 .2 9.4-2.7 1-1.8.6-4.8.6-6.8l-.2-13-.4-16.2c0-4.2 1-9.8-.3-13.9-1.5-4.8-7-4.9-11.3-4.8l-24 .1-12 .1c-3.4 0-7.3-.4-10.6.5-4 1-5.8 5-3.2 8.4 1.4 1.8 4-.8 2.5-2.5-2.1-2.7 8.7-2.8 9.6-2.8h8.6l18.8-.2c4.6 0 9.6-.6 14.3 0 5.8.7 4 9.6 4 13.9l.6 24.3c0 2.9.1 5.8 0 8.7a8 8 0 0 1-.2 2.6c-.2.4.7-.4-.4.1-3 1.5-8.3.8-11.6.9a325.6 325.6 0 0 1-35-1.4c-3.1-.3-6.4-1-9.5-1.2.8 0 .4 1.4.5-.6V180c0-4.1 0-8.2.2-12.3.3-9.8.8-19.6 1.3-29.4.2-2.3-3.4-2.3-3.5 0z"/><path fill="#000" d="M95.5 135.9c-1-7.8-1-15.8.2-23.6 1.3-7.8 6.2-11.9 14-12.6 17.8-1.7 20.2 22.3 17.8 35.1-.4 2.2 3 3.2 3.5 1 2.6-14.6-.3-40.3-20-39.7-7 .2-14.6 3-17.4 10A64.3 64.3 0 0 0 92 136c.3 2.2 3.9 2.2 3.6 0z"/><path fill="#000" d="M139 134.5a67 67 0 0 0-2.7-35.9c-4.5-10.3-16.2-12.6-26.5-13a26 26 0 0 0-24 14.6c-6 11.4-4.8 24.7-3.3 37 .3 2.3 3.9 2.3 3.6 0a67.6 67.6 0 0 1 1-31c3.3-9.3 10.8-16.7 21-17 10.3-.2 22.2 2.2 25.8 12.9a68.1 68.1 0 0 1 1.7 31.5c-.4 2.2 3 3.2 3.4 1v-.1zM108.5 160.6c-2.3-2.7-2.2-7.9 1.7-9.2 4.1-1.4 7.9 2.4 5.6 6.5-.8 1.5-1.6 2.2-1.4 4 .2 3.3 2.4 7 3.5 10l1.2-2.2c-5.5 2-11.5 2-17-.2l1.3 2.2c1.7-4.7 7.6-7 5.6-12.8-.7-2.1-4.1-1.2-3.4 1 1.2 3.6-4.4 7.5-5.7 10.8a1.8 1.8 0 0 0 1.3 2.2c6 2.4 12.8 2.5 18.9.2 1-.2 1.5-1.2 1.2-2.1-1.2-3.2-4.3-7.7-2.6-11 .9-1.8 2-2.7 1.8-5-.3-3.9-3.7-6.7-7.4-7.3-8.8-1.2-12.4 9.4-7 15.4 1.5 1.7 4-.8 2.5-2.5z"/><path fill="#000" d="M133.5 189.7c6.8 2.6 15.3 1.5 22.4 1.6l26.4.5 51.8 1 26.3.5 12.3.3c3.6 0 7.5.6 11 0 5.2-1 6.8-5.4 7.3-10 .8-8.6 1-17.1 1.4-25.6.8-17.5 1.3-35 1.5-52.4l.1-12.3c.1-3.6 1.2-6.4 2.4-9.8 1.5-4.4 1.7-8.5-2.2-11.6-8-6.2-21.4-5.2-30.9-5.3l-52.2-.7-57.3-.7-14.7-.1c-3.5 0-7 .2-10 2.1-3.7 2.4-6.7 7.6-3.5 11.4 1.5 1.8 4-.7 2.5-2.5-2.6-3 4.5-6.8 6.3-7.2 3.9-.9 8.5-.2 12.5-.2l21.8.3 44.2.5 44.3.6c10.3 0 23-1.2 32.7 3.3 6.8 3.2 2.7 9 1.3 14.2-1.6 6-.7 12.8-.8 18.8a1644.4 1644.4 0 0 1-2.3 67.2l-.6 9.9c-.2 1.4-.4 3.2-1.1 4.5-1.7 2.5-4.9 2.1-7.5 2l-44.8-.8-50-1-24.7-.4-13.1-.3c-4 0-8 .2-11.9-1.2-2.1-.8-3 2.6-.9 3.4z"/><path fill="#000" d="M125 77.5a442 442 0 0 0-.7 13c0 2.4 3.5 2.4 3.6 0l.7-13c.2-2.3-3.4-2.3-3.5 0zM128.6 70.6c-.3-3.8-1-10.1.9-13.6 2.2-4 10.2-2.9 14.2-3A1213.8 1213.8 0 0 1 275 56.6c4 .3 8.4.2 12.3 1 4.8 1 7.2 4.6 7.2 9.4 0 1.4-.3 2.7-.7 4-.4 2.7-.5 5.4-.2 8 .1 2.3 3.7 2.3 3.5 0-.3-4 .8-7.4 1-11.3.1-3.7-1.3-9.6-4.3-12-1.8-1.4-4.3-1.4-6.5-1.6a809 809 0 0 0-36.8-2.6 1197.2 1197.2 0 0 0-112.1-.8c-3 0-6.9-.5-9.5 1.1-5.2 3.2-4.2 14-3.9 18.9.2 2.2 3.7 2.3 3.6 0z"/><path fill="#000" d="M137.6 60.6c2.3 0 2.3-3.5 0-3.5s-2.3 3.5 0 3.5zM145 61c2.2 0 2.2-3.6 0-3.6-2.4 0-2.4 3.5 0 3.5zM152.6 61.3c2.3 0 2.3-3.6 0-3.6s-2.3 3.6 0 3.6z"/><path fill="#FFCF00" d="M257.5 102.4c-4-3.3-9.3-4.7-15.4-5-16.2-1-32-2-48-4.8-5-.8-11.6 1.3-12.5 7a66.6 66.6 0 0 0 2 28.9c-1.8 4.6-1.6 10 1.9 16.1 1.2 2.2 2.7 4.2 4.5 5.9 2 6.7 4.5 13.2 8 18.2 5.7 7.6 12.9 7.5 19.3 3.7 2.5 6 10.6 9.8 16.5 3.8l1.2-1.2c10-.8 14.4-10.4 16.9-19.3.1-.5.2-1 .4-1.3 8.9-13 15.3-28 11.5-41.9l-.3-1 1.5-6c1.2-4.7-5.5-6.9-7.5-3.1z"/><path fill="#000" d="M167.6 83.3c3.9 7.1 11.3 10.2 19 11 9.5 1 17-2 25-7 1.9-1.2 0-4.2-1.8-3-6.4 3.9-12.4 6.9-20 6.6-7.5-.2-15.3-2.4-19-9.4-1.2-2-4.2-.2-3.1 1.8z"/><path fill="#000" d="M209 87.2c7.6 15.2 31.8 8.5 41.4-.9 1.7-1.6-.9-4.1-2.5-2.5-8 7.8-29.4 14.5-35.8 1.6-1-2-4-.3-3 1.7z"/><path fill="#000" d="M167.4 82.4a169.5 169.5 0 0 0 5.6 52c3.4 14.4 9.5 28.7 21.4 38 3.8 3 8.1 5.9 13 5.9 5.4 0 8.8-1.4 12.6-5.1a97.7 97.7 0 0 0 22.4-34.8c6.4-16 13.8-34.3 8.6-51.7-.7-2.2-4-1.2-3.4 1 4.2 14.1-.6 28.8-5.6 42.1a106.6 106.6 0 0 1-18.3 34.5c-3.2 3.5-7.1 9-12 10.2-5.7 1.3-10.5-1.3-15-4.8a61.9 61.9 0 0 1-20.1-35.4c-4.1-16.7-7-34.6-5.6-52 .2-2.2-3.4-2.2-3.6 0z"/><path fill="#000" d="M191 132l5 7.4c1.3 1.9 2.4 4.2 4.1 5.6.6.6 1.5.7 2.2.3 2.2-1.3 3.8-3.8 5.5-5.8a587 587 0 0 0 19.4-23.5c1.4-1.8-1.1-4.3-2.5-2.5a1051.5 1051.5 0 0 1-17.2 21c-2 2.3-4.3 6.2-7 7.7l2.2.3c-1.8-1.5-3.2-4.3-4.5-6.2l-4.1-6.1c-1.3-1.9-4.4-.1-3 1.8h-.1z"/></svg>
