<svg fill="none" height="229" width="588" xmlns="http://www.w3.org/2000/svg"><path d="m286.6 123.6c-1.4 3.8-2.5 7.6-3.4 11.6-.8 2.5-1 5.2-.7 7.9 1.1 6.4 8.9 10.9 15 8.5 1.8-.7 3.5-1.9 5.4-1.7 2.3.3 4 2.8 4 5-.2 2.4-1.1 4.6-2.6 6.4-4.7-1.6-9.7-2-14.5-1.3-1.3.2-2.7.6-3.3 1.7-.3.7-.4 1.4-.3 2.2v14.8c0 1.2.2 2.6 1.2 3.3.7.3 1.6.5 2.4.4 4.4.3 7.4 4.4 9.8 8l2.4-7.1a3.7 3.7 0 0 1 4.3-3l19-1.2c.8 0 1.6-.2 2.3-.6.6-.6 1-1.4 1.1-2.3 1.1-4.8 1.5-9.8 1.2-14.8 0-1-.2-2.3-1.1-2.8-.8-.4-1.6-.4-2.4-.2l-12 1.8c0-4 3.5-7.4 7.4-8.8s8-1.4 12-1.8c1 0 2-.3 2.6-1 .4-.6.6-1.4.5-2.1.3-7.3 0-14.6-1-21.8 0-.9-.3-1.7-.8-2.5-1-1-2.6-.8-3.9-.5l-16.1 2.7c-9.8 1.6-19.7 3.3-29.5 2" fill="#ffd000"/><g fill="#000"><path d="m1.4 81.1c28.2-.9 56.5-2.3 84.6.7 14.3 1.5 28.4 3.9 42.6 6.1 9 1.5 18.2 2.6 27.1 4.5 7.8 1.7 16.6 4.5 21.3 11.4 6 8.6 2.1 20.7-6.5 26-8.3 5-19.3 4-27.3-1-12.6-8.2-17.3-25.7-12.8-39.6 5.1-15.9 21.7-24.6 37.7-24.5 18.6 0 35 12 39.1 30.4 2.2 9.8 1.6 20 1.5 29.8 0 8.3-.6 19.4 3.1 27.1 1.7 3.4 4.3 4 7.9 4.1l18.6 1 37.3 1.7a1.5 1.5 0 0 0 1-2.5l-23-22.8c-1.3-1.4-3.4.8-2 2.1l23 22.8 1-2.6-37.3-1.8c-6-.3-12.7.2-18.6-1-7.7-1.4-7.4-11.6-7.8-17.8-1-18.4 3.2-39.5-8-55.7-18.3-26.4-66.8-23.1-76.6 9.4-4 13.5-.2 29.8 10.4 39.3 11.6 10.5 32.3 11.3 41.5-2.8 4.2-6.3 5.1-14.7 1.5-21.5s-11-10.5-18.1-12.7c-9.7-3-20-4-30-5.6-8.8-1.4-17.7-2.9-26.6-4.2a373 373 0 0 0 -43.8-4.2c-20.2-.6-40.5.3-60.7 1-2 0-2 3 0 3z"/><path d="m273.4 156.5-20 18.5c-1.5 1.3.6 3.4 2 2.1l20.1-18.5c1.4-1.3-.7-3.4-2.1-2.1zm65.7 2.4h112a1.5 1.5 0 0 0 0-3h-112a1.5 1.5 0 0 0 0 3z"/><path d="m453.4 156.8c-.6-17.1-.3-34.2.8-51.2l-1.5 1.5c45.8-3.2 91.9-.4 137.8-.7a1.5 1.5 0 0 0 0-3c-46 .3-92-2.5-137.8.7-.8 0-1.5.7-1.5 1.5-1.1 17-1.4 34.1-.8 51.2 0 1.9 3 1.9 3 0zm-113.9 1.1c4.8-6.7 10-13 15.8-19 1.3-1.4-.8-3.5-2.1-2.1a184.3 184.3 0 0 0 -16.3 19.6c-1.1 1.6 1.5 3 2.6 1.5z"/><path d="m337.1 158.5c6 6.7 11.3 13.8 16 21.4 1 1.6 3.6.1 2.6-1.5a166.4 166.4 0 0 0 -16.5-22c-1.3-1.5-3.4.7-2.1 2.1zm-3.7-7.3c-.4-8.9.2-17.7 1.7-26.4.3-1.9-2.6-2.7-2.9-.8-1.6 9-2.2 18-1.8 27.2.1 1.9 3.1 2 3 0zm-53.6-20.7c-.4 4.7-.6 9.4-.5 14.1 0 2.2-.1 4.1 1.8 5.5 2.4 1.7 6.6 1.5 9.5 1.9 4.5.5 9 .8 13.4.9 2 0 2-3 0-3-5.8-.1-13.3.2-18.9-1.7-3.7-1.3-2.9-4.6-2.8-8 0-3.3.2-6.5.5-9.7.2-2-2.8-2-3 0z"/><path d="m303.6 151.4v10.9a1.5 1.5 0 0 0 3 0v-10.9a1.5 1.5 0 0 0 -3 0z"/><path d="m306.9 163.3 10.4-10.5c1.4-1.4-.8-3.5-2.1-2.1l-10.5 10.5c-1.3 1.4.8 3.5 2.2 2.1z"/><path d="m316.4 152.9 14.7-.3c2 0 2-3 0-3l-14.7.3c-1.9 0-1.9 3 0 3zm16.9-30.5c-12.5-.3-25-.4-37.6-.3-3.5 0-9.5-1.1-12.8.7s-2.6 6.9-2.9 9.9c-.1 2 2.9 2 3 0l.4-3.8c.5-3 2-4.2 4.4-3.7 1.8-.4 4.2 0 6 0a916.8 916.8 0 0 1 39.5.2c2 0 2-3 0-3zm-7.7 35.1v20.6l1.1-1.4c-4.2.8-8.2.5-12.4.3a52 52 0 0 0 -5.2 0c-1.2 0-4.3.7-5.4.3-1.8-.7-2.6 2.2-.8 2.9a5 5 0 0 0 2.4.2c3-.2 5.9-.6 9-.4 4.5.2 8.8.5 13.2-.4.7-.2 1.1-.8 1.1-1.5v-20.6c0-2-3-2-3 0z"/><path d="m301.1 179-.8 12.4c-.1 2 2.9 1.9 3 0l.8-12.4c.2-2-2.8-2-3 0z"/><path d="m302.9 190.2a21.4 21.4 0 0 1 -7.4-9.3c-.7-1.7-3.6-1-2.9.8a25 25 0 0 0 8.8 11.1c1.5 1.1 3-1.5 1.5-2.6z"/><path d="m293.8 179.3c-3.3.6-6.7.9-10 .7-2 0-2 3 0 3 3.6.1 7.2-.1 10.7-.8 2-.4 1.1-3.3-.7-3z"/><path d="m285.2 181.6c0-8 .6-15.8.7-23.7l-1.1 1.4c6.5-1.5 13.9-.1 20.5.3 2 .1 2-2.9 0-3-7-.5-14.4-1.8-21.3-.2-.7.2-1.1.8-1.1 1.5-.1 7.9-.6 15.8-.7 23.6a1.5 1.5 0 0 0 3 0zm27.2-22.3c5-.4 10-.6 15-.7a1.5 1.5 0 0 0 0-3c-5 0-10 .3-15 .7-2 .2-2 3.2 0 3zm-3.7-49.3v-11.2a1.5 1.5 0 0 0 -3 0v11.2a1.5 1.5 0 0 0 3 0zm-9.9 1.2c-1.3-3-3-6-5-8.8-1-1.5-3.7 0-2.6 1.5 2 2.8 3.7 5.7 5 8.8.8 1.8 3.4.2 2.6-1.5zm17.6 1.2 6-7.6c1.3-1.5-.8-3.6-2-2.1l-6.1 7.6c-1.2 1.5.9 3.6 2 2.1zm-8.3 87.8v14.2a1.5 1.5 0 0 0 3 0v-14.2a1.5 1.5 0 0 0 -3 0zm-7.7-.4-4.3 7.5a1.5 1.5 0 0 0 2.6 1.5l4.3-7.4a1.5 1.5 0 1 0 -2.6-1.6zm15.5 1.5a21 21 0 0 1 4.7 5.5c.4.7 1.3 1 2 .5s1-1.3.6-2a23.9 23.9 0 0 0 -5.2-6.2c-1.5-1.2-3.6 1-2.1 2.2zm-17.7-62.5a1.5 1.5 0 1 0 0-3 1.5 1.5 0 0 0 0 3zm10.5 0a1.5 1.5 0 1 0 0-3 1.5 1.5 0 0 0 0 3zm10.5 0a1.5 1.5 0 1 0 0-3 1.5 1.5 0 0 0 0 3z"/><path d="m294.4 170a1.5 1.5 0 1 0 0-3 1.5 1.5 0 0 0 0 3zm11 .3a1.5 1.5 0 1 0 0-3 1.5 1.5 0 0 0 0 3zm9.6-.3a1.5 1.5 0 1 0 0-3 1.5 1.5 0 0 0 0 3z"/></g></svg>