<svg fill="none" height="600" width="680" xmlns="http://www.w3.org/2000/svg"><path d="m306.4 270.2a1732 1732 0 0 0 0 47.4 8 8 0 0 0 1 4.7c1 1 2.2 1.9 3.6 2.3 5.1 2 10.5 3 15.9 3.2 1.6 0 3.2 0 4.8.4 4.6 1.4 6.8 6.4 8.5 11 3.6-1.3 3.4-6.6 5.5-9.8 3-4.5 9.5-4 14.9-3.4a73 73 0 0 0 15.6-.2c2-.1 3.8-.7 5.4-1.8 2.1-1.6 2.8-4.4 3.3-7 2.5-12.9 3.7-25.9 3.8-39 0-2.2 0-4.6-1.1-6.6a11.1 11.1 0 0 0 -4.8-4.2c-7.6-4-16.5-4.3-25-4.3-12.5 0-25 .6-37.4 2-3.5.3-7.1.8-10 2.8-3 1.9-5 5.8-3.6 9m-147.5 84.7-.4 31c-.2 3.2 0 6.4.9 9.5 1.9 5.9 7.4 10 13.3 12 6 1.9 12.3 1.8 18.5 1.8l30.9-.3c1.6 0 3.4 0 4.8-1 1.7-1.3 2.1-3.7 2.3-5.9 1.4-12.9 1.8-25.8 1.5-38.8-.1-3-.3-6-1.6-8.7a14.7 14.7 0 0 0 -9.4-7c-3.8-1.1-7.9-1-11.9-1l-37.8.5c-3 0-6.3.1-8.7 2-3.3 2.7-3.3 7.7-3 12m7.9-182.8c-1.8 16.3-1 32.8 2.5 48.9.5 2 1 4.1 2.4 5.6a40.8 40.8 0 0 0 18.7 8c6.8.6 13.4-2.2 20.3-2.5 6.7-.2 14.5 1.5 19-3.4 1.4-1.5 2.4-3.4 3-5.4 4.4-13 2.6-27.2-.2-40.5-1-4.8-2.3-9.7-5.9-13a20 20 0 0 0 -9.1-4.3c-17.3-4.1-35.4.4-52.7 4.9m158.6-98.7c-1.4 15.5-2 31-1.5 46.5 0 2.8.3 5.8 2 8 2.2 3 6.2 3.5 9.8 3.9 17.7 1.6 35.5 1.6 53.1 0 2-.2 4-.5 5.5-1.8 2-1.8 2-4.7 1.9-7.3l-1-33.3c-.1-4.7-.4-9.8-3.4-13.4-4-5-11.1-5.5-17.4-5.4-15 .2-29.8 1.3-44.6 3.3m131.4 95.2c-.3 14.5.6 29.1 2.6 43.6.2 2.8 1 5.4 2.2 8 2.8 5 8.7 7.2 14.3 8.3 14.2 3 28.9 1.4 43.3-.2 1.3 0 2.6-.4 3.7-1.3.7-1 1-2 1.1-3.3 2-16.4 2.8-33 2.6-49.6 0-2.3-.3-5-2.2-6.4-1.2-.7-2.5-1-3.9-1a400.6 400.6 0 0 0 -55.2-.2c-3 .2-6.6.9-7.6 3.7m9.3 163.9c-1.5 18.5-1.2 37 .8 55.4 0 1.2.4 2.3 1 3.3 1 1 2.6 1.3 4 1.4 18.5 1.9 37.2 2 55.8.6 1.7-.2 3.6-.4 4.6-1.8.6-1 1-2 1-3.2.2-4.7 0-9.3-.4-14l-2.7-36.3c0-1-.2-2-.6-3a6.7 6.7 0 0 0 -3-2.7c-9.3-5.1-20.8-1.3-31.4-1.6-6.8-.3-13.6-2.4-20.4-1.5-4.1.5-8.5 2.7-9.6 6.7m-169.1 96.4c-.8 19.1.7 38.3 4.7 57 .8 4 1.8 8 4.8 10.6 3.4 2.9 8.2 3 12.7 3.1l38.5.2c1.8 0 3.8 0 5-1.3 1-1 1.5-2 1.7-3.3 5.3-20.5 2.8-42.2.3-63.2-.1-1.8-.6-3.6-1.5-5.3-1.3-1.7-3-3-5-3.6a49 49 0 0 0 -19-2.7c-6.8 0-13.7.4-20.6 1-6.8.6-14.6 2.2-17.8 8.2" fill="#ffd000"/><g fill="#000"><path d="m300.8 274.8-1 24.8c-.1 5.6-2 13.6 1.4 18.6 3 4.7 10.2 6.6 15.2 7.5 6.6 1.1 13.4.7 20 .3 2-.1 2-3.1 0-3-9.3.6-33 2.7-33.9-11-.7-12.2.9-25 1.3-37.2 0-2-3-2-3 0z"/><path d="m335.4 325.6 3 10.8c.4 1.6 1.1 3.9 3.3 3.6 2-.4 2.9-3.8 3.6-5.4 1.4-3.3 2.6-6.7 3.5-10a1.5 1.5 0 0 0 -2.9-.9c-1 4-2.2 9-4.6 12.4l.2.6-.6-2.2-.8-3.2-1.8-6.5a1.5 1.5 0 0 0 -2.9.8z"/><path d="m347.5 325.2c4.8.2 9.6.3 14.4.1 3.7 0 8.5.4 12-1 5.2-2.2 4.6-11.2 5.1-15.9 1-8.9 1.5-17.9 1.5-26.8 0-4.7 1.6-15-3-18.4-2-1.6-5.6-1.4-8-1.7l-13.6-1c-9-.5-18-.6-27.1-.4-9.9.2-31.4.7-27.7 16.4.5 2 3.4 1.1 3-.8-3.7-15.2 25-12.7 33.4-12.7a320.3 320.3 0 0 1 28 1.2c3.3.3 10-.1 11.5 3.8 1 2.5.4 6.2.4 8.8a256.6 256.6 0 0 1 -2.2 38.9c-.4 2.5-.3 3.2-2.6 4.8s-3.1 1.5-5.8 1.6c-6.5.4-12.9.4-19.3.1-2 0-2 3 0 3z"/><path d="m313.9 274.9c-.9 11.3-1.3 22.6-1.4 34 0 .9.7 1.5 1.5 1.5 7.1-.4 14.3-.6 21.4-.7.8 0 1.5-.7 1.5-1.5-.1-2.6 1-8.7-1.2-10.5-.8-.6-1.8-.4-2.7-.3-3.3 0-6.7.7-10 1l1.5 1.5c.1-8 .9-16.4.4-24.4-.4-5.4-4.4-3.5-8.8-3-1.9.3-2 3.3 0 3l4-.4c1.8-1 2.4-.5 1.7 1.4.8 1.9 0 5.7 0 7.8l-.3 15.6c0 .8.7 1.5 1.5 1.5l5.5-.6c1.2 0 3.5-.9 4.5-.4 1.3.5.7.4.7 2.6l.2 5.2 1.5-1.5c-7.1 0-14.2.3-21.3.7l1.5 1.5c0-11.3.4-22.7 1.3-34 .2-2-2.8-2-3 0zm42.6-2.1c-10 1.4-17.9 21.6-12.6 30 2.8 4.3 8.4 5.5 13.3 5 2.3-.4 6.7-.8 8.4-2.4 2.2-2.1 1.3-5.9 1.2-8.6a1.5 1.5 0 0 0 -1.9-1.4c-1.7.3-3.4.4-5.1.5-3.2 0-3.2 0-4.5-3.2-1.2-3-1.4-4 .5-6.4 2.1-2.7 4.6-2.4 7.4-2.5 2.2 0 2.9-1 3.2-3 .4-2.6.6-6.6-2-8.3-2.8-1.9-7-.3-9.7 1-1.8 1-.3 3.5 1.5 2.7 2.4-1.3 6.5-1.2 7.2 1.7.3 1 0 2-.8 2.8-.8.5-4 0-5.2.6-3.6 1.7-6 5.2-6.5 9.2-1 9.2 8.4 8.8 14.8 7.8l-1.9-1.5c0 2.4.7 5.3-1.3 6.6-1.4 1-4.3 1.2-6 1.4-5.5.5-11.1-1.7-11.2-8 0-6.7 4.3-20 12-21 1.9-.3 1-3.2-.8-3zm-176.3 122.7c0-2 0-4 .2-6 .2-1.9-2.8-1.9-3 0-.2 2-.3 4-.2 6s3.1 2 3 0z"/><path d="m179.6 387.6c-9.4-4.6-7.7-19 1.1-23.4 8.3-4 19.7-1 22.5 8.3 2.4 7.8-.2 19.5-10 19.6-5.6 0-11.3-2.2-15.3 2.9-1.2 1.5 1 3.6 2.1 2 4.2-5.2 12.2-.6 17.8-2.6 3.6-1.4 6.4-4.3 7.7-8 3.3-8.3 1.4-20-7-24.6-8-4.5-20.4-2.5-25.3 5.5-4.8 7.7-3.9 18.6 4.9 23 1.7.8 3.2-1.8 1.5-2.6z"/><path d="m180.1 383.4c1.8-2.4 3.8-4.6 6-6.7 2.7-2.3 2 1.3 4.3 2.4 2.7 1.3 7.5-2.8 10-4 1.7-.8.2-3.4-1.6-2.6-1.7.9-5.1 3.5-6.9 3.1-1.6-.3-2.2-2.6-3.5-3.6-.5-.2-1-.2-1.6 0-3.4 2-6.3 6.3-8.8 9.2-1.2 1.5.9 3.6 2.1 2.2z"/><path d="m198.5 373.5a52 52 0 0 1 -3.8 4.3c-1.2 1.2-2.7 3-4.3 3.7h1.5c-1.5-.9-2.7-2.5-4-3.7-1.4-1.3-3.5.8-2.1 2.1 1.6 1.5 4 5.5 6.6 4a37 37 0 0 0 8.2-8.2c1.2-1.5-1-3.7-2.2-2.2z"/><path d="m185.8 377.5a46.2 46.2 0 0 1 -7.4 4c-1.7.7-.2 3.3 1.5 2.6 2.6-1.1 5-2.5 7.4-4 1.6-1 .1-3.7-1.5-2.6z"/><path d="m154.6 354.9 1.2 30.8c.3 6.6-.5 15.4 4.7 20.5 5.2 5.2 13.5 4.5 20 5l13.5.8c4.8.3 9.9 1.2 14.7.6 6.7-.7 9.9-5.8 10.8-12 1.4-8.9 1-18.2.7-27.1-.2-6.6.7-17-3.8-22.4-4.2-5.2-12.1-5.2-18.2-5.5-11.5-.6-23.2-.4-34.7.5-2.8.2-5.7.2-7.5 2.6-1.7 2.5-1.3 6.1-.7 9 .4 2 3.3 1.1 3-.8-.9-3.7-1.3-6.2 3.2-7.7 2-.6 4.7-.3 6.8-.4 4.5-.3 9-.4 13.5-.5 8.4 0 18.4-.8 26.6 1.5 5.3 1.5 7.3 4.9 7.9 10.2.5 4.5.8 9 1 13.5.3 8.8.7 18.2-.8 27-.9 5.5-3.6 9.1-9.6 9.3-4.3.1-8.7-.5-12.9-.7-8.4-.6-17.8 0-26-2.1-10.4-2.8-9-14.7-9.3-23.2l-1.2-28.9c0-1.9-3-1.9-3 0zm324.4 8.1c-8 9.1-12.9 21.5-3.7 31.6 4 4.5 8.1 8 14.3 8.5a23 23 0 0 0 16.3-4.3c9-7.2 12.3-23.1 4.6-32.3-7-8.4-22.9-11.1-31.4-3.5-1.4 1.3.7 3.4 2.2 2.2 7.5-6.9 22.2-3.6 27.8 4.3 5.7 8.2 2 22.5-6.3 27.8-3.7 2.3-8 3.3-12.4 3-5.6-.4-9.4-3.8-13-7.8-7.8-8.8-3.1-19.6 3.8-27.3 1.2-1.5-.9-3.6-2.2-2.1z"/><path d="m476.7 372.4c2-.5 4-.8 6-.8a1.5 1.5 0 1 0 0-3c-2.2 0-4.5.3-6.8.9-1.9.4-1 3.3.8 2.9z"/><path d="m477.8 372.5c3.3 7.3 4.9 15.2 8.5 22.4a1.5 1.5 0 0 0 2.7-.3l4-11.8c.6-1.8-2.3-2.6-2.9-.8l-4 11.8 2.8-.4c-3.6-7.2-5.1-15.1-8.5-22.4-.8-1.8-3.4-.3-2.6 1.5z"/><path d="m493.1 382.1c-1.2-3.4-3-7-3.3-10.7-.2-2-3.2-2-3 0 .4 4 2.1 7.8 3.4 11.6.7 1.8 3.6 1 3-.9z"/><path d="m486.2 371.7c4 .4 8.2.2 12.2-.4 2-.4 1.1-3.3-.8-3-3.7.7-7.6.8-11.4.4-2-.1-2 2.9 0 3z"/><path d="m493.8 372 7.3 20.4a1.5 1.5 0 0 0 3 0 36 36 0 0 0 3.2-14.2c0-1-.3-1.8-.7-2.6-.4-.7-1.2-1.2-1.7-1.9-1.4-2.1-2-6 1.1-7 1.8-.8 1-3.6-.8-3a7 7 0 0 0 -4.3 9.2c.7 2 2.8 3.3 3.4 5.3 1 3.3-2 10.4-3.2 13.4h2.9l-7.4-20.3c-.6-1.8-3.5-1-2.9.8zm-2.9 11.5c2.2 5.4 4.5 10.9 6.2 16.5a1.5 1.5 0 0 0 2.9-.8c-1.7-5.6-4-11-6.2-16.5-.7-1.8-3.6-1-3 .8zm19.4-8.8a267 267 0 0 1 -7 21.7c-.6 1.8 2.3 2.6 3 .8 2.6-7.1 5-14.4 7-21.7a1.5 1.5 0 1 0 -3-.8zm-26.1 23.2c-2.6-7.8-5.4-15.5-8.6-23-.7-1.8-3.6-1-2.8.8 3.1 7.5 6 15.2 8.5 23 .6 1.8 3.5 1 2.9-.8zm3.6 2.7 4-11c.6-1.7-2.3-2.5-3-.7l-4 11c-.6 1.7 2.3 2.5 3 .7z"/><path d="m525.4 405.1-1.2-30.8c-.3-6.6.4-15.4-4.7-20.5-5.2-5.2-13.5-4.5-20-5l-13.5-.8c-4.8-.3-9.9-1.2-14.7-.6-6.7.7-9.9 5.8-10.8 12-1.4 8.9-1 18.2-.7 27.1.2 6.6-.7 17 3.8 22.4 4.2 5.2 12.1 5.2 18.2 5.5 11.5.6 23.1.5 34.7-.4 2.8-.2 5.7-.3 7.4-2.7 1.8-2.4 1.3-6 .7-9-.4-1.9-3.2-1-2.9.8.8 3.7 1.3 6.3-3.3 7.7-2 .7-4.7.4-6.7.5-4.5.3-9 .4-13.6.4-8.4.1-18.3.9-26.5-1.4-5.4-1.5-7.4-5-8-10.2l-.9-13.5c-.3-8.9-.8-18.3.7-27 1-5.6 3.6-9.2 9.7-9.3 4.2-.2 8.6.4 12.9.7 8.4.5 17.8 0 26 2 10.4 2.8 9 14.8 9.3 23.2l1.2 29c0 1.8 3 1.9 3 0zm-183.6 55.5-1 39c0 1.9 3 1.9 3 0l1-39c0-2-3-2-3 0z"/><path d="m342.8 501c4.3-1.1 8.6-2.5 12.8-4 1.7-.8 1-3.7-.8-3-4.2 1.6-8.5 3-12.8 4.2a1.5 1.5 0 0 0 .8 2.9z"/><path d="m348.6 463.7 5.8 31.4c.3 2 3.2 1.1 2.8-.8l-5.7-31.4c-.4-2-3.3-1.1-3 .8z"/><path d="m343 461.7 2.5 3.1c.5.5 1.2.6 1.8.2l3.1-1.6c1.8-.9.2-3.5-1.5-2.6l-3.1 1.6 1.8.3-2.5-3c-1.2-1.6-3.3.6-2.1 2zm-25.3 4c-1.5 9.7-2.6 19.5-3.5 29.3-.2 2 2.8 2 3 0 .8-9.5 2-19 3.4-28.5.3-1.9-2.6-2.7-2.9-.8z"/><path d="m315.6 496.5a592 592 0 0 0 26.4 5.7c1.9.4 2.7-2.5.8-2.9a588 588 0 0 1 -26.4-5.7c-1.9-.4-2.7 2.5-.8 3zm3.7-29.1a79 79 0 0 0 10.8-1.7c4.3-1 8.4-3.4 12.8-3 2 0 2-3 0-3-3.7-.4-6.7 1.2-10.2 2.3-4.3 1.2-8.8 2-13.4 2.4-1.9.1-1.9 3.1 0 3z"/><path d="m326.7 464.3c1.2-2.3 1.6-5.3 3.8-6.9 1.1-1 2.7-1.2 4-.6 1.7 1 1.5 2.9 1.6 4.5.1 2 3.1 2 3 0 0-2.1 0-4.5-1.7-6.1a6.4 6.4 0 0 0 -5-1.7c-5.2.4-6.3 5.4-8.3 9.3-1 1.7 1.7 3.2 2.6 1.5z"/><path d="m331 464.5a24 24 0 0 1 5.6-6.5c2.4-.9 3 1.4 3.1 3.1 0 2 3 2 3 0-.1-3.2-2.1-7-6-6.3-3.7.8-6.6 5.1-8.4 8.1a1.5 1.5 0 0 0 2.6 1.6zm5.4 3.6c-5.3-1.7-11.6.4-13 6.2a8.4 8.4 0 0 0 1 6.6c1 1.4 3.4 2.2 2.4 3.8-.9 1.6-.3.4-1.4.2-.6-.1-1.2-.6-1.8-.7-1.9-.5-2.7 2.4-.8 2.9 2.2.5 3.5 3 6 2a4 4 0 0 0 2.4-4.4c-.6-3-4-4-4.8-6.8-1.8-5.7 4.7-8.3 9.2-6.9 1.8.6 2.6-2.3.8-2.9z"/><path d="m321.1 485c-.7 4.5-1.6 7.8 3.7 9.2 4 1 8.3-.8 10.4-4.4 2.4-4.3 1.3-7.8-1.6-11.2-3-3.5 1-1.6 2.7-3 1.3-1 1.1-3.4 1.4-5 .3-1.8-2.6-2.6-3-.7l-.3 2.4c-.3 1-.4.9-.2.8-.6.3-2-.2-3 .1a3.5 3.5 0 0 0 -2.4 3.9c.4 3.3 4.6 4 4.7 7.5a6.6 6.6 0 0 1 -7 6.8c-4-.4-3-2.6-2.5-5.6.3-2-2.6-2.7-3-.8z"/><path d="m302 454 1.3 31c.3 6.6-.4 15.3 4.8 20.4 5.1 5.2 13.4 4.5 20 5l13.5.8c4.8.3 9.9 1.2 14.7.7 6.7-.8 9.8-5.8 10.8-12.1 1.3-8.9 1-18.2.7-27.1-.3-6.6.7-17-3.8-22.4-4.3-5.1-12.1-5.2-18.2-5.4-11.6-.7-23.2-.5-34.8.4-2.7.2-5.7.2-7.4 2.7-1.8 2.4-1.3 6-.7 9 .4 1.9 3.3 1 2.9-.8-.8-3.7-1.3-6.3 3.3-7.8 2-.6 4.7-.3 6.8-.4 4.5-.3 9-.4 13.5-.5 8.4 0 18.4-.8 26.6 1.5 5.3 1.5 7.3 4.9 7.9 10.2.5 4.5.7 9 .9 13.5.3 8.8.8 18.3-.7 27-1 5.5-3.6 9.1-9.7 9.3-4.2.1-8.6-.5-12.8-.8-8.4-.5-17.9 0-26-2-10.5-2.8-9-14.7-9.4-23.2l-1.1-28.9c-.1-1.9-3.1-2-3 0zm23.1-344.5c2.3 10.5 15.4 8.3 18.7-.3a1.5 1.5 0 0 0 -1.4-1.9c-5 .4-10 .5-15 .2-1.8-.1-1.8 2.9 0 3 5 .3 10 .2 15-.2l-1.4-1.9c-2.4 6-11.4 7.6-13 .3-.4-2-3.3-1.1-2.9.8zm19.5-.5.5 17.8a1.5 1.5 0 0 0 2.8.8c4-7 10.5-12 15.2-18.4a1.5 1.5 0 0 0 -1.3-2.3c-5 .2-9.8.3-14.7.2a1.5 1.5 0 0 0 0 3c4.9 0 9.8 0 14.7-.2l-1.3-2.2c-4.7 6.4-11.2 11.4-15.2 18.3l2.8.8-.5-17.7c0-2-3-2-3 0zm3.5 26.5c.9-3 4.6-5.9 7.8-5 2.6.8 3.8 3.6 4.8 5.8l1.3-2.3c-4.9.2-9.7 0-14.5-.6-2-.2-2 2.8 0 3 4.8.6 9.6.8 14.5.6a1.5 1.5 0 0 0 1.3-2.3c-1.8-3.7-4.2-7.4-8.8-7.3-4.3.2-8 3.1-9.2 7.3a1.5 1.5 0 0 0 2.9.8zm-7.5-17.5c-.3 5.5-.5 11-.5 16.6l1.5-1.5c-2.6-.2-5.1-.1-7.7.1-2 .2-4.6 1.1-6.5.7l.9 2.2c4-6.3 9.4-12 14.2-17.7 1.2-1.5-.9-3.7-2.1-2.2-5 6-10.5 11.8-14.7 18.4a1.5 1.5 0 0 0 .9 2.2c2.2.5 4.3-.3 6.6-.5 2.8-.3 5.6-.4 8.4-.2.8 0 1.5-.7 1.5-1.5 0-5.6.2-11.1.5-16.7.1-2-2.9-2-3 0z"/><path d="m313.2 98.2c-1 9.5-1.2 19-.5 28.6.3 4.8.8 9.5 1.2 14.3.3 2.7.2 5.8 2.3 7.7 1.7 1.6 4.5 1.7 6.7 1.9l15.7 1.3c9.9.8 19.8 1.8 29.7 1.2 2.3-.2 5.2 0 6.8-1.9 1.9-2 1.7-6 2-8.5 1-9.7 1-19.6.3-29.4-.5-6.2-.8-13.8-4.6-19-4.3-5.8-12.3-6-18.8-6.3-10.1-.3-20.3 1.2-30.2 3-8.3 1.3-11 5.2-11.8 13.4-.1 2 2.9 2 3 0 .2-2.1.3-5.3 1.7-7.1 1.7-2.1 4.4-2.9 7-3.3 4.9-1 10-1.7 14.9-2.3 8-.9 17.7-1.9 25.6.5 9.6 2.8 9.7 13.9 10.3 22.1.6 8.8.6 17.7-.3 26.5-.1 2 .1 5.8-.9 7.5-1.1 2-5.9 1.8-8 2-4.6 0-9.2 0-13.9-.4-8.8-.6-17.7-1.4-26.6-2.2-2.6-.2-6 .2-7.4-2.7-.7-1.3-.6-5.2-.8-6.8-.4-4.5-.8-9-1-13.4a148 148 0 0 1 .5-26.7c.3-2-2.7-2-3 0zm150.2 105.1c7 5.9 14.3 11.2 22.1 16l-.3-2.4-5.6 4.4c-3 2.3-5 1.7-7.9-.3-1.3-1-4.4-2.4-4.2-4.3.1-1.6 5.1-3.9 6.6-4.6 1.8-.8.2-3.4-1.5-2.6-2.7 1.3-7.9 4-8.8 7.2-.7 2.4 2.2 3.8 3.8 5 2.3 1.6 6.3 5.9 9.3 5.2 1.4-.3 2.5-1.6 3.5-2.4l7-5.5a1.5 1.5 0 0 0 -.3-2.3c-7.6-4.6-14.8-9.8-21.6-15.5-1.4-1.3-3.6.9-2.1 2.1z"/><path d="m464.8 202.8c1.8-1 3.6-1.9 5.3-3 1.2-.7 3.9-3.4 5-3.5 1.5-.2 4.3 2 5.4 2.7 1.9 1 3.6 2.2 5.4 3.4v-2.6c-4.1 3-8.9 5-13.3 7.4-1.7 1-.2 3.6 1.5 2.6 4.4-2.4 9.2-4.5 13.3-7.4a1.5 1.5 0 0 0 0-2.6 90.4 90.4 0 0 0 -7.4-4.5c-1.3-.7-3.2-2.2-4.8-2.2s-2.9 1.6-4 2.4a61.8 61.8 0 0 1 -8 4.7c-1.7.9-.2 3.4 1.5 2.6z"/><path d="m486.6 202.7 9.6 6.9 4.7 3.4c1 .8 4.8 2.6 5.4 3.5 1.6 0 1 .6-1.9 2a56.4 56.4 0 0 1 -6.6 4.5c-4.6 2-8.4-2.8-11.2-6-1.2-1.5-3.3.6-2 2.1 2 2.4 7.1 8.6 11 8.3 2 0 4.3-2.2 6-3.2 2.4-1.6 5.6-3.3 7.4-5.5 1.9-2.3.2-3.4-1.8-4.8l-19-13.8c-1.6-1.1-3.1 1.5-1.6 2.6z"/><path d="m500.4 210.8c3.3-2.4 6.4-5 9-8 .6-.7.6-1.6 0-2.2-1.3-1.1-2.9-2-4.6-2.6a27 27 0 0 1 -8.2-5.4c-.6-.6-1.6-.6-2.2 0-2.7 2.2-5.5 4.2-8.4 6.2-1.6 1-.1 3.7 1.5 2.6 3.1-2.1 6.1-4.3 9-6.7h-2c1.6 1.6 3.4 3 5.4 4.3 2.3 1.5 5.3 2 7.4 3.7v-2.1a51.7 51.7 0 0 1 -8.4 7.6c-1.5 1.1 0 3.7 1.6 2.6z"/><path d="m487.6 218.7c0 .5 2.4-1.3 2.7-1.5l3.2-2.2 6.6-4.4c1.6-1 .1-3.6-1.5-2.5l-9 6c-1.4 1-5 2.5-5 4.6.1 2 3.1 2 3 0zm-15.6 6.8c.1 2.6 0 3.8 2.3 5.2 2.2 1.2 4.4 2.3 6.8 3.1 1.3.7 3.2 2 4.8 2 3 0 6.5-2.6 9.1-3.9 4.3-2.1 5.7-2 6.5-6.5.3-1.9-2.6-2.7-2.9-.8-.7 4-8.7 7.3-12.4 7.4-3.4 0-11-2.6-11.1-6.5 0-2-3-2-3 0z"/><path d="m519.1 238.1-1.2-30.8c-.3-6.6.5-15.4-4.7-20.5-5.2-5.2-13.5-4.5-20-5l-13.5-.8c-4.8-.3-10-1.2-14.7-.6-6.8.7-10 5.8-10.9 12-1.3 8.9-1 18.2-.7 27.1.3 6.6-.7 17 3.9 22.4 4.2 5.2 12 5.2 18.1 5.5 11.6.6 23.2.4 34.8-.5 2.8-.2 5.7-.2 7.4-2.7 1.8-2.4 1.4-6 .8-9-.4-1.8-3.3-1-3 .9.8 3.7 1.3 6.2-3.3 7.7-2 .6-4.7.3-6.7.4-4.5.3-9 .4-13.5.5-8.4 0-18.4.8-26.6-1.5-5.4-1.5-7.3-4.9-8-10.2l-.9-13.5c-.3-8.8-.8-18.2.7-27 1-5.5 3.6-9.1 9.7-9.3 4.2-.1 8.6.5 12.9.7 8.4.6 17.8 0 26 2.1 10.4 2.8 9 14.7 9.3 23.2l1.2 28.9c0 1.9 3 1.9 3 0zm-340.7-45.8-.2 23.7c0 4 1.3 6 5.4 6.6 8 1 16 1.1 24 0 4.6-.6 4.5-4.6 4.6-8.6l-.2-11.2c.1-3.6.8-7.2.6-10.8-.2-4.5-3-5-7-5-7.5.1-15.7-.4-23.2.5-4 .4-5 2.7-4.3 6.6.3 2 3.2 1.1 2.9-.8-.7-4.4 10.2-3 13-3l6.8-.2c1.7 0 5.3-.8 6.8-.1 3.6 1.7 1.5 9.7 1.4 12.8 0 4 .3 8 .1 12.1 0 1.2 0 2.5-.3 3.7a8.6 8.6 0 0 1 -5.2 1.3c-1.9.2-3.9.1-5.8.1h-7.8c-1.7-.1-4.3.3-5.8-.3-4.6-2-3-10-2.9-14.1v-13.3a1.5 1.5 0 0 0 -3 0z"/><path d="m197.7 220.8-.6-12.3c0-.8-.7-1.5-1.5-1.5l-3.7-.2 1.5 1.5.1-4.7-1.5 1.5 3.7-.2c.8 0 1.5-.6 1.5-1.5-.2-3.3.5-5.5 3.4-7.3 3-2 3.8-1.5 3.6 2l1.5-1.4c-3-.4-6.5 1.6-6.4 5 0 1.3.6 2.4 1.7 3 .3.2 1 .1 1.2.3h.8c1.8-.7 1.5-.1-.8 1.6a1.5 1.5 0 0 0 -1.9 1.5l-.6 13c0 2 3 2 3 0l.6-13-1.9 1.4c3 1 5.6-1 5.7-4.1.2-1.3-.2-2.5-1.1-3.4-.3-.3-1-.3-1.3-.5h-.6c-1.9.6-1.3 0 1.7-1.9.8.1 1.4-.8 1.5-1.5 0-1.7.9-4.4-.7-5.7-1.2-1-4.4-.7-5.7-.4-4.9 1.3-6.9 6.9-6.7 11.4l1.5-1.5-3.6.2c-.9 0-1.5.7-1.5 1.5l-.1 4.7c0 .8.6 1.5 1.5 1.5l3.6.2-1.5-1.5.6 12.2c0 2 3 2 3 0z"/><path d="m162 178.2c-1.2 9.7-1.4 19.5-.6 29.2.4 7.1 0 15.9 4.2 22 3.8 5.6 10.6 6.6 16.8 7.5a152 152 0 0 0 30.2 1.5c5.3-.3 13.3-.4 16-6 1.7-3.3 1-7.6.8-11.1l-.5-15.2c-.3-8 1-18.2-2-25.8-2.2-5.6-7.5-8-13.2-8.7-10.1-1.2-21 .6-31 1.2-6.7.4-18.7-.8-20 8.3-.2 1.8 2.7 2.7 3 .8.9-6.8 10.9-5.8 16-6l13.2-.8c7.4-.4 17.5-2.5 24.4 1.1 8.1 4.3 6.1 17.5 6.4 25.2.3 8.6 1.2 17.6.8 26.2-.5 10.3-18.4 8.2-25.7 8-8.4-.4-18-.6-26-3.3-10.1-3.2-9.8-14.2-10.4-23a152 152 0 0 1 .4-30.3c.2-1.9-2.7-2.7-3-.8h.1zm179 161.4c3.4.5 7.4 1 10.1-1.5 1.4-1.3 2-3 2.6-4.8l3-8c.6-1.8-2.3-2.6-3-.8-1.1 3.3-2 7-3.7 10-1.6 3-5.2 2.7-8.1 2.2-2-.3-2.7 2.6-.8 2.9zm22.3-75.6 11.6.6 4.9.2c2.3.1 6 .8 7.1 3.2 1.4 2.6.5 8.6.5 11.5 0 3.5 0 7-.2 10.5-.2 7-.7 13.9-1.5 20.8-.6 5.1-.3 10-6.3 11-3.6.7-7.8.3-11.5.1-2 0-2 3 0 3 4.8.2 10 .6 14.8-.3 2.3-.5 3.8-1.4 4.6-3.7 1.5-4 1.4-9.6 1.8-13.9a263.7 263.7 0 0 0 1.1-33.1c0-3 .3-7-1.5-9.4-2-2.5-5.1-2.4-8-2.6l-17.5-.9c-1.9 0-1.9 3 0 3zm-11.7 184.1c7.5.3 20-1.8 22.5 7.3 1.9 6.7.9 14.8 1 21.8.1 7.3.4 14.6-.2 22-.2 2.8-.4 6-2.7 8.1-1.3 1.1-3.7 1.5-5.4 1.9-5 1.2-10.2 1.2-15.2 0-1.8-.4-2.6 2.5-.8 2.9 7 1.5 20 2.4 25-4 2.4-3 2.2-8 2.3-11.6.3-5.8.2-11.6 0-17.4 0-5.6 0-11.1-.2-16.7-.1-3.5-.3-7.3-1.9-10.6-4.1-8.5-16.6-6.3-24.4-6.6-2 0-2 3 0 3zm156.7-96.1 9.8.7c4 .3 8.1-.3 9.4 4.5 1.6 6.1 1.1 13.8 1.4 20.1s.5 12.8.5 19.2c0 3.6.3 7.1-.9 10.5-1.5 4.5-5.8 4.4-9.9 4.4-2 0-2 3 0 3 6 0 12.1-1 13.5-7.6.9-4.2.3-9 .3-13.2a471.5 471.5 0 0 0 -1.5-30.7c-.2-3 .2-7.3-1.6-9.9-1.5-2-3.8-2.6-6.1-2.9-5-.7-10-.7-15-1.1-1.9-.1-1.9 2.9 0 3zm-9.3-167c6.4.5 18.8-.8 22.2 5.3 1.3 2.3 1 6.3 1.3 8.9l.5 9.7c.5 8.1 5 35.6-9.6 34-1.9-.3-1.9 2.7 0 3 17.8 2 13.2-27.4 12.6-37-.3-6.5.8-17-3.5-22.4-2-2.5-4.8-3-7.8-3.3-5.2-.5-10.5-.8-15.7-1.1-2-.2-2 2.8 0 3zm-142.3-93.8a58 58 0 0 1 20.3 1.1c8.3 2.6 6 15.4 6 22.1v21.4c0 3.6 1 9.8-1.6 12.7-2.9 3-7.8 2.5-11.6 2.2-2-.1-1.9 2.9 0 3 6.3.5 14.3 0 16-7.5 1-4.4.1-9.7.1-14.3v-17.5c0-6.6 2-17.7-3.7-22.8-5.8-5-18.4-4-25.5-3.4-1.9.1-2 3.1 0 3z"/><path d="m207.9 174c6.8-.2 18.4-1.4 23.6 3.3 5.6 5.1 3.7 16 3.7 23v20.9c.2 1.9.2 3.8 0 5.7a9 9 0 0 1 -5.4 6.7c-3.4 1.3-8 1.2-11.6 1.4-1.9.2-1.9 3.2 0 3 6-.3 17 0 19.5-6.8 1.5-4.1.5-9.5.6-13.8v-17.1c0-7.4 1.7-19-3.5-25.2-2.5-3-6.7-3.1-10.4-3.5-5.5-.6-11-.7-16.5-.5-2 0-2 3 0 3zm-6.5 173.9 12.6.5c4.9.2 10.6-.4 13 5 1.5 3.4 1.3 8.5 1.5 12.2.3 4.5.4 9 .4 13.4 0 7 .8 15.2-1.5 22-3.3 9.5-13 6.2-20.3 9.3-1.8.7-1 3.6.7 2.9 7.6-3.2 16.7 0 21.3-8.7 4.2-7.8 2.9-18.9 2.8-27.4 0-5.7-.3-11.5-.9-17.2-.4-3.8-.5-8.3-3.4-11.2-2.3-2.3-5.6-2.8-8.8-3-5.8-.6-11.6-.6-17.4-.8-1.9-.1-1.9 2.9 0 3zm164.2-48a1.5 1.5 0 1 0 0-3 1.5 1.5 0 0 0 0 3zm95 74.5c-6.2-2.7-6-11.2.8-13a1.5 1.5 0 0 0 -.8-2.9c-9 2.4-10.2 14.7-1.5 18.5 1.8.7 3.3-1.9 1.5-2.6z"/><path d="m389.7 334c2.9 1.7 4.7 4.8 7 7.2a84.1 84.1 0 0 0 56.2 26.9c1.9.1 1.9-2.9 0-3a81.2 81.2 0 0 1 -50.3-22.1c-3.8-3.7-6.8-8.9-11.4-11.6a1.5 1.5 0 0 0 -1.5 2.6zm64.2-102.8c-7.7 2.1-7 11.4-2.4 16.2 4.4 4.7 13 5.7 16-1.2.8-1.8-1.8-3.3-2.6-1.5-5 11.8-21.5-7.5-10.2-10.6a1.5 1.5 0 0 0 -.8-3z"/><path d="m395.5 262.7a89 89 0 0 1 53.3-16.8 1.5 1.5 0 0 0 0-3 91.8 91.8 0 0 0 -54.8 17.1c-1.6 1.1 0 3.7 1.5 2.6zm-50.3-109.8a7.4 7.4 0 0 0 7.5 10.2c5.5-.5 7.7-6.4 9-11a1.5 1.5 0 0 0 -3-.8c-.7 2.8-1.7 6.3-4.3 8-4 2.6-7.9-1.7-6.3-5.7.7-1.8-2.2-2.6-2.9-.8z"/><path d="m349.6 163a169.3 169.3 0 0 0 -12 43c-.7 6.8-.7 13.7.1 20.4 1.2 8.8 3.9 17.1 3.6 26 0 2 3 2 3 0 .2-7.2-1.4-14.1-2.8-21.2a84.4 84.4 0 0 1 -1-23.4 162 162 0 0 1 12-44c.7-1.8-2.2-2.6-2.9-.8zm-11.8 282.4c0-1.9-.1-4 1.4-5.4a5 5 0 0 1 4.4-1.2c3 .6 4.1 4.8 2.2 7.2-1.2 1.5 1 3.6 2.2 2.1 3-3.9 2-10.5-3.1-12a8 8 0 0 0 -7.1 1.2c-2.7 2-3 5-3 8.1 0 2 3 2 3 0z"/><path d="m344.5 436.2c-6.7-30.8 25-61.3 7.3-91.1a1.5 1.5 0 0 0 -2.6 1.5c8.7 14.6 4 31.6-1 46.7-4.8 14.2-9.9 28.6-6.6 43.7.4 1.9 3.3 1 2.9-.8zm-118-88c.7-3.6 4.7-1.6 5.4.8.6 2 .2 5.4-2.3 6-1.9.3-1 3.2.8 2.8 5-1 5.8-8.2 3.3-11.8-2.6-3.9-9.2-3.7-10.1 1.4-.4 2 2.5 2.7 2.9.8zm-.9-111.2c1.4 2.8 3.1 5.4 6.2 6.3 2.7.7 5.5.2 7.7-1.5 4.6-3.7 3.3-11-1.4-13.9-1.7-1-3.2 1.6-1.5 2.6 3.2 2 4 7.3.3 9.4-4 2.3-7-1-8.7-4.3-.8-1.8-3.4-.3-2.6 1.5z"/><path d="m237.2 242c3.4 10 11.2 17 20 22.4 4.8 2.9 9.8 5.3 15.4 6 7.8 1 14.3 1.8 20.7 6.8 1.5 1.2 3.6-.9 2.1-2-3.6-3-7.8-5.2-12.3-6.4-6-1.6-12.1-1-18-3.6-10.6-4.7-21.1-12.7-25-24-.6-1.8-3.5-1-2.9.8zm-3.4 106.1a1.5 1.5 0 1 0 0-3 1.5 1.5 0 0 0 0 3z"/><path d="m234.6 348.6a47.8 47.8 0 0 1 41-20.8c3.8.3 7.5 1.2 11.1 2.6 3.1 1.2 6.2 3 9.6 3 4.1.1 7.8-2 8.8-6 .5-2-2.4-2.8-2.9-.9-2.2 8.6-16.7-.1-22-1-6.2-1.2-12.5-1-18.6.6-12.2 3.1-22.2 11-29.6 21-1.2 1.5 1.4 3 2.6 1.5zm78.5-104.9c-4.5-12-9.3-23.8-14.3-35.5-.7-1.8-3.3-.2-2.5 1.5 4.8 11.5 9.5 23 14 34.7.6 1.8 3.6 1 2.8-.8zm53.8-1.6 17.7-39c.8-1.7-1.8-3.2-2.6-1.5l-17.7 39c-.8 1.8 1.8 3.3 2.6 1.5zm33.7 58.2 16.7-1.4c5-.4 12-2.2 16.3 1.1 1.5 1.2 3-1.4 1.5-2.6-4.1-3.1-9.2-2.2-14-1.8l-20.5 1.7c-1.9.2-1.9 3.2 0 3zm-31.3 45.5c7.4 13 14.6 26.2 21.6 39.5.9 1.7 3.4.2 2.5-1.5-7-13.3-14-26.5-21.5-39.5a1.5 1.5 0 0 0 -2.6 1.5zm-48.9-4.5a1.5 1.5 0 1 0 0-3 1.5 1.5 0 0 0 0 3z"/><path d="m320 339.4-13.3 41.8c-.6 1.9 2.3 2.7 2.9.8l13.4-41.8c.6-1.9-2.3-2.7-2.9-.8zm-29.2-41.3c-8.6-4.2-18-.6-27-3.1a1.5 1.5 0 0 0 -.8 2.9c8.6 2.4 18.1-1.2 26.3 2.8 1.8.9 3.3-1.7 1.5-2.6zm226 203.9 18.3 16c1.5 1.2 3.6-1 2.1-2.2l-18.3-16c-1.5-1.3-3.6.8-2.1 2.1z"/><path d="m530.7 502a164 164 0 0 0 -10.7 15.1c-1 1.6 1.6 3.1 2.6 1.5 3.1-5 6.5-9.8 10.2-14.5 1.2-1.5-1-3.6-2.1-2.1zm68.3-155.4c-1.4 3 1.1 6 4.3 5.8 3.4-.2 6-4.5 6.8-7.4 1.1-3.7-2.1-6.6-5.7-6.2a7 7 0 0 0 -6 7.3c.1 2 3.1 2 3 0a4 4 0 0 1 2-4c1.9-1 4.3-.2 3.7 2.2-.4 1.4-1.2 2.7-2.1 3.8-.5.6-1 1-1.7 1.2-.4 0-2.2-.3-1.8-1.2.8-1.7-1.8-3.3-2.6-1.5zm-47.5-50.8a1.5 1.5 0 1 0 0-3 1.5 1.5 0 0 0 0 3zm71.1 150.5c2.2 1.2 4.9.8 6.6-1a5.2 5.2 0 0 0 -7.2-7.4 5.5 5.5 0 0 0 -1 6.8 1.5 1.5 0 0 0 2.5-1.6c-1.2-2 1.4-4.7 3.3-2.8 2 2-.5 4.6-2.7 3.4-1.7-.9-3.2 1.7-1.5 2.6zm-421.2 49.4a1.5 1.5 0 1 0 0-3 1.5 1.5 0 0 0 0 3z"/><path d="m202.6 497.4 12.3 13c1.4 1.4 3.5-.7 2.2-2l-12.4-13c-1.3-1.5-3.4.6-2 2z"/><path d="m212 492.3c-4.4 5.2-8 11-10.5 17.2-.7 1.7 2.2 2.5 2.9.8a60 60 0 0 1 9.7-15.9c1.2-1.4-1-3.5-2.2-2zm-87.2-44.5c-.9 2.9 2 5.6 5 5 3-1 4.8-4 4.3-7-.6-2.6-3.6-3.7-6-3-3 1-4 4.6-4 7.4.1 2 3.1 2 3 0-.1-1.3.2-2.7 1-3.8a2 2 0 0 1 2.8-.4c.8.8 0 2.4-.7 3-.3.6-1 .9-1.6.8a1 1 0 0 1 -1-1.2c.6-1.9-2.3-2.7-2.8-.8zm127.1-337.6c.2 2.5 2 8.4 5.3 8.2 3.6-.2 6.2-5 6.5-8 .2-3.1-1.4-8-5-8.4-3.8-.4-6.7 4.7-7.1 7.8-.3 2 2.6 2.7 2.9.8.4-2.9 4-8 5.8-3a6.3 6.3 0 0 1 -3.7 7.9l1.5.4a7.7 7.7 0 0 1 -3.2-5.7c-.2-1.9-3.2-1.9-3 0zm-165.3 171.3c-2.9-.2-5 3.2-3.8 5.7 1.2 2.6 4.5 3 6.6 1.5 2.3-1.7 2.7-6 .3-7.7s-5.9.4-5.7 3.2c0 2 3 2 3 0 0-.6.8-1 1-.4.6.8.3 2-.5 2.6-.5.3-1.7.3-2-.5a1 1 0 0 1 1.1-1.4c2 .2 2-2.8 0-3zm-30.4 114.5a1.5 1.5 0 1 0 0-3 1.5 1.5 0 0 0 0 3zm45.6 131.2a1.5 1.5 0 1 0 0-3 1.5 1.5 0 0 0 0 3zm-7.6-151.5a83 83 0 0 0 9-6.7c1.5-1.3-.6-3.4-2-2.1a75 75 0 0 1 -8.5 6.2c-1.7 1-.1 3.7 1.5 2.6z"/><path d="m94 367.8 7 9.4c1.2 1.5 3.8 0 2.7-1.5l-7-9.4c-1.2-1.5-3.8 0-2.6 1.5zm-7.4-228.3c2.8 3.6 6 6.8 9.5 9.7 1.5 1.2 3.6-1 2.1-2.2a58.8 58.8 0 0 1 -9.5-9.7c-1.2-1.5-3.3.7-2.1 2.2z"/><path d="m95.7 135.1a81.7 81.7 0 0 0 -9.4 13.7c-1 1.7 1.7 3.3 2.6 1.5 2.5-4.6 5.5-9 8.9-13 1.2-1.5-.9-3.7-2.1-2.2zm33.3-85.6c-2.4 3.5 2 7.6 5.4 5.6 4.3-2.3 2.7-7.8-1-9.8-.4-.3-1-.3-1.5 0a11.4 11.4 0 0 0 -4 5.4c-.7 1.9 2.2 2.6 2.9.8a7.9 7.9 0 0 1 2.6-3.6h-1.4c1.4.7 2.8 2.6 1.6 4.1-1 1.2-3 .4-2-1 1-1.6-1.6-3.1-2.6-1.5zm-87 103.3a1.5 1.5 0 1 0 0-3 1.5 1.5 0 0 0 0 3zm467.3-80.1c3.6 5.2 8 9.8 13.3 13.5 1.6 1.2 3-1.4 1.5-2.5-4.8-3.5-9-7.7-12.3-12.6-1-1.5-3.6 0-2.5 1.6z"/><path d="m521.6 73-11 13.1c-1.3 1.5.8 3.6 2 2.1l11.2-13c1.2-1.5-.9-3.6-2.1-2.1zm47.6-31.2a3.6 3.6 0 0 0 -1.4 6c2.3 2 5.6.9 7.2-1.3 1.7-2.2 2.3-5.6-.7-7.1-2.7-1.4-5.6.5-6.6 3-.8 1.9 1.8 3.4 2.5 1.6.4-.8 1-2 2-2 1.5-.2 1.3 1 .8 2s-1.2 1.8-2.3 1.9c-.6 0-1.7-1-.8-1.2a1.5 1.5 0 0 0 -.8-3zm54.7 115.5a3 3 0 0 0 .4 4.3c.7.6 1.7.9 2.6.7 1-.3 1.6-1.4 2-2.4.7-1.7.4-4-1.7-4.6a2.6 2.6 0 0 0 -3.5 2.2c0 .9.7 1.5 1.5 1.5.9 0 1.5-.6 1.5-1.5 0 .3-.1.5-.3.6s-.2.1 0 0c-.3 0-.3 0 0 0s-.4 0 0 0c.2 0 .2 0 0 0 .2.1.2.1 0 0-.1 0 0-.1 0 0v.5l-.7 1.4.5-.6h.3l-.1-.2-.1-.2c0 .1 0 .2 0 0l-.1.3c.5-.6.5-1.5 0-2-.6-.7-1.6-.7-2.2 0zm-72.3 27.1c2.2 0 4.3-1.4 5.3-3.3 1-2 1-4.5-.6-6-1.7-1.5-4.1-.8-5.5.8-1.9 2.2-1.1 5-2 7.6-.7 1.8 2.2 2.6 2.9.8.4-1.2.6-2.4.6-3.6 0-1 .2-3 1.5-3.4s.8 1.8.5 2.4c-.6 1-1.6 1.6-2.7 1.7-2 0-2 3 0 3zm-132.7 348.6c-1.6 6-2.4 12-2.5 18a1.5 1.5 0 0 0 2 1.5c5-1.2 9.7-3 14.3-5.3.7-.5 1-1.4.6-2a35.3 35.3 0 0 0 -11.8-14c-1.6-1-3.1 1.5-1.6 2.6 4.7 3.3 8.4 7.7 10.8 12.8l.5-2c-4.3 2.1-9 3.8-13.7 5l2 1.4c0-5.8.8-11.6 2.3-17.2a1.5 1.5 0 0 0 -3-.8zm29.7-428.2-9.8 16c-.3.7-.2 1.4.3 1.9a25 25 0 0 0 15.2 7c.9 0 1.4-.8 1.5-1.5.8-8.7.2-17.6-2-26-.5-2-3.4-1.2-2.9.7 2 8.3 2.7 16.8 2 25.3l1.4-1.5c-5-.5-9.6-2.6-13-6.1l.1 1.8 9.8-16a1.5 1.5 0 0 0 -2.6-1.6zm-296.3 176a94 94 0 0 1 -.2 12.8 1.5 1.5 0 0 0 1.9 1.4c3-1 9-2.8 8.3-7-.7-4-4.4-7.7-7.7-10-1.7-1-3.2 1.6-1.5 2.7 2.2 1.4 4 3.4 5.3 5.8 1 1.7.7 2.8-1 3.7l-4.2 1.9 1.9 1.4c.4-4.2.4-8.5.2-12.8 0-1.9-3-1.9-3 0zm-119.8 226.2c3.4 5.1 7 10.2 10.8 15.1a1.5 1.5 0 0 0 2.6 0c2.3-4.7 4.4-9.6 6.2-14.6a1.5 1.5 0 0 0 -1.5-2l-15.8-1.5c-2-.2-2 2.8 0 3l15.8 1.6-1.4-2c-1.7 4.8-3.7 9.5-6 14h2.8c-3.8-5-7.4-10-10.8-15.2-1-1.6-3.6-.1-2.6 1.5zm549-111.5c-2 4.3-3.5 8.7-4.5 13.3-.4 1.8 2.5 2.6 2.9.8 1-4.4 2.4-8.5 4.3-12.5.8-1.8-1.8-3.3-2.6-1.6z"/><path d="m577.8 413.7 11.3-1.4c1.7-.2 4.6 0 5.2-2 .6-2.1-1.8-4.5-2.8-5.9-2.1-3.4-4.4-6.7-6.7-10-1.1-1.5-3.8 0-2.6 1.5 2.8 4 6.5 8.2 8.4 12.7l.7 1c-.6-.5-1.4-.7-2.2-.3-1.2 0-2.5.2-3.7.5l-7.6.9c-1.9.2-2 3.2 0 3zm-416.5-312.8 11.3-8.2a1.5 1.5 0 0 0 .3-2.4 65.5 65.5 0 0 0 -14.5-11.3 1.5 1.5 0 0 0 -2.3 1.3c-.2 7 .6 13.8 2.4 20.5a1.5 1.5 0 0 0 2.9-.8c-1.7-6.4-2.5-13-2.3-19.7l-2.2 1.3c5 3 9.8 6.6 13.8 10.8l.4-2.3-11.3 8.2c-1.6 1.1-.1 3.7 1.5 2.6z"/></g></svg>