<svg xmlns="http://www.w3.org/2000/svg" width="307" height="214" fill="none"><path fill="#FFD000" d="M147.2 65l-4.2.1a29.1 29.1 0 0 0-5.1 1.2l-2.5 1-2.1.8h-.4c-.9.4-1.9.8-2.8 1.4l-2.3 1-.8.4-1.4.5-1.6.7-.8.4a17.2 17.2 0 0 1-2.9 1l-.7.1a19.8 19.8 0 0 0-5 2.5l-.2.2-1.9 1.3-.2.2a69.7 69.7 0 0 0-4.5 3.7l-2.2 1.8-2 1.7a30.9 30.9 0 0 0-3.8 3.8l-1.9 2.5-1.3 2.1-.6 1.1-2.2 3.7c-.9 1.6-1.8 3.2-2.5 5a65.9 65.9 0 0 0-3 10.2c-.8 3.4-.8 7-.8 10.4v.7l-.2 3.8v1.3l-.3 3.3-.1 2.2-.2 2.5-.2 3a61 61 0 0 0 .2 8.6l.1 1.8.7 5.6v.5l.4 2.1.4 2 .2.6a41.8 41.8 0 0 0 1.7 5.3 44.4 44.4 0 0 0 6 8.1l1.7 1.5a46 46 0 0 0 2 1.7c.7.3 1.4.9 2.2 1.4a33.6 33.6 0 0 0 9.5 3.9 32.5 32.5 0 0 0 5.6.6h2.8c1.9-.1 3.7-.4 5.4-.7l1-.1 4.2-.7a48 48 0 0 0 4.7-1.2l2.6-.8 2.2-.7 3.9-.9 1.2-.2 1-.2 2-.4 3-.7 1-.4 1.7-.5c.4 0 .7-.2 1.1-.3l1-.2c0 .3.3.7.5 1l.1.4 1 2 .2.2 2.5 4.5 1.3 2 1 1.6.3.4 1 2 .7 1.2 1 1.3c.3.4.7.8 1.2 1 .2.2.7.3 1 .3a2 2 0 0 0 1-.3l.1-.1.7-.6.3-.7a12.5 12.5 0 0 0 .9-2.8l.9-4.9v-.3c.3-1 .4-2 .5-3l.4-2.3.8-5.7.4-3.2c0-.9.2-1.7.3-2.5l.2-1.4a19.8 19.8 0 0 0 2.3-.8l2.3-1.2c1.5-1 2.8-2.2 4.1-3.3l.3-.2 3.4-3.1.4-.4 1.8-1.7.5-.5 1.5-1.5 3.6-3.6a41.7 41.7 0 0 0 5-6.6l.3-.5 1-1.7 2.1-4.1.2-.4.8-1.7.3-.6 1-2.9a60.4 60.4 0 0 0 2.2-10.6l.6-5.7c0-.6 0-1.3.2-2l.3-3.3c.1-2 0-3.8-.1-5.4l-1-5.8-.4-2.5-.8-2.4-1.1-2.7a32 32 0 0 0-6.2-10l-1-1.1a31.7 31.7 0 0 0-10.3-8.4l-2.2-1.2-2.2-.9-.5-.2-2.4-1-5-1.6h-.3a42.3 42.3 0 0 0-10.7-1.7l-10.2-.2H148l-.7.1zM59.8 195.1c-.4 0-.7.1-1 .3a2 2 0 0 0-.7 1l-1.6 5-.2.8a34.3 34.3 0 0 0-1 4.2l-.1.5-.5 2.9V211.7c.3.6.6 1 1.2 1.3l1.1.5 2.9.4h2.4c2 0 3.7-.2 5.4-.6a11.5 11.5 0 0 0 3.2-1.5c.4-.3.6-.7.7-1.2.2-.5.1-1 0-1.6 0-.4-.3-.8-.5-1.2l-1-1.6-.3-.5-1.4-2a35.6 35.6 0 0 1-1.9-3.1c-.2-.4-.3-.8-.6-1.1v-.1l-.6-1.1-.3-.6-.3-.4c0-.3-.2-.5-.3-.7l-.1-.2-.5-.5a3 3 0 0 0-1-.6h-.4-.1-.7l-.4.2c-.1 0-.2 0-.3.2-.2-.3-.5-.4-.7-.5h-.4zM224.6 102.8a2 2 0 0 0-1 .3c-.4.2-.7.6-1 1.2-.4.8-.4 1.8-.5 2.7v2.6l.4 1.7c0 .2 0 .5.2.7l.1.7c.3 1 .4 2 .5 2.9v-.1l.4 2v.1c0 .3 0 .7.2 1 0 .3.2.6.4 1 0 .2.2.4.3.5l.2.2v.1l.4.5.5.3v.1l.6.2.7.1a3 3 0 0 0 1.1-.2l.9-.4.3-.1.8-.3h.1l1.4-.6.7-.3a16.6 16.6 0 0 0 4.9-3l.8-.6.9-.8c.6-.4 1.2-.8 1.8-1l.1-.2c.3 0 .5-.2.6-.3.4-.4.8-1.2.5-1.8a2 2 0 0 0-.5-.9l-.5-.4-.4-.2h-.1l-4.3-2-3.8-2.2a34 34 0 0 0-5-2.7l-.3-.2-1.4-.5h-1zM228.3 25.6c-.5-.2-1-.2-1.6-.2-1 0-2 .5-2.5 1.3-.4.7-.6 1.6-.3 2.4l-.4.6a2 2 0 0 0-.2 1c0 .8.5 1.4 1 1.8l.2.5.1.2.5.6.2.1c0 .4.3.7.5 1l.7.5 1 .3a4.4 4.4 0 0 0 4.1-1.4 4.7 4.7 0 0 0 1.3-3.1c0-.3 0-.5-.2-.7 0-.4-.3-.7-.5-1l-1-1c-.3 0-.5-.2-.7-.3.3-.3.5-.8.5-1.2a1.7 1.7 0 0 0-1.8-1.7l-.9.3zM25.2 42c-.4.2-.8.5-1 .9-.2.4-.2.8-.2 1.3.1.6.5 1.1 1 1.4.5.3 1 .3 1.6.4h1.2l.8.2.4.2.2.4c.3.4.6.7 1.1.8.4.1 1 0 1.4-.2l.8-.6.4-.3h.8l1.2.3.7.4v.6c.2.7.7 1.3 1.4 1.5.7.2 1.6-.2 2-.8l.5.5 1 1.6c-.2.5-.3 1-.2 1.6 0 .6.3 1.3.8 1.7.3.3.7.5 1.2.5.3 0 .7 0 1-.2.6-.4 1-1.1 1-1.8 0-.4 0-.8-.2-1.2a16.7 16.7 0 0 1 4.4 3.3l.5 1 .4 1c.4.6 1.2 1 2 .8.7-.3 1.1-1 1.2-1.7v-.7c0-.4.2-.7.3-1l.2-.4.7.4c.8.6 1.4 1.4 2 2.2l.7.9c-.5.2-1 .6-1 1v2.5c-.2-.6-.3-1.2-.7-1.7l-.6-.6c-.4-.3-.9-.3-1.4-.2-.7.2-1.2.9-1.2 1.6v2.6l-.5-1.7-.4-1a11 11 0 0 0-.4-1.2c-.2-.4-.5-.8-.8-1-.3-.4-.8-.6-1.2-.6-.5 0-1 .2-1.3.5l-.6 1-.1 1.2v1.4c0-.3 0-.6-.2-.9l-.8-2.9c-.1-.4-.4-.8-.8-1a2 2 0 0 0-1.3-.2c-1 .2-1.6 1.2-1.5 2.2l.1 1.2.2 2.2v-.3l-.6-2.4-.3-1.8-.5-1.6c-.1-.5-.4-1-.8-1.4-.5-.4-1-.6-1.7-.4-.3 0-.5.2-.8.4l-.4.7-.1 1.4v2.2l.1 2.2v.2a363 363 0 0 1-2-7.7c-.2-.6-.7-1-1.3-1.2a31 31 0 0 0-.4-1l-.6-.6c-.4-.3-1-.3-1.4-.2-.7.2-1.2.9-1.2 1.6l.2 2.1.2 1.1.4 2.4c-.3.3-.3.6-.4 1v.2l-.7-2.2a58.8 58.8 0 0 0-1.6-3.7 2 2 0 0 0-.5-.5l-.7-.5a1.7 1.7 0 0 0-2.5 1l-.1 1L24 52c0-.3 0-.6-.2-.9-.2-.5-.7-.7-1.2-.9-.5-.2-1.1 0-1.6.4l-.4-.1c-1 0-1.7.8-1.8 1.7v1.9l.3 2.5.6 2.3.8 3.5.9 3.2.5 1.6.2.8.3.8c0 .2.2.4.4.6l.3.3c.3.4.8.6 1.2.6.4 0 1-.2 1.3-.6l.5-.6.4 1 .5 1 .6 1.1v.2l.5.5.7.6c.4.2.9.3 1.3.2.5-.2.8-.4 1-.8l.3-.5.2-1V71l.3 2.1.6 3.5.5 2.6.6 2.6.6 2.6c.2.6.6 1 1.2 1.2.7.2 1.6 0 2-.8.2-.3.3-.6.3-1l.3.3a2 2 0 0 0 2 0l.6-.4c.3-.3.5-.6.6-1 .2-.5.2-1 .3-1.6v-.6-.1-.2-.9-4.6c0 .3 0 .5.2.8l.5 1.8c.2.5.4 1 .8 1.4.3.3.6.4 1 .5h1c.3-.1.7-.2 1-.5v-.2l.5-.7.2-1.1.2.4c.2.6.6 1.1 1.2 1.4l.4.2h.9c.6-.2 1-.6 1.2-1.2l.2-1.3v-1.3-1.2l-.2-2.3-.1-.6v.2l.4 1c0 .3 0 .5.2.7v.3l.2.5.3.6.7.8c.3.2.6.2 1 .2a2 2 0 0 0 1-.3c.3-.1.5-.4.7-.7.4-.5.3-1.2.4-1.8v-1.8-.6l.2.2.7.3c.7.2 1.5-.2 2-.8l.4-1a11.3 11.3 0 0 0 .3-3.4v-.4l.4.2h1.1c.3 0 .6-.2.8-.4a197.9 197.9 0 0 1 .6-1l.1-1.1V62l-.1-1c-.4-2-1.3-4-2.5-5.6-1-1.6-2.2-3.2-3.8-4.3a7.2 7.2 0 0 0-2.3-1.1h-.6a2 2 0 0 0-1 .2 2 2 0 0 0-.8.5l-.6.8-.8-.6-1.2-1c-1-.7-2-1.4-3-1.8-.7-.3-1.5-.4-2.2-.2l-.3.1-.5-.7a6.6 6.6 0 0 0-3-2.3l-1-.1H38l-.5-.4-.5-.3a8 8 0 0 0-3.4-1c-.5 0-1 0-1.6.2-.3 0-.6.2-.9.4l-.2-.1a6.3 6.3 0 0 0-3.5-1h-.5l-.3-.2c-.2-.2-.6-.3-.9-.3l-.4-.1zm3.6 4.2zm9.4 2H38zm6 2.8zm0 .2zm0 .1h.1zm9.2 1.8z"/><path fill="#2C2C2C" d="M150.2 56.4h-2.6l-3 .3c-1 0-2.2.2-3.3.4l-4.4.5c-1.5.2-3 .5-4.5 1l-2.2 1-1.8 1c-.7.3-1.3.9-2 1.4l-1.5 1.2-.2.2c-.4-.3-1-.5-1.5-.3a36.5 36.5 0 0 0-7.9 3.5l-1.1.8-1.4 1-1.2 1-1.9 1.5a90.4 90.4 0 0 1-5 3.9l-2.2 1.8c-1.4 1-2.7 2.2-4 3.4l-2 1.9-1.7 2c-.6.6-1.2 1.2-1.7 2a175.7 175.7 0 0 0-7.5 10.9 126 126 0 0 0-2.5 4.9l-1 2.2-1.1 2.6a70.9 70.9 0 0 0-2.4 7.2c-.2 1-.4 2-.4 2.9l-.5 5.3-.4 5.5a55.5 55.5 0 0 0 1.5 16.2 59.5 59.5 0 0 0 3.9 10 64.6 64.6 0 0 0 5.6 8.3l3.4 3.6c1.3 1.3 2.6 2.6 4.2 3.6 1.3 1 2.7 1.7 4 2.6l2.1 1 2.8 1.2c1.5.5 3 1 4.6 1.3a27 27 0 0 0 5.8 1h2.6l2.7.2a70.4 70.4 0 0 0 5.3.1l5.4-.3c1.7-.2 3.4-.5 5.1-1 .8-.1 1.5-.4 2.3-.6l2.5-1.1.6-.3 2.2-.8 2.3-.7 4.5-1.2c1.5-.3 3-.6 4.5-1.1l1.2-.5 1-.5.8-.4.3.2 1 1.2 2 2.5c1.4 1.5 3 3 4.3 4.6l1.1 1.6 1.2 1.8c1 1.4 2.2 2.7 3.3 4l2.4 3 .7 1c.5.5 1.2 1 2 1h.4l.8-.5.4-.6.4-1 .4-1.1.5-2.4.4-2.6.5-3 .2-2.5.1-5.3.4-5.3.2-2.6c0-.8 0-1.6.2-2.4v-.6h.3l1.2-.6-.4.2 1.8-1 1.6-.9c1-.6 2-1 2.8-1.7 1-.7 1.9-1.6 2.8-2.5.9-.7 1.6-1.7 2.3-2.6l1.6-2.2a83.3 83.3 0 0 0 5.1-9.3c.4-.8.6-1.6.9-2.5l1-5.2a47.2 47.2 0 0 0 .8-5.8l.5-5.2.5-5.5c0-1.8.2-3.5 0-5.3 0-3.6-.7-7.2-1.3-10.7a37.7 37.7 0 0 0-3.1-10.2c-.8-1.6-1.6-3-2.6-4.5l-2.9-4.4a116.3 116.3 0 0 0-6.7-8.6 21 21 0 0 0-4.3-3.5 110.5 110.5 0 0 0-6.7-4.2c-.8-.5-1.6-.9-2.5-1.2l-5.3-2.1a72 72 0 0 0-2.5-1l-2.4-.7a36.8 36.8 0 0 0-10.9-1.3h-1.7l-1.1-.1zM147 60l4.2-.2a70.2 70.2 0 0 1 11.1 1L166 62l3.4 1.3 3 1.2a28.6 28.6 0 0 1 5.7 3l2.6 1.8 2.4 1.6c1.6 1.3 3.1 2.8 4.4 4.5 1 1.1 1.8 2.4 2.7 3.6l2.6 4c1 1.2 1.8 2.5 2.6 3.9l1.2 2 .9 1.9a29 29 0 0 1 2 6.4l.5 3.4.5 3.6.5 4.9-.1 5.1-.5 5.7-.5 5.3-.4 3-.9 4.9a25.8 25.8 0 0 1-2.6 7.2l-1.3 2.3c-1 1.7-2 3.4-3.3 5l-.4.4a23 23 0 0 1-2 2.2l-2.1 2-2.5 1.4-1.4 1-1.6.7.4-.1-1.2.5-1.1.5c-.8.5-1.2 1.4-1.4 2.2l-.2 2.8-.5 5.2-.1 2.8v2.7l-.3 5.3-.1.9-.8 4.3-.3 1.5-1.6-2 .2.3-2.9-3.5-2.5-3.6c-1-1.5-2.2-2.8-3.4-4a54.7 54.7 0 0 1-5-5.7l-1-1-1.2-.3h-.5c-.4 0-.7.4-1 .5l-.2.4-.8.4-1.2.6c-1 .4-2.1.6-3.2.9l-3.8.8c-2.6.7-5 1.5-7.5 2.5l-1.1.5-1.7.7-2 .5a33.2 33.2 0 0 1-8.2 1.1l-2.4.1h-2.5c-1.6-.1-3.2-.3-4.9-.3l-4.5-.3-4.5-1.1a31.5 31.5 0 0 1-7.5-3.3 72.5 72.5 0 0 1-5.4-3.8c-.8-.6-1.4-1.3-2.1-2l-1.8-2-1.6-1.8a58 58 0 0 1-5.6-9.4 34 34 0 0 1-2-5.6 45 45 0 0 1-1.6-10.8c0-1.8 0-3.6.2-5.3 0-1.9.2-3.7.3-5.6l.5-5.3v-.2a80.1 80.1 0 0 1 10.1-23l3-4 .3-.5 2.4-2.8 2.9-3a106 106 0 0 1 6-5.1l3.3-2.4 3-2.5 2.9-2.2 1.4-1 1.6-1 1-.5c.2.4.6.7 1 .8l.4.1c.4 0 .6 0 .9-.2l2-1 1.9-1.1 3.3-2.6c.6-.4 1.1-.8 1.8-1.1.6-.3 1.1-.6 1.8-.8 1.6-.7 3.4-1 5.1-1.4 1 0 1.8-.2 2.6-.3 1 0 2-.2 3-.4 1.2-.2 2.4-.3 3.7-.3zm34.2 99.1zm-24.8 6zM229 22.3c-.7 0-1.4.2-2 .4-.8.2-1.5.6-2.2 1-.3.1-.4.3-.6.5-.6-.2-1.3 0-1.7.4a29 29 0 0 0-2 2.4 7 7 0 0 0-1.3 4c0 .6 0 1.2.2 1.7l.4 1 .8 1 .5.4.5.5.6.3 1.4.6c.8.3 1.7.4 2.6.5h1c.6 0 1.2-.2 1.8-.4a9.4 9.4 0 0 0 3.4-2.5l1-1.4c.8-1 1.3-2.2 1.6-3.4v-.7l.2-1c0-.4 0-.9-.2-1.3 0-.4-.3-.7-.5-1a5.8 5.8 0 0 0-1.6-1.8l-1.3-.8c-.5-.2-1-.4-1.6-.4h-1zm.8 3.4l.3.1 1 .6.4.4.2.4v.7l-.3 1.6-1.3 2c-.2.4-.6.7-1 1-.3.4-.7.6-1.1.8l-.9.2h-1.3c-.5-.1-1-.2-1.6-.5l-.7-.3-.5-.5-.2-.4-.1-.5v-.6c0-.4.1-.8.3-1.1l.5-.9a33.4 33.4 0 0 1 1.7-1.9c.5.2 1 0 1.4-.2l1.2-.6a6 6 0 0 1 1.2-.3h.8zM57.6 190.8l-2.3 3-.4.6-1.9 2.2-1.9 2-1.8 2-2.4 2.3c-.7.6-.7 1.8 0 2.4.5.5 1.3.6 2 .3l.2.3.6.3 1.1.4c.6.2 1.3.2 1.9.3l2.6.3 2.6.4h2.4l2.5.2 1.6-.2.6-.4.4-.2.4-.5a2.4 2.4 0 0 0 .2-1.7l-.2-.7-.4-1-.2-1.2-.8-2.4a68.3 68.3 0 0 1-2-7.8l-.2-1.2c-.1-1-.9-1.8-1.9-1.8-1.3 0-2 1.2-2.7 2zm1.7 3.4l.3 1a50 50 0 0 0 1 3.3l1 3.6.5 1.8.1.5h-.6l-1.7-.1-2.7-.2-2.4-.3-2-.3-1.3-.2.2-.3 2-2.2 2-2 2.1-2.8c0 .2-.2.3-.3.4l1.8-2.2zm3.3 11.3z"/><path fill="#2C2C2C" d="M113.9 96c0 .8.8 1.6 1.7 1.6 1 0 1.8-.8 1.8-1.7 0-1-.8-1.7-1.8-1.7s-1.7.8-1.7 1.7zM133.5 95.8c0 1 .8 1.8 1.7 1.8 1 0 1.7-.8 1.7-1.8s-.8-1.7-1.7-1.7c-1 0-1.7.8-1.7 1.7zM144.3 115l-.5.1a4 4 0 0 0-.8.4h-.2l-1.2.6-1 .5h-.2c-.7.4-1.4.8-2.2 1l-1 .5-1.5.6-.1.1a32.3 32.3 0 0 1-7.2 2.1c-.4 0-.7.2-1.1.3l-2.6.5a75 75 0 0 1-7.7 1h-.2a35.4 35.4 0 0 1-7.7-1h-.4c-.8 0-1.5.5-1.7 1.3-.1.4 0 1 .2 1.4.2.4.5.6 1 .7l.4.1 2.4.5 3 .4h2.9l2.4-.1h.1c1 0 2.1-.3 3-.4.6 0 1-.2 1.5-.3l-.2.2c-.3.3-.5.7-.5 1.3l.1 1.2c0 .2 0 .3.2.4v.4l.1 1 .2 1v1.6l.2 1.5a33 33 0 0 0 .4 4.2l.4 2.3.2 1.3v.2l.4 1.8c.2.8.9 1.4 1.7 1.4a1.8 1.8 0 0 0 1.5-1l1.6-.6 1-.5 1.6-.7.8-.3c.8-.3 1.4-.7 2.1-1.1l1.6-1.2.2-.1a22.4 22.4 0 0 0 2.9-2.8v-.1l1.1-1.4 1.2-2a32.9 32.9 0 0 0 3.7-13v-.4a41 41 0 0 0 0-2.9v-.2c-.2-.5-.4-1-.7-1.3-.3-.2-.8-.4-1.4-.4zm-16 25.7v-.2l-.2-1-.1-.8v-.5l-.1-.8v-.4l1.3-1.4.2-.2 1-.8 1-.6.5-.2 1.4-.7a7.7 7.7 0 0 1 3.3-.5h2.1l.4.2-1 1.7-1.3 1.3c-.3.4-.7.7-1.2 1-.8.6-1.5 1.2-2.4 1.7l-2.2 1-.4.2h-.1l-1.5.7-.6.2zM263.5 76.5c-.4 0-.7 0-1 .2l-1.3.2-1.2.3-2 .5h-.5l-1.1.4h-.2a2 2 0 0 0-1.5 1 2 2 0 0 0-.2 1.4c.1.5.4.8.8 1 .6.4 1.5.3 2-.1l.5-.2c.4 0 .7 0 1.1-.2.6 0 1-.2 1.6-.4l.8-.1.7-.2 1.3-.3a91.8 91.8 0 0 0 .3 7.7V90a54.5 54.5 0 0 0 .7 7l.3 3 .3 3.4a277 277 0 0 1 .2 3.3v2.6h-.3l-1.4.7c-.4.2-1 .2-1.4.3l-1.8.2-2 .2h-.5l-.1-.6-.1-2.2-.2-2.4v-5.3l-.1-5.3-.1-2.5-.3-2.6-.1-3.3v-3.1c0-1-.8-1.8-1.7-1.8-1 0-1.7.8-1.7 1.8v5.4l.2 2.7.2 2.6.1 5.2v5.3l.2 2.8v1.5l.1 1.3c.2 1.1.4 2.3 1.1 3.2.7.7 1.7.9 2.6.9l1.6-.2 3.3-.3 1.7-.4 1.6-.7.6-.3h.3l.8-.5.4-.5c.4-.4.4-1.1.4-1.6v-1.1-2.2-2.4l-.3-2-.2-2.3-.2-2.3-.3-2.3-.4-4.5v-2.4l-.3-2.5-.1-4.7V80c0-.5 0-1-.2-1.6-.1-.4-.2-.6-.5-.9l-.5-.3c-.1-.2-.4-.2-.6-.3l-.7-.1c-.3-.3-.5-.2-.7-.2z"/><path fill="#2C2C2C" d="M278 50.2a5.4 5.4 0 0 0-2.7.8l-.7.6-.4.4-.3.4-.6.8c-.5.6-1 1.3-1.2 2-.4.9-.8 1.7-1 2.5-.6 1.4-.9 2.8-1.3 4.2l-1.3 4.3-.5 2-.6 2a39 39 0 0 1-.5 2l-.5 1.9-1 1.5-1.5 1.8a1.7 1.7 0 0 0 0 2.5c.7.6 1.8.6 2.4 0l2-2.5c.6-.7 1-1.4 1.3-2.3l.7-2.2.6-2.4 1.2-4.3.7-2.5.8-2.5c.4-1.3.8-2.7 1.4-4 .3-.7.7-1.5 1.3-2.2.2-.4.5-.7.9-1l.3-.2.6-.1h.9l.2.2.4.5.6.9.5 2.3.4 2.3.3 5v2.5l.2 2.6c.2 1.6.2 3.1.2 4.7v4.6c0 .8-.2 1.7.3 2.5l.7.8.8.3 1 .3c.6.1 1 0 1.6 0 .5 0 1-.2 1.4-.4.7-.3 1.1-.9 1.6-1.4h.2c.4-.3.6-.6.8-1 0-.5 0-1-.2-1.4-.5-.8-1.6-1.1-2.4-.6l-1 .7-.5.6-.5.1h-.3v-.5-1.4-2.2c0-1.5 0-3-.2-4.5l-.2-2.7V66a76.4 76.4 0 0 0-.6-7.8l-.2-1.2-.2-1.2c-.2-.9-.4-1.8-.9-2.6l-.5-.8c-.5-.6-1-1.2-1.8-1.6-.4-.3-.9-.4-1.3-.5l-1-.1h-.3zm-3 6.6v0zm11 23h-.2.1z"/><path fill="#2C2C2C" d="M290.3 69.4a22 22 0 0 0-3.4.6l-3.1 1c-1 .3-1.5 1.2-1.2 2 .2 1 1.2 1.6 2 1.3 1.8-.6 3.5-1.2 5.3-1.4.8-.2 1.7-.2 2.5-.1.4 0 .8.2 1.1.3l1 .5c.4.4.8.7 1 1.1.3.3.5.5.6.8l.4.8.4 1.7c.1 1.2.2 2.4.1 3.6l-.2 1a12.4 12.4 0 0 1-1.4 2l-1.8 1-.7.2-.7.5-.4.1-.5.2c-.6 0-1.2.3-1.6.9-.4.8-.2 1.8.6 2.3 1 .7 2.3 0 3.3-.4h-.1l2-1 1.2-.5c.9-.4 1.5-1.1 2-2 .6-.7 1.1-1.6 1.5-2.5.2-.9.3-1.9.3-2.8v-2.2c-.2-1-.3-2-.7-3l-.6-1.3-.6-1a9 9 0 0 0-2.3-2.3 7.8 7.8 0 0 0-4.8-1.4h-1.2z"/><path fill="#2C2C2C" d="M296.2 85.1c-.4.1-.8.4-1 .8-.2.4-.3.9-.2 1.4.1.4.4.8.8 1 .8.3 1.7.7 2.5 1.2v.1l.2.8c.1.6.2 1.2.1 1.8l-.1.5-.2.4-.4.4-.9.5-1.4.5-.8.2c-.2 0-.4 0-.5.2-.3 0-.6 0-.8.2-.4.2-.7.6-.8 1-.2.6 0 1.3.4 1.7.4.5 1 .6 1.7.5l.9-.3.8-.2 2-.8a6.8 6.8 0 0 0 2.3-1.5l.5-.7.5-1.1c.2-.4.2-1 .3-1.4v-1l-.2-2-.7-1.7c-.4-.6-1-1-1.7-1.4a20 20 0 0 0-2-1l-.4-.1h-.9zm2 4.3z"/><path fill="#2C2C2C" d="M297.7 95.4c-.2.4-.3.9-.2 1.3.2.5.4.8.8 1A17.2 17.2 0 0 1 300 99l.1.3V99.8l-.2.2-.6.6-.9.5-1.2.3-1.4.4c-1 0-1.7.8-1.7 1.7 0 1 .8 1.7 1.7 1.7l1.8-.2 1.2-.4a7 7 0 0 0 1.4-.5l.7-.4.8-.6 1.2-1.3c.3-.4.5-1 .6-1.4v-1-1c0-.4-.3-.8-.5-1.2-.1-.4-.4-.6-.6-.9l-.8-.6-1.4-1-.9-.2a2 2 0 0 0-1.5.9zm-1.7 6.4z"/><path fill="#2C2C2C" d="M300 101c-.8.4-1.1 1.5-.6 2.3.5.7 1 1.4 1.3 2.2 0 .4-.2.7-.3 1l-.4.7c-.5.5-1 1-1.5 1.3-.6.4-1.2.8-1.8 1a19.8 19.8 0 0 1-4.2 2l-2.7 1-1.4.2-1.3.3c-.9 0-1.7.2-2.6.4l-3.2.1h-3.2l-1-.3-1.4-.2-1.8-.6a17.7 17.7 0 0 1-3-1.7l-.1-.1-.1-.5-.2-2.8a2 2 0 0 0-.5-1.2c-.4-.3-.8-.5-1.3-.5-.9 0-1.8.8-1.7 1.7a34.4 34.4 0 0 0 .5 4.1l.3.9c.3.5.7 1 1.1 1.3l1.5 1 2.5 1.2 2 .6 1 .1 1.2.3c1 .2 2 .2 3 .2 2 0 3.8 0 5.7-.3l2.4-.4a24.4 24.4 0 0 0 4.7-1.4l2.1-.8a26 26 0 0 0 4.9-2.4l1.1-.8 1-.8 1.4-2 .6-1.6a3.7 3.7 0 0 0 0-2.1l-.3-.6-1.4-2.3c-.2-.4-.6-.7-1-.8h-.5c-.2 0-.5 0-.8.2zm.7 4.4zM257.8 31.7c-.8.5-1.1 1.6-.6 2.4l3.3 5.3L262 42l1.9 2.7.3.4.7.4c.5.1 1 0 1.4-.2a1.7 1.7 0 0 0 .6-2.3l-2-2.7-1.5-2.6-3.2-5.4c-.4-.5-1-.8-1.5-.8-.3 0-.6 0-.9.2zM280 25.1l-.3.4-.2.8-.3 3.1v8.3c0 1 .7 1.8 1.7 1.8s1.7-.8 1.7-1.8v-5.6l.1-2.6.3-3.2a1.7 1.7 0 0 0-1.7-1.7c-.5 0-1 .2-1.3.5zM304 24.8l-1.2 1.8-1 1.4c-.5 1-1.2 2-1.9 3l-1.4 1.6a26 26 0 0 0-1.8 2.1c-1 1.5-1.9 3.1-2.7 4.7-.5.8-.3 1.9.6 2.4.8.4 1.9.2 2.3-.7.9-1.5 1.7-3.1 2.7-4.5l1.6-1.9c.8-.8 1.5-1.7 2.2-2.7l1.5-2.4 1.6-2.3c.3-.4.5-.8.5-1.3a1.7 1.7 0 0 0-1.7-1.8c-.4 0-1 .3-1.2.6zM26.3 38.2a2.5 2.5 0 0 0-1.6.7l-.3.2-.4.2-.9 1c-.5.7-.1 1.8.6 2.3.4.2.9.3 1.4.2.4-.1.7-.4.9-.7l.7-.5h1c.3.2.7.2 1 .3l1.4.3 1.3.3 1.2.4 2.1 1 2.5 1.3 2 1.3 2.2 1.1 3.9 2.5 4 2.4 3.1 2 3 1.9c1.1.5 2 1.2 3 1.9l2.8 2h.1v.3c-.6 1.2-1.2 2.3-2 3.4l-1.1 2-1 1.8c-.7 1.5-1.4 3-2 4.7l-.7 2.1-.8 2-.4 1-.6 1-.7.8-.4.5-.3-.2-1.6-.7-2.4-1-2.2-.7c-.9-.2-1.9-.5-2.7-.1l-.6.2-.7.5-.5.6v-.1l-.1.2-.2.1-.4.2-.8.5-.4.5-.5.7-.8 1a50.3 50.3 0 0 0-2.5 3l-1.5 1.6c0-1 0-2 .2-3l.5-2.4.6-2.4v-.6l.1-.7v-.7c-.1-.8-.7-1.5-1.4-1.8l-2.5-1-3-1.4.4.2-2-1a63.2 63.2 0 0 1-6.2-3.9c-1-.7-2-1.5-2.8-2.5l-.5-1-.2-.6v-.7-1 .4l.6-2.7.4-1.2.4-1.5c.6-1.8 1.3-3.6 2.1-5.3l1-2.4v.1l.9-2 1.7-2.3c.2-.4.3-1 .2-1.4-.1-.4-.4-.8-.8-1-.4-.2-.9-.3-1.4-.2-.4.2-.7.4-1 .8-.8 1-1.6 2.1-2.2 3.3l-1.4 3.4-2 4.8-1.4 4.9-.3 1-.3 1.5c0 .9 0 1.7.2 2.6 0 .5.3 1 .5 1.5l.6.9c.6.7 1.2 1.5 2 2.1.8.8 1.8 1.5 2.7 2.2 1 .6 1.9 1.1 2.8 1.8a30 30 0 0 0 5.6 2.8l1.3.6 1.7.7.5.2.4.2-.7 3-.4 1.9-.2 2.4-.1 3.8v2.8c0 .6 0 1.1.3 1.6s.8.9 1.5.9c.5 0 1-.2 1.4-.7l.6-.9.5-1.1c.3-.8.7-1.4 1.2-2l2.2-2.4c.9-1 1.6-2 2.3-3l1-1 .5-.8.8-.4.6-.5.4-.4v.2c0-.2 0-.3.2-.4l.8.2 1 .4 2.4.8 1.5.7.6.3.6.3c.4.3 1 .5 1.4.4.8 0 1.4-.4 2-.9a21.1 21.1 0 0 0 2.4-3.3l1-2.2.8-2.1a44.1 44.1 0 0 1 3.7-8.3l1.4-2.2.5-1a13.2 13.2 0 0 0 1.1-2.5c.3-1.2-.2-2.4-1-3.3l-1.4-1-1-.7c-1.4-1-2.7-1.9-4.1-2.7l-2-1.3-2.3-1.3-4.1-2.6-2-1.2-2-1.3c-.6-.5-1.3-.9-2-1.2l-2-1.1-1.8-1.2-2-1-2-1a14.1 14.1 0 0 0-4.3-1.5l-.8-.1c-.4 0-.7-.2-1-.3a12 12 0 0 0-2-.2h-.5v.1zm35 22l.1.2v-.1zM40.7 78.8zm0 0l-.2.2.1-.1zm-.8 5.4v0zm1-1.2zm.1 0zm0 0l.2-.4-.2.3z"/><path fill="#2C2C2C" d="M25.5 47.1a1.7 1.7 0 0 0 1.2 2.2A57.7 57.7 0 0 1 31 51l2.4 1.4c1.4 1 2.9 1.6 4.3 2.4l2.1 1.2a39.9 39.9 0 0 0 4 2.2l2 1c.6.5 1.3.9 2 1.2.7.4 1.4.8 2 1.4.4.2 1 .2 1.4.1.4 0 .8-.4 1-.8.2-.4.3-.8.2-1.3l-.2-.4c-.1-.3-.3-.5-.6-.6l-2-1.4-2.2-1-1.8-1.2-2-1-2.2-1.2-2-1.2c-1.4-.8-3-1.5-4.4-2.4l-1.7-1-1.6-1c-1.3-.6-2.7-1-4-1.5h-.5c-.7-.2-1.5.4-1.7 1.1zM23.5 49.5c-.6.7-.6 1.8 0 2.4l2.1 2 2.2 1.8 4.4 2.9 4.6 2.5 2.2 1.2 1.9 1.2 2.4 1.4a40 40 0 0 1 2.5 1.8c.4.2 1 .3 1.4.1.4 0 .8-.4 1-.8.2-.3.3-.8.2-1.3-.2-.5-.4-.7-.8-1-1.4-1-2.9-2-4.4-2.8-1.3-.8-2.6-1.7-4-2.4L37 57.3a48.1 48.1 0 0 1-6.7-4.2l-1.4-1-2.9-2.6c-.3-.4-.7-.5-1.2-.5a2 2 0 0 0-1.2.5zM20.5 56.1c-.7.7-.7 1.8 0 2.5a27 27 0 0 0 8.6 5.6c1.5.8 3 1.7 4.3 2.7l2 1.4 2 1.1.7.4c.8.5 2 .2 2.4-.6.5-.8.2-1.8-.6-2.3l-2-1-1.8-1.2c-1.2-1-2.5-1.8-3.8-2.6l-4-2.2-1.8-1A20.5 20.5 0 0 1 23 56c-.4-.3-.8-.5-1.3-.5-.4 0-.9.2-1.2.5zM72.2 33.7a34.8 34.8 0 0 0-7.9 2.7 21 21 0 0 0-4.2 3.5l-1.7 1.9-.2.3-.3.4-.2.9a1.7 1.7 0 0 0 1.7 1.7c.4 0 1-.2 1.3-.5l2.1-2.6a24 24 0 0 1 2.3-2c.8-.6 1.7-1 2.6-1.4 2.2-.9 4.6-1.5 6.9-1.9a18 18 0 0 1 3.7 0l2.5.7 1.3.8c.5.4.9.8 1.2 1.3l.7 1 .5.9c.5 1.4 1 2.8 1.3 4.3a110.2 110.2 0 0 1 1.2 8l-.1 3.4c-.3 1.9-.8 3.7-1.4 5.5l-1.5 3-.9 1.6a13.1 13.1 0 0 1-2.7 3.3l-1.3.8-2 .7-1.3.5a24.7 24.7 0 0 1-2.9.4h-2.3l-1.5-.3-.2-.3c-.5-.7-1.5-1-2.3-.6-.8.5-1.2 1.6-.7 2.4l.6.7.5.6 1.3.6 1.3.3a20 20 0 0 0 6.9-.4c.5 0 .9-.3 1.4-.4 1.5-.6 3.2-1 4.5-2.1.8-.5 1.3-1.2 2-2a18 18 0 0 0 1.6-2.3l1.1-2 1-2a23 23 0 0 0 2.3-10.8c0-1.8-.2-3.5-.4-5.3a44 44 0 0 0-1.7-7l-1-2.7a11.4 11.4 0 0 0-4-4.3 11.6 11.6 0 0 0-5.6-1.5l-1.3-.1c-1.5-.2-2.8 0-4.2.3zm-3.5 38.5l.1.1h-.1z"/><path fill="#2C2C2C" d="M71.5 43.7a8 8 0 0 0-2.1.4 6 6 0 0 0-1.7.9c-.6.5-1 1-1.4 1.7-.3.4-.4.9-.6 1.4l-.4 1c-.2.4 0 1 .1 1.3a1.7 1.7 0 0 0 2.4.6c.4-.2.6-.5.8-1l.5-1.2.4-.8.4-.4.2-.1 1.2-.3h1.1l.1.1.1.2v.4c0 .6-.2 1.2-.4 1.8l-.5 1.6-.3 1.9c0 .7-.2 1.4.2 2.1l.4.4c.2.3.4.4.7.5.5.2 1 0 1.4 0 1-.4 1.5-1.3 1.2-2.2 0-.3-.2-.5-.5-.8l.2-.8a29.7 29.7 0 0 1 .9-3.3c.2-.7.2-1.5 0-2.2a3.8 3.8 0 0 0-3-3l-1.2-.2h-.2zm.8 3.5h0zM73.8 63.3c0 1 .8 1.8 1.7 1.8 1 0 1.8-.8 1.8-1.8s-.8-1.7-1.8-1.7c-.9 0-1.7.8-1.7 1.7zM148.8 0c-.5.2-.8.5-1 .9-.3.3-.4.9-.2 1.3l1.2 3 1.3 2.1c1 1.6 1.9 3.2 2.7 4.9l2.3 5a30 30 0 0 0 3.4 5.2l2 1.9c.8.6 1.6 1.2 2.4 1.6.7.5 1.4 1 2.2 1.2l2.6 1v.5l.4 2.6.7 2a44 44 0 0 0 1.7 4 33.8 33.8 0 0 0 9.8 11l2 1 3.8 1.5 2.4 1 2.6 1.1c.8.4 1.6.9 2.5 1.2l2.6 1.1 3.5 1.6c1.2.6 2.3 1.2 3.3 2l1.4 1 1.2 1.5c1 1.2 1.7 2.6 2.6 3.8.3.3.8.5 1.3.5a1.7 1.7 0 0 0 1.7-1.7c0-.5-.2-.9-.5-1.3a30 30 0 0 0-2.6-3.8 17 17 0 0 0-5.7-4.5l-2.3-1.1c-1.4-.8-3-1.3-4.4-2l-3-1.3-3-1.4-3.3-1.4-2.9-1-2.7-1.6-2.5-2.4a48 48 0 0 1-2.5-3l-.3-.3c-1.1-1.5-2-3.2-2.8-4.9l-.8-2.2-.4-1.5-.1-1v-.3l1.7.2a15.8 15.8 0 0 0 10.8-3.6c.8-.7 1.4-1.4 2-2.2a11.5 11.5 0 0 0 2.2-4.8l.6-3c0-1 0-2-.5-2.8a4.5 4.5 0 0 0-3-2.4l-2-.4h-1.4c-1 0-2 0-2.8.3-.8.1-1.5.4-2.3.6-.9.3-1.7.7-2.6 1.2a11.7 11.7 0 0 0-5.5 7l-.6 2.5c-.2 1-.2 2-.2 3v.1l-.6-.2a34 34 0 0 1-4-2.3 15 15 0 0 1-2.5-2.5c-1-1.3-1.9-2.7-2.6-4.1a271.6 271.6 0 0 0-4.6-9.3l-1.3-2-1-2-.3-.9c-.2-.4-.4-.8-.8-1a2 2 0 0 0-.9-.2h-.4zm32.9 13.3h1.4l1.4.4h.2l.1.2.3.4.1.4v1c-.2 1.3-.5 2.4-1 3.6l-.7 1.2a12.6 12.6 0 0 1-2.3 2.7l-1.2.8-1.3.7-1.4.5-1.6.3H171.1v-1.6c0-.6 0-1.1.2-1.6.2-1.2.5-2.4.9-3.5l1-1.8 1.5-1.5a6 6 0 0 1 1-.7l.9-.4a23 23 0 0 1 3.8-1.1h1.3zm2.8.3h.1zm-9.3 24.8l.1.1zm.6.8l.2.2-.2-.2zm-2.7 2l-.1-.2v.2zm-.1-.2l-.2-.2.2.2zM23.2 138.6c-.4 0-.7.2-1.1.3-.6.2-1.2.5-1.8 1l-1.1.8-.7.6-.8 1c-.6.7-1.3 1.5-1.8 2.4-.5.7-1 1.5-1.3 2.3-.4.8-.8 1.7-1 2.7a27.2 27.2 0 0 0-.5 9.6l.3 1.1-2.4.9-3.2 1.2-2.5 1.1-4 1.5c-.5.2-.8.4-1 .8-.3.4-.3 1-.2 1.4 0 .4.4.8.8 1 .3.2.9.3 1.3.2l4.5-1.8 3.4-1.4 4.7-1.8.3.5 1 1.3 1 .7a29 29 0 0 0 2.5 1.8l2.7 1.2 1.1.3 1.4.4 2.5.3 3 .4c1.9.2 3.6.2 5.4.2l2.6-.2 3-.5 2.6-.5 2.5-.9c1.7-.6 3.4-1.2 5-2 1.5-.7 3-1.7 4.5-2.6l2.2-1.2 2-1.1 2.1-1.4 2.2-1.4 2.2-1.3 2.2-2 1-.6c.3-.3.6-.5.7-1 .1-.4 0-1-.2-1.3-.2-.4-.5-.7-1-.8-.4-.1-1 0-1.3.2l-2 1.6-1.4 1-1.6 1.1-2 1.2-3.8 2.3c-1.5.8-3 1.6-4.3 2.5l-2.2 1.2a74.1 74.1 0 0 1-6.7 2.7 29.6 29.6 0 0 1-9.7 1.4c-1.8.1-3.5 0-5.3-.2l-3-.5a19 19 0 0 1-3.5-1c-.4-.1-1-.3-1.4-.6l-1.8-1.2c-.5-.4-1-.8-1.3-1.3a18.5 18.5 0 0 0 6.8-4.7 23.6 23.6 0 0 0 4-5.5l.6-1.5a18.6 18.6 0 0 0 1.2-5.3 8 8 0 0 0-.2-2.2c-.3-1-.8-2-1.5-2.7a6 6 0 0 0-2.5-1.4l-1.8-.4h-.4l-1 .1zm1.4 3.4l1.2.3.6.3.4.4.3.5.2 1v1.3a21 21 0 0 1-1 3.7c-.3.6-.6 1-.8 1.7l-1.2 1.7a33.4 33.4 0 0 1-4 4h.2l-1.5 1-1.1.7a8.7 8.7 0 0 1-1.3.6l-.4-1.5v-2.9l.3-2.3c0-.6.2-1.1.3-1.7l.6-1.8a20 20 0 0 1 3.3-5l1.3-1.2.9-.5.9-.3h.8zm15 24.7h-.3.2zM115.9 5.9l-1 .1c-.7.3-1.5.6-2.1 1-.6.4-1 1.1-.9 1.8l-.4-.2c-.5-.1-1-.1-1.4.2a2 2 0 0 0-.8 1l-.8 2.5-.3 1.6.2 1c0 .3.2.6.4.8.1.4.5.8.8 1l1 .9.8.5 1 .3.9.2 1-.1.5-.1c.4 0 .7-.2 1-.4l1.3-.6a7 7 0 0 0 2-2l.6-1.4.2-1 .3-2.6c0-.6 0-1.2-.2-1.8a4 4 0 0 0-2-2.3l-1-.4h-.9-.2zm.4 3.4l.2.1h.1v.2l.2.2a11 11 0 0 1-.4 3.4l-.4.6-.6.7-.7.4-1 .3h-.3-.2l-1-.6-.3-.3v-.2-.5c.2-1 .5-2 .9-2.9V10c.6.3 1.2.4 1.8 0l.7-.4.9-.3zm-4.6 4.5zM231 150.7c-.3 0-.6.2-.8.4-.3.4-.5.8-.5 1.3 0 1 .8 1.7 1.8 1.7l2.3.1c.6.1 1.1.3 1.7.3h1.7a28.9 28.9 0 0 1 7.7 1c1.5.4 3.1.7 4.7.9h-.5c1.6.1 3.1.4 4.7.6l5 .5 6 1.1a62.5 62.5 0 0 0 6.7.8l7.6 1.4 3.8.8a29.4 29.4 0 0 1 8.3 3.6l.4.4v1.3c-.5 3.2-1.5 6.4-2.1 9.6l-1.2 5.2c-.3 1.7-.9 3.4-1.4 5.1l-.9 3.1-.9 3.1-.8 3.4-.4 1.6-.2 1-.8-.1h-1.3l-2.7-.3-2.3-.2-2.5-.3-2.5-.3a60 60 0 0 1-5-1c-1.8-.2-3.5-.6-5.2-1l-2.6-.5-2.6-.7-5-1.6-5-1.4-5.3-1.4c-3.6-.9-7-1.9-10.6-2.7l-4.6-.8a271.7 271.7 0 0 1-4.7-1l-.4-.3.5-2.4.5-2.4 1.2-5.1 1.3-4.9 1.2-5 1.3-5 .8-2.5.8-2.3.9-2 .2-.4v-.9c-.1-.4-.4-.8-.8-1-.4-.2-.9-.3-1.4-.2-.4.1-.8.4-1 .8-.8 1.8-1.6 3.6-2.2 5.5l-1.4 5.2-2.6 10-1.2 4.9-1.2 5.2-.2 1.2-.1.5c-.2.8-.2 1.7.3 2.4.1.3.3.6.6.8l.2.2.6.4c.3.3.7.4 1 .5l1.6.5 5.2 1a95.3 95.3 0 0 1 10.6 2.4l5.3 1.4 5.2 1.4 5.2 1.6 5 1.4 5.2 1.1 2.6.5 2.5.5 4 .6 3.2.4 3 .3h-.4l2.6.2 2.3.1h2l.7-.3.5-.4c.4-.3.5-.7.7-1l.7-2.6 1.3-5.2 1.4-5 .8-2.5a66 66 0 0 0 1.8-7.8c.7-3.3 1.7-6.6 2.2-10 0-.6.2-1.3 0-2 0-.6-.2-1.3-.6-1.9l-1-1a35 35 0 0 0-10-4.4l-2.6-.5-5-1-5.1-.8-4.7-.5-2.4-.4-3-.6a53 53 0 0 0-3.2-.4l-3-.3-5.1-.8h.2a52.6 52.6 0 0 1-7-1.4c-1.3-.2-2.5-.4-3.8-.4h-3.3l-.7-.2-1.4-.2h-1.8-.1a1 1 0 0 0-.5 0zm60.4 14.6l.1.2-.1-.2zm.1 0v.1zm.2.6zM220.6 185v0zm-.3.2l.1.1-.1-.1zm.1 0v0zm.2.3zm0 0v.1zm63.2 13.6z"/><path fill="#2C2C2C" d="M234.8 161.9l-2.6.7c-1 .3-1.5 1.2-1.2 2.1.2 1 1.2 1.5 2 1.2l2.1-.6v.9l-.3 1.2c0 .4-.3.8-.4 1.2a49 49 0 0 1-4.5 7.5l-.5.7a2 2 0 0 0-.2 2.2c.6 1 1.6 1 2.6 1.2a590.5 590.5 0 0 0 4.2.8l1.3.2 1.7-.1c.5-.1.9-.5 1-.8.3-.4.3-.9.2-1.4 0-.4-.4-.8-.8-1a2 2 0 0 0-1.3-.2H237.3l-1.2-.2-1.4-.2-1.3-.3a89.8 89.8 0 0 0 4-6.7 16 16 0 0 0 1.1-4V165v-.9l-.5-1.2-.5-.5c-.2-.2-.5-.5-.9-.6h-.8a5 5 0 0 0-1 0zm.2 2.6zM250.3 164.9l-1.3.6c-.5.3-.9.5-1.3.9-.5.3-.8.7-1.1 1.2-.7 1-1.2 2-1.5 3l-.2.8v2.1c.1.4.4.7.6 1a4 4 0 0 0 2.5 1.3h1.7l-.1.3-.7 1.6-.5 1.2-.4 1-.2.5c-.2.4-.4.9-.4 1.4l.2.8c.3.4.7.7 1 .8.6.1 1 0 1.4-.2.4-.2.7-.5.8-1l.1-.3.4-1c.3-.4.4-.9.6-1.4l1.6-4c.3-.8.3-1.9-.4-2.5-.6-.7-1.5-.8-2.3-.7l-1.2.2h-.9l-.4-.2.5-1.7.6-1.2.6-.5 2-1.1c.9-.5 1.1-1.6.7-2.4-.3-.5-.9-.8-1.5-.8-.3 0-.7.1-1 .3zm1 10.9zm-2.4 2v.1zm3 1.5v0zM262.7 168.7l-2 3.4c-.7 1-1.3 2.2-1.9 3.3l-1.8 3.3-2 3.5c-.5.8-.2 2 .6 2.4.8.4 1.9.2 2.4-.6l1.9-3.4 1.9-3.4 1-1.7.8-1.7 2-3.4c.6-.8.3-2-.5-2.4l-.9-.2c-.6 0-1.2.3-1.5.9zM269.5 171c0 1 .8 1.7 1.7 1.8 1.8 0 3.6 0 5.4.3l-.6.8-1.1 1.7c-.8 1.3-1.7 2.5-2.4 3.8-.8 1.2-1.5 2.5-2.1 3.8l-1.1 2-1 1.8c-.5.8-.2 1.9.6 2.4.4.2.9.2 1.3.1.5 0 .8-.4 1-.8l1.3-2.2 1.3-2.4 2.6-4.4 2.9-4.5.7-1.1.5-1.3v-1.1l-.2-.6-.4-.5a3 3 0 0 0-.7-.4l-1-.4h-.5l-1.6-.2a24 24 0 0 0-2.3-.2l-2.5-.1h-.1c-1 0-1.7.9-1.7 1.7zm7.6 1z"/><path fill="#2C2C2C" d="M267.5 178.5c-.3.4-.5.8-.5 1.3 0 .4.2.9.5 1.2l.4.2c.2.2.5.3.9.3h1l2 .4 2 .5 4.5.7.7.2c1 .2 1.9-.3 2.1-1.2.3-.9-.2-1.9-1.2-2.1l-1.8-.3-2-.3-2.2-.5-2.2-.5-3-.4c-.5 0-1 .3-1.2.5zM229.9 151.1l-1.8.1a2 2 0 0 0-1.3.5c-.3.3-.5.8-.5 1.2 0 1 .8 1.8 1.8 1.8.9 0 1.8-.2 2.8 0h2.5c.6.2 1 .3 1.6.3.4 0 .9-.2 1.2-.5.3-.3.5-.8.5-1.2 0-.5-.2-1-.5-1.3-.3-.3-.8-.4-1.2-.5l-1.7-.2-1.7-.1-1.7-.1zM207.6 146l-1.3.3c-.9.4-1.6 1-2.2 1.8a7 7 0 0 0-1 2 11 11 0 0 0-.1 5 14.6 14.6 0 0 0 2.5 6.3c.3.6.8 1.2 1.3 1.8l1.3 1.3 1.3 1-1.1 1c-.7.6-1.3 1-2 1.2l-.7.3-1.1.4a12.2 12.2 0 0 1-7.2.1 9 9 0 0 1-1.7-.5l-1.3-.7-1.8-1.6-.8-.9-1-1-.2-.4-.3-1.2c-.2-1-1.3-1.5-2.1-1.2-1 .2-1.4 1.2-1.2 2a9.8 9.8 0 0 0 .8 2.5c.2.4.6.7.9 1l.4.5.5.4.7.8 1.7 1.6 1.1.8 1.5.7c.7.3 1.4.4 2.2.6l1.1.2 1.8.3h2.4l3-.6a19 19 0 0 0 5-2.2c.8-.5 1.6-1.2 2.2-2l.3-.2s.2 0 .3.2l2 .8c.8.4 1.7.9 2.7 1.1l3.3.7c.5 0 1 0 1.3-.2a1.7 1.7 0 0 0 .7-2.3c-.3-.4-.7-.7-1-.8a59.2 59.2 0 0 1-4.4-1l-2.1-1-.6-.2.8-1.3 1.1-2.8a13 13 0 0 0-.4-8.4 11 11 0 0 0-1.1-2c-1.3-2-3-4-5.3-4.3l-1.1-.2-1.1.2zm1.4 3.3l.5.1.7.5 1.3 1.3.9 1.3.7 1.3.4 1.7v2.7a12.6 12.6 0 0 1-1.4 4l-.5.8-.5-.4-1.4-1.2-1-1.3a23 23 0 0 1-1.5-2.5l-.5-1.5-.4-1.9v-.9-1.2l.2-1.2.5-.8.4-.4.4-.3.6-.1h.6zM220.3 102c-1 .5-1.2 1.7-1.2 2.8v2.5l.3 5 .5 5.3.2 2.8c0 .4.2.8.5 1.2a1.7 1.7 0 0 0 2.5 0v1c.1.4.4.7.8 1l.4.1h.9c.9 0 1.6-.8 2.3-1.2.5-.4 1-.8 1.6-1 1-.7 2.2-1.2 3.3-1.6l1.6-.8c.8-.4 1.4-1 2-1.6a2.5 2.5 0 0 0 .4-2.5l-.5-.9-.8-1.3c-.3-.5-.8-.9-1.2-1.3l-1.3-1.4-1.4-1.3-1.6-1.2-1.4-1-1.1-1-4.1-3.3a3 3 0 0 0-1.7-.7c-.4 0-.7.1-1 .3zm3.2 18.4l-.1-2.3-.2-2a38.3 38.3 0 0 1-.3-4l-.3-4v-1.7l2.8 2.3 2 1.5 1 .8 1 .8 1 1 1.8 2 .6.9-.2.2-.9.5a113.8 113.8 0 0 0-5.5 2.7c-.6.4-1.2 1-1.8 1.3h-.2c-.3 0-.6.2-.8.4l.1-.4zm9.6-5zm-8.4 4.9l-.2.1.2-.1z"/></svg>
