<svg fill="none" height="243" width="460" xmlns="http://www.w3.org/2000/svg"><path d="m195.3 21.8c-16.2 5.7-26.5 22.3-30 39.1-1 4.8-1.6 9.8-.5 14.6a28.6 28.6 0 0 0 14.2 18.1 56.4 56.4 0 0 0 23 6.4c8.1.7 16.3.5 24.3-.5a2 2 0 0 1 3 1.9l2.7 10.5 8.2-10.2c.5-.7 1.1-1.3 1.8-1.7 1-.3 2-.4 3-.3 11.8.4 23.1-5.3 33.2-11.6a69 69 0 0 0 22.6-20c5.5-8.5 7.4-20 2.5-28.9-5.5-9.8-17.3-13.8-28-16.5a197.2 197.2 0 0 0 -43.5-7 93 93 0 0 0 -42.8 8.2" fill="#ffd000"/><path clip-rule="evenodd" d="m323 109.1c21.6 15.8 33.3 41.7 41.1 67.4 6.5 21.2 11 43 13.4 65-8 3.7-17.7 7.2-25 2.4a24 24 0 0 1 -7.8-10.5c-4-8.7-7.1-17.8-10.1-27-1.8-5.3-3.7-10.8-5.7-16.1a212.9 212.9 0 0 0 -19.3-38.7c-2-3.2-4.3-6.4-7.4-8.7-3.1-2.2-7.4-3.1-10.8-1.5-5.3 2.6-6.2 9.7-6.3 15.7-.6 27.2-.3 54.3.9 81.5.1 1.1 0 2.3-.6 3.3-1 1.5-3 1.8-4.9 1.8l-55.7 2c-17.7.5-35.5 1.1-53.2.3-4.9-.2-10.2-.7-13.8-4s-3.9-10.3.5-12.3c1.6-.5 3.3-.7 5-.6l22 .7c3 0 6.3 0 8.2-2.4a9 9 0 0 0 1.6-4.1 62.6 62.6 0 0 0 -1-26.4c-1.1-4.8-3.7-10.2-8.6-11-.7-.2-1.5-.2-2.3-.2-1.8 0-3.6-.2-4.8-1.5-.8-1.1-.9-2.7-.8-4.1v-1c.4-7 .7-14.9-4.6-19.1a46 46 0 0 0 -8.3 30.4l-1.4-.5 2.7 30.8c.2 1.8.2 3.9-1.3 4.9a5 5 0 0 1 -3 .5l-38.5-1.3c-8.5-.4-18-1-24-7a25 25 0 0 1 -5.8-10.5c-6.2-19.6 2.1-41.6 16.1-56.8 14-15.1 32.8-24.8 51.5-33.5 4.5-2 9-4.1 14-4.5 7.5-.5 14.3 3.1 21.2 6.7a52.4 52.4 0 0 0 52.6 2c4.8-2.5 9.2-5.9 13.6-9.2a65.8 65.8 0 0 1 21.8-12.5c13.3-3.6 27.6 1.5 38.7 9.6zm-166.5 65.9a43 43 0 0 1 1.5-12.2c1.2-3.6-2.7-7.4-6.1-6.2-5.2 1.7-10 4.2-14.5 7.4-.5 0-1 .2-1.3.3a29.6 29.6 0 0 0 -17 15.8c-3.3 7.6-.8 17.2 8.2 19.2 7 1.6 19.2-.6 24.3-6 4.4-4.7 4.7-11.5 4.9-18.3z" fill="#d4d4d7" fill-rule="evenodd"/><g fill="#000"><path d="m225.7 127.5-3.3 8.7c-.6 1.5-1 3-1.7 4.4-1 2.2-.9 3.3-2.6 1.2-4-4.9-7.8-10.3-7.4-16.9.1-1.9-2.9-1.9-3 0-.1 4.2.9 8.2 3 11.7a29 29 0 0 0 7.4 9.6c2.2 1.3 3.6 0 4.5-2 2.3-5 4-10.6 6-16 .7-1.7-2.2-2.5-2.9-.7z"/><path d="m226.4 129.3c4 5 8.2 10 12.5 14.8.4.4 1 .5 1.4.3 3.6-.8 5.1-6.6 6.4-9.6 2.3-5.3 4-10.8 5.3-16.5.4-1.8-2.5-2.6-2.9-.8a88 88 0 0 1 -6.8 19.9c-.4.8-1.2 3.2-2.5 3.1-.6 0-3.4-4-3.8-4.4l-7.4-9c-1.2-1.5-3.3.6-2.1 2.1z"/><path d="m221.6 141.7a11.9 11.9 0 0 0 16.8.4c1.4-1.4-.8-3.5-2.1-2.2a8.8 8.8 0 0 1 -12.6-.4c-1.3-1.4-3.4.8-2.1 2.2z"/><path d="m227.2 143.5c-2.3 4.2-4 8.6-5 13.2-.8 4 2.8 7 5 10a1.5 1.5 0 0 0 2.3.3c6.7-5.5 15.6-18.2 4.8-24.3a1.5 1.5 0 0 0 -1.5 2.6c8.6 4.9-.6 15.6-5.4 19.6l2.4.3-3-4a8 8 0 0 1 -1-6.6c1-3.3 2.3-6.5 4-9.5.8-1.7-1.8-3.3-2.6-1.5z"/><path d="m226.3 165.3c-2.2 4-4 8.2-5.7 12.6-.7 1.8 2.2 2.6 2.9.8 1.5-4.1 3.3-8 5.4-12 .9-1.6-1.7-3.2-2.6-1.4z"/><path d="m227.8 167c4.2 4.2 8.5 8 12 12.7 1 1.6 3.6 0 2.5-1.5-3.6-5-8-9-12.3-13.3-1.4-1.3-3.5.8-2.2 2.2z"/><path d="m207.3 125.5c.1 8.3.5 16.5 1.4 24.7.7 6.7 1.3 13.9 3.7 20.2 4.1 10.9 16 13.6 26.6 11.7 12-2.2 16.6-18.7 18.2-29.1 1.9-12.5 0-25.3-5.5-36.6-.8-1.8-3.4-.3-2.6 1.5a59.2 59.2 0 0 1 5.5 31.5c-1 10.4-5.3 28.6-17.6 30-4.9.5-11 .3-15.4-2.1-5.1-2.9-7-8.5-8-14a208.8 208.8 0 0 1 -3.3-37.8c0-2-3-2-3 0z"/><path d="m231.6 182.7a570 570 0 0 0 -2.3 64.8c0 2 3 2 3 0a570 570 0 0 1 2.3-64.8c.1-2-2.9-2-3 0z"/><path d="m154.3 192.5c1.4-11.7 2.6-23.2 2.3-35a1.5 1.5 0 0 0 -2.3-1.3c-6.6 3.6-13.5 6.4-20.1 10-5.5 3-13.1 6.9-15.6 13.1-3.1 8.1-.4 19.6 9.6 20.5 5.5.5 11.6-1.6 16.9-3 6.8-1.9 13.6-4.2 20.2-6.9l-2-1.4c1.2 11.8 2 23.7 2.6 35.6l1-1.4a139 139 0 0 1 -52.2-.2c-5.3-1-14.3-1.9-17.7-6.7-6-8.7-4.1-23.2-1-32.5a89.2 89.2 0 0 1 16.4-28.5c7.8-9.4 18.8-16.5 28.8-23.1 10.5-7 21.3-13.5 32.4-19.2 1.6-.8 3.2-1.7 4.9-2.3 1.4-.6 1.4-.6 2.3-.3 1.8.7 3.4 2.6 5 3.7 2.4 2 5 3.8 7.7 5.5a46.9 46.9 0 0 0 42.8 5.9c13.6-4.9 25.2-13.3 37.2-21.1 5.7-3.8 12.3-3.5 19-3.5 10.8 0 21.4 2.4 29 10.3a71 71 0 0 1 14.7 28.1c4 11.9 7.7 23.8 11.4 35.7a682 682 0 0 1 19.2 74c.3 2 3.2 1.1 2.9-.8a668.6 668.6 0 0 0 -18.6-72.2l-11.5-36a94 94 0 0 0 -11.5-25.6 37 37 0 0 0 -20.7-14.8c-4.3-1-8.8-1.6-13.2-1.6-5.2-.2-11.6-.5-16.7.8-4 1-7.7 4.4-11 6.7-7.2 5-14.6 9.4-22.4 13.4a53 53 0 0 1 -27 6.6 52.8 52.8 0 0 1 -25-10.4c-2.5-1.7-4.8-3.5-7.2-5.3-1.1-.9-2.5-2.3-4-2.6-2.5-.6-5.8 1.6-8 2.7-12.2 6.2-24 13.2-35.3 21a120 120 0 0 0 -30 25.5 83.2 83.2 0 0 0 -16.3 32.4c-1.9 9-2.5 22.9 4 30.4 3.3 3.8 9.4 4.6 14 5.7a140 140 0 0 0 58.4 1.1c.6-.1 1-.7 1-1.4-.4-11.9-1.3-23.8-2.4-35.6-.1-.9-1-1.9-2-1.5-9.4 4-19.2 7-29.2 9-3.3.7-7.3 1.6-10.4-.3s-4.4-5.7-4.5-9c-.2-4 1.3-7.7 4.1-10.4 8.8-8.2 21-11.8 31.4-17.5l-2.3-1.3c.4 11.8-.8 23.3-2.2 35-.2 2 2.8 1.9 3 0z"/><path d="m153.7 227 .5 19.6c0 2 3 2 3 0l-.5-19.5c0-2-3-2-3 0zm139.5 21.4a1697.4 1697.4 0 0 1 1-82.4c.3-8.3-.9-19.3 3.7-26.6l-1.6.7c-.8-.2.1.2.3 1l1.4 2.8a553.6 553.6 0 0 1 12.9 37.8c6.3 21 12.4 42.3 15.5 64 .3 1.9 3.2 1 2.9-.8-3.4-23.3-10-46.3-17-68.8-3-9.4-6-18.9-9.5-28.1-.9-2.3-2.7-10.2-5.8-10.8-.6-.2-1.3 0-1.7.7-4.1 6.5-3.6 14.7-3.9 22.2l-1 29.4c-.4 19.6-.5 39.3-.3 58.9a1.5 1.5 0 0 0 3 0zm-81.4-154.4 10.4 18.1a1.5 1.5 0 0 0 2.6 0l12.3-20c1-1.6-1.6-3.1-2.6-1.5l-12.3 20h2.6l-10.4-18a1.5 1.5 0 0 0 -2.6 1.4z"/><path d="m212.6 91.8c-18.8-4-46.6-8.3-54.5-28.8-8.5-21.8 18.4-39.2 35.6-45.5 21.3-7.8 45.1-7 67.1-2.5 10.1 2 19.7 5.9 26.8 13.6a33.1 33.1 0 0 1 8.5 29.4c-2.7 12-12.6 18.8-23 24-11.2 5.6-23.8 11-36.5 7.6a1.5 1.5 0 0 0 -.8 2.9c12 3.2 23.6-.8 34.5-5.9 9.4-4.3 19.4-9.5 25-18.7 11.6-19.3-.5-42.8-19.4-51.4a108.5 108.5 0 0 0 -37.1-7.5c-13.1-.9-26.4-.1-39.1 3.4a82.3 82.3 0 0 0 -29.3 14.6c-8.4 6.7-16.8 16.2-17 27.6-.4 28.5 37.3 35.7 58.4 40 1.9.4 2.7-2.5.8-2.9z"/><path d="m200.4 29.9v.2a1.5 1.5 0 0 0 3 0v-.3a1.5 1.5 0 0 0 -3 0zm19.8.7a1.5 1.5 0 1 0 0-3 1.5 1.5 0 0 0 0 3zm-20 13.2c.2 5.8 5.3 9 10.8 8.9 6.7-.1 10.2-4 11.5-10.3.3-1.9-2.6-2.7-3-.8-.8 4.4-2.4 7.5-7.3 8-4 .4-8.8-1.1-9-5.8-.1-2-3.1-2-3 0zm-34.2 144.3c-.1-4 0-8.1.3-12.2.3-2.4 1-9.6 3.6-11 5.3-2.8 4.2 7.7 4.3 9.4l.6 12c.2 2 3.2 2 3 0-.5-6.6-.5-13.3-.8-19.9-.1-2.8-1.2-7-4.8-6.8-4 .2-6.5 6.4-7.5 9.5-2 6.1-1.8 12.8-1.6 19 0 2 3 2 3 0z"/><path d="m178.1 187.3c-.5 1-.7.3.3.4h6.7c1.3 0 2.5.2 3.6.6 3.2 1.9 1 6-1.3 7.4a1.5 1.5 0 0 0 1.5 2.6c4.8-3 6.5-11.6-.4-13.2-2.6-.5-5.3-.6-8-.5-1.2 0-4.3-.3-5 1.1-.8 1.8 1.8 3.3 2.6 1.6z"/><path d="m190 198.2.2-.3-.9.7c2-.6 4.7 1 4.8 3 0 2.2-2.3 3.8-4 4.5-1.8.8-.3 3.4 1.5 2.6 3.4-1.5 6.8-5.3 5-9.2-1.3-2.6-7-6.2-9.1-2.8-1 1.6 1.5 3.1 2.6 1.5z"/><path d="m192.2 208.8v-.2l-.8.7c1.3-.4 3.3 1.8 3.4 3 .2 1.7-1.6 2.9-3 3.3-1.8.6-1 3.5.8 3 3.4-1 6.3-4.4 4.8-8-.8-2.2-6-6.5-7.8-3.3a1.5 1.5 0 1 0 2.6 1.5z"/><path d="m191.6 218.7c5 3.5-2.5 6.5-4.3 7-2.2.5-4.4.5-6.6.3-2.9-.3-9.1-.6-11-3.2-1.2-1.5-3.8 0-2.6 1.6 2 2.8 5.4 3.3 8.7 3.8 4.6.9 9.5 1.5 14 0 5.5-2 9-8.1 3.3-12-1.6-1.2-3.1 1.4-1.6 2.5zm71.2-54.7-.3 5.9c0 1.2-.4 2.6.2 3.7.5.8 1.4 1.3 2.4 1.2 1.8 0 3.6-.3 5.4-.4s1.9-3.1 0-3l-3.4.3a5 5 0 0 0 -1.7 0c-.4 0-.4 0-.2.2a56.3 56.3 0 0 0 .6-7.8c.1-2-2.9-2-3 0z"/><path d="m269.4 173c-.3 1.8-.3 3.5 0 5.3 0 .8.6 1.5 1.5 1.5.8 0 1.5-.7 1.5-1.5-.3-1.8-.3-3.5 0-5.2a1.5 1.5 0 0 0 -3 0z"/><path d="m272.3 179.3c1.7-1.6 3.6-3 5.5-4.4 1.5-1 0-3.7-1.6-2.6a66 66 0 0 0 -6 4.9c-1.5 1.3.7 3.4 2 2.1z"/><path d="m277.2 175c1.8 0 3.6 0 5.4-.3.7-.2 1.1-.8 1.1-1.5.2-3.2.6-7.3-.3-10.5-.3-1.2-.6-1.8-1.9-2a29 29 0 0 1 -8.3.4c-3-.4-6.2-.3-9.3.2-2 .4-1.1 3.3.8 2.9 3-.7 6-.3 9.2 0h4c1-.1 2.5-.6 3.5-.4l-1-1.1c1 3 .5 7.4.3 10.5l1.1-1.5c-1.5.3-3 .3-4.6.3-1.9 0-1.9 3 0 3zm-183.5-44c-15-26.6-28.5-54-40.4-82.2-.7-1.7-3.3-.2-2.6 1.6a804 804 0 0 0 40.4 82.1 1.5 1.5 0 0 0 2.6-1.5zm34.1-19.1c-6-18.7-11.8-37.5-17.1-56.4a1.5 1.5 0 0 0 -3 .8c5.4 18.9 11.1 37.7 17.3 56.4.6 1.8 3.4 1 2.8-.8zm25.5-6.9a51.6 51.6 0 0 1 -4-12c-.4-1.9-3.3-1-3 .8 1 4.4 2.4 8.6 4.4 12.7.8 1.7 3.4.2 2.6-1.5zm-79.6 46.3a580.4 580.4 0 0 1 -53.7-46.6c-1.4-1.4-3.5.7-2.1 2a586 586 0 0 0 54.4 47.3c1.5 1.2 3-1.4 1.5-2.6zm-7.4 27.7-35.8-7.7c-1.9-.4-2.7 2.5-.8 3l35.9 7.7c1.8.4 2.6-2.5.7-2.9zm3.1 25.2a1356 1356 0 0 0 -56.4 26.4c-1.8.8-.3 3.4 1.5 2.6 18.6-9.3 37.5-18 56.5-26.4 1.8-.8.3-3.4-1.5-2.6zm11.8 21.9-12.8 8.1c-1.7 1-.1 3.7 1.5 2.6l12.8-8c1.6-1 0-3.7-1.5-2.7zm248.4-127.6c3.6-4.1 6.3-9 9.3-13.6l10.9-16.5c1-1.6-1.6-3-2.6-1.5l-9.8 14.8c-3.2 4.9-6.1 10.3-10 14.6-1.2 1.5.9 3.6 2.2 2.2zm21.4 6.5c17-22.7 35.4-44 55.5-63.8a1.5 1.5 0 0 0 -2.1-2.1 563.4 563.4 0 0 0 -55.9 64.3c-1.2 1.6 1.4 3 2.6 1.5zm18 23.2a755 755 0 0 1 49.1-41.6c1.5-1.2-.6-3.3-2-2.2a760.2 760.2 0 0 0 -49.2 41.7c-1.4 1.3.7 3.5 2.1 2.1zm18.7 19.7c13-7.3 26.6-13.8 40.4-19.4 1.8-.7 1-3.6-.8-2.8a367.9 367.9 0 0 0 -41.1 19.6c-1.7 1-.2 3.5 1.5 2.6zm-3 26.2c15.3-3.6 30.6-7 46-9.8 2-.4 1.1-3.3-.8-3-15.4 3-30.7 6.3-46 10-1.8.4-1 3.3.8 2.8zm6.1 20.3 50.8-6.6c1.9-.3 1.9-3.3 0-3l-50.8 6.6c-2 .3-2 3.3 0 3zm2.7 21.3 37.4 1.6c2 .1 2-2.9 0-3l-37.4-1.6c-2-.1-2 2.9 0 3zm-2.6 22.2 16.5 1.8c2 .2 2-2.8 0-3l-16.5-1.8c-2-.2-2 2.8 0 3zm-82.7-150.1 9.3-17.8c1-1.8-1.7-3.3-2.6-1.6l-9.3 17.8c-.9 1.8 1.7 3.3 2.6 1.5zm-210-53.3c5 1.6 9.7 4.2 13.7 7.7 1.5 1.3 3.6-.9 2.1-2.1a43.2 43.2 0 0 0 -15-8.5c-1.8-.6-2.6 2.3-.8 2.9z"/><path d="m109.8 27.3c-3.5 5.6-6.8 11.5-9.7 17.5-.9 1.7 1.7 3.2 2.6 1.5 3-6 6.2-11.8 9.7-17.5 1-1.7-1.6-3.2-2.6-1.5zm-7.9-6.3a1.5 1.5 0 1 0 0-3 1.5 1.5 0 0 0 0 3zm-86.8 77.4a1.5 1.5 0 1 0 0-3 1.5 1.5 0 0 0 0 3zm335.6-55.7c3 6 6.4 11.7 10.3 17.1 1.1 1.6 3.7.1 2.6-1.5-4-5.4-7.4-11.1-10.3-17.1-.9-1.8-3.4-.3-2.6 1.5z"/><path d="m364.7 43c-6 4.3-11.8 9.1-17.2 14.3-1.4 1.3.7 3.5 2.1 2.1 5.2-5 10.8-9.6 16.6-13.8 1.6-1.1.1-3.7-1.5-2.6z"/></g></svg>