<svg xmlns="http://www.w3.org/2000/svg" width="461" height="239" fill="none"><path fill="#FFD000" d="M129.8 51.7l2.1 53c.2 4.3.6 9.2 4 12 3.3 2.8 8.4 2.3 12.9 1.8 25.3-2.9 51 1 76.5-1.8 2.6-.2 5.5-.8 7-2.9 1-1.5 1.1-3.4 1.2-5.2.5-16.8 0-33.5-1.2-50.2 0-1.3-.3-2.6-1-3.6a5.9 5.9 0 0 0-2.8-1.6c-10.5-3.6-21.8-2-33-1.9-11.4.3-23-1-34.3-.1-11.8.9-24 4-35.1-.3M3 126.2c18.6-3 37.3-5.8 56-8.5 1.2 11.6 2.3 23.3 3.1 35 .3 1.4 0 2.7-.5 4-.9 1.3-2.6 1.7-4.2 2L.7 171.4l1.6-47M222.9 121.3c.3 34 1.3 68 3 102 21.6-5.8 44.3-5.4 66.6-5l71.7 1.6a1.6 1.6 0 0 0 1.9-1v-.8c3-29 4.2-58 3.5-87 0-3.2-.3-6.5-2.2-9-2.4-2.9-6.5-3.5-10.2-4-14.2-1.5-28.4-2.8-42.6-4a311.6 311.6 0 0 0-52.1-.7 277 277 0 0 0-39.5 7"/><path fill="#000" d="M212.4 103.7c-1.2 32-1.4 64-.8 96 0 3.2-.5 7.3 1.8 10 1.9 2.1 5 2.6 7.6 2.7 7.8.4 15.7.3 23.5.3l47.9.7 53.8.7a1.5 1.5 0 0 0 0-3l-93.7-1.2-23.5-.4c-3.3 0-6.8.3-10.1-.3a5.3 5.3 0 0 1-3.4-1.6c-1-1.4-.8-3.4-.9-5a1686.3 1686.3 0 0 1 .7-98.9c.1-2-2.9-1.9-3 0z"/><path fill="#000" d="M215.7 105.7a3 3 0 0 1 1.4-3.6c1.6-1 3.7-1 5.5-1l13.2.2 26.7.2 53.2.5 30 .2a1.5 1.5 0 0 0 0-3l-56-.5-55.9-.4h-7.7c-2.4-.2-4.8-.2-7.1 0a7.8 7.8 0 0 0-5.3 3 5.3 5.3 0 0 0-.9 5.2c.7 1.7 3.6 1 2.9-.8zM346.7 213.8a1.5 1.5 0 1 0 0-3 1.5 1.5 0 0 0 0 3z"/><path fill="#000" d="M347.9 212.3l1.2-86.7.4-24.4c0-2-3-2-3 0l-1.3 86.7-.3 24.4a1.5 1.5 0 0 0 3 0zM218.3 210.3a992.2 992.2 0 0 0 29.2-43.7h-2.6c4.7 10.5 8.1 21.5 10.2 32.7.2 1.4 2 1.4 2.7.4a376 376 0 0 1 41.9-51.6c1.3-1.4-.8-3.6-2.1-2.2a382.1 382.1 0 0 0-42.4 52.3l2.8.4a146.9 146.9 0 0 0-10.5-33.4 1.5 1.5 0 0 0-2-.6 947.2 947.2 0 0 1-29.8 44.1c-1.1 1.6 1.5 3.1 2.6 1.6z"/><path fill="#000" d="M296.7 147.5c5 6.1 9.5 12.7 13.2 19.7a1.5 1.5 0 0 0 2.3.3c.2-.1.4-.4.5-.7l22.3-57.4H332a178 178 0 0 0 13.6 28.2 1.5 1.5 0 0 0 1 .3 1.5 1.5 0 0 0 1.2-2.3 173.6 173.6 0 0 1-13.5-27.8 1.5 1.5 0 0 0-2.3.8L309.8 166l2.7-.4c-3.9-7.2-8.4-14-13.6-20.2-1.3-1.5-3.4.6-2.2 2.1zM218 207.6l3.1-7.6a1.5 1.5 0 0 0-1-1.9 1.6 1.6 0 0 0-1.8 1l-3 7.7a1.5 1.5 0 0 0 1 1.9 1.6 1.6 0 0 0 1.8-1zM226 187l1-2 .2-.6a1.2 1.2 0 0 0-.3-1l-.4-.5c-.4-.2-.8-.2-1.2-.1a1.5 1.5 0 0 0-.9.7l-1 2-.1.5a1.2 1.2 0 0 0 .2 1.2l.4.3c.4.2.8.3 1.2.2.4-.1.7-.4.9-.7zM230.2 178l3-6.2a1.5 1.5 0 0 0 0-1.7 1.5 1.5 0 0 0-2.6.2l-3 6.1a1.5 1.5 0 0 0 .6 2 1.5 1.5 0 0 0 2-.5zM237.3 163.6l1-2 .2-.5a1.2 1.2 0 0 0-.3-1.2 1 1 0 0 0-.4-.3 1.5 1.5 0 0 0-1.2-.2 1.5 1.5 0 0 0-.9.7l-1 2-.2.6v.6l.3.5c.1.1.2.3.4.3a1.5 1.5 0 0 0 2-.5zM242.6 153.7v.3c0-.6.2-1.2.5-1.8l-.2.3 1-1.5-.3.3v-.1c.4-.3.5-.7.5-1 0-.5-.1-.9-.4-1.1a1.5 1.5 0 0 0-1.7-.4l-.4.4a8.4 8.4 0 0 0-2 4.6 1.5 1.5 0 0 0 .5 1 1.5 1.5 0 0 0 2 0l.3-.3.2-.7zM248 143.7l2.5-4.6a1.5 1.5 0 0 0-1.7-2.2c-.3.1-.7.4-.9.7l-2.5 4.6a1.5 1.5 0 0 0 1 2.3 1.5 1.5 0 0 0 1.6-.8zM253.2 134.1l3.5-6.1a1.5 1.5 0 0 0 0-1.7 1.5 1.5 0 0 0-2.6.1l-3.5 6.2a1.5 1.5 0 1 0 2.6 1.5zM257.5 132.6c.9 2 2 3.8 3.3 5.5.2.3.5.6.9.7.4 0 .8 0 1.1-.2a1.5 1.5 0 0 0 .6-2 31.7 31.7 0 0 1-3.3-5.5 1.5 1.5 0 0 0-1.5-.7c-.2 0-.4 0-.6.2a1.6 1.6 0 0 0-.5 2zM265.3 145.8l1.5 2.5a1.5 1.5 0 1 0 2.6-1.5l-1.5-2.5c-.2-.4-.5-.6-1-.7a1.5 1.5 0 0 0-1.5.5l-.2.5c-.1.4-.1.8.1 1.2zM269.6 154.8l.5.5.5.3.6.1.6-.1.4-.3.3-.3.2-.8v-.4l-.5-.7-.5-.5a1 1 0 0 0-.4-.3 1 1 0 0 0-.6-.1 1 1 0 0 0-.6.1c-.2 0-.4.2-.5.3l-.2.3c-.2.3-.2.5-.2.8v.4l.4.7zM273.6 164l4 7.8a1.5 1.5 0 0 0 2 .5 1.5 1.5 0 0 0 .5-2l-4-7.7a1.5 1.5 0 0 0-2-.6 1.5 1.5 0 0 0-.5 2zM281.5 180l1.5 4.2c0 .4.3.7.7.9a1.5 1.5 0 0 0 2-.6c.2-.3.3-.7.2-1.1l-1.5-4.1c-.1-.4-.4-.7-.7-1a1.5 1.5 0 0 0-1.1 0 1.5 1.5 0 0 0-1.1 1.8zM286.8 190.6l3 7.2a1.5 1.5 0 0 0 2 .5 1.5 1.5 0 0 0 .6-2l-3-7.2a1.5 1.5 0 0 0-2-.5 1.5 1.5 0 0 0-.6 2zM293 201.2l.6.5.5.3a1.4 1.4 0 0 0 1.1 0c.2 0 .4-.2.5-.3l.2-.3c.2-.3.2-.5.2-.8v-.4l-.3-.7-.6-.5-.4-.3a1.4 1.4 0 0 0-1.2 0 1 1 0 0 0-.5.3l-.2.3-.2.8v.4l.4.7zM304.2 193.7l2.5-4.5a1.5 1.5 0 0 0-2.6-1.5l-2.5 4.5a1.5 1.5 0 0 0 .5 2 1.5 1.5 0 0 0 2-.5zM311.2 181l1.5-2 .2-.6a1.2 1.2 0 0 0-.3-1.1c0-.2-.2-.3-.4-.4-.3-.2-.7-.3-1.1-.2l-.4.2-.5.5-1.6 2-.1.6v.6c0 .2 0 .3.2.5l.4.4c.4.2.8.2 1.2.1l.4-.1.5-.6zM319 168.8l1.4-2.6c.2-.4.3-.8.2-1.2a1.5 1.5 0 0 0-2.1-1l-.7.7-1.5 2.5a1.5 1.5 0 0 0 .9 2.2 1.5 1.5 0 0 0 1.7-.7z"/><path fill="#000" d="M324 160.6l2-3.6c.2-.4.2-.8.1-1.2 0-.3-.3-.6-.6-.9a1.5 1.5 0 0 0-2.1.6l-2 3.5c-.2.4-.3.8-.2 1.2.1.3.4.6.7.9a1.5 1.5 0 0 0 2-.6z"/><path fill="#000" d="M327.8 155.2l2-2c.3-.3.4-.7.4-1.1v-.6a1 1 0 0 0-.4-.5c-.3-.2-.7-.4-1-.4-.5 0-.8.2-1.1.4l-2 2.1c-.3.3-.5.7-.5 1 0 .3 0 .5.2.7l.3.4c.3.3.6.5 1 .5s.8-.2 1.1-.5zM332 150.2l4-5.2.4-1a1.5 1.5 0 0 0-2.6-1l-4 5c-.3.3-.4.7-.4 1.1a1.5 1.5 0 0 0 2.5 1zM338.9 150.3c1.1 2.5 2.5 4.9 4 7.2a1.5 1.5 0 0 0 2.7-.4c.1-.4 0-.8-.1-1.1a58.3 58.3 0 0 1-4-7.2 1.5 1.5 0 0 0-2-.6 1.5 1.5 0 0 0-.6 2.1zM344.9 161.6l1 1.5c0 .2.2.3.4.4l.5.3h.6c.2 0 .4 0 .5-.2.4-.2.6-.5.7-.9v-.4l-.1-.7-1-1.6-.4-.4a1 1 0 0 0-.5-.3h-.6l-.6.2c-.3.2-.6.5-.7 1v.3c0 .3 0 .5.2.8zM120.9 50.3a398.5 398.5 0 0 0 3 54.4c.1 1.1.4 2.3.8 3.3 1 2.3 3.3 2.5 5.5 2.6l67.7 1.1 16.7.3c2.4 0 5 .4 7.4-.2a5 5 0 0 0 3.7-4.4c.2-2.7.2-5.4 0-8.1V73.8l-.2-17c0-2.5.3-5.3-.2-7.8-.4-2.5-2.1-3.3-4.4-3.4-11.3-.5-22.7-.6-34-.9l-34.2-.7-17-.4c-4.5-.1-9.7-.2-13 3.5a7.7 7.7 0 0 0-2.2 5.6c.1 2 3.1 2 3 0-.3-4.8 5.4-6 9.1-6.2 5.2 0 10.4.3 15.6.4l31.6.8 31.6.7 8 .2c.8 0 2.3-.2 2.8.5.5.8.3 2.4.3 3.3V68l.3 31.7v7.4c-.5 2.3-3 2-5 2l-15.7-.3-63-1-7.9-.2c-1 .1-2.1 0-3.2-.2-.9-.5-1-1.8-1-2.7a359.9 359.9 0 0 1-3.2-46.6v-7.8a1.5 1.5 0 1 0-3 0v-.1z"/><path fill="#000" d="M154.2 58c-4.1 3.2-7 7.8-8 12.9-1 5.7-.1 11.6 2.3 16.9 2 4.7 5.2 9.5 9.9 12 5.2 3 11.4 1.9 16.9.4a31.6 31.6 0 0 0 14.6-7.5c3.3-3.5 5.5-8 6-12.7a24.4 24.4 0 0 0-12.3-24.3c-9.5-5.5-24-5.9-31.5 3.3-1.2 1.5.9 3.6 2 2.1 5.9-7.1 16.7-7.6 24.7-4.4a22 22 0 0 1 14.3 19.4c.2 4-.8 8.1-3 11.6-2.5 4-6.7 6.6-11 8.2a32.9 32.9 0 0 1-15.2 2.6c-4.7-.6-8.2-4.1-10.6-8-3.1-5-4.7-10.9-4.4-16.8a18.5 18.5 0 0 1 6.9-13.1c1.5-1.2 0-3.8-1.5-2.6z"/><path fill="#000" d="M173 79.7a87.1 87.1 0 0 0 1.9-25.4c-.2-1.9-3.2-1.9-3 0 .6 8.3 0 16.6-1.8 24.6-.4 2 2.5 2.7 2.9.8z"/><path fill="#000" d="M172 81.4l22.4 4.7c1.9.3 2.7-2.5.8-3l-22.4-4.6c-1.9-.4-2.7 2.5-.8 2.9z"/><path fill="#000" d="M168.7 79.2l-14 14a1.5 1.5 0 0 0 2 2.1l14.2-14c1.3-1.3-.8-3.4-2.2-2zM215.1 126l14.8.7c2 0 2-3 0-3L215 123c-2 0-2 3 0 3zM212.5 157l14.8 1a1.5 1.5 0 0 0 1.5-1.5 1.5 1.5 0 0 0-1.5-1.5l-14.8-1a1.5 1.5 0 1 0 0 3zM213.6 186.3h6.6a1.5 1.5 0 0 0 0-3h-6.6a1.5 1.5 0 1 0 0 3zM213.2 55.4a9.5 9.5 0 0 0-7.8 3.8c-1.8 2.4-2.6 6.2.7 7.6 2 1 5.7 1.5 6 4.4a3 3 0 0 1-2.1 2.9c-1.6.5-3.3.6-5 .4-2-.2-2 2.8 0 3 3.3.2 7 0 9.2-3 1.8-2.7.7-6-1.6-7.9-1.2-1-2.6-1.6-4.1-2-.6-.1-1.1-.3-1.6-.7-.3-.4 0-1 0-1.4a6.4 6.4 0 0 1 6.3-4.1c1.9 0 1.9-3 0-3z"/><path fill="#000" d="M210.5 82.4c.6-8.8.8-17.7.6-26.5 0-2-3-2-3 0 .2 8.8 0 17.6-.6 26.5-.1 1.9 2.9 1.9 3 0zM114.8 200.7l37.3-41-2.3-.4 9.6 14.3a1.5 1.5 0 0 0 2.3.3l39.7-41c1.3-1.4-.8-3.5-2.1-2.1l-39.7 41 2.4.3-9.6-14.3a1.5 1.5 0 0 0-1.8-.6c-.2 0-.4.2-.6.4l-37.3 41c-1.3 1.5.8 3.6 2.1 2.2zM238.4 91.7l29-25.3-2.4-.4 15.1 20.8a1.5 1.5 0 0 0 2 .5l51.4-35.8 14.5-10c1.6-1.2 0-3.8-1.5-2.7l-51.3 35.8-14.5 10.2 2 .5-15-20.8a1.5 1.5 0 0 0-2.4-.3l-29 25.3c-1.5 1.3.6 3.4 2 2.2z"/><path fill="#000" d="M347.5 38.1c-3.3-1.2-6.7-2-10.2-2.2a1.5 1.5 0 1 0 0 3c3.2.3 6.4 1 9.4 2.1a1.5 1.5 0 0 0 1.8-1 1.5 1.5 0 0 0-1-1.9z"/><path fill="#000" d="M345.6 40.5l1.1 9.8a1.5 1.5 0 0 0 3 0l-1-9.8a1.5 1.5 0 1 0-3 0zM76 54.8a513 513 0 0 1-22.9-18c-1.4-1.3-3.6.8-2 2 7.6 6.5 15.4 12.7 23.4 18.6 1.6 1.1 3-1.5 1.6-2.6zM67.7 64.4l-8.5-4.5a1.5 1.5 0 1 0-1.5 2.6l8.5 4.5a1.5 1.5 0 0 0 1.5-2.6zM391.4 220.7l21.4 11c1.7.8 3.2-1.8 1.5-2.7L393 218c-1.7-.8-3.2 1.8-1.5 2.7zM394.4 205.2l5.2 1.3a1.5 1.5 0 0 0 1.7-2.2 1.5 1.5 0 0 0-1-.7l-5.1-1.3a1.5 1.5 0 0 0-1.6.5 1.5 1.5 0 0 0-.3 1.1 1.5 1.5 0 0 0 1 1.3zM392 178.5c4.6-1.7 9.5-2.7 14.5-2.9 1.9 0 1.9-3 0-3-5.3.2-10.5 1.3-15.4 3a1.5 1.5 0 0 0-1 1.9 1.5 1.5 0 0 0 1.8 1zM382.7 51.6a205 205 0 0 1 18-11.9 1.5 1.5 0 0 0-.4-2.7c-.4-.1-.8 0-1.1.1-6.2 3.7-12.2 7.6-18 12a1.5 1.5 0 0 0-.6 2 1.5 1.5 0 0 0 2 .5zM386.4 67.6c6-2.8 12.2-5.1 18.5-7 1.8-.6 1-3.5-.8-3a141.8 141.8 0 0 0-19.6 7.8 1.5 1.5 0 0 0 .2 2.1 1.5 1.5 0 0 0 1.7 0zM374.7 43.1l1.3-2 .2-.5a1.2 1.2 0 0 0-.3-1.1l-.4-.4c-.4-.2-.8-.2-1.2-.1l-.4.2c-.2 0-.4.3-.5.5l-1.3 2-.2.5a1.2 1.2 0 0 0 .3 1.1l.4.4c.4.2.8.2 1.2.1l.3-.1.6-.5zM386.8 89.2h.2-.4 1.6-.4c.5 0 1 .2 1.6.4l-.4-.1.5.2c.3.2.8.3 1.2.2l.8-.7a1.5 1.5 0 0 0-.5-2 7.4 7.4 0 0 0-3.6-1l-1.4.1a1.5 1.5 0 0 0-.4 2.8c.4.2.8.2 1.2.1zM64.4 202.1l-20.3 12.6c-1.6 1-.1 3.6 1.5 2.6L66 204.7c1.6-1 .1-3.6-1.5-2.6zM71.8 211.8L60 221.4a1.5 1.5 0 0 0 0 2 1.5 1.5 0 0 0 2.1 0L74 214a1.5 1.5 0 0 0 0-2.1 1.5 1.5 0 0 0-2.1 0zM81.8 221.7l-4 5.8a1.5 1.5 0 0 0 .6 2 1.5 1.5 0 0 0 2-.5l3.9-5.8a1.5 1.5 0 0 0-.5-2 1.5 1.5 0 0 0-2 .5zM87.6 46.8l-1.9-4.5c-.2-.4-.5-.6-.9-.7a1.5 1.5 0 0 0-1.8 1v.4c0 .3 0 .6.2.8l2 4.5a1.5 1.5 0 0 0 2.6-.3v-.4c0-.3 0-.5-.2-.8zM82.7 124.3a86.5 86.5 0 0 1 1.2-22.4c.2-1.2.8-3.5 2.3-3.6 1.5-.2 2.4 2 2.8 3.1a72.4 72.4 0 0 1 3.8 21.8c0 1 .2 2 .9 2.9a3.2 3.2 0 0 0 3 .6l8.5-1.3c1.9-.3 1-3.2-.8-2.9-2.7.4-5.4 1-8 1.3h-.8c.5 0 0 .5.3 0V122l-.3-4a74.5 74.5 0 0 0-3-15.4c-1-3.2-3-8.5-7.5-7-4 1.3-4.4 7-4.8 10.4-.8 6-1 12.2-.5 18.3.1 2 3.1 2 3 0z"/><path fill="#000" d="M97.6 120.2l9 .6c2.3.2 5.2.8 6.3 3.1 1 2-.2 4.2-1.9 5.4-2.3 1.5-5.3 1.6-8 1.8-1.8 0-1.8 3 0 3 2.8 0 5.5-.5 8-1.5a9 9 0 0 0 5-5.2 6.5 6.5 0 0 0-1.7-6.6c-2-1.8-4.4-2.8-7-3-3.2-.3-6.5-.4-9.8-.6-1.9-.2-1.9 2.8 0 3z"/><path fill="#000" d="M112.7 131.4l.4.1.2.1a5.8 5.8 0 0 1 1 .6l.3.3.3.3.1.2.4.8c.2.3 0-.2 0 .1l.2.5.1.4c0 .1 0 .1 0 0v.9l-.2.9c-.1.3 0-.1 0 .2l-.3.3-.2.4-.2.2-.3.3-.2.2-.8.5s-.4.2-.2 0l-.4.2-.4.1h-1.2a1.5 1.5 0 0 0-1.5 1.5 1.5 1.5 0 0 0 1.5 1.5 6.9 6.9 0 0 0 2.2-13.5 1.5 1.5 0 0 0-.8 3z"/><path fill="#000" d="M115.4 141.7h.8c-.2 0-.2 0 0 0l.3.3c-.2-.2 0 0 .1 0 0 .2.2.3.3.4-.2-.2 0 0 0 .1.2.1.2.3.3.4-.1-.3 0 .1 0 .2l.1.3v.5c0 .3 0 .6-.2.9v.1l-.3.5-1.1 1.2c-.3.3.2-.1-.2.1l-.4.2a10.2 10.2 0 0 1-2.8 1.2l-2.2.5a1.5 1.5 0 0 0-1 1.8 1.5 1.5 0 0 0 1.9 1c3.3-.7 7.2-1.8 8.7-5.2a5.5 5.5 0 0 0 0-5 4.7 4.7 0 0 0-4.3-2.5 1.5 1.5 0 1 0 0 3z"/><path fill="#000" d="M115.8 149.7c2.3.4 3 2.9 2.7 5-.4 2.9-3.4 4.6-6 5.5a157.6 157.6 0 0 1-39.3 7c-.6 0-1.4.2-2-.4a5 5 0 0 1-.7-2.2 159.4 159.4 0 0 1-3-30.7v-3.4c0-1 .1-2 .4-3 1.1-2.4 5.2-1.9 7.3-1.6 1.9.3 2.7-2.6.8-2.9-3-.4-6.5-.7-9 1.1a5.6 5.6 0 0 0-2.3 4 176.3 176.3 0 0 0 2.6 35.6c.3 1.7.6 3.7 1.8 5.1 1.4 1.6 3.6 1.4 5.6 1.3a172.7 172.7 0 0 0 27.7-4 69 69 0 0 0 12.3-3.7c3.5-1.5 6.6-4.2 6.9-8.2.2-3.2-1.6-6.9-5-7.4-2-.3-2.7 2.5-.8 2.8v.1z"/><path fill="#000" d="M67.5 123.5a560.4 560.4 0 0 0-54.6 5.3c-4 .7-8 1.3-11.8 2.3-2 .4-1.1 3.3.8 2.8 7.8-1.9 15.9-2.8 23.9-3.8a559.6 559.6 0 0 1 42.8-4 1.5 1.5 0 0 0-1.1-2.6zM72.6 167.9c-5.4-1-10.8.7-16 1.7l-13.1 2.5-30.2 5.5-12.2 2.5c-2 .4-1.1 3.3.8 2.8 17.7-3.8 35.7-6.6 53.5-10l5.5-1c3.6-.8 7.2-1.8 10.9-1 1.9.3 2.7-2.6.8-3z"/></svg>
