<svg fill="none" height="600" width="680" xmlns="http://www.w3.org/2000/svg"><path d="m325.4 319-6-15.7a24.3 24.3 0 0 1 -28.4-9.7c-2.5-4.4-4-9.3-4.3-14.3a58.8 58.8 0 0 1 18.7-47.8c13-12 31.4-17.8 49-16 8.8.8 17.7 3.6 23.7 10 5.5 5.7 8 13.8 9.7 21.6 1.7 8.3 2.6 17 .6 25.2a27 27 0 0 1 -15.2 19.1c-4.7 1.9-9.8 2-14.8 2.8a44 44 0 0 0 -31.6 25m134.1-21.9-4-21.8c-15.6-.4-34.4-2.7-41.3-16.8-4-8-2.6-17.6.8-25.9 9.2-22.5 32-37.3 55.6-43.2 12.2-3 25-4 37.2-1.1a49 49 0 0 1 30.4 20.4c11 17.4 6 43-10.8 55-11.7 8.3-26.7 9.8-40.9 12-2.7.4-5.4 1.1-7.9 2.3-8.8 4.5-10.8 17.1-19.4 22m-155.8-231.5a55.3 55.3 0 0 0 -26.3 38.1c-1.7 10.5.4 22.6 9 28.7 6.4 4.4 14.7 4.6 22.5 4.6h17.4a3 3 0 0 1 3.8 3.5l1 18.3 16.4-17.7c1.1-1.4 2.5-2.6 4-3.5 2.2-1.2 4.7-1.3 7.2-1.7 11.6-2 21-12.2 23.4-23.8a39 39 0 0 0 -9.7-32.9 54.8 54.8 0 0 0 -30.6-16.6c-15.7-3-34 .5-43.3 13.6" fill="#ffd000"/><path d="m185.4 153.2c.2 1.3.7 2.4 1.5 3.3 3.6 3.3 8.6-4.3 13.3-3 0 7.8 1 15.5 3 23 5.1-8.8 5.8-20.6 13.7-27s19.3-4.8 28.4-8.8a7.5 7.5 0 0 0 3.8-3c1-2 .5-4.2 0-6.3l-11.8-46.8c0-1-.5-1.8-1.2-2.5-1.1-1-3-.6-4.4-.2l-60 18m341.9 239.3 17.8 8.9-18.3 24c6.1-1 11.4-4.7 17.3-6.4a29 29 0 0 1 30.3 9.6c1.5 1.8 3.2 4.1 5.6 3.7a6 6 0 0 0 3-2l42.4-42.1c2-2 4-4.6 3.1-7.2a7.5 7.5 0 0 0 -2.5-3c-14.8-11.7-39.5-26.7-54.3-38.7" fill="#ff2c00"/><path d="m36.6 218.4c26.8-3.4 53.8-4.8 80.8-4 2.7 0 5.6 0 7.6-1.8 1.9-1.8 2-4.6 2-7.2 0-5.4-.7-10.8-2-16.1-1.4-6.3-5.5-13.6-12-13-5.3.4-8.4 6-10.6 10.8a60.3 60.3 0 0 0 -12.4-23.1c-2.8-3.2-7-6.4-11-5-2.6 1-4.3 3.6-5.2 6.3-2 6-1.5 12.8 1.5 18.5-1.1-5.7-3.5-11-7-15.5-1.3-2.1-3.3-3.8-5.5-4.9-5.6-2.2-12 2.4-13.8 8.2-1.7 5.7 0 11.9 2.3 17.5-1.7-5-4.5-10.9-9.7-11-4 0-7.2 3.9-7.8 7.8-.6 4 .7 8 2 11.7 0-3.3-5-4.5-7.4-2.3-2.3 2.3-2.3 6.1-1.4 9.3 1.5 5.3 4.8 10 9.4 13m469.6-87.6 49.2-4.9c27.4-2.7 55.4-5.4 82.5-.5 3.2.5 6.8 1 9.2-1 1.6-1.4 2.2-3.5 2.5-5.5 1-6 .3-12.7-4-16.8-4.2-4.2-12.8-3.8-15.2 1.7 2.2-4.4 4-9 5.4-13.8.8-2 1-4.1.9-6.3-1-6-9.4-8.6-15-5.8-5.5 2.8-8.5 9-10.3 14.9 1.4-5 2.9-10.2 2-15.3s-4.6-10.1-9.8-10.6c-4.1-.4-8.1 2.3-10.5 5.7a35.4 35.4 0 0 0 -4.4 11.8c-4.6-7.8-5.8-18-13-23.6-8.3-6.3-21.3-2.7-27.6 5.6-6.3 8.4-6.9 19.8-4.8 30a52 52 0 0 0 -5.1-14.6c-2.7-4.5-7.1-8.3-12.3-9-7-.8-13.5 4.2-17.6 10a42 42 0 0 0 2 49.3" fill="#fff"/><path d="m196.7 284c-18.1 26.7-44.4 46-67.5 68.1-23 22.1-44.3 49.7-47.1 82.3a89 89 0 0 0 41 81 93.7 93.7 0 0 0 89 3.8 156.2 156.2 0 0 0 30.1-20c27-21.7 50.8-47.4 74.5-73 2.4-2.6 4.9-5.8 4.2-9.2-.5-1.9-1.5-3.6-3-5l-40.3-46.4a749.9 749.9 0 0 1 -62.1 63.5c-9.8 9-20 17.8-32 23.5a51 51 0 0 1 -38 3.9c-2.3-.6-4.3-2-5.9-3.7-3.3-4.5-.7-10.9 2-15.7 22.7-39 54-71.6 87.3-101.3 3.4-3 7.1-6.5 7.8-11.2a18 18 0 0 0 -2-9.4c-3.5-8.2-8-16-14.7-21.5a28.6 28.6 0 0 0 -23.8-7" fill="#d4d4d7"/><g fill="#000"><path d="m222.3 306a1787.6 1787.6 0 0 0 -59.4 58.7 710.3 710.3 0 0 0 -28.2 31.4c-7.3 8.8-15.4 18-18.1 29.5a28.3 28.3 0 0 0 7.3 27.8 62.5 62.5 0 0 0 29.3 16.3c11.4 2.2 19.7-2 27.3-10.1 9.7-10.3 19.3-20.6 29.1-30.7 22.3-23 45.2-45.3 68.6-67.1 1.4-1.3-.7-3.4-2.1-2.1a2026.4 2026.4 0 0 0 -93.8 93.6c-4.5 4.8-8.8 10.5-15.2 12.8-12 4.2-24.2-2.6-33.8-9-4.9-3.3-9.7-7-12.4-12.4-3-6.1-3-13.4-1-19.8 3.4-11.7 12.3-21.2 20-30.2 7.9-9.3 16-18.3 24.5-27.1 19.3-20.5 39.7-40 60-59.5 1.4-1.3-.8-3.4-2.1-2z"/><path d="m276.4 361.5c16.2 17.8 33 34.9 50.7 51.2 1.4 1.3 3.5-.8 2.1-2.1a847.6 847.6 0 0 1 -50.7-51.2c-1.3-1.4-3.4.7-2 2.1z"/><path d="m302.1 386.6a2514.9 2514.9 0 0 0 -73.2 68.6c-11.5 11.3-22.5 23.8-35 34a62.2 62.2 0 0 1 -44.7 13c-30.2-2.7-56.8-26.2-67.5-54-13.2-34.2 13.6-65.4 35.4-88.7 25.5-27.4 54.4-51.2 83.2-75 1.4-1.3-.7-3.4-2.2-2.1-27.8 23-55.8 46-80.6 72.2-21.3 22.5-48.2 51.8-41.5 85.4a84.2 84.2 0 0 0 22 39 84.3 84.3 0 0 0 35 23c14.4 4.7 30 4.6 44.4-.2 15.6-5.5 26.5-17.7 38-29 29-28.7 58.6-56.7 89-84 1.4-1.3-.8-3.4-2.2-2.2z"/><path d="m199.7 285c.5-.2 10 9.4 11 10.3l11.3 10.4c1.4 1.3 3.6-.8 2.1-2.1l-16.3-15c-2.1-2-6.1-8-9.6-6.2-1.7.9-.1 3.5 1.6 2.6z"/><path d="m220.4 304.5 14.5 13.8c4.8 4.6 10.7 9.1 14.4 14.8 1 1.6 3.6.1 2.6-1.5-3.6-5.4-8.9-9.7-13.5-14.1l-15.9-15.1c-1.4-1.4-3.5.7-2.1 2z"/><path d="m247.7 333c-22 21.3-44.2 42.4-65.3 64.5a459.9 459.9 0 0 0 -29.8 33.4c-8 10.2-8.3 21.8-7.7 34.2 0 2 3 2 3 0-.3-6.7-.7-13.6.9-20.2 1.8-7.2 6.4-12.5 11.1-18.1a642 642 0 0 1 28.5-31.2c20-20.7 40.8-40.5 61.4-60.5 1.4-1.3-.8-3.5-2.2-2.1z"/><path d="m327.4 412.7-48.4 45.3c-7.6 7.1-15.4 14.1-22.6 21.7-6.2 6.6-12.2 13.5-18.5 20-13.4 14-28.8 26-48.5 29-21.6 3.3-41.3-5.1-58.4-18a153.2 153.2 0 0 1 -42.6-49.7c-.9-1.7-3.5-.2-2.5 1.5a156.2 156.2 0 0 0 37.4 46c15.1 12.6 32.7 23 52.8 24 19.4.9 37-6.7 51.7-19 15.3-13 27.5-29.2 42-42.9 19.8-18.7 39.8-37.2 59.7-55.8 1.5-1.3-.7-3.4-2-2.1zm-153.1-106 50.6 49.5c1.4 1.4 3.5-.7 2.1-2l-50.6-49.6c-1.4-1.4-3.5.8-2.1 2.1z"/><path d="m254.8 385c7.8 9.3 15.6 18.6 24.5 27 8.2 7.8 17.6 14.6 23.8 24.3 1 1.7 3.6.2 2.6-1.5-6-9.4-14.8-16.1-23-23.6-9.3-8.8-17.6-18.6-25.8-28.3-1.3-1.5-3.4.6-2.1 2zm2.6-90.4c7-37 14.6-73.8 23.1-110.5.4-1.9-2.4-2.7-2.9-.8-8.5 36.7-16.2 73.5-23 110.5-.4 1.9 2.5 2.7 2.8.8zm-18.3-26.6c.6-29.5 2-59 4-88.4.2-2-2.8-2-3 0-2 29.4-3.4 58.9-4 88.4 0 2 3 2 3 0zm-22.1-4c-.6-3-.9-6-.8-9.2 0-1.9-3-1.9-3 0 0 3.4.2 6.7 1 10 .3 2 3.2 1.1 2.8-.8zm122.4 122 81.6-34.2c1.8-.8 1-3.7-.8-3l-81.6 34.3c-1.8.8-1 3.7.8 3zm101.6-41.4 47.7-18.6c1.7-.6 1-3.5-.8-2.9l-47.9 18.7c-1.7.7-1 3.6.8 2.9zm-73 64.8c33.7-10.8 68-19.8 102.7-26.8 1.9-.3 1-3.2-.8-2.9-34.7 7-69 16-102.8 26.8-1.8.6-1 3.5.8 2.9zm2.8 20.6c14-1.9 28-4.2 42-7 1.9-.4 1-3.3-.8-2.9-13.7 2.7-27.4 5-41.2 6.9-1.9.2-1.9 3.2 0 3zm93.2-151.4c-.3 7-.1 14 .5 21a1.5 1.5 0 0 0 2.6 1l20.2-20c1.4-1.4-.8-3.5-2.1-2.1l-20.3 20 2.6 1c-.6-7-.8-14-.5-20.9 0-2-3-2-3 0z"/><path d="m465.4 274.8c-18.3.5-57.9-.4-51.3-29 4.8-20.3 24.5-35.3 42.5-43.2a83.6 83.6 0 0 1 60.6-4c10 3.6 20.6 9.8 25.9 19.4a41 41 0 0 1 2.4 31.5 44.2 44.2 0 0 1 -58 27.7c-1.9-.6-2.7 2.3-.9 3 21.7 8.1 47.1-.6 58.1-21.3 5.3-9.7 7-20.8 4.9-31.6a39.5 39.5 0 0 0 -20.2-26.3c-20-11.7-45.1-11.5-66.6-4-21.2 7.3-43.3 22.8-50.7 44.9-4.4 13.2.6 24.2 13 30.4 12.5 6.1 26.9 5.8 40.4 5.5 1.9 0 2-3 0-3z"/><path d="m493.7 223.5a1.5 1.5 0 1 0 0-3 1.5 1.5 0 0 0 0 3zm20.1-1a1.5 1.5 0 1 0 0-3 1.5 1.5 0 0 0 0 3zm-191-77.2c.5 5.4 1.2 10.7 2 16a1.5 1.5 0 0 0 2.5.7 641 641 0 0 1 15.5-19c1.2-1.5-.9-3.6-2.1-2.1a658.3 658.3 0 0 0 -15.5 19l2.5.6c-.8-5-1.4-10-1.9-15.1-.1-2-3.2-2-3 0z"/><path d="m324 142.7c-9.4.5-18.9 1.9-27.6-2.6a34.5 34.5 0 0 1 -15-16c-7-15-1.6-32.2 10.4-43 12.1-10.8 30.4-13.6 46.2-11.7 7.5.9 15 3.2 21.2 7.5a43.3 43.3 0 0 1 15.1 22c3.6 10.2 4.1 21-2.2 30.3a28.5 28.5 0 0 1 -28 11.7c-1.9-.3-2.7 2.5-.8 2.8a31.5 31.5 0 0 0 36.8-29c.9-19-11.3-38.9-29.1-45.4a67.7 67.7 0 0 0 -54 4.3c-14.8 8.8-24.7 26.3-21 43.6 2 9.2 7.2 17.3 14.8 22.9 10.1 7.3 21.4 6.2 33.2 5.6 2-.1 2-3.1 0-3z"/><path d="m296.1 93.2a1.5 1.5 0 1 0 0-3 1.5 1.5 0 0 0 0 3zm14.2-3.5a1.5 1.5 0 1 0 0-3 1.5 1.5 0 0 0 0 3zm16.7 212.7 2.6 19.7c.2 1.3 2.2 1.4 2.7.4 2-4 6.4-7.7 9.4-11l9.4-10.6c1.3-1.4-.9-3.5-2.2-2l-10.4 11.7c-2.9 3.2-6.8 6.5-8.8 10.4l2.8.3-2.7-19.7c-.2-2-3.1-1.1-2.9.8z"/><path d="m327.4 299.3c-8.9 3.6-19 4.4-27.8-.3-8.9-5-12.9-14-12.6-24a59 59 0 0 1 21.9-42.4 69.4 69.4 0 0 1 50-13.7c4.2.3 8.8.8 12.8 2.2 5.4 2 8.6 6.7 11.3 11.5a61 61 0 0 1 7.6 26.8c.4 10.8-1.5 21.4-10.7 28.2-7.5 5.6-18.6 12-28.2 10.8-1.9-.2-1.9 2.8 0 3 10 1.2 20.6-5 28.5-10.4a29 29 0 0 0 13-21.5 63.3 63.3 0 0 0 -4.5-32c-3.5-8.4-8.5-17.1-17.8-19.7a75 75 0 0 0 -59 8.9 62.8 62.8 0 0 0 -27.8 46.7 28.7 28.7 0 0 0 11.4 26.6c9.8 6.7 22 6.4 32.7 2.2 1.8-.7 1-3.6-.8-2.9z"/><path d="m311.3 262.2c-.6 5 2.9 9.5 7.8 10.3 6.1.9 9.5-3.8 11.7-8.8.8-1.8-1.8-3.3-2.6-1.5-1.4 3.2-3.2 7.1-7.3 7.4-4.2.2-7-3.4-6.6-7.4.2-2-2.8-2-3 0zm25.5-18.9c-.9-3.2-4.5-6.7-7.8-3.9s-.3 9.4 1.3 12.3c1 1.8 3.5.2 2.6-1.5-1-1.8-1.7-3.8-2-5.9-.2-1-.6-3.3 1.3-2.8 1 .3 1.4 1.7 1.7 2.6a1.5 1.5 0 0 0 2.9-.8z"/><path d="m337.1 245.2c.8-1 2-1.6 3.3-1.6 2.8.2 0 3-1 3.7a26 26 0 0 1 -7.6 3.1c-1.9.5-1.1 3.4.8 3 4-1 12.6-3.8 12-9.2a4 4 0 0 0 -4.2-3.6 6.9 6.9 0 0 0 -5.9 3.1c-1 1.6 1.5 3 2.6 1.5zm-27.1-1.8a6 6 0 0 0 -5.7-1.1 4.3 4.3 0 0 0 -2.8 3.8c0 2 1.7 3.4 3 4.5 1.8 1.5 3.9 2.7 6 3.6 1.8.7 2.6-2.2.8-3-2-.8-4-2-5.6-3.6-.7-.6-1.6-1.4-.8-2.2 1-1 2.7 0 3.6.6 1.5 1.1 3-1.5 1.5-2.6z"/><path d="m311.6 245c0-1.2.3-3.3 1.8-3.7 2.8-.8 1.2 3.5 1 4.3-1 2.4-2.2 4.7-3.7 6.7-1.2 1.6 1.4 3 2.6 1.5 2.4-3.3 7.2-10.7 3.4-14.6-3.7-3.8-8.3 2-8 5.8 0 2 3 2 3 0zm169.4-8c15.3 4 30.8 1.4 45.9-1.6l-1.9-1.8c-3.2 10.4-10.5 20-21.9 21.6-11.2 1.5-22.6-7.2-20-19.2.4-1.9-2.5-2.7-2.9-.8-2.6 12.2 7.2 22.8 19.3 23.2 14.4.4 24.5-11.2 28.5-24a1.5 1.5 0 0 0 -1.9-1.8c-14.6 2.8-29.5 5.5-44.2 1.6a1.5 1.5 0 0 0 -.8 2.9z"/><path d="m483.3 246.8c12.7 1.3 25.4-1.6 38.1-.8 2 .1 2-2.9 0-3-12.7-.8-25.4 2-38.1.8-2-.1-2 2.9 0 3zm-191.3-145.1c8 10 18.4 3.5 25.9-3.5l-2.6-1c0 7.7-2.8 16.5-9.8 20.7-10.6 6.2-14.2-8.7-11.8-16.4.6-1.8-2.3-2.6-2.9-.8-2.5 8 0 23.5 11.2 21.7s16.4-15.3 16.3-25.2a1.5 1.5 0 0 0 -2.6-1c-6.2 5.7-14.8 12-21.6 3.3-1.2-1.5-3.4.7-2.2 2.2zm-124.3 6.5 9.9 45.1c.2.8 1 1.3 1.8 1.1l27.3-5.6-1.8-1 4.8 20.4a1.5 1.5 0 0 0 2.7.3l6.6-11.7c2-3.4 3.7-8.2 6.8-10.6 3.2-2.3 8.1-2.8 11.8-3.7 2.9-.8 7.5-1 10-3 3.8-2.9.6-11 0-14.8-1.5-8.3-3-16.6-4.7-24.9l-2.7-12.3c-.4-1.6-.7-3.5-2.2-4.3-2.2-1.1-5.3.5-7.3 1l-11.4 3.3-51.2 14.8c-.7.3-1.2 1.1-1 1.9l.9 5.2c.3 1.9 3.2 1 2.9-.8l-.9-5.2-1 1.8 43.7-12.6 10.4-3c3.3-1 7-2.6 10.4-3 3-.3 3-.3 4.2 2.6.5 1.9 1 3.8 1.2 5.7a698.6 698.6 0 0 1 7 37.3c.4 2-.2 4-1.7 5.5l-1.8.5c-3.2 1.5-7.6 2-11 2.8-4.6 1.2-7.8 2.3-10.4 6.4-4 6.3-7.4 13.1-11 19.6l2.7.4-5-20.4c-.2-.8-1-1.3-1.8-1l-27.3 5.5 1.9 1-9.9-45c-.4-2-3.3-1.2-2.9.7z"/><path d="m204.8 111c-2-3.1-6.9-3.3-10.3-2.7-3.9.6-6.7 3.4-6.7 7.5 0 10.3 15.4 16.7 23.5 18.8a1.5 1.5 0 0 0 .8-2.9 41.8 41.8 0 0 1 -16.6-8.4c-2.3-2-5.7-5.4-4.5-8.9 1-3 9.2-5.2 11.3-1.8 1 1.6 3.6.1 2.5-1.5z"/><path d="m206.6 112.4c.4-3.7 3-9.7 7.3-10.4 8-1.2 6 9.6 4.9 13.2-2 6.5-5.6 12.3-7.4 18.8a1.5 1.5 0 0 0 3 .8c2.4-8.9 13.8-24.4 6.3-33.5-2.8-3.4-7.1-3-10.5-.7-4 2.7-6.1 7.1-6.6 11.8-.3 1.9 2.7 1.9 3 0zm336.7 181.5-30.2 35c-.6.5-.6 1.5 0 2l20.8 18.6v-2.2l-13.4 16.1c-.7.9-.4 2.8 1 2.6l13.4-1.8c3.8-.5 9-2.1 12.8-1 7 2 11.2 11 18 13.3 4.8 1.7 9-5.4 11.8-8.3a763.4 763.4 0 0 0 25-27.8c1.3-1.5 3.2-3.2 2.8-5.4-.4-1.8-2.4-3-3.8-3.9l-11-8.3-42.5-32c-.6-.4-1.4-.3-1.9.2l-3.6 3.8c-1.4 1.4.8 3.6 2 2.1l3.8-3.8-1.9.3 36.3 27.3 8.7 6.5c2.3 1.7 7.3 4.1 8.7 6.5 2.6 4.5-3.2 8.8-5.8 11.7a834.5 834.5 0 0 1 -24.7 26.7c-2.5 1.8-3.3 1.3-5.5-.3l-8.9-7.2c-3.6-2.9-6.5-5-11.3-4.6-7.4.6-14.9 2-22.3 3l1 2.6 13.5-16.1c.6-.6.6-1.5 0-2.1l-20.8-18.5v2.1l30-35c1.3-1.5-.8-3.6-2-2.1z"/><path d="m563.2 325.2c2.1-7-7.7-15.3-14-10.6-8.3 6.2-4.1 22.2-1 30 .7 1.8 3.6 1 2.9-.8a42.4 42.4 0 0 1 -2.9-21.9c.2-1 .6-2 1.1-3l5.5-2.7c2.6.2 6.3 5.8 5.5 8.3-.5 1.8 2.4 2.6 3 .8z"/><path d="m563 327.6c2-1.2 4.2-1.9 6.5-2 3.2-.1 10.1 1.3 7.4 7.4-1.5 3.5-6.9 5.5-10.2 6.6-5.9 1.9-12 2.5-17.8 4.8-1.8.7-1 3.6.8 2.9 9-3.5 26.3-3.3 30.5-14.2 1.4-3.8-.5-7.3-4-9.1a15.5 15.5 0 0 0 -14.7 1 1.5 1.5 0 0 0 1.5 2.6zm-486.9 205.4a118090.3 118090.3 0 0 0 307.8-.2h104.8a1.5 1.5 0 0 0 0-3h-177.7a1.5 1.5 0 0 0 0 3h177.7v-3a118098 118098 0 0 0 -307.9.3h-104.7a1.5 1.5 0 0 0 0 3zm502.6-3.3h-82.7a1.5 1.5 0 0 0 0 3h82.6a1.5 1.5 0 0 0 0-3zm25.2 0h-10.7a1.5 1.5 0 0 0 0 3h2.5v-3h-10.7a1.5 1.5 0 0 0 0 3h10.7a1.5 1.5 0 0 0 0-3h-2.6v3h10.9a1.5 1.5 0 0 0 0-3zm-573.2-320.4h96.3a1.5 1.5 0 0 0 0-3h-96.3a1.5 1.5 0 0 0 0 3z"/><path d="m128.3 207c-.5-9.2-1.9-22.5-11.4-27-7-3.2-16.8 2.2-13.5 10.6a1.5 1.5 0 1 0 3-.8 78.5 78.5 0 0 0 -7.4-21.5c-2.4-4.6-5.7-9.3-11.2-10.3-13.8-2.4-13 19.9-12.4 28.1h3a36.7 36.7 0 0 0 -6.2-17.6c-2.3-3.5-6.7-9.5-11.4-9.9-4.6-.3-6.6 5-7.6 8.6a53 53 0 0 0 -.5 22.1l2.8-1.2c-3.4-6.3-11.3-17.4-19.7-16.3-9.7 1.3-3.5 19.2-1.5 24.4a1.5 1.5 0 0 0 2.9-.8c-1.4-5.5-8.6-6.6-12-2.2-4.5 6.1.6 13 5.6 16.6 1.6 1 3-1.5 1.5-2.6-2.5-1.8-5.1-4.2-5.6-7.5a5 5 0 0 1 1.2-4.4c1.6-2 5.4-3.1 6.4.9l2.9-.8c-1.2-3-2.1-6-2.7-9.1-.3-1.7-1-3.9-.7-5.6-.5-1.8.3-3 2.2-3.7 1.1-2.2 2.6-2.6 4.3-1.2 5.5 2.8 9.8 8.5 12.6 13.9.8 1.6 3 .4 2.7-1.2-1-5.6-1.1-11.4-.2-17 .8-4.4 2.4-13 8.5-8a33.2 33.2 0 0 1 11.5 22.6c.2 2 3.2 2 3 0-.5-5.5-.3-11.1.8-16.6.5-2.8 1.1-6.4 3.9-8 3.2-1.8 7 0 9.3 2.3 6.5 6.6 9.3 18 11 26.8l3-.8c-1.7-4 1.6-8 5.9-8 4 .1 7.2 3.4 9 6.8 3 5.4 3.7 12.4 4 18.4 0 2 3 2 3 0zm376.4-84.6h132a1.5 1.5 0 0 0 0-3h-132a1.5 1.5 0 0 0 0 3z"/><path d="m505 119.7a30.8 30.8 0 0 1 -4.5-32.4c2.3-5.3 7.7-13.1 14.2-13.3 9.3-.2 11.4 11.5 12.2 18.4.3 1.8 3.1 2 3 0-.6-14.8 6.2-30.6 21.6-34.8 14.3-3.9 30.4 7.6 26.4 23.3-.4 1.6 2 2.7 2.7 1.2 2.4-4.4 5.7-9 10.2-11.5 9.2-5.3 9.7 7.7 9 13a1.5 1.5 0 0 0 2.3 1.3c3.4-2.6 4.4-7.9 8.5-9 9.6-2.7 8.3 11.3 7 16.7a1.5 1.5 0 0 0 2.8 1.2c3.3-4.6 11.5-15.6 18-13.6 10 3 3.2 15.8-.3 21.1l2.7 1.2c1-2.7 4.6-3.2 6.7-1.7 2.8 1.9 2.4 5.5 1.3 8.1-2 5-7.6 7.2-12.4 9-1.7.7-1 3.6.8 2.9 7.4-3 19.3-9.5 14.6-19.5-2.8-5.7-11.7-5.8-13.9.4-.6 1.6 1.9 2.5 2.8 1.1 4.6-7.1 10.3-19.6 0-25-8.8-4.8-18.6 8.5-23 14.4l2.8 1.2c1.6-7.1 2.8-16.4-5-20.2a8 8 0 0 0 -7.3-.2c-3.8 2-4.4 6.8-7.7 9.3l2.2 1.3c.8-6.2.6-16-7.6-17.2-7.3-1-14.1 8.6-17.1 14.2l2.7 1.2c4.1-16-10.7-29.9-26.3-27.8-18.7 2.5-28.3 21-27.5 38.4h3c-1-7.7-2.5-16.8-10.5-20.4-7.2-3.1-14 2.3-18 7.9a34 34 0 0 0 1.5 42c1.3 1.4 3.4-.7 2.1-2.2zm-408-37c5 1.1 9.4 4.6 11.7 9.3a1.5 1.5 0 0 0 2.8-.8c0-6.8 3.2-13.3 8.7-17.4 1.5-1.2 0-3.8-1.5-2.6a25 25 0 0 0 -10.2 20l2.8-.7a20 20 0 0 0 -13.6-10.7c-1.9-.4-2.7 2.5-.8 3zm512.3 111.7c4.3 3.7 7.5 8.5 9.2 14 .3 1 2.1 1.5 2.7.3a31.4 31.4 0 0 1 15-15c1.7-.8.2-3.4-1.5-2.6a34 34 0 0 0 -16 16l2.7.4c-1.8-6-5.3-11.2-10-15.3-1.4-1.2-3.5.9-2 2.2zm-205.4-140.5c6.4-5.4 17.1-1.3 18.8 6.7a1.5 1.5 0 0 0 2.5.7c4.3-5 11-7 17.5-5.4 1.8.4 2.6-2.4.8-2.9-7.5-1.9-15.3.5-20.4 6.2l2.5.6c-2.2-10.4-15.8-14.8-23.8-8-1.5 1.2.6 3.3 2 2zm-263 252.2a36.4 36.4 0 0 1 27.2-17.7c1.8-.2 1.9-3.2 0-3a39.6 39.6 0 0 0 -29.8 19.2 1.5 1.5 0 0 0 2.6 1.5zm-3.2-10.3a27.1 27.1 0 0 1 18.4-15.8c2-.4 1.1-3.3-.8-2.8a30 30 0 0 0 -20.2 17c-.7 1.8 1.9 3.3 2.6 1.6zm122.3 203.4a39.2 39.2 0 0 0 24.4-21.7c.8-1.8-1.8-3.3-2.6-1.5a36.3 36.3 0 0 1 -22.6 20.3c-1.8.6-1 3.5.8 3zm7.3 8.3a60.2 60.2 0 0 0 19.9-14.4c1.3-1.4-.8-3.5-2.2-2.1a58 58 0 0 1 -19.2 14c-1.8.7-.3 3.3 1.5 2.5zm-199.7-48a53.7 53.7 0 0 1 -5.1-41 1.5 1.5 0 0 0 -3-.8 57 57 0 0 0 5.5 43.3 1.5 1.5 0 1 0 2.6-1.5zm-13.6 4.3a46 46 0 0 1 -4.5-20 1.5 1.5 0 0 0 -3 0c0 7.4 1.6 14.8 4.8 21.5.9 1.7 3.5.2 2.6-1.5z"/></g></svg>