<svg width="89" height="20" viewBox="0 0 89 20" xmlns="http://www.w3.org/2000/svg"><title>keen-io</title><g fill="#7E8F9F" fill-rule="evenodd"><path d="M8.93 11.17l1.051 1.864-2.625 4.662h13.665l1.047 1.854H4.187z"/><path d="M8.939 3.711l4.722 8.392h-2.104L8.932 7.45l-6.848 12.1H0z"/><path d="M19.97 15.834h-9.465l1.053-1.87h5.25L9.99 1.849 11.033 0z"/><path d="M36.744 14.382l-4.454-5.62 4.137-4.197c.178-.182.265-.378.265-.597 0-.444-.372-.833-.797-.833-.279 0-.467.135-.636.29l-6.553 6.872V3.985a.842.842 0 0 0-.831-.85c-.442 0-.815.39-.815.85v10.999c0 .46.373.85.815.85a.842.842 0 0 0 .831-.85v-2.59l2.416-2.471 4.343 5.533c.172.251.397.379.668.379.451 0 .832-.39.832-.851a.925.925 0 0 0-.221-.602zm9.419-3.43c0-2.35-1.458-4.728-4.245-4.728-2.457 0-4.382 2.13-4.382 4.849v.035c0 2.764 1.957 4.849 4.552 4.849 1.384 0 2.442-.433 3.427-1.4a.736.736 0 0 0 .255-.55.73.73 0 0 0-.73-.73.725.725 0 0 0-.476.198c-.73.687-1.506 1.007-2.442 1.007-1.55 0-2.712-1.097-2.937-2.75h6.214c.422 0 .763-.35.764-.78zm-4.28-3.288c1.718 0 2.49 1.4 2.65 2.768h-5.348c.221-1.639 1.313-2.767 2.699-2.767zm13.955 3.287c0-2.349-1.458-4.727-4.245-4.727-2.456 0-4.38 2.13-4.38 4.849v.035c0 2.764 1.956 4.849 4.55 4.849 1.383 0 2.442-.433 3.427-1.4a.735.735 0 0 0 .255-.55.73.73 0 0 0-.73-.73.725.725 0 0 0-.477.198c-.73.687-1.505 1.007-2.44 1.007-1.55 0-2.712-1.097-2.938-2.75h6.214c.422 0 .763-.35.764-.78zm-4.279-3.287c1.716 0 2.488 1.4 2.65 2.768h-5.35c.223-1.639 1.314-2.767 2.7-2.767zm10.358-1.44c-1.2 0-2.164.478-2.872 1.422v-.483a.816.816 0 0 0-.814-.834c-.44 0-.798.374-.798.834v7.838c0 .468.358.833.815.833.454 0 .797-.358.797-.833v-4.574c0-1.575 1.026-2.675 2.496-2.675 1.434 0 2.29.961 2.29 2.57v4.68c0 .467.358.832.816.832.447 0 .798-.365.798-.833v-5.01c0-2.288-1.385-3.767-3.528-3.767zm11.449-3.09c-.442 0-.815.39-.815.851v10.999c0 .46.373.85.815.85.459 0 .83-.38.832-.85V3.985a.842.842 0 0 0-.832-.85zm9.09-.121c-3.51 0-6.259 2.843-6.259 6.471v.035c0 3.67 2.676 6.438 6.224 6.438 3.51 0 6.259-2.843 6.259-6.473V9.45c0-3.67-2.676-6.437-6.225-6.437zm4.526 6.471v.035c0 2.77-1.946 4.858-4.527 4.858-2.6 0-4.56-2.103-4.56-4.893V9.45c0-2.77 1.946-4.858 4.526-4.858 2.557 0 4.56 2.15 4.56 4.892z" fill-rule="nonzero"/></g></svg>