<svg height="20" viewBox="0 0 130 20" width="130" xmlns="http://www.w3.org/2000/svg"><path d="m2.11.893v12.195h4.11v2.016h-6.22v-14.211zm13.755 10.216h-6.32c.054.736.29 1.322.706 1.758.416.43.95.644 1.603.644.507 0 .926-.122 1.258-.368.326-.245.698-.7 1.114-1.362l1.72.976c-.265.46-.546.854-.842 1.182a4.496 4.496 0 0 1 -.95.81 3.78 3.78 0 0 1 -1.096.465 5.252 5.252 0 0 1 -1.277.147c-1.316 0-2.372-.43-3.17-1.288-.796-.865-1.195-2.013-1.195-3.443 0-1.417.387-2.564 1.16-3.442.778-.865 1.81-1.298 3.096-1.298 1.298 0 2.325.42 3.08 1.261.748.835 1.122 1.991 1.122 3.47zm-2.092-1.693c-.283-1.105-.969-1.657-2.055-1.657-.248 0-.48.038-.698.115a1.986 1.986 0 0 0 -.593.331 2.09 2.09 0 0 0 -.457.52 2.438 2.438 0 0 0 -.29.69h4.093zm9.445-1.75-1.684.912c-.266-.552-.595-.828-.987-.828a.673.673 0 0 0 -.48.188.636.636 0 0 0 -.2.484c0 .343.393.684 1.178 1.021 1.08.473 1.808.908 2.182 1.307.375.399.562.936.562 1.61 0 .866-.314 1.59-.942 2.173-.61.552-1.346.828-2.21.828-1.479 0-2.526-.733-3.142-2.2l1.739-.819c.241.43.425.703.552.82.248.233.543.35.888.35.688 0 1.032-.32 1.032-.958 0-.368-.266-.712-.797-1.03-.205-.105-.41-.206-.616-.304l-.625-.304c-.591-.295-1.008-.59-1.25-.884-.307-.374-.461-.856-.461-1.445 0-.78.263-1.423.788-1.933.537-.509 1.19-.764 1.956-.764 1.129 0 1.968.593 2.517 1.777zm7.525 0-1.684.912c-.266-.552-.595-.828-.987-.828a.673.673 0 0 0 -.48.188.636.636 0 0 0 -.2.484c0 .343.393.684 1.178 1.021 1.08.473 1.808.908 2.182 1.307.375.399.562.936.562 1.61 0 .866-.314 1.59-.942 2.173-.61.552-1.346.828-2.21.828-1.479 0-2.526-.733-3.142-2.2l1.739-.819c.241.43.425.703.552.82.248.233.544.35.888.35.688 0 1.032-.32 1.032-.958 0-.368-.266-.712-.797-1.03-.205-.105-.41-.206-.616-.304-.205-.099-.413-.2-.624-.304-.592-.295-1.009-.59-1.25-.884-.308-.374-.462-.856-.462-1.445 0-.78.263-1.423.788-1.933.537-.509 1.19-.764 1.956-.764 1.129 0 1.968.593 2.517 1.777zm16.726 3.986h-5.986l-1.558 3.452h-2.272l6.917-15.104 6.674 15.104h-2.31l-1.466-3.452zm-.86-2.016-2.074-4.832-2.174 4.832h4.247zm12.768-3.11v2.751c-.465-.576-.882-.972-1.25-1.187-.362-.22-.788-.331-1.277-.331-.767 0-1.403.273-1.91.819-.508.546-.761 1.23-.761 2.052 0 .841.244 1.531.733 2.071.495.54 1.126.81 1.893.81.489 0 .92-.107 1.295-.322.362-.208.788-.613 1.277-1.215v2.734c-.828.435-1.655.653-2.482.653-1.364 0-2.505-.448-3.423-1.344-.917-.901-1.376-2.021-1.376-3.359s.465-2.467 1.395-3.387 2.07-1.38 3.422-1.38c.87 0 1.69.211 2.464.635zm8.838 0v2.751c-.465-.576-.882-.972-1.25-1.187-.362-.22-.788-.331-1.277-.331-.766 0-1.403.273-1.91.819-.508.546-.761 1.23-.761 2.052 0 .841.244 1.531.733 2.071.495.54 1.126.81 1.893.81.489 0 .92-.107 1.295-.322.362-.208.788-.613 1.277-1.215v2.734c-.827.435-1.654.653-2.482.653-1.364 0-2.505-.448-3.422-1.344-.918-.901-1.377-2.021-1.377-3.359s.465-2.467 1.395-3.387 2.07-1.38 3.423-1.38c.869 0 1.69.211 2.463.635zm1.557 4.03c0-1.294.456-2.395 1.368-3.303.911-.908 2.022-1.363 3.332-1.363 1.316 0 2.433.458 3.35 1.372.906.914 1.359 2.037 1.359 3.368 0 1.344-.456 2.47-1.368 3.378-.917.902-2.043 1.353-3.377 1.353-1.322 0-2.43-.46-3.324-1.38-.893-.908-1.34-2.05-1.34-3.424zm2.083.038c0 .895.235 1.604.706 2.126.483.527 1.12.791 1.911.791.797 0 1.434-.26 1.91-.782.478-.522.716-1.218.716-2.09 0-.87-.238-1.567-.715-2.089-.483-.527-1.12-.791-1.911-.791-.779 0-1.41.264-1.893.791-.483.528-.724 1.21-.724 2.044zm11.519-4.455v5.145c0 1.485.576 2.227 1.73 2.227 1.152 0 1.729-.742 1.729-2.227v-5.145h2.037v5.191c0 .718-.087 1.338-.262 1.86-.17.465-.462.886-.879 1.26-.688.608-1.563.911-2.626.911-1.056 0-1.929-.303-2.617-.91-.423-.375-.721-.796-.896-1.262-.17-.417-.254-1.037-.254-1.859v-5.191zm8.068 0h2.046v.828c.713-.718 1.516-1.077 2.41-1.077 1.025 0 1.825.329 2.399.985.495.559.742 1.47.742 2.734v5.495h-2.046v-5.007c0-.884-.12-1.494-.362-1.832-.236-.344-.664-.515-1.286-.515-.676 0-1.156.227-1.44.68-.278.449-.417 1.231-.417 2.348v4.326h-2.046zm12.27 1.933v7.032h-2.037v-7.032h-.87v-1.933h.87v-3.286h2.037v3.287h1.585v1.933h-1.585zm5.008-1.933v8.965h-2.038v-8.965zm-2.346-3.728c0-.362.13-.675.39-.938.26-.264.57-.396.932-.396.369 0 .683.132.942.396.26.257.39.573.39.948 0 .374-.13.693-.39.957a1.243 1.243 0 0 1 -.933.396c-.368 0-.682-.132-.941-.396a1.326 1.326 0 0 1 -.39-.967zm4.927 3.728h2.046v.828c.712-.718 1.515-1.077 2.409-1.077 1.026 0 1.826.329 2.4.985.495.559.742 1.47.742 2.734v5.495h-2.047v-5.007c0-.884-.12-1.494-.362-1.832-.235-.344-.664-.515-1.286-.515-.676 0-1.156.227-1.44.68-.277.449-.416 1.231-.416 2.348v4.326h-2.046zm18.699 8.753c0 .423-.014.796-.04 1.118a7.891 7.891 0 0 1 -.114.851 3.815 3.815 0 0 1 -.851 1.74c-.797.933-1.893 1.399-3.287 1.399-1.177 0-2.146-.322-2.907-.966-.785-.663-1.238-1.58-1.358-2.752h2.046c.079.441.208.782.39 1.021.422.559 1.038.838 1.847.838 1.491 0 2.237-.93 2.237-2.789v-1.252c-.81.84-1.742 1.261-2.799 1.261-1.201 0-2.185-.442-2.952-1.325-.772-.896-1.159-2.016-1.159-3.36 0-1.306.36-2.417 1.078-3.331.773-.97 1.793-1.455 3.06-1.455 1.111 0 2.035.42 2.772 1.261v-1.011h2.037v8.753zm-1.956-4.252c0-.872-.23-1.568-.688-2.09-.465-.533-1.06-.8-1.784-.8-.773 0-1.383.291-1.83.874-.404.522-.606 1.197-.606 2.025 0 .816.202 1.485.607 2.006.44.571 1.05.856 1.829.856s1.394-.288 1.847-.865c.417-.521.625-1.19.625-2.006z" fill="#7e8f9f" fill-rule="evenodd"/></svg>