<svg xmlns="http://www.w3.org/2000/svg" xmlns:xlink="http://www.w3.org/1999/xlink" width="118" height="49" viewBox="0 0 118 49"><defs><path id="krn2a" d="M72.825 35.732h1.682v13.532h8.095v3.048H71.118v-14.8c0-.951.756-1.78 1.707-1.78z"/><path id="krn2b" d="M86.673 35.732c1.073 0 1.585.536 1.56 1.585v.95h-3.242v-2.535zm0 3.682c1.049 0 1.56.512 1.56 1.56v11.338h-3.242V39.414z"/><path id="krn2c" d="M94.329 44.07v8.241h-3.292v-7.583c0-3.68 1.854-5.51 5.535-5.51 1.658 0 2.926.366 3.853 1.097.926-.707 2.194-1.048 3.852-1.048 3.68 0 5.51 1.828 5.486 5.51v7.583h-1.683c-1.072-.073-1.61-.585-1.61-1.609V44.12c-.072-1.34-.803-2-2.242-2-1.44 0-2.17.66-2.194 2v8.192h-3.268v-8.24c-.073-1.342-.804-2-2.243-2-1.438 0-2.17.658-2.194 2z"/><path id="krn2d" d="M118.368 52.604c-3.9-.122-5.851-2.39-5.851-6.779 0-4.388 1.975-6.583 5.9-6.607 4.096 0 6.023 2.511 5.779 7.558h-8.34c.123 1.975.976 2.975 2.56 2.975.757 0 1.464-.317 2.098-.927.293-.317.659-.463 1.097-.463H124c-.707 2.731-2.463 4.243-5.633 4.243zm-2.462-8.144h4.852c-.195-1.707-1-2.584-2.39-2.584-1.39 0-2.218.877-2.462 2.584z"/><path id="krn2e" d="M132.582 52.604c-3.901 0-5.9-2.243-5.998-6.681 0-4.413 1.975-6.632 5.95-6.705 3.12 0 4.973 1.39 5.534 4.194h-3.535c-.39-.878-1.073-1.341-2.097-1.341-1.707 0-2.56 1.292-2.56 3.852 0 2.56.902 3.853 2.706 3.828.756 0 1.415-.317 1.951-.926a1.494 1.494 0 0 1 1.097-.463h2.438c-.585 2.633-2.486 4.315-5.486 4.242z"/><path id="krn2f" d="M144.09 42.779h-3.243c.39-2.39 2.072-3.56 5.047-3.56 3.56 0 5.364 1.17 5.438 3.56v4.387c0 3.56-2.146 5.146-5.633 5.39-3.096.244-5.242-1.195-5.242-4.048.073-3.097 2.316-3.926 5.583-4.243 1.39-.17 2.097-.584 2.097-1.292-.073-.731-.756-1.097-2.097-1.097-1.146 0-1.779.293-1.95.903zm4.096 4.241v-1.195a14.11 14.11 0 0 1-2.584.781c-1.293.243-1.951.853-1.951 1.804.073 1.025.61 1.512 1.634 1.512 1.804 0 2.901-1.072 2.901-2.901z"/><path id="krn2g" d="M157.597 37.316v14.995h-3.243v-16.58h1.682c.854 0 1.56.732 1.56 1.585z"/><path id="krn2h" d="M164.13 37.316v14.995h-3.243v-16.58h1.682c.854 0 1.561.732 1.561 1.585z"/><path id="krn2i" d="M51.223 32.17c-.087-.028-.294-.042-.583-.042-.304 0-.617.018-.719.032a.655.655 0 0 0-.449.286.813.813 0 0 0-.099.648c.098.4.432.748.832.868.075.022.247.035.487.035.32 0 .676-.022.791-.037a.652.652 0 0 0 .446-.265.79.79 0 0 0 .123-.61 1.228 1.228 0 0 0-.829-.915z"/><path id="krn2j" d="M47.003 38.786c.034.418.333.817.742.991.132.055.277.081.46.081.12 0 .246-.01.367-.022a753.7 753.7 0 0 1 1.52-.118c1.017-.077 2.168-.164 2.326-.179.4-.042.683-.412.64-.842a1.21 1.21 0 0 0-.75-.974 1.13 1.13 0 0 0-.424-.07c-.114 0-.233.01-.348.02-.056.005-.11.01-.164.013l-.584.034c-.968.058-2.98.175-3.172.213-.39.077-.647.435-.613.853z"/><path id="krn2k" d="M53.085 49.267c-.43.12-.62.562-.584.935.04.435.337.829.737.982.196.075.428.06.672.024l1.286-.193a.804.804 0 0 0 .653-.603 1.072 1.072 0 0 0-.208-.931 1.142 1.142 0 0 0-.885-.442 1.02 1.02 0 0 0-.145.01l-.323.042c-.417.052-1.048.13-1.203.176z"/><path id="krn2l" d="M67.145 48.626c.025-.45-.25-.906-.652-1.083a.75.75 0 0 0-.317-.063c-.103 0-.208.015-.319.031l-.168.023c-.239.033-.738.101-.788.115a.606.606 0 0 0-.372.305.998.998 0 0 0-.053.746c.12.382.475.771.921.775l.003.064v-.064c.148 0 .662-.086.972-.137l.214-.036c.364-.054.544-.378.56-.676z"/><path id="krn2m" d="M66.353 54.65a1.268 1.268 0 0 0-.351-1.103.95.95 0 0 0-.67-.241 1.84 1.84 0 0 0-.567.1.677.677 0 0 0-.46.52c-.08.375.072.853.356 1.114.287.264.728.306 1.244.13a.672.672 0 0 0 .448-.52z"/><path id="krn2n" d="M57.145 63.193c.07.021.14.031.215.031.139 0 .275-.032.418-.065l.18-.042c.298-.067.994-.224 1.12-.302.403-.249.486-.76.392-1.132-.114-.452-.48-.8-.887-.845-.026-.002-.052-.004-.078-.004-.132 0-.267.032-.4.064-.038.01-.076.018-.114.026-.109.023-.22.043-.335.063-.244.044-.497.088-.72.173-.377.138-.592.483-.576.923.017.445.291.97.784 1.11z"/><path id="krn2o" d="M53.231 57.455a.933.933 0 0 0 .31.049h.001c.19 0 .389-.044.582-.086a5.57 5.57 0 0 1 .202-.041c.269-.052.538-.1.808-.151a55.437 55.437 0 0 0 1.599-.307c.401-.066.64-.45.67-.794a1.187 1.187 0 0 0-.568-1.106.917.917 0 0 0-.48-.122c-.17 0-.342.033-.523.068a4.959 4.959 0 0 1-.16.03l-2.476.436a.918.918 0 0 0-.115.028c-.375.12-.594.425-.6.836-.007.507.315 1.005.75 1.16z"/><path id="krn2p" d="M61.613 44.417c.158 0 .323-.023.492-.069a.596.596 0 0 0 .456-.456c.084-.356-.086-.85-.378-1.106-.187-.16-.434-.244-.732-.244-.15 0-.312.021-.482.062a.596.596 0 0 0-.465.457c-.086.36.085.86.381 1.116.186.16.432.24.728.24z"/><path id="krn2q" d="M62.414 49.928c.16 0 .34-.028.536-.08a.645.645 0 0 0 .482-.489c.092-.365-.055-.84-.34-1.108-.185-.173-.432-.26-.731-.26-.166 0-.346.026-.534.08a.643.643 0 0 0-.473.495c-.086.366.072.854.358 1.113.18.166.418.25.702.25z"/><path id="krn2r" d="M61.383 38.862c.138 0 .283-.016.434-.049.236-.054.385-.19.442-.408.097-.372-.112-.865-.369-1.09-.196-.173-.458-.26-.78-.26-.13 0-.27.013-.412.044-.24.05-.395.187-.452.407-.1.376.111.872.371 1.1.194.17.453.256.766.256z"/><path id="krn2s" d="M58.066 33.77h.025c.465 0 3.833-.163 3.85-.164a.533.533 0 0 0 .38-.219.764.764 0 0 0 .104-.595c-.094-.437-.46-.809-.867-.885a3.146 3.146 0 0 0-.144-.002c-.737 0-3.64.07-3.883.113a.56.56 0 0 0-.397.262.84.84 0 0 0-.062.674c.143.451.571.801.994.816z"/><path id="krn2t" d="M55.105 39.399l.873 3.39c.015.063.002.083.065.077.145-.014 2.147-.213 3.005-.3-.2-.761-.777-2.996-.876-3.348-.01-.038-.047-.05-.087-.047-.16.007-2.147.164-2.98.228z"/><path id="krn2u" d="M58.002 50.657c.192.747.922 3.677.952 3.697.032.022 2.108-.371 3.033-.534l-.903-3.458c-.005-.015-.036-.164-.048-.162l-.312.045-2.722.412z"/><path id="krn2v" d="M59.495 56.46c.191.746.791 3.069.897 3.486.008.031.025.185.054.204.031.02.216-.047.25-.054.926-.198 1.851-.398 2.776-.597l-.903-3.453c-.003-.012-.036-.163-.047-.161-.102.019-.204.038-.306.059l-2.72.516z"/><path id="krn2w" d="M56.519 44.892l.952 3.7c.001.006 2.107-.288 3.042-.416-.196-.751-.939-3.626-.952-3.626l-3.042.342z"/><path id="krn2x" d="M67.37 26.578c-.16.021-.332.002-.493.002l-1.236-.005-3.141-.009-1.043-.003-.204-.002c-.296 0-.608-.317-.535-.619.066-.275.394-.22.608-.219l1.139.011 3.148.026 1.15.01c.325.002.645-.016.799.354.072.176.032.422-.191.454zm-14.885-3.487c-.92.096-1.323.983-1.11 1.806l1.778 6.91c.043.17.018.17.199.164l2.9-.1-.618-2.365c-.071-.279-.328-.922.18-.94.067-.003 17.686-.143 17.77-.145.285-.002.43.268.499.502.186.627.734 2.452.839 2.805l1.65-.169c-.007-.019-1.775-5.743-1.946-6.308-.258-.859-1.01-1.625-1.948-1.649l-19.487-.507c-.231-.006-.475-.028-.706-.004z"/><path id="krn2y" d="M53.695 33.92l.877 3.404c.015.055.002.092.061.088.14-.007 2.151-.136 3.016-.19-.199-.762-.786-3.01-.88-3.375-.018-.065-.006-.07-.074-.068l-3 .141z"/><path id="krn2z" d="M75.818 66.975c-.922.437-1.82-.393-2.126-1.202-.307-.807-.217-2.007.661-2.438.901-.442 1.798.344 2.12 1.135.335.822.261 2.075-.655 2.505zm5.977-12.078c.387 1.309.643 2.258 1.152 3.98.096.322.245.776-.194.886l-1.15.286-15.804 3.944c-.242.061-.615.155-.864.04-.358-.168-.46-.698-.55-1.034-.114-.442-.23-.882-.346-1.324-.01-.043 0-.074-.046-.063-.088.02-2.432.559-2.995.69l1.826 7.096c.183.714.45 1.628.871 2.03.467.446 1.111.651 1.747.459.09-.026 19.756-5.982 19.874-6.018.336-.102.595-.324.752-.641.338-.678.155-1.38-.048-2.055l-2.57-8.559c-.008-.032-1.514.258-1.655.283z"/><path id="krn2A" d="M63.695 71.428c-.42-.402-.687-1.316-.87-2.03-.105-.401-.396-1.536-.723-2.805l-12.306.44 14.46 4.771a1.982 1.982 0 0 1-.56-.376z"/><path id="krn2B" d="M91 65.87v-11h73v11z"/><path id="krn2C" d="M103.032 64.513H99.65v-8.275h2.82c.754 0 1.486.06 2.038.347.551.288 1.055.828 1.055 1.74 0 .911-.588 1.607-1.21 1.822v.025c1.03.251 1.714.947 1.714 1.966 0 .912-.384 1.452-.91 1.835-.529.384-1.273.54-2.124.54zm-.648-6.836h-.804v1.907h.756c.432 0 .683-.024.911-.18.24-.168.408-.384.408-.792 0-.395-.168-.623-.408-.767-.228-.144-.443-.168-.863-.168zm.264 3.25h-1.068v2.111h1.068c.42 0 .743-.024 1.031-.228.288-.192.42-.468.42-.827 0-.372-.132-.624-.42-.828-.288-.204-.61-.228-1.03-.228z"/><path id="krn2D" d="M122.194 64.513h-5.469v-8.276h5.361v1.548h-3.43v1.691h3.238v1.547h-3.238v1.92h3.538z"/><path id="krn2E" d="M138.502 57.773h-2.135v6.74h-1.943v-6.74h-2.135v-1.535h6.213z"/><path id="krn2F" d="M155.278 64.513h-2.111l-.588-1.667h-2.95l-.588 1.667h-2.015l3.118-8.287h2.015zm-3.143-3.178l-1.031-2.974-1.032 2.974z"/></defs><g><g transform="translate(-47 -23)"><use fill="#fff" xlink:href="#krn2a"/></g><g transform="translate(-47 -23)"><use fill="#fff" xlink:href="#krn2b"/></g><g transform="translate(-47 -23)"><use fill="#fff" xlink:href="#krn2c"/></g><g transform="translate(-47 -23)"><use fill="#fff" xlink:href="#krn2d"/></g><g transform="translate(-47 -23)"><use fill="#fff" xlink:href="#krn2e"/></g><g transform="translate(-47 -23)"><use fill="#fff" xlink:href="#krn2f"/></g><g transform="translate(-47 -23)"><use fill="#fff" xlink:href="#krn2g"/></g><g transform="translate(-47 -23)"><use fill="#fff" xlink:href="#krn2h"/></g><g transform="translate(-47 -23)"><use fill="#fff" xlink:href="#krn2i"/></g><g transform="translate(-47 -23)"><use fill="#fff" xlink:href="#krn2j"/></g><g transform="translate(-47 -23)"><use fill="#fff" xlink:href="#krn2k"/></g><g transform="translate(-47 -23)"><use fill="#fff" xlink:href="#krn2l"/></g><g transform="translate(-47 -23)"><use fill="#fff" xlink:href="#krn2m"/></g><g transform="translate(-47 -23)"><use fill="#fff" xlink:href="#krn2n"/></g><g transform="translate(-47 -23)"><use fill="#fff" xlink:href="#krn2o"/></g><g transform="translate(-47 -23)"><use fill="#fff" xlink:href="#krn2p"/></g><g transform="translate(-47 -23)"><use fill="#fff" xlink:href="#krn2q"/></g><g transform="translate(-47 -23)"><use fill="#fff" xlink:href="#krn2r"/></g><g transform="translate(-47 -23)"><use fill="#fff" xlink:href="#krn2s"/></g><g transform="translate(-47 -23)"><use fill="#fff" xlink:href="#krn2t"/></g><g transform="translate(-47 -23)"><use fill="#fff" xlink:href="#krn2u"/></g><g transform="translate(-47 -23)"><use fill="#fff" xlink:href="#krn2v"/></g><g transform="translate(-47 -23)"><use fill="#fff" xlink:href="#krn2w"/></g><g transform="translate(-47 -23)"><use fill="#fff" xlink:href="#krn2x"/></g><g transform="translate(-47 -23)"><use fill="#fff" xlink:href="#krn2y"/></g><g transform="translate(-47 -23)"><use fill="#fff" xlink:href="#krn2z"/></g><g transform="translate(-47 -23)"><use fill="#fff" xlink:href="#krn2A"/></g><g transform="translate(-47 -23)"><use fill="#277230" xlink:href="#krn2B"/></g><g transform="translate(-47 -23)"><use fill="#fff" xlink:href="#krn2C"/></g><g transform="translate(-47 -23)"><use fill="#fff" xlink:href="#krn2D"/></g><g transform="translate(-47 -23)"><use fill="#fff" xlink:href="#krn2E"/></g><g transform="translate(-47 -23)"><use fill="#fff" xlink:href="#krn2F"/></g></g></svg>