<svg width="118" height="40" viewBox="0 0 118 40" version="1.1" xmlns="http://www.w3.org/2000/svg" xmlns:xlink="http://www.w3.org/1999/xlink"><title>allegro</title><defs><path id="a" d="M0 .658h117.186V40H0z"/></defs><g stroke="none" stroke-width="1" fill="none" fill-rule="evenodd"><mask id="b" fill="#fff"><use xlink:href="#a"/></mask><path d="M42.522 17.975c0-1.558 1.296-4.518 5.015-4.518 2.05 0 4.46 1.173 4.46 4.518h-9.475zm5.015-8.61c-6.267 0-8.98 4.207-9.893 7.76-.243.947-.36 1.96-.36 2.938 0 2.303.646 4.67 2.018 6.545 1.986 2.713 5.16 4.035 8.484 4.16 3.383.126 5.646-.453 7.34-1.435.33-.192.4-.423.4-1.036v-2.734c0-.56-.333-.817-.857-.483-1.824 1.162-4.025 1.876-6.823 1.655-2.818-.222-5.145-2.197-5.365-4.99h13.913c.308 0 .55-.23.57-.568.23-3.807-.863-11.813-9.428-11.813zM13.78 27.03H7.963c-.814-.05-1.526-.26-2.175-.76-.7-.543-1.02-1.18-1.027-2.016.01-1.102.744-3.32 4.476-3.32h4.54v6.096zm4.534-9.09c0-2.798-.626-4.947-1.967-6.384-1.394-1.49-3.89-2.194-6.386-2.194s-4.895.642-7.02 1.907c-.14.082-.222.23-.222.39v.027s.188 3.075.19 3.085c.032.417.364.553.74.318 3.264-2.033 6.838-2.148 8.47-1.327 1.917.966 1.66 3.41 1.66 3.41H8.96c-2.202 0-8.96.783-8.96 7.027V24.302c.003 2.13.733 3.848 2.188 4.982 1.347 1.06 3.19 1.563 5.47 1.564l10.054-.003c.336 0 .608-.272.608-.608l-.006-12.294zm51.488 8.732c-2.53 0-4.36-1.85-5.127-4.152-.244-.732-.408-1.63-.41-2.46.002-.83.166-1.726.41-2.46.768-2.3 2.597-4.15 5.127-4.15 5.662 0 5.852 5.78 5.854 6.61-.002.83-.192 6.612-5.854 6.612zm10.502-6.61c0-2.335-.62-4.634-2.017-6.546-1.987-2.713-5.16-4.15-8.485-4.16-3.326.01-6.498 1.447-8.484 4.16-2.716 3.71-2.72 9.378 0 13.09 1.986 2.713 5.158 4.15 8.484 4.16 2.177-.007 4.287-.628 6.043-1.817v2.59c0 3.515-3.074 4.154-5.04 4.275-1.32.082-3.2-.097-4.046-.224-.54-.08-.916.014-.916.58.002-.013-.01 3.11 0 3.114-.01.23.176.478.556.51 4.56.393 7.638.31 9.953-1.005 1.646-.937 2.777-2.48 3.372-4.285.428-1.298.58-2.894.58-4.28V20.063zm15.084-9.46v2.474c.007.546-.35.798-.83.7-3.986-.822-6.434.95-6.434 4.63l-.006 11.828c0 .337-.272.61-.608.61h-3.525c-.336 0-.608-.273-.608-.61V18.098c0-3.167 1.435-4.983 2.596-6.138 1.577-1.57 3.88-2.602 6.444-2.602.38-.002 1.795.062 2.446.233.464.136.525.383.525 1.014zm-69.11 19.633c0 .336-.273.608-.608.608h-3.525c-.337 0-.61-.272-.61-.608V1.267c0-.336.273-.61.61-.61h3.525c.335 0 .608.274.608.61v28.97zm8.28 0c0 .336-.27.608-.607.608h-3.524c-.336 0-.608-.272-.608-.608V1.267c0-.336.272-.61.608-.61h3.525c.337 0 .61.274.61.61v28.97zm77.252-7.715c-.768 2.3-2.597 4.138-5.127 4.152-2.53-.014-4.36-1.85-5.126-4.152-.245-.732-.41-1.63-.41-2.46 0-.83.165-1.726.41-2.46.767-2.3 2.596-4.137 5.126-4.15 2.53.013 4.36 1.85 5.127 4.15.245.734.408 1.63.41 2.46-.002.83-.165 1.728-.41 2.46zm3.358-9.004c-1.987-2.713-5.16-4.15-8.485-4.16-3.325.01-6.498 1.447-8.485 4.16-1.372 1.874-2.018 4.242-2.018 6.545s.646 4.67 2.018 6.545c1.987 2.713 5.16 4.15 8.485 4.16 3.326-.01 6.498-1.447 8.485-4.16 1.372-1.874 2.02-4.242 2.02-6.545s-.648-4.67-2.02-6.545z" fill="#9CACBA" mask="url(#b)"/></g></svg>