<svg width="139" height="20" viewBox="0 0 139 20" version="1.1" xmlns="http://www.w3.org/2000/svg"><title>tmobile</title><g fill="#9CACBA" stroke="none" stroke-width="1" fill-rule="evenodd"><path d="M0 9.313h3.874v3.873H0"/><path d="M11.62 9.313h3.875v3.873H11.62"/><path d="M23.26 9.313h3.874v3.873H23.26"/><path d="M32.486 15.53c0 1.228.18 2.025.54 2.392.305.314.822.507 1.55.58.217.017.584.026 1.106.026v1.077H26.35v-1.077c.75 0 1.302-.036 1.66-.108.722-.152 1.178-.573 1.365-1.264.098-.358.147-.902.147-1.627V1.454c-1.583.045-2.822.57-3.716 1.574-.85.96-1.368 2.432-1.556 4.415l-1.01-.175.19-6.73H38.6l.188 6.73-1.01.175c-.187-1.983-.708-3.455-1.56-4.416-.9-1.006-2.144-1.53-3.734-1.575V15.53z"/><path d="M34.952 9.313h3.874v3.873h-3.874"/><path d="M46.572 9.313h3.874v3.873h-3.874"/><path d="M72.664 19.604h-.847L66.974 2.908v12.04c0 1.203.045 1.978.135 2.328.268.96.9 1.44 1.895 1.44h.363v.888h-5.69v-.89h.443c.422 0 .794-.142 1.118-.428.305-.27.502-.678.592-1.226.063-.41.094-1.116.094-2.112V4.306c0-.636-.027-1.053-.08-1.25-.11-.44-.346-.72-.714-.835-.216-.07-.53-.106-.942-.106h-.51V1.24h5.327l3.93 13.507L76.942 1.24h5.37v.874h-.376c-.692 0-1.176.143-1.454.43-.19.18-.302.43-.337.753-.054.404-.082.916-.082 1.534v11.18c0 .935.05 1.554.15 1.858.197.565.772.847 1.723.847h.376v.89H75.41v-.89h.228c.69 0 1.178-.138 1.465-.417.19-.18.3-.435.337-.766.054-.394.08-.902.08-1.52V2.907l-4.856 16.696z"/><path d="M88.183 7.423c-.63 0-1.19.256-1.684.768-.82.845-1.228 2.493-1.228 4.944 0 2.028.25 3.565.755 4.606.45.916 1.167 1.373 2.156 1.373 1.932 0 2.9-1.966 2.9-5.9 0-1.813-.212-3.19-.635-4.133-.26-.584-.642-1.033-1.145-1.347-.343-.206-.715-.31-1.12-.31m0-.887c1.718 0 3.11.678 4.18 2.033.935 1.184 1.403 2.742 1.403 4.672 0 1.955-.468 3.532-1.403 4.726-1.06 1.355-2.48 2.032-4.26 2.032-1.682 0-3.053-.677-4.113-2.032-.935-1.194-1.4-2.76-1.4-4.7 0-1.948.465-3.514 1.4-4.7 1.07-1.354 2.468-2.032 4.193-2.032"/><path d="M101.254 7.633c-.6 0-1.16.233-1.68.7-.968.885-1.453 2.488-1.453 4.807 0 1.792.23 3.176.688 4.152.24.52.59.932 1.047 1.236.377.25.802.376 1.278.376 1.82 0 2.73-1.938 2.73-5.817 0-1.773-.228-3.143-.686-4.11-.43-.896-1.07-1.344-1.923-1.344zm-2.898 1.09c.233-.533.532-.947.9-1.245.68-.55 1.47-.825 2.368-.825 1.327 0 2.416.47 3.267 1.413 1.105 1.23 1.656 2.885 1.656 4.967 0 1.983-.494 3.643-1.48 4.98-.924 1.247-2.14 1.87-3.647 1.87-.817 0-1.566-.22-2.25-.658-.142-.09-.445-.327-.913-.713-.178-.143-.337-.215-.47-.215-.163 0-.342.144-.538.43-.18.253-.374.545-.58.877h-.916c.088-.26.137-.417.146-.472.082-.367.12-1.115.12-2.246l.002-12.604c0-.995-.113-1.615-.336-1.857-.19-.224-.544-.336-1.063-.336h-.203v-.85l3.936-.187v7.67z"/><path d="M110.29 1.1c.4 0 .746.147 1.033.442.296.296.443.65.443 1.062 0 .412-.143.766-.43 1.062-.296.296-.653.443-1.075.443-.42 0-.773-.148-1.06-.444-.297-.296-.444-.65-.444-1.062 0-.43.152-.788.457-1.075.296-.288.654-.43 1.076-.43zm1.36 5.642v9.78c0 1.014.112 1.646.337 1.897.188.223.542.336 1.063.336h.443v.848h-6.02v-.848h.445c.52 0 .873-.113 1.06-.337.226-.26.338-.893.338-1.898V9.984c0-.995-.112-1.62-.337-1.87-.19-.215-.543-.323-1.062-.323h-.31v-.86l4.042-.188z"/><path d="M118.624 1.048v15.474c0 1.005.112 1.64.337 1.898.198.224.552.336 1.064.336h.443v.848h-6.02v-.848h.445c.52 0 .874-.112 1.062-.336.224-.26.337-.893.337-1.898V4.292c0-.997-.112-1.62-.336-1.87-.188-.226-.543-.338-1.062-.338h-.31v-.847l4.042-.19z"/><path d="M128.868 12.206c0-1.12-.12-2.042-.363-2.768-.44-1.282-1.13-1.922-2.073-1.922-1.058 0-1.806.79-2.245 2.366-.18.636-.275 1.41-.283 2.324h4.964zm2.544.98h-7.536c.01 1.776.194 3.088.553 3.94.5 1.2 1.362 1.8 2.58 1.8.952 0 1.746-.376 2.383-1.13.35-.413.7-.982 1.05-1.71l.82.43c-1.158 2.324-2.72 3.484-4.688 3.484-1.445 0-2.63-.494-3.555-1.48-1.15-1.23-1.725-3.007-1.725-5.333 0-2.136.574-3.846 1.725-5.13.907-1.013 1.998-1.52 3.272-1.52 1.896 0 3.32.953 4.27 2.86.513 1.016.796 2.278.85 3.79z"/><path d="M58.192 9.313h3.874v3.873h-3.874"/><path d="M134.732 9.313h3.874v3.873h-3.874"/></g></svg>