<svg xmlns="http://www.w3.org/2000/svg" xmlns:xlink="http://www.w3.org/1999/xlink" width="118" height="49" viewBox="0 0 118 49"><defs><path id="t6oua" d="M72.825 36.731h1.682v13.532h8.095v3.048H71.118v-14.8c0-.95.756-1.78 1.707-1.78z"/><path id="t6oub" d="M86.673 36.731c1.073 0 1.585.536 1.56 1.585v.951h-3.242v-2.536zm0 3.682c1.049 0 1.56.513 1.56 1.561v11.337h-3.242V40.413z"/><path id="t6ouc" d="M94.329 45.07v8.241h-3.292v-7.583c0-3.68 1.854-5.51 5.535-5.51 1.658 0 2.926.366 3.853 1.097.926-.707 2.194-1.049 3.852-1.049 3.68 0 5.51 1.83 5.486 5.511v7.583h-1.683c-1.072-.073-1.61-.585-1.61-1.609V45.12c-.072-1.34-.803-2-2.242-2-1.44 0-2.17.66-2.194 2v8.192h-3.268v-8.24c-.073-1.342-.804-2-2.243-2-1.438 0-2.17.658-2.194 2z"/><path id="t6oud" d="M118.368 53.604c-3.9-.122-5.851-2.389-5.851-6.778 0-4.388 1.975-6.584 5.9-6.608 4.096 0 6.023 2.512 5.779 7.558h-8.34c.123 1.976.976 2.975 2.56 2.975.757 0 1.464-.316 2.098-.927.293-.316.659-.463 1.097-.463H124c-.707 2.731-2.463 4.243-5.633 4.243zm-2.462-8.144h4.852c-.195-1.706-1-2.584-2.39-2.584-1.39 0-2.218.878-2.462 2.584z"/><path id="t6oue" d="M132.582 53.603c-3.901 0-5.9-2.242-5.998-6.68 0-4.414 1.975-6.633 5.95-6.706 3.12 0 4.973 1.392 5.534 4.196h-3.535c-.39-.878-1.073-1.342-2.097-1.342-1.707 0-2.56 1.293-2.56 3.852 0 2.56.902 3.853 2.706 3.827.756 0 1.415-.315 1.951-.925a1.494 1.494 0 0 1 1.097-.464h2.438c-.585 2.634-2.486 4.317-5.486 4.243z"/><path id="t6ouf" d="M144.09 43.779h-3.243c.39-2.39 2.072-3.562 5.047-3.562 3.56 0 5.364 1.172 5.438 3.562v4.387c0 3.56-2.146 5.146-5.633 5.389-3.096.243-5.242-1.195-5.242-4.048.073-3.095 2.316-3.924 5.583-4.241 1.39-.171 2.097-.586 2.097-1.293-.073-.731-.756-1.097-2.097-1.097-1.146 0-1.779.292-1.95.903zm4.096 4.241v-1.194c-.756.316-1.633.585-2.584.78-1.293.243-1.951.852-1.951 1.804.073 1.025.61 1.512 1.634 1.512 1.804 0 2.901-1.072 2.901-2.901z"/><path id="t6oug" d="M157.597 38.316v14.995h-3.243v-16.58h1.682c.854 0 1.56.731 1.56 1.585z"/><path id="t6ouh" d="M164.13 38.316v14.995h-3.243v-16.58h1.682c.854 0 1.561.731 1.561 1.585z"/><path id="t6oui" d="M51.223 33.17c-.087-.027-.294-.041-.583-.041-.304 0-.617.018-.719.03a.655.655 0 0 0-.449.287.814.814 0 0 0-.099.648c.098.4.432.749.832.869.075.022.247.034.487.034.32 0 .676-.021.791-.037a.645.645 0 0 0 .446-.265.788.788 0 0 0 .123-.61 1.231 1.231 0 0 0-.829-.915z"/><path id="t6ouj" d="M47.003 39.786c.034.42.333.816.742.991.132.056.277.081.46.081.12 0 .246-.01.367-.022a8.62 8.62 0 0 1 .153-.013l1.367-.104c1.017-.078 2.168-.164 2.326-.18.4-.04.683-.41.64-.842-.041-.42-.343-.81-.75-.974a1.152 1.152 0 0 0-.424-.07c-.114 0-.233.011-.348.021l-.164.012c-.101.006-.312.02-.584.035-.968.057-2.98.174-3.172.212-.39.078-.647.435-.613.853z"/><path id="t6ouk" d="M53.085 50.267c-.43.12-.62.562-.584.936.04.434.337.828.737.98.196.076.428.062.672.025l1.286-.193a.803.803 0 0 0 .653-.603c.081-.32.006-.66-.208-.931a1.142 1.142 0 0 0-.885-.442 1.02 1.02 0 0 0-.145.01l-.323.042c-.417.052-1.048.13-1.203.176z"/><path id="t6oul" d="M67.145 49.626c.025-.45-.25-.905-.652-1.083a.75.75 0 0 0-.317-.063c-.103 0-.208.015-.319.032l-.168.022c-.239.033-.738.101-.788.115a.608.608 0 0 0-.372.306.995.995 0 0 0-.053.745c.12.383.475.772.921.776l.003.063v-.063c.148 0 .662-.086.972-.138l.214-.035c.364-.055.544-.379.56-.677z"/><path id="t6oum" d="M66.353 55.65a1.268 1.268 0 0 0-.351-1.104.95.95 0 0 0-.67-.24c-.174 0-.366.033-.567.1a.675.675 0 0 0-.46.52c-.08.374.072.853.356 1.114.287.263.728.305 1.244.13a.673.673 0 0 0 .448-.52z"/><path id="t6oun" d="M57.145 64.193c.07.021.14.03.215.03.139 0 .275-.03.418-.065l.18-.04c.298-.069.994-.225 1.12-.303.403-.249.486-.762.392-1.132-.114-.452-.48-.8-.887-.845a1.017 1.017 0 0 0-.078-.003c-.132 0-.267.031-.4.062-.038.01-.076.02-.114.026-.109.024-.22.043-.335.063-.244.045-.497.09-.72.173-.377.14-.592.484-.576.924.017.444.291.97.784 1.11z"/><path id="t6ouo" d="M53.231 58.455a.96.96 0 0 0 .31.048h.001c.19 0 .389-.043.582-.085a5.57 5.57 0 0 1 .202-.04c.269-.054.538-.102.808-.152a59.107 59.107 0 0 0 1.599-.308c.401-.066.64-.448.67-.793.038-.44-.19-.884-.568-1.106a.917.917 0 0 0-.48-.123c-.17 0-.342.034-.523.07-.054.01-.107.02-.16.028l-2.476.437a.77.77 0 0 0-.115.028c-.375.121-.594.425-.6.836-.007.507.315 1.005.75 1.16z"/><path id="t6oup" d="M61.613 45.418c.158 0 .323-.023.492-.069a.598.598 0 0 0 .456-.456c.084-.357-.086-.852-.378-1.107-.187-.161-.434-.243-.732-.243-.15 0-.312.021-.482.062a.593.593 0 0 0-.465.457c-.086.359.085.86.381 1.115.186.159.432.241.728.241z"/><path id="t6ouq" d="M62.414 50.928c.16 0 .34-.027.536-.081a.645.645 0 0 0 .482-.487c.092-.366-.055-.842-.34-1.108-.185-.174-.432-.261-.731-.261-.166 0-.346.026-.534.08a.644.644 0 0 0-.473.496c-.086.366.072.854.358 1.113.18.165.418.248.702.248z"/><path id="t6our" d="M61.383 39.862a2.1 2.1 0 0 0 .434-.049c.236-.054.385-.19.442-.408.097-.372-.112-.864-.369-1.092-.196-.172-.458-.26-.78-.26-.13 0-.27.015-.412.045-.24.051-.395.188-.452.408-.1.376.111.873.371 1.1.194.17.453.256.766.256z"/><path id="t6ous" d="M58.066 34.77h.025c.465 0 3.833-.163 3.85-.164a.534.534 0 0 0 .38-.22.76.76 0 0 0 .104-.594c-.094-.437-.46-.809-.867-.884a1.79 1.79 0 0 0-.144-.003c-.737 0-3.64.07-3.883.113a.557.557 0 0 0-.397.262.842.842 0 0 0-.062.675c.143.451.571.8.994.815z"/><path id="t6out" d="M55.105 40.398l.873 3.391c.015.062.002.083.065.077l3.005-.299c-.2-.763-.777-2.998-.876-3.35-.01-.037-.047-.048-.087-.047-.16.007-2.147.165-2.98.228z"/><path id="t6ouu" d="M58.002 51.657c.192.746.922 3.676.952 3.696.032.022 2.108-.37 3.033-.533l-.903-3.459c-.005-.015-.036-.164-.048-.162l-.312.046-2.722.412z"/><path id="t6ouv" d="M59.495 57.46c.191.746.791 3.069.897 3.485.008.033.025.186.054.205.031.021.216-.046.25-.054.926-.198 1.851-.398 2.776-.597l-.903-3.453c-.003-.013-.036-.163-.047-.161l-.306.058-2.72.517z"/><path id="t6ouw" d="M56.519 45.892l.952 3.7c.001.006 2.107-.288 3.042-.416-.196-.751-.939-3.626-.952-3.626l-3.042.342z"/><path id="t6oux" d="M67.37 27.578c-.16.022-.332.002-.493.002l-1.236-.004-3.141-.01a181.05 181.05 0 0 0-1.043-.002l-.204-.002c-.296-.001-.608-.318-.535-.62.066-.275.394-.22.608-.218l1.139.01 3.148.026 1.15.01c.325.003.645-.016.799.355.072.176.032.42-.191.453zM52.486 24.09c-.92.097-1.323.983-1.11 1.807l1.778 6.91c.043.17.018.17.199.164l2.9-.101-.618-2.364c-.071-.28-.328-.923.18-.941.067-.002 17.686-.143 17.77-.144.285-.003.43.268.499.5.186.629.734 2.453.839 2.807l1.65-.17c-.007-.02-1.775-5.742-1.946-6.307-.258-.86-1.01-1.625-1.948-1.65l-19.487-.506c-.231-.006-.475-.028-.706-.005z"/><path id="t6ouy" d="M53.695 34.92l.877 3.403c.015.056.002.094.061.089l3.016-.191-.88-3.373c-.018-.066-.006-.072-.074-.07-.15.009-2.15.102-3 .142z"/><path id="t6ouz" d="M75.818 67.975c-.922.438-1.82-.392-2.126-1.202-.307-.808-.217-2.008.661-2.439.901-.44 1.798.344 2.12 1.135.335.824.261 2.076-.655 2.507zm5.977-12.078c.387 1.31.643 2.258 1.152 3.98.096.321.245.776-.194.885l-1.15.288c-1.688.42-14.31 3.572-15.804 3.944-.242.06-.615.153-.864.04-.358-.169-.46-.7-.55-1.035-.114-.442-.23-.881-.346-1.324-.01-.043 0-.073-.046-.062-.088.019-2.432.558-2.995.689l1.826 7.096c.183.714.45 1.628.871 2.03.467.447 1.111.652 1.747.459.09-.026 19.756-5.981 19.874-6.018.336-.102.595-.324.752-.641.338-.678.155-1.38-.048-2.055l-2.57-8.56c-.008-.03-1.514.26-1.655.284z"/><path id="t6ouA" d="M63.695 72.428c-.42-.402-.687-1.316-.87-2.03-.105-.401-.396-1.535-.723-2.805l-12.306.44 14.46 4.772a2.007 2.007 0 0 1-.56-.377z"/></defs><g><g transform="translate(-47 -24)"><use fill="#283238" xlink:href="#t6oua"/></g><g transform="translate(-47 -24)"><use fill="#283238" xlink:href="#t6oub"/></g><g transform="translate(-47 -24)"><use fill="#283238" xlink:href="#t6ouc"/></g><g transform="translate(-47 -24)"><use fill="#283238" xlink:href="#t6oud"/></g><g transform="translate(-47 -24)"><use fill="#283238" xlink:href="#t6oue"/></g><g transform="translate(-47 -24)"><use fill="#283238" xlink:href="#t6ouf"/></g><g transform="translate(-47 -24)"><use fill="#283238" xlink:href="#t6oug"/></g><g transform="translate(-47 -24)"><use fill="#283238" xlink:href="#t6ouh"/></g><g transform="translate(-47 -24)"><use fill="#337d3e" xlink:href="#t6oui"/></g><g transform="translate(-47 -24)"><use fill="#337d3e" xlink:href="#t6ouj"/></g><g transform="translate(-47 -24)"><use fill="#337d3e" xlink:href="#t6ouk"/></g><g transform="translate(-47 -24)"><use fill="#9bbd37" xlink:href="#t6oul"/></g><g transform="translate(-47 -24)"><use fill="#9bbd37" xlink:href="#t6oum"/></g><g transform="translate(-47 -24)"><use fill="#337d3e" xlink:href="#t6oun"/></g><g transform="translate(-47 -24)"><use fill="#337d3e" xlink:href="#t6ouo"/></g><g transform="translate(-47 -24)"><use fill="#9bbd37" xlink:href="#t6oup"/></g><g transform="translate(-47 -24)"><use fill="#9bbd37" xlink:href="#t6ouq"/></g><g transform="translate(-47 -24)"><use fill="#9bbd37" xlink:href="#t6our"/></g><g transform="translate(-47 -24)"><use fill="#9bbd37" xlink:href="#t6ous"/></g><g transform="translate(-47 -24)"><use fill="#337d3e" xlink:href="#t6out"/></g><g transform="translate(-47 -24)"><use fill="#337d3e" xlink:href="#t6ouu"/></g><g transform="translate(-47 -24)"><use fill="#9bbd37" xlink:href="#t6ouv"/></g><g transform="translate(-47 -24)"><use fill="#9bbd37" xlink:href="#t6ouw"/></g><g transform="translate(-47 -24)"><use fill="#9bbd37" xlink:href="#t6oux"/></g><g transform="translate(-47 -24)"><use fill="#9bbd37" xlink:href="#t6ouy"/></g><g transform="translate(-47 -24)"><use fill="#337d3e" xlink:href="#t6ouz"/></g><g transform="translate(-47 -24)"><g><use fill="#bab9b9" xlink:href="#t6ouA"/></g></g></g></svg>