<svg xmlns="http://www.w3.org/2000/svg" xmlns:xlink="http://www.w3.org/1999/xlink" width="128" height="58" viewBox="0 0 128 58"><defs><path id="o1y3a" d="M972.838 8524.33c.395.07.792.12 1.19.148.38.029.76.046 1.142.048.399-.002.796-.018 1.193-.048.399-.028.796-.077 1.19-.146v-24.94h-7.876c-.064.26-.113.56-.146.899-.064.663-.064 1.33 0 1.994.033.34.082.64.146.899h3.16zm15.119-14.874c.227-2.14.866-3.808 1.92-5.007 1.054-1.2 2.569-1.8 4.546-1.8 1.005 0 1.872.187 2.6.559a5.22 5.22 0 0 1 1.8 1.483 6.625 6.625 0 0 1 1.07 2.163c.242.827.364 1.694.364 2.602zm-.05 3.596h16.967c.038-.43.07-.858.098-1.288.032-.502.049-.98.049-1.434 0-1.653-.228-3.184-.681-4.594-.454-1.41-1.118-2.625-1.993-3.647-.876-1.02-1.962-1.823-3.258-2.406-1.297-.583-2.804-.875-4.521-.875-2.01 0-3.752.349-5.227 1.046-1.475.696-2.697 1.636-3.671 2.819-.971 1.184-1.693 2.577-2.163 4.18-.47 1.605-.704 3.332-.704 5.179 0 1.88.243 3.606.729 5.177.486 1.573 1.256 2.934 2.309 4.084 1.054 1.15 2.39 2.04 4.012 2.674 1.619.632 3.564.948 5.834.948 1.554 0 2.972-.113 4.254-.34 1.279-.227 2.455-.566 3.524-1.021a11.607 11.607 0 0 0-.292-2.065c-.162-.698-.373-1.29-.632-1.775a17.876 17.876 0 0 1-6.562 1.216c-2.625 0-4.612-.633-5.955-1.897-1.346-1.263-2.05-3.257-2.116-5.98zm22.414-13.66v24.94c.412.067.826.116 1.24.146.397.03.795.046 1.192.048.357 0 .754-.016 1.19-.048a11.39 11.39 0 0 0 1.192-.147v-12.397c0-1.685.186-3.063.56-4.132.372-1.07.875-1.913 1.505-2.53a5.248 5.248 0 0 1 2.14-1.287 8.542 8.542 0 0 1 2.503-.365h.657c.27 0 .54.033.803.098.066-.404.123-.81.17-1.216a10.72 10.72 0 0 0 .024-2.235 8.025 8.025 0 0 0-.146-.925 7.583 7.583 0 0 0-.705-.072 13.878 13.878 0 0 0-.802-.025c-1.75 0-3.184.406-4.303 1.216-1.117.81-2.016 1.767-2.697 2.868 0-.55-.05-1.222-.147-2.017a26.391 26.391 0 0 0-.291-1.92 8.225 8.225 0 0 0-.971-.146 12.007 12.007 0 0 0-1.071-.048c-.356 0-.697.016-1.02.048-.342.036-.683.084-1.022.146zm-34.12-13.317a4.83 4.83 0 0 1-.31 1.703 4.84 4.84 0 0 1-1.703.31h-.007a4.838 4.838 0 0 1-1.704-.31 4.818 4.818 0 0 1-.311-1.703v-.008c0-.6.11-1.174.309-1.704a4.846 4.846 0 0 1 1.705-.311h.007c.599 0 1.174.11 1.704.31.205.546.31 1.123.309 1.705v.008zm5.942-1.35h-4.711l3.33-3.33a8.123 8.123 0 0 0-1.902-1.902l-3.331 3.33v-4.71a8.026 8.026 0 0 0-1.34-.113h-.01c-.456 0-.903.039-1.34.113v4.71l-3.332-3.33c-.366.26-.711.552-1.03.87l-.001.003c-.318.318-.61.662-.87 1.029l3.332 3.33h-4.712s-.113.886-.113 1.343v.006c0 .457.04.905.113 1.34h4.712l-3.332 3.332a8.123 8.123 0 0 0 1.902 1.903l3.33-3.331v4.71c.437.074.884.113 1.34.113h.012a8.13 8.13 0 0 0 1.339-.112v-4.711l3.332 3.33c.367-.26.71-.552 1.03-.87.318-.32.609-.663.87-1.031l-3.33-3.331h4.712c.073-.436.11-.883.11-1.34v-.011a8.11 8.11 0 0 0-.11-1.34zm-85.39 38.928h.001v-.001zm.001 0l.243.679h19.448c.096-.583.145-1.198.145-1.847 0-.681-.05-1.344-.146-1.992h-12.397l13.224-20.468-.243-.633H898.31a11.577 11.577 0 0 0-.146 1.896c0 .713.048 1.362.145 1.945h11.57zm37.872-11.037v7.924a13.68 13.68 0 0 1-2.115.365c-.794.08-1.564.122-2.31.122-.583 0-1.2-.032-1.846-.097a4.641 4.641 0 0 1-1.775-.535 3.686 3.686 0 0 1-1.337-1.265c-.356-.551-.534-1.312-.534-2.284 0-1.523.526-2.657 1.58-3.403 1.053-.745 2.584-1.118 4.594-1.118.518 0 1.149.033 1.896.096.745.067 1.36.13 1.846.195zm-.001-3.791a24.004 24.004 0 0 0-1.678-.17 35.887 35.887 0 0 0-2.551-.074c-1.395 0-2.723.17-3.987.51-1.264.34-2.382.86-3.354 1.556a7.66 7.66 0 0 0-2.31 2.625c-.567 1.054-.851 2.278-.851 3.67 0 1.428.243 2.642.729 3.647a6.546 6.546 0 0 0 2.067 2.48c.89.648 1.977 1.117 3.257 1.41 1.28.292 2.715.437 4.303.437a29.517 29.517 0 0 0 4.958-.414 77.403 77.403 0 0 0 4.133-.801v-15.607c0-3.24-.844-5.598-2.528-7.074-1.686-1.475-4.15-2.212-7.39-2.212-1.231 0-2.512.098-3.841.292-1.33.194-2.545.47-3.645.826 0 1.49.306 2.77.923 3.84a24.196 24.196 0 0 1 2.893-.703 17.865 17.865 0 0 1 3.185-.27c1.847 0 3.257.374 4.229 1.119.973.747 1.458 2.076 1.458 3.989zm14.779 1.312c0-1.232.178-2.293.536-3.184.356-.892.826-1.63 1.409-2.212a5.771 5.771 0 0 1 1.994-1.314 6.333 6.333 0 0 1 2.333-.437c2.17 0 3.734.76 4.69 2.285.957 1.523 1.436 3.582 1.436 6.174 0 1.622-.203 3.023-.608 4.205-.406 1.184-.956 2.164-1.653 2.94a6.375 6.375 0 0 1-2.504 1.728c-.972.373-2.042.558-3.208.558-1.038 0-1.88-.05-2.528-.145a9.51 9.51 0 0 1-1.897-.488zm-4.813-10.745v36.414c.394.069.79.118 1.19.147.397.03.794.045 1.192.047.356 0 .754-.016 1.19-.047.416-.031.829-.08 1.24-.147v-11.425c.55.16 1.2.29 1.945.389.746.098 1.474.145 2.188.145 4.245 0 7.527-1.206 9.844-3.621 2.317-2.414 3.477-5.761 3.477-10.04 0-2.138-.251-3.993-.753-5.566-.503-1.572-1.2-2.868-2.091-3.89a8.137 8.137 0 0 0-3.207-2.261c-1.25-.486-2.603-.73-4.061-.73-.972 0-1.855.115-2.65.342a8.497 8.497 0 0 0-2.138.925 7.727 7.727 0 0 0-1.63 1.31 9.872 9.872 0 0 0-1.166 1.509c0-.098-.024-.324-.073-.682a77.08 77.08 0 0 1-.145-1.118 75.7 75.7 0 0 0-.146-1.094c-.05-.34-.09-.542-.122-.607a10.38 10.38 0 0 0-2.041-.194c-.35 0-.698.015-1.046.047-.335.033-.667.082-.996.146z"/></defs><g><g transform="translate(-896 -8478)"><g><use fill="#ff4a00" xlink:href="#o1y3a"/></g></g></g></svg>