<svg xmlns="http://www.w3.org/2000/svg" xmlns:xlink="http://www.w3.org/1999/xlink" width="145" height="42" viewBox="0 0 145 42"><defs><path id="twota" d="M198.047 8497.83h5.05v11.222h10.653v-11.222h5.057v27.545h-5.057v-11.457h-10.652v11.457h-5.051zm36.76 18.574v-11.86h4.788v11.86c0 4.947-4.025 8.97-8.972 8.97-4.947 0-8.973-4.023-8.973-8.97v-11.86h4.79v11.86a4.187 4.187 0 0 0 4.183 4.18 4.188 4.188 0 0 0 4.184-4.18zm18.16-11.72c5.364 0 9.978 4.482 9.978 10.346 0 5.938-5.003 10.345-10.713 10.345-5.135 0-9.707-4.33-9.707-10.653v-16.892h4.806v9.115c1.6-1.572 3.26-2.261 5.636-2.261zm.119 16.245c2.759 0 5.25-2.72 5.25-5.9 0-3.181-2.491-5.901-5.25-5.901-3.256 0-5.746 2.72-5.746 5.902 0 3.18 2.49 5.899 5.746 5.899zm17.93-15.035c0 4.483 11.457 1.264 11.457 11.609 0 4.79-3.986 7.856-8.928 7.856-3.296 0-6.054-1.38-8.277-4.101l3.487-3.601c1.302 1.457 2.222 2.835 5.059 2.835 1.8 0 3.37-1.418 3.37-3.026 0-5.213-11.457-2.262-11.457-11.572 0-5.02 3.755-8.047 8.967-8.047 2.605 0 5.785 1.456 7.355 3.563l-3.141 3.678c-1.225-1.303-3.102-2.376-4.521-2.376-1.762 0-3.371.767-3.371 3.182zm24.107-1.481c5.708 0 10.712 4.407 10.712 10.346 0 5.862-4.613 10.345-9.978 10.345-2.377 0-4.034-.691-5.636-2.262V8532h-4.806v-16.935c0-6.324 4.573-10.652 9.708-10.652zm.854 16.247c2.758 0 5.25-2.723 5.25-5.901 0-3.182-2.492-5.901-5.25-5.901-3.256 0-5.747 2.719-5.747 5.9 0 3.179 2.49 5.902 5.747 5.902zm45.229.269c.538 0 1.15-.038 1.687-.075l-1.188 4.368c-.46.113-1.304.153-1.917.153-4.098 0-7.086-2.184-7.086-6.514v-16.937l4.865-2.183v5.556h4.406v4.214h-4.406v8.314c0 1.878.805 3.104 3.639 3.104z"/><path id="twotb" d="M328.533 8509.756c-.92-1.585-2.217-2.855-3.837-3.812a10.311 10.311 0 0 0-3.88-1.344v-5.036c1.414-.601 2.292-1.93 2.292-3.481a3.81 3.81 0 0 0-3.807-3.827 3.837 3.837 0 0 0-3.839 3.827c0 1.55.827 2.88 2.241 3.48v5.039a11.105 11.105 0 0 0-3.377 1.059c-2.188-1.663-9.366-7.117-13.564-10.302.1-.36.176-.73.176-1.12a4.239 4.239 0 1 0-4.237 4.24c.8 0 1.538-.233 2.176-.617l.886.672 12.176 8.772a10.222 10.222 0 0 0-1.723 2.018c-.972 1.538-1.566 3.229-1.566 5.075v.385c0 1.296.246 2.518.666 3.668a9.598 9.598 0 0 0 1.577 2.739l-4.04 4.05a3.254 3.254 0 0 0-3.443.756 3.254 3.254 0 0 0-.958 2.317c0 .875.341 1.697.96 2.316a3.25 3.25 0 0 0 2.316.96 3.258 3.258 0 0 0 2.318-.96 3.257 3.257 0 0 0 .96-2.316c0-.34-.054-.67-.152-.983l4.177-4.177c.572.395 1.191.728 1.856 1.015 1.311.567 2.76.912 4.343.912h.29c1.751 0 3.403-.411 4.956-1.252a10.252 10.252 0 0 0 3.885-3.658c.972-1.556 1.508-3.276 1.508-5.17v-.092c0-1.862-.43-3.58-1.336-5.153zm-5.103 8.763c-1.134 1.26-2.437 2.036-3.91 2.036h-.243c-.84 0-1.664-.232-2.47-.655-.908-.466-1.599-1.13-2.164-1.972-.584-.825-.9-1.726-.9-2.682v-.29c0-.94.18-1.831.634-2.672a5.788 5.788 0 0 1 2.015-2.204 4.924 4.924 0 0 1 2.79-.841h.095c.924 0 1.8.18 2.625.604a5.562 5.562 0 0 1 2.061 1.875 5.97 5.97 0 0 1 .924 2.635c.016.197.023.4.023.594 0 1.29-.493 2.487-1.48 3.572z"/></defs><g><g transform="translate(-198 -8490)"><g><use fill="#45535e" xlink:href="#twota"/></g><g><use fill="#f6761f" xlink:href="#twotb"/></g></g></g></svg>