<svg width="144" height="36" viewBox="0 0 144 36" version="1.1" xmlns="http://www.w3.org/2000/svg"><title>rtl_netherlands</title><g stroke="none" stroke-width="1" fill="none" fill-rule="evenodd"><path fill="#9CACBA" d="M143.574 36H35.894V.107h107.68"/><path fill="#BAC8D3" d="M35.895 36H0V.107h35.895"/><path d="M20.21 16.564c-.448-.396-.994-.68-1.622-.68-1.093 0-1.803.457-1.803 2.3v5.76H13.99V13.313h2.795v.705c.487-.507 1.197-.94 2.188-.94.913 0 1.6.37 1.967.754l-.73 2.734z" fill="#FFF"/><path d="M29.368 23.512c-.465.37-1.296.655-2.17.655-1.72 0-2.836-1.335-2.836-3.2v-5.02h-1.78V13.31h1.78v-2.745L27.16 9.17v4.142h2.552v2.634H27.16v4.266c0 1.014.363 1.273 1.033 1.273.507 0 .89-.222 1.58-.803l-.405 2.83z" fill="#FFF"/><path fill="#FFF" d="M33.095 23.945V10.567l2.797-1.398v14.775"/><path d="M45.738 23.945v-5.76c0-1.905-.648-2.462-1.805-2.462-1.153 0-1.823.557-1.823 2.4v5.822h-2.795V13.312h2.795v.705c.487-.507 1.377-.94 2.493-.94 2.715 0 3.93 1.867 3.93 4.872v5.995h-2.795z" fill="#FFF"/><path d="M55.4 15.513c-1.01 0-1.64.828-1.74 1.904h3.644c-.08-.952-.648-1.904-1.904-1.904m4.58 4.02h-6.363c.1 1.458 1.177 2.002 2.19 2.002.768 0 1.416-.284 1.82-.754l1.987 1.67c-.85 1.087-2.39 1.718-3.808 1.718-3.06 0-5.004-2.176-5.004-5.54 0-3.25 2.046-5.55 4.74-5.55 2.838 0 4.478 2.522 4.478 5.55 0 .41-.02.694-.04.904" fill="#FFF"/><path d="M68.285 16.626c-.425-.58-1.073-.903-1.882-.903-1.076 0-1.662.928-1.662 2.708 0 2.19.73 3.105 1.824 3.105.87 0 1.318-.37 1.72-.89v-4.02zm0 7.32v-.668c-.527.457-1.234.89-2.248.89-2.27 0-4.133-1.707-4.133-5.675 0-3.178 1.5-5.416 4.133-5.416.932 0 1.74.37 2.248.84v-3.35l2.797-1.397v14.775h-2.797z" fill="#FFF"/><path d="M78.09 15.513c-1.01 0-1.64.828-1.74 1.904h3.645c-.08-.952-.648-1.904-1.904-1.904m4.58 4.02H76.31c.1 1.458 1.175 2.002 2.19 2.002.768 0 1.418-.284 1.82-.754l1.987 1.67c-.85 1.087-2.39 1.718-3.808 1.718-3.06 0-5.003-2.176-5.003-5.54 0-3.25 2.045-5.55 4.74-5.55 2.835 0 4.477 2.522 4.477 5.55 0 .41-.02.694-.04.904" fill="#FFF"/><path d="M91.362 16.564c-.445-.396-.994-.68-1.62-.68-1.096 0-1.803.457-1.803 2.3v5.76h-2.8V13.313h2.8v.705c.484-.507 1.194-.94 2.186-.94.91 0 1.6.37 1.965.754l-.728 2.734z" fill="#FFF"/><path fill="#FFF" d="M94.117 23.945V10.567l2.795-1.398v14.775"/><path d="M105.787 19.482c-.487-.297-.952-.445-1.946-.445-1.053 0-1.62.495-1.62 1.335 0 .755.426 1.422 1.62 1.422.913 0 1.643-.47 1.947-.977v-1.335zm0 4.463v-.717c-.507.53-1.4.94-2.39.94-1.987 0-3.973-1.225-3.973-3.796 0-2.35 1.904-3.524 4.315-3.524.97 0 1.6.21 2.047.433v-.53c0-.755-.507-1.36-1.52-1.36-1.277 0-1.945.185-2.917.716l-1.076-1.954c1.237-.704 2.27-1.075 3.992-1.075 2.574 0 4.316 1.348 4.316 3.734v7.135h-2.795z" fill="#FFF"/><path d="M117.82 23.945v-5.76c0-1.905-.65-2.462-1.802-2.462-1.155 0-1.825.557-1.825 2.4v5.822h-2.795V13.312h2.795v.705c.487-.507 1.377-.94 2.493-.94 2.715 0 3.93 1.867 3.93 4.872v5.995h-2.795z" fill="#FFF"/><path d="M129.267 16.626c-.425-.58-1.073-.903-1.885-.903-1.073 0-1.66.928-1.66 2.708 0 2.19.728 3.105 1.824 3.105.87 0 1.315-.37 1.72-.89v-4.02zm0 7.32v-.668c-.527.457-1.234.89-2.248.89-2.27 0-4.134-1.707-4.134-5.675 0-3.178 1.5-5.416 4.133-5.416.93 0 1.74.37 2.247.84v-3.35l2.797-1.397v14.775h-2.797z" fill="#FFF"/></g></svg>