<svg width="200" height="178" xmlns="http://www.w3.org/2000/svg"><path d="M112.296 175.16c-.89-1.66-1.24-11.71-.998-28.604.204-14.323.185-26.042-.042-26.04-.8 0-16.222 12.1-26.917 21.113-5.944 5.01-15.558 14.07-21.365 20.135-11.228 11.728-14.07 12.92-17.7 7.426-1.75-2.646-1.468-3.22 4.938-10.03 8.45-8.98 25.772-23.645 44.936-38.04 14.7-11.042 20.63-17.24 14.404-15.06-1.633.572-5.235 1.055-8.004 1.074-7.096.048-8.676-3.262-7.716-16.168.89-11.94 2.175-15.607 7.358-20.98 6.978-7.236 13.454-4.098 7.516 3.64-3.156 4.115-4.082 6.954-4.714 14.45-.66 7.84.59 10.378 4.168 8.463 2.953-1.58 3.87-5.386 4.92-20.387.8-11.455 2.61-15.384 7.088-15.384 1.312 0 2.685.78 3.052 1.737.367.957.205 10.11-.36 20.34s-.7 18.6-.297 18.6c.402 0 4.694-2.49 9.537-5.535 4.843-3.044 15.235-9.142 23.094-13.55 11.37-6.38 14-8.365 12.876-9.718-.954-1.15-1.13-5.41-.54-13.144.965-12.66-.062-14.213-5.54-8.382-2.334 2.484-3.01 5.014-3.585 13.413-.515 7.5-1.385 11.21-3.16 13.465-2.543 3.235-6.58 4.112-8.04 1.748-.465-.75-.43-7.71.077-15.465.81-12.397 1.28-14.458 3.888-17.067a10.08 10.08 0 0 1 7.17-2.967c2.733 0 4.72-.834 5.692-2.388.82-1.314 3.268-3.008 5.44-3.765 3.36-1.17 4.32-1.004 6.44 1.117 2.144 2.143 2.495 4.27 2.495 15.13 0 6.95.55 12.978 1.222 13.394.673.417 3.962-.616 7.31-2.295 3.347-1.68 7.172-2.882 8.5-2.673 2.36.37 4.52 2.648 4.558 4.806.046 2.54-7.87 8-14.766 10.184-4.103 1.3-12.895 5.26-19.537 8.797a4818.32 4818.32 0 0 1-15.255 8.1c-1.748.916-8.9 5.26-15.89 9.65l-12.712 7.98-.18 22.87c-.097 12.576.434 26.403 1.182 30.725 1.07 6.177 1.006 8.285-.295 9.852-2.4 2.89-8.583 2.55-10.25-.567zM27.89 158.848c-.9-1.46-5.243-26.168-8.377-47.677-3.295-22.61-3.993-23.84-7.523-13.23-1.52 4.563-3.8 9.235-5.066 10.382-2.42 2.19-5.862 1.67-6.904-1.047-.497-1.295 8.33-29.084 12.552-39.515 1.867-4.613 5.475-5.727 8.56-2.642.994.994 2.485 6.286 3.314 11.76.828 5.472 2.422 14.24 3.542 19.485 2.17 10.16 2.465 12.086 2.934 19.068l.298 4.45 1.002-5.085c.552-2.796 1.96-10.52 3.13-17.16 2.802-15.902 10.093-44.374 14.186-55.4a4109 4109 0 0 0 7.645-20.848C62.69 6.24 65.18 1.974 69.37.5c2.493-.876 4.155-.63 6.607.976 4.887 3.202 4.33 8.163-1.737 15.506-5.5 6.654-13.427 24.687-17.854 40.61-1.555 5.592-3.896 13.03-5.203 16.525-2.484 6.645-4.605 15.378-5.573 22.94-.314 2.453-.84 4.895-1.17 5.428-.33.532-.914 4.378-1.3 8.546-.385 4.17-1.01 9.01-1.386 10.757-.376 1.748-1.56 9.757-2.628 17.797-2.366 17.795-3.297 20.34-7.44 20.34-1.722 0-3.43-.485-3.796-1.076zm24.225-32.936c-1.203-1.947 1.29-30.29 2.936-33.363 3.233-6.037 8.284-7.015 9.28-1.798.906 4.73-2.5 32.232-4.25 34.342-1.564 1.883-6.964 2.438-7.965.818zm18.796-10.61c-1.445-2.34.765-29.506 2.64-32.43 1.48-2.31 11.892-6.85 15.71-6.85.695 0 1.646 1.205 2.113 2.677.643 2.024-.297 3.85-3.866 7.503-4.477 4.585-4.756 5.37-5.55 15.586-.467 5.993-1.6 11.677-2.56 12.835-1.96 2.362-7.187 2.78-8.486.676zm59.3-27.07c-.78-.94-1.157-3.643-.84-6.006.32-2.363.957-8.812 1.417-14.33.693-8.295 1.377-10.575 3.944-13.142 2.588-2.588 3.432-2.836 5.057-1.487 1.317 1.093 1.726 2.883 1.257 5.513-.38 2.143-.792 8.472-.912 14.065-.263 12.264-.486 12.95-4.97 15.268-2.95 1.526-3.766 1.546-4.95.118zM59.453 75.47c-2.178-1.592-2.186-1.86-.15-4.97 3.056-4.662 6.577-6.343 8.483-4.047 2.002 2.413.635 6.336-3.05 8.75-2.5 1.638-3.35 1.68-5.283.268zm75.735-34.378c0-3.58 5.218-7.73 8.253-6.565 4.637 1.78.15 9.713-5.493 9.713-2.09 0-2.76-.765-2.76-3.15z" fill="#A6B5C1"/></svg>