<svg width="144" height="37" viewBox="0 0 144 37" version="1.1" xmlns="http://www.w3.org/2000/svg"><title>abn</title><g stroke="none" stroke-width="1" fill="none" fill-rule="evenodd"><path fill="#9CACBA" d="M74.697 14.04V3.56h2.818v14.835h-3.99L69.3 7.348l.003 11.047h-2.845L66.47 3.56h4.077"/><path fill="#9CACBA" d="M106.01 3.56l2.482 10.37 2.49-10.37h4.83v14.835h-2.987V6.708l-3.004 11.687h-2.838l-2.91-11.63v11.63h-2.97V3.56h4.907"/><path d="M123.106 5.77v4.236s2.01.283 2.73-.635c.463-.75.43-1.988.15-2.817-.52-1.027-1.89-.77-2.88-.783m3.144-2.187c1.188.115 2.258.825 2.7 1.93.518 1.384.524 3.44-.46 4.63-.513.516-1.2.845-2.044.982.204.04.446.132.742.186.9.16 1.435.637 1.747 1.325.558 1.422.17 3.243.45 4.786l.19.975h-3.034c-.52-1.62.13-3.872-.572-5.354-.473-.882-1.817-.81-2.862-.78v6.135h-2.96l-.013-14.836s4.93-.09 6.117.023" fill="#9CACBA"/><path d="M42.478 6.24l-1.492 6.618h-.01 3.002l-1.43-6.285-.07-.332m2.13-2.68l4.06 14.835H45.53l-.887-3.264H40.36l-.898 3.265h-2.986L40.558 3.56h4.05" fill="#9CACBA"/><path fill="#9CACBA" d="M13.67 36.614L0 22.944V.197h27.14v22.73L13.67 9.377"/><path d="M55.182 11.843v4.338c1.206-.07 2.433.268 3.34-.407.75-.676.73-2.015.425-2.89-.637-1.343-2.492-.98-3.765-1.04zm2.132-2.254c1.054-.023 1.423-.663 1.58-1.218.153-.75.082-1.59-.543-2.192l-.297-.217c-.427-.304-1.883-.23-2.87-.212-.003 1.227.027 2.573 0 3.84h2.13zm2.22-5.847c.874.15 1.878 1.02 2.158 2.05.32 1.264.326 2.826-.62 3.918-.432.477-1.026.718-1.62.956.464.147.913.314 1.35.55 1.4.855 1.474 2.803 1.24 4.386-.217 1.227-1.33 2.367-2.478 2.64-.454.106-1.036.153-1.58.153h-5.87V3.56c2.246-.005 5.776-.1 7.42.183z" fill="#9CACBA"/><path fill="#BAC8D3" d="M82.316 11.706l1.923-1.922-1.907-1.908L80.41 9.8l1.906 1.906"/><path d="M91.61 6.243l-1.49 6.615h-.01 3.003L91.68 6.573l-.07-.33m2.132-2.684l4.06 14.835h-3.137l-.886-3.264h-4.285l-.898 3.265H85.61L89.69 3.56h4.052" fill="#9CACBA"/><path d="M140.344 8.38c-.114-2.91-1.485-2.842-2.054-2.842-.618 0-1.685.322-1.792 2.77v5.216c.17 2.57.803 3.067 1.94 3.067 1.187 0 1.894-.545 1.906-3.264V8.38m2.372-2.915c.996 2.25.765 5.1.78 7.633.005 1.172-.266 3.64-1.725 4.714-1.027.716-2.25.942-3.596.922-1.78-.027-3.554-.665-4.282-2.438-.74-1.906-.576-4.626-.58-7 0-1.726.225-3.92 1.804-5.11 1.617-1.035 4.23-1.004 5.97-.26.628.266 1.32.882 1.63 1.54" fill="#9CACBA"/><path fill="#BAC8D3" d="M13.67 36.62V9.37l13.47 13.55-13.47 13.7"/></g></svg>