<?xml version="1.0" encoding="UTF-8"?>
<svg width="170px" height="30px" viewBox="0 0 170 30" version="1.1" xmlns="http://www.w3.org/2000/svg" xmlns:xlink="http://www.w3.org/1999/xlink">
    <!-- Generator: Sketch 62 (91390) - https://sketch.com -->
    <title>SVG Layer</title>
    <desc>Created with Sketch.</desc>
    <g id="Page-1" stroke="none" stroke-width="1" fill="none" fill-rule="evenodd">
        <g id="SVG-Layer" fill="#332E5E" fill-rule="nonzero">
            <path d="M21.9401709,27.4736842 C24.991453,27.1578947 28.042735,26.0526316 28.042735,22.5789474 L28.042735,11.3684211 L26.5897436,9.78947368 L24.991453,11.3684211 L24.991453,19.7368421 L26.2991453,21 L23.3931624,23.8421053 L23.2478632,23.8421053 L20.3418803,21.1578947 L21.0683761,20.3684211 L21.0683761,3.31578947 C21.0683761,2.05263158 20.0512821,1.42105263 19.4700855,1.26315789 L19.4700855,0.947368421 C19.7606838,0.789473684 20.1965812,0.631578947 20.7777778,0.631578947 C21.7948718,0.631578947 22.6666667,1.26315789 22.957265,2.05263158 L23.1025641,2.05263158 C23.6837607,1.10526316 24.7008547,0.631578947 25.5726496,0.631578947 C25.8632479,0.631578947 26.1538462,0.631578947 26.4444444,0.789473684 L26.4444444,1.10526316 C26.008547,1.26315789 25.1367521,1.89473684 25.1367521,3.63157895 L25.1367521,10.7368421 L29.0598291,6.78947368 L29.3504274,6.78947368 C29.6410256,7.10526316 31.2393162,8.68421053 31.6752137,9 C31.8205128,9.15789474 31.965812,9.15789474 32.2564103,9.15789474 C32.5470085,9.15789474 32.8376068,9 33.1282051,8.84210526 L33.1282051,9.31578947 C32.8376068,9.63157895 32.4017094,10.1052632 32.4017094,10.8947368 L32.4017094,20.5263158 C32.4017094,24.7894737 28.042735,27.4736842 22.2307692,27.9473684 L22.2307692,27.4736842 L21.9401709,27.4736842 Z M20.4871795,1.10526316 C21.0683761,1.57894737 21.6495726,2.05263158 21.6495726,3.15789474 L21.6495726,20.6842105 L21.0683761,21.3157895 L23.5384615,23.5263158 L24.2649573,22.8947368 L22.3760684,21.1578947 L22.6666667,20.8421053 L22.6666667,3.31578947 C22.5213675,1.89473684 21.3589744,1.26315789 20.4871795,1.10526316 M27.3162393,26.3684211 C28.4786325,25.5789474 29.6410256,24.6315789 29.6410256,22.7368421 L29.6410256,10.7368421 L27.8974359,8.68421053 L27.025641,9.47368421 L28.4786325,11.2105263 L28.4786325,22.5789474 C28.6239316,24.1578947 28.042735,25.4210526 27.3162393,26.3684211 Z M34.5811966,10.7368421 C36.3247863,9.78947368 38.7948718,8.21052632 40.5384615,6.78947368 L40.8290598,6.78947368 C41.991453,8.05263158 43.5897436,10.1052632 45.042735,11.5263158 L45.042735,11.8421053 L38.6495726,16.2631579 L38.6495726,19.1052632 C39.2307692,19.5789474 41.1196581,20.5263158 42.2820513,21 L44.8974359,18.3157895 L45.1880342,18.6315789 L40.1025641,24 L39.8119658,24 C38.0683761,23.2105263 35.8888889,22.1052632 34.4358974,21.3157895 C34.5811966,20.6842105 34.7264957,19.2631579 34.7264957,17.5263158 L34.7264957,10.7368421 L34.5811966,10.7368421 Z M40.5384615,22.8947368 C38.7948718,22.1052632 37.3418803,21.3157895 35.8888889,20.5263158 C36.034188,20.0526316 36.034188,19.2631579 36.034188,17.5263158 L36.034188,10.4210526 L35.017094,11.0526316 L35.017094,17.5263158 C35.017094,19.2631579 35.017094,20.5263158 34.8717949,21 C36.1794872,21.7894737 38.0683761,22.7368421 39.8119658,23.5263158 L40.5384615,22.8947368 Z M38.6495726,15.7894737 L41.5555556,13.7368421 C40.5384615,12.4736842 39.5213675,11.2105263 38.6495726,10.2631579 L38.6495726,15.7894737 Z M39.5213675,8.84210526 L38.7948718,9.47368421 C39.6666667,10.5789474 40.8290598,12 41.991453,13.4210526 L42.8632479,12.7894737 C41.5555556,11.3684211 40.3931624,9.94736842 39.5213675,8.84210526 M159.102564,27.4736842 C162.153846,27.1578947 165.205128,26.0526316 165.205128,22.5789474 L165.205128,11.3684211 L163.752137,9.78947368 L162.153846,11.3684211 L162.153846,19.7368421 L163.461538,21 L160.555556,23.8421053 L160.264957,23.8421053 L157.358974,21.1578947 L158.08547,20.3684211 L158.08547,3.31578947 C158.08547,2.05263158 157.068376,1.42105263 156.487179,1.26315789 L156.487179,0.947368421 C156.777778,0.789473684 157.213675,0.631578947 157.794872,0.631578947 C158.811966,0.631578947 159.683761,1.26315789 159.974359,2.05263158 L160.119658,2.05263158 C160.700855,1.10526316 161.717949,0.631578947 162.589744,0.631578947 C162.880342,0.631578947 163.17094,0.631578947 163.461538,0.789473684 L163.461538,1.10526316 C163.025641,1.26315789 162.153846,1.89473684 162.153846,3.63157895 L162.153846,10.7368421 L165.931624,6.78947368 L166.222222,6.78947368 C166.512821,7.10526316 168.111111,8.68421053 168.547009,9 C168.692308,9.15789474 168.837607,9.15789474 169.128205,9.15789474 C169.418803,9.15789474 169.709402,9 170,8.84210526 L170,9.47368421 C169.709402,9.78947368 169.273504,10.2631579 169.273504,11.0526316 L169.273504,20.5263158 C169.273504,24.7894737 164.91453,27.4736842 159.102564,27.9473684 L159.102564,27.4736842 Z M157.649573,1.10526316 C158.08547,1.42105263 158.811966,2.05263158 158.811966,3.15789474 L158.811966,20.5263158 L158.230769,21.1578947 L160.700855,23.3684211 L161.42735,22.7368421 L159.538462,21 L159.82906,20.6842105 L159.82906,3.31578947 C159.683761,1.89473684 158.521368,1.26315789 157.649573,1.10526316 M164.333333,26.2105263 C165.495726,25.4210526 166.65812,24.4736842 166.65812,22.5789474 L166.65812,10.7368421 L164.91453,8.68421053 L164.188034,9.47368421 L165.641026,11.2105263 L165.641026,22.5789474 C165.786325,24.1578947 165.205128,25.4210526 164.333333,26.2105263 L164.333333,26.2105263 Z M72.2136752,10.7368421 C73.957265,9.78947368 76.4273504,8.21052632 78.1709402,6.78947368 L78.4615385,6.78947368 C79.6239316,8.05263158 81.2222222,10.1052632 82.5299145,11.3684211 L82.5299145,11.6842105 L76.2820513,16.1052632 L76.2820513,18.9473684 C77.008547,19.4210526 78.7521368,20.3684211 79.9145299,20.8421053 L82.5299145,18.1578947 L82.8205128,18.4736842 L77.7350427,23.8421053 L77.4444444,23.8421053 C75.7008547,23.0526316 73.5213675,21.9473684 72.0683761,21.1578947 C72.2136752,20.5263158 72.3589744,19.1052632 72.3589744,17.3684211 L72.3589744,10.7368421 L72.2136752,10.7368421 Z M78.025641,22.8947368 C76.2820513,22.1052632 74.8290598,21.3157895 73.3760684,20.5263158 C73.5213675,20.0526316 73.5213675,19.2631579 73.5213675,17.5263158 L73.5213675,10.4210526 L72.6495726,10.8947368 L72.6495726,17.3684211 C72.6495726,19.1052632 72.6495726,20.3684211 72.5042735,20.8421053 C73.8119658,21.6315789 75.7008547,22.5789474 77.4444444,23.3684211 L78.025641,22.8947368 L78.025641,22.8947368 Z M76.2820513,15.6315789 L79.1880342,13.5789474 C78.1709402,12.3157895 77.1538462,11.0526316 76.2820513,10.1052632 L76.2820513,15.6315789 L76.2820513,15.6315789 Z M77.1538462,8.84210526 L76.2820513,9.47368421 C77.1538462,10.5789474 78.3162393,12 79.4786325,13.4210526 L80.3504274,12.7894737 C79.1880342,11.3684211 78.025641,9.94736842 77.1538462,8.84210526 M88.3418803,2.84210526 L88.3418803,19.4210526 C88.3418803,20.0526316 88.9230769,20.8421053 89.5042735,21 L90.3760684,20.0526316 L90.6666667,20.3684211 L87.4700855,24 L87.1794872,24 C86.017094,23.6842105 84.2735043,22.4210526 84.2735043,20.3684211 L84.2735043,4.89473684 L83.4017094,3.94736842 L82.3846154,5.05263158 L82.0940171,4.73684211 L85.7264957,0.631578947 L86.017094,0.631578947 L88.3418803,2.84210526 L88.3418803,2.84210526 Z M87.9059829,22.7368421 C86.7435897,22.4210526 85.5811966,21.6315789 85.5811966,19.8947368 L85.5811966,4.26315789 L84.2735043,2.84210526 L83.5470085,3.63157895 L84.7094017,4.73684211 L84.7094017,20.3684211 C84.7094017,22.1052632 86.017094,23.2105263 87.1794872,23.5263158 L87.9059829,22.7368421 Z M92.1196581,10.7368421 C93.8632479,9.78947368 96.3333333,8.21052632 98.0769231,6.78947368 L98.3675214,6.78947368 C99.5299145,8.05263158 101.128205,10.1052632 102.435897,11.3684211 L102.435897,11.6842105 L96.1880342,16.1052632 L96.1880342,18.9473684 C96.7692308,19.4210526 98.6581197,20.3684211 99.8205128,20.8421053 L102.435897,18.1578947 L102.726496,18.4736842 L97.6410256,23.8421053 L97.3504274,23.8421053 C95.6068376,23.0526316 93.4273504,21.9473684 91.974359,21.1578947 C92.1196581,20.5263158 92.2649573,19.1052632 92.2649573,17.3684211 L92.2649573,10.7368421 L92.1196581,10.7368421 Z M97.9316239,22.8947368 C96.1880342,22.1052632 94.7350427,21.3157895 93.2820513,20.5263158 C93.4273504,20.0526316 93.4273504,19.2631579 93.4273504,17.5263158 L93.4273504,10.4210526 L92.5555556,10.8947368 L92.5555556,17.3684211 C92.5555556,19.1052632 92.5555556,20.3684211 92.4102564,20.8421053 C93.7179487,21.6315789 95.6068376,22.5789474 97.3504274,23.3684211 L97.9316239,22.8947368 L97.9316239,22.8947368 Z M96.1880342,15.6315789 L99.0940171,13.5789474 C98.0769231,12.3157895 97.0598291,11.0526316 96.1880342,10.1052632 L96.1880342,15.6315789 L96.1880342,15.6315789 Z M97.0598291,8.84210526 L96.3333333,9.47368421 C97.2051282,10.5789474 98.3675214,12 99.5299145,13.4210526 L100.25641,12.7894737 C99.0940171,11.3684211 97.9316239,9.94736842 97.0598291,8.84210526 M122.923077,11.3684211 L122.923077,19.4210526 C122.923077,20.0526316 123.504274,20.8421053 124.08547,20.8421053 L124.957265,19.8947368 L125.247863,20.2105263 L122.051282,23.8421053 L121.905983,23.8421053 C120.74359,23.5263158 119,22.4210526 119,20.2105263 L119,11.0526316 L118.128205,10.1052632 L117.111111,11.0526316 L116.820513,10.7368421 L120.452991,6.78947368 L120.74359,6.78947368 L123.068376,9.31578947 L123.068376,10.7368421 L125.974359,6.94736842 L126.264957,6.94736842 C126.846154,7.57894737 127.717949,8.52631579 128.589744,9.15789474 L126.119658,12.3157895 C125.393162,11.6842105 124.521368,10.7368421 123.940171,10.2631579 L122.923077,11.3684211 L122.923077,11.3684211 Z M122.632479,22.7368421 C121.470085,22.4210526 120.307692,21.6315789 120.307692,19.8947368 L120.307692,10.4210526 L119.145299,9 L118.418803,9.78947368 L119.435897,10.8947368 L119.435897,20.2105263 C119.435897,21.9473684 120.74359,23.0526316 121.905983,23.3684211 L122.632479,22.7368421 L122.632479,22.7368421 Z M124.230769,9.94736842 C124.666667,10.4210526 125.393162,11.2105263 125.974359,11.6842105 L126.555556,10.8947368 C125.974359,10.4210526 125.102564,9.47368421 124.666667,9.15789474 L124.230769,9.94736842 L124.230769,9.94736842 Z M132.367521,24 L128.880342,21.4736842 L128.880342,16.4210526 C129.752137,15.7894737 131.641026,14.3684211 132.512821,13.7368421 C131.059829,12.9473684 129.897436,12 129.17094,10.8947368 L129.17094,10.5789474 C131.205128,9.31578947 132.803419,8.05263158 133.965812,6.78947368 L134.25641,6.78947368 C134.25641,6.78947368 138.615385,9 138.760684,9.15789474 C139.051282,9.31578947 139.196581,9.31578947 139.34188,9.31578947 C139.632479,9.31578947 139.923077,9.15789474 140.213675,9 L140.213675,9.47368421 C139.923077,9.78947368 139.487179,10.2631579 139.487179,10.8947368 L139.487179,19.2631579 C139.487179,20.2105263 140.213675,20.6842105 140.794872,20.8421053 L141.666667,19.8947368 L141.957265,20.2105263 L138.760684,23.8421053 L138.615385,23.8421053 C137.307692,23.5263158 135.854701,22.1052632 135.709402,20.5263158 L132.65812,23.8421053 L132.367521,23.8421053 L132.367521,24 Z M133.094017,22.7368421 L130.188034,20.6842105 L130.188034,15.9473684 L129.316239,16.5789474 L129.316239,21.1578947 L132.512821,23.3684211 L133.094017,22.7368421 L133.094017,22.7368421 Z M135.564103,14.5263158 L135.564103,12 L131.350427,9.63157895 C131.059829,9.94736842 129.897436,10.5789474 129.606838,10.8947368 C130.623932,12.1578947 133.239316,13.8947368 135.564103,14.5263158 M139.34188,22.7368421 C138.179487,22.2631579 137.017094,21.4736842 137.017094,19.7368421 L137.017094,11.0526316 L132.65812,8.68421053 C132.512821,8.84210526 132.076923,9.15789474 131.931624,9.31578947 L136.145299,11.6842105 L136.145299,20.2105263 C136.145299,21.7894737 137.598291,23.0526316 138.615385,23.5263158 L139.34188,22.7368421 L139.34188,22.7368421 Z M135.564103,20.0526316 L135.564103,15 C134.692308,14.6842105 133.675214,14.3684211 132.803419,13.8947368 L132.803419,20.2105263 L134.401709,21.3157895 L135.564103,20.0526316 L135.564103,20.0526316 Z M104.034188,21.3157895 L104.034188,10.7368421 L109.264957,6.78947368 L109.555556,6.78947368 C110.57265,7.26315789 113.91453,8.84210526 114.205128,9 C114.350427,9 114.495726,9.15789474 114.786325,9.15789474 C115.076923,9.15789474 115.367521,9 115.803419,8.84210526 L115.803419,9.47368421 C115.512821,9.78947368 115.076923,10.4210526 115.076923,10.8947368 L115.076923,19.8947368 C115.076923,21.9473684 115.512821,23.2105263 116.239316,24 L116.239316,24.3157895 C115.076923,25.5789474 112.461538,28.5789474 111.299145,30 L111.153846,30 C109.991453,29.3684211 108.102564,28.7368421 106.649573,28.7368421 C105.487179,28.7368421 104.179487,29.0526316 103.307692,29.8421053 L103.017094,29.6842105 C103.888889,27.4736842 105.777778,25.1052632 108.247863,25.1052632 C109.700855,25.1052632 111.735043,25.7368421 113.478632,26.8421053 C112.316239,25.4210526 111.299145,22.7368421 111.299145,20.6842105 L108.247863,23.8421053 L107.957265,23.8421053 L104.034188,21.3157895 L104.034188,21.3157895 Z M106.504274,27.4736842 C105.34188,27.4736842 104.324786,28.1052632 103.74359,28.8947368 L103.74359,29.0526316 C104.470085,28.5789474 105.196581,28.4210526 106.504274,28.4210526 C107.957265,28.4210526 109.991453,28.8947368 111.008547,29.5263158 L111.589744,28.7368421 C110.282051,28.1052632 108.393162,27.4736842 106.504274,27.4736842 M107.666667,23.5263158 L108.393162,22.8947368 L105.34188,20.5263158 L105.34188,10.4210526 L104.470085,11.0526316 L104.470085,21.1578947 L107.666667,23.5263158 L107.666667,23.5263158 Z M112.316239,10.4210526 L107.957265,8.52631579 L107.957265,9.47368421 L111.299145,11.0526316 L111.299145,20.5263158 C111.299145,22.5789474 112.17094,24.7894737 113.478632,26.5263158 L114.205128,25.7368421 C113.042735,24.1578947 112.316239,22.4210526 112.316239,20.3684211 L112.316239,10.4210526 Z M111.008547,20.0526316 L111.008547,11.3684211 L108.102564,9.94736842 L108.102564,19.8947368 L109.991453,21.1578947 L111.008547,20.0526316 L111.008547,20.0526316 Z M148.205128,10.7368421 L151.982906,6.78947368 L152.273504,6.78947368 C152.564103,7.10526316 154.307692,8.84210526 154.598291,9 C154.74359,9.15789474 154.888889,9.15789474 155.034188,9.15789474 C155.324786,9.15789474 155.615385,9 155.905983,8.84210526 L155.905983,9.47368421 C155.615385,9.78947368 155.179487,10.4210526 155.179487,11.0526316 L155.179487,21.1578947 C153.581197,21.6315789 152.273504,22.5789474 150.820513,24.3157895 L150.675214,24.3157895 L148.205128,23.6842105 L148.205128,25.8947368 L149.512821,27.1578947 L146.461538,30 L146.316239,30 L143.410256,27.3157895 L144.136752,26.3684211 L144.136752,22.5789474 C143.846154,22.5789474 143.264957,22.4210526 142.974359,22.2631579 L142.974359,21.7894737 C143.264957,21.6315789 144.282051,20.6842105 144.282051,19.8947368 L144.282051,11.2105263 L143.410256,10.2631579 L142.393162,11.3684211 L142.102564,11.0526316 L145.735043,7.10526316 L146.025641,7.10526316 L148.350427,9.63157895 L148.350427,10.7368421 L148.205128,10.7368421 Z M144.57265,26.6842105 L143.991453,27.3157895 L146.316239,29.5263158 L147.042735,28.8947368 L145.153846,27.1578947 L145.444444,26.8421053 L145.444444,10.4210526 L144.136752,9 L143.555556,9.63157895 L144.57265,10.7368421 L144.57265,26.6842105 L144.57265,26.6842105 Z M151.111111,20.5263158 L151.111111,11.3684211 L149.65812,9.78947368 L148.059829,11.3684211 L148.059829,19.7368421 C148.786325,20.0526316 150.820513,20.3684211 151.111111,20.5263158 M150.675214,23.8421053 C150.820513,23.5263158 151.111111,23.2105263 151.25641,23.0526316 L148.059829,22.4210526 L148.059829,23.3684211 L150.675214,23.8421053 Z M149.948718,9.63157895 L151.547009,11.3684211 L151.547009,20.5263158 L152.418803,20.0526316 L152.418803,10.7368421 L150.675214,8.84210526 L149.948718,9.63157895 L149.948718,9.63157895 Z M1.16239316,14.6842105 C1.16239316,10.5789474 3.92307692,7.89473684 6.53846154,6.63157895 L6.68376068,6.94736842 C5.81196581,8.05263158 5.23076923,9.15789474 5.23076923,11.6842105 C5.23076923,14.5263158 5.95726496,16.4210526 6.97435897,17.6842105 C7.26495726,17.2105263 7.55555556,16.5789474 7.55555556,15.9473684 L7.55555556,11.8421053 L12.2051282,8.21052632 L12.3504274,8.52631579 C12.0598291,9 11.7692308,9.63157895 11.7692308,10.5789474 L11.7692308,13.2631579 C11.7692308,15.1578947 9.00854701,17.2105263 7.26495726,17.8421053 C8.42735043,19.1052632 10.025641,19.5789474 11.7692308,19.5789474 C12.3504274,19.5789474 12.9316239,19.5789474 13.5128205,19.4210526 L13.5128205,7.89473684 C11.9145299,7.73684211 10.4615385,7.42105263 9.15384615,6.94736842 C7.7008547,6.47368421 6.24786325,6 5.08547009,6 C3.1965812,6 0.871794872,6.63157895 0.871794872,9.63157895 L0.871794872,10.5789474 L0.435897436,10.7368421 C0.145299145,9.78947368 0,8.84210526 0,8.05263158 C0,4.42105263 2.47008547,1.26315789 6.39316239,1.26315789 C7.99145299,1.26315789 9.58974359,1.73684211 11.042735,2.21052632 C12.4957265,2.68421053 13.9487179,3.15789474 15.4017094,3.15789474 C16.1282051,3.15789474 16.5641026,2.68421053 16.5641026,1.89473684 C16.5641026,1.10526316 16.2735043,0.789473684 15.6923077,0.631578947 L15.6923077,0.315789474 C17.4358974,0.631578947 19.1794872,1.73684211 19.1794872,4.10526316 C19.3247863,6.47368421 17.4358974,7.89473684 14.2393162,7.89473684 L13.9487179,7.89473684 L13.9487179,19.5789474 C15.982906,19.1052632 17.4358974,18.1578947 18.4529915,16.2631579 L18.7435897,16.4210526 C17.5811966,20.3684211 14.8205128,24.1578947 10.025641,24.1578947 C5.23076923,24.1578947 1.16239316,21 1.16239316,14.6842105 M14.2393162,6.47368421 C10.7521368,6.47368421 7.55555556,4.57894737 5.08547009,4.57894737 C3.34188034,4.57894737 1.45299145,5.36842105 0.871794872,7.42105263 L1.01709402,7.42105263 C1.74358974,6 3.48717949,5.52631579 5.08547009,5.52631579 C7.7008547,5.52631579 10.7521368,7.42105263 14.2393162,7.42105263 C17,7.42105263 18.7435897,6.31578947 18.8888889,3.94736842 L18.7435897,3.94736842 C18.4529915,5.84210526 17,6.47368421 14.2393162,6.47368421 M4.21367521,8.84210526 C2.90598291,10.2631579 1.74358974,12.1578947 1.74358974,14.6842105 C1.74358974,20.6842105 5.37606838,23.6842105 10.1709402,23.6842105 C13.0769231,23.6842105 15.1111111,21.9473684 16.2735043,20.6842105 L16.1282051,20.5263158 C14.8205128,21.7894737 12.9316239,22.7368421 10.025641,22.7368421 C6.24786325,22.7368421 2.61538462,20.2105263 2.61538462,14.6842105 C2.61538462,12.4736842 3.34188034,10.2631579 4.21367521,8.84210526 Z M8.86324786,15.6315789 L8.86324786,11.2105263 L7.99145299,12 L7.99145299,16.1052632 C7.99145299,16.5789474 7.84615385,16.8947368 7.84615385,17.2105263 L7.99145299,17.2105263 C8.42735043,16.7368421 8.86324786,16.2631579 8.86324786,15.6315789 M52.8888889,14.6842105 C52.8888889,10.5789474 55.6495726,7.89473684 58.2649573,6.63157895 L58.4102564,6.94736842 C57.3931624,8.21052632 56.8119658,9.31578947 56.8119658,11.6842105 C56.8119658,14.5263158 57.5384615,16.4210526 58.5555556,17.6842105 C58.8461538,17.2105263 59.1367521,16.5789474 59.1367521,15.9473684 L59.1367521,11.8421053 L63.9316239,8.05263158 L64.0769231,8.36842105 C63.6410256,9 63.4957265,9.63157895 63.4957265,10.5789474 L63.4957265,13.2631579 C63.4957265,15.1578947 60.7350427,17.2105263 58.991453,17.8421053 C60.1538462,19.1052632 61.7521368,19.5789474 63.4957265,19.5789474 C64.0769231,19.5789474 64.6581197,19.5789474 65.2393162,19.4210526 L65.2393162,7.89473684 C63.6410256,7.73684211 62.1880342,7.42105263 60.8803419,6.94736842 C59.4273504,6.47368421 57.974359,6 56.8119658,6 C54.9230769,6 52.5982906,6.63157895 52.5982906,9.63157895 L52.5982906,10.5789474 L52.3076923,10.7368421 C52.017094,9.78947368 51.8717949,8.84210526 51.8717949,8.05263158 C51.8717949,4.42105263 54.3418803,1.26315789 58.2649573,1.26315789 C59.8632479,1.26315789 61.4615385,1.73684211 62.9145299,2.21052632 C64.3675214,2.68421053 65.8205128,3.15789474 67.2735043,3.15789474 C68,3.15789474 68.4358974,2.68421053 68.4358974,1.89473684 C68.4358974,1.10526316 68.1452991,0.789473684 67.5641026,0.631578947 L67.5641026,0.315789474 C69.3076923,0.631578947 71.0512821,1.73684211 71.0512821,4.10526316 C71.0512821,6.94736842 69.1623932,8.21052632 65.965812,8.21052632 L65.6752137,8.21052632 L65.6752137,19.8947368 C67.7094017,19.4210526 69.1623932,18.4736842 70.1794872,16.5789474 L70.4700855,16.7368421 C69.3076923,20.6842105 66.5470085,24.4736842 61.7521368,24.4736842 C56.957265,24.1578947 52.8888889,21 52.8888889,14.6842105 M65.965812,6.47368421 C62.4786325,6.47368421 59.2820513,4.57894737 56.8119658,4.57894737 C55.2136752,4.57894737 53.3247863,5.36842105 52.5982906,7.42105263 L52.7435897,7.42105263 C53.4700855,6 55.2136752,5.52631579 56.8119658,5.52631579 C59.4273504,5.52631579 62.4786325,7.42105263 65.965812,7.42105263 C68.7264957,7.42105263 70.4700855,6.31578947 70.6153846,3.94736842 L70.4700855,3.94736842 C70.034188,5.84210526 68.7264957,6.47368421 65.965812,6.47368421 M55.9401709,8.84210526 C54.6324786,10.2631579 53.4700855,12.1578947 53.4700855,14.6842105 C53.4700855,20.6842105 57.1025641,23.6842105 61.8974359,23.6842105 C64.8034188,23.6842105 66.8376068,21.9473684 68,20.6842105 L67.8547009,20.5263158 C66.5470085,21.7894737 64.6581197,22.7368421 61.7521368,22.7368421 C57.974359,22.7368421 54.3418803,20.2105263 54.3418803,14.6842105 C54.3418803,12.4736842 55.0683761,10.2631579 55.9401709,8.84210526 L55.9401709,8.84210526 Z M60.5897436,15.6315789 L60.5897436,11.2105263 L59.7179487,11.8421053 L59.7179487,15.9473684 C59.7179487,16.4210526 59.5726496,16.7368421 59.5726496,17.0526316 L59.7179487,17.0526316 C60.1538462,16.7368421 60.5897436,16.2631579 60.5897436,15.6315789" id="Shape"></path>
        </g>
    </g>
</svg>
