<?xml version="1.0" encoding="UTF-8"?>
<svg width="180px" height="27px" viewBox="0 0 180 27" version="1.1" xmlns="http://www.w3.org/2000/svg" xmlns:xlink="http://www.w3.org/1999/xlink">
    <!-- Generator: Sketch 55.2 (78181) - https://sketchapp.com -->
    <title>tech-nation-logo-vector 2</title>
    <desc>Created with Sketch.</desc>
    <g id="Page-2" stroke="none" stroke-width="1" fill="none" fill-rule="evenodd">
        <g id="Artboard" transform="translate(-1756.000000, -1618.000000)" fill="#332E5E" fill-rule="nonzero">
            <g id="tech-nation-logo-vector-2" transform="translate(1756.000000, 1618.000000)">
                <g id="Group" transform="translate(35.341098, 5.400000)">
                    <polygon id="Path" points="4.37271215 3.33 0.239600666 3.33 0.239600666 0.3 11.7703827 0.3 11.7703827 3.33 7.57737105 3.33 7.57737105 15.9 4.37271215 15.9"></polygon>
                    <polygon id="Path" points="13.687188 0.3 23.3610649 0.3 23.3610649 3.33 16.8618968 3.33 16.8618968 6.54 22.0732113 6.54 22.0732113 9.57 16.8618968 9.57 16.8618968 12.87 23.3610649 12.87 23.3610649 15.9 13.687188 15.9"></polygon>
                    <path d="M32.6455907,0.03 C35.8202995,0.03 38.4858569,1.68 39.8336106,4.17 L37.078203,5.7 C36.1497504,4.11 34.6821963,3.09 32.6455907,3.09 C29.9201331,3.09 27.7936772,5.34 27.7936772,8.07 C27.7936772,10.8 29.9201331,13.05 32.6455907,13.05 C34.6522463,13.05 36.1497504,12.03 37.078203,10.44 L39.8336106,11.97 C38.515807,14.46 35.8202995,16.11 32.6455907,16.11 C28.2129784,16.11 24.6189684,12.51 24.6189684,8.07 C24.6189684,3.63 28.2129784,0.03 32.6455907,0.03 Z" id="Path"></path>
                    <polygon id="Path" points="42.109817 0.3 45.2845258 0.3 45.2845258 6.51 52.0232945 6.51 52.0232945 0.3 55.1980033 0.3 55.1980033 15.9 52.0232945 15.9 52.0232945 9.57 45.2845258 9.57 45.2845258 15.9 42.109817 15.9"></polygon>
                    <polygon id="Path" points="74.7554077 15.9 66.7886855 5.73 66.7886855 15.9 63.6139767 15.9 63.6139767 0.3 66.3394343 0.3 74.3061564 10.47 74.3061564 0.3 77.4808652 0.3 77.4808652 15.9"></polygon>
                    <path d="M85.5374376,0.3 L88.3527454,0.3 L95.0915141,15.9 L91.7670549,15.9 L90.2695507,12.36 L83.6505824,12.36 L82.1530782,15.9 L78.8585691,15.9 L85.5374376,0.3 Z M89.0715474,9.54 L86.9450915,4.47 L84.7886855,9.54 L89.0715474,9.54 Z" id="Shape"></path>
                    <polygon id="Path" points="97.7570715 3.33 93.6239601 3.33 93.6239601 0.3 105.154742 0.3 105.154742 3.33 100.96173 3.33 100.96173 15.9 97.7570715 15.9"></polygon>
                    <polygon id="Path" points="107.071547 0.3 110.246256 0.3 110.246256 15.9 107.071547 15.9"></polygon>
                    <path d="M120.429285,16.17 C115.996672,16.17 112.402662,12.57 112.402662,8.13 C112.402662,3.69 115.996672,0.09 120.429285,0.09 C124.861897,0.09 128.455907,3.69 128.455907,8.13 C128.485857,12.57 124.891847,16.17 120.429285,16.17 Z M120.429285,13.08 C123.154742,13.08 125.281198,10.83 125.281198,8.1 C125.281198,5.37 123.154742,3.12 120.429285,3.12 C117.703827,3.12 115.577371,5.37 115.577371,8.1 C115.577371,10.83 117.703827,13.08 120.429285,13.08 Z" id="Shape"></path>
                    <polygon id="Path" points="141.783694 15.9 133.816972 5.73 133.816972 15.9 130.642263 15.9 130.642263 0.3 133.36772 0.3 141.334443 10.47 141.334443 0.3 144.509151 0.3 144.509151 15.9"></polygon>
                </g>
                <path d="M27.014975,14.85 C27.0748752,14.4 27.0748752,13.95 27.0748752,13.47 C27.0748752,12.99 27.0449251,12.54 27.014975,12.09 L20.515807,12.09 L26.5357737,9.6 C26.266223,8.73 25.936772,7.86 25.4875208,7.05 L19.4675541,9.57 L24.0798669,4.95 C23.5108153,4.26 22.8519135,3.57 22.1331115,3 L17.5207987,7.62 L20.0066556,1.59 C19.2279534,1.17 18.359401,0.81 17.4608985,0.54 L14.9750416,6.57 L14.9750416,0.06 C14.5257903,0 14.0765391,0 13.5973378,0 C13.1181364,0 12.6688852,0.03 12.2196339,0.06 L12.2196339,6.57 L9.73377704,0.54 C8.86522463,0.81 7.99667221,1.14 7.18801997,1.59 L9.67387687,7.62 L5.12146423,3 C4.43261231,3.57 3.7437604,4.23 3.17470882,4.95 L7.78702163,9.57 L1.76705491,7.08 C1.34775374,7.86 0.988352745,8.73 0.718801997,9.63 L6.73876872,12.12 L0.209650582,12.12 C0.149750416,12.57 0.149750416,13.02 0.149750416,13.5 C0.149750416,13.98 0.179700499,14.43 0.209650582,14.88 L6.70881864,14.88 L0.688851913,17.37 C0.958402662,18.24 1.28785358,19.11 1.73710483,19.92 L7.75707155,17.43 L3.17470882,22.05 C3.7437604,22.74 4.40266223,23.43 5.12146423,24 L9.73377704,19.38 L7.24792013,25.41 C8.0266223,25.83 8.89517471,26.19 9.7936772,26.46 L12.2795341,20.43 L12.2795341,26.94 C12.7287854,27 13.1780366,27 13.6572379,27 C14.1364393,27 14.5856905,26.97 15.0349418,26.94 L15.0349418,20.43 L17.5207987,26.46 C18.3893511,26.19 19.2579035,25.86 20.0665557,25.41 L17.5806988,19.38 L22.1630616,23.94 C22.8519135,23.37 23.5407654,22.71 24.109817,21.99 L19.4975042,17.37 L25.5174709,19.86 C25.936772,19.08 26.296173,18.21 26.5657238,17.31 L20.5457571,14.82 L27.014975,14.82 L27.014975,14.85 Z M13.6272879,18.42 C10.9018303,18.42 8.68552413,16.2 8.68552413,13.47 C8.68552413,10.74 10.9018303,8.52 13.6272879,8.52 C16.3527454,8.52 18.5690516,10.71 18.5690516,13.44 C18.5690516,16.2 16.3527454,18.42 13.6272879,18.42 Z" id="Shape"></path>
            </g>
        </g>
    </g>
</svg>
