<svg width="175" height="26" viewBox="0 0 175 26" version="1.1" xmlns="http://www.w3.org/2000/svg"><title>Randstad</title><g fill-rule="nonzero" fill="#9CACBA" stroke="none" stroke-width="1"><path d="M16.585 14.49s-5.706-5.707-5.708-5.707c-.34-.35-.8-.54-1.298-.54H0v3.645h10.487c.8 0 1.55.31 2.116.877.565.565.876 1.315.876 2.116v10.486h3.642v-9.58c0-.496-.19-.958-.537-1.297"/><path d="M27.2 8.244c-.497 0-.958.19-1.298.54l-5.706 5.705c-.347.338-.537.8-.537 1.297v9.58H23.3V14.88c0-1.65 1.34-2.992 2.992-2.992H36.78V8.244H27.2"/><path d="M62.034 7.61c-1.775 0-3.604 1.26-4.45 3.07l-.028.06h-.24V8.03h-2.78v17.336h2.984v-7.88c0-4.414 1.907-7.266 4.855-7.266.637 0 1.192.1 1.674.276V7.83c-.64-.13-1.11-.22-2.016-.22"/><path d="M154.278 9.306c-1.128-1.143-2.828-1.696-5.2-1.696-1.953 0-3.858.546-5.663 1.613l.154 2.54c1.324-1.076 3.213-1.742 4.992-1.742 1.52 0 2.607.353 3.323 1.076.758.764 1.11 1.935 1.11 3.683v.113l-.11-.008c-1.28-.07-2.18-.07-3.43-.067-2.13-.002-4.998.594-6.657 2.27-.918.928-1.383 2.096-1.383 3.466 0 1.61.458 2.886 1.36 3.8 1.067 1.077 2.783 1.646 4.963 1.646 3.136 0 4.78-1.852 5.34-2.65l.03-.043h.23v2.26H156V14.834c0-2.55-.56-4.358-1.722-5.53zm-1.282 7.796v1.673c0 1.39-.44 2.577-1.27 3.432-.883.905-2.166 1.38-3.713 1.383-.943 0-1.922-.4-2.558-1.04-.53-.536-.81-1.22-.81-1.977 0-3.195 4.324-3.54 6.185-3.54.345 0 .696.017 1.034.034.338.018.685.035 1.027.035h.106z"/><path d="M76.28 9.306c-1.13-1.143-2.83-1.696-5.203-1.696-1.953 0-3.857.546-5.662 1.613l.154 2.54c1.324-1.076 3.213-1.742 4.99-1.742 1.522 0 2.61.353 3.324 1.076.757.764 1.11 1.935 1.11 3.683v.113l-.11-.008c-1.277-.07-2.18-.07-3.43-.067-2.13-.002-4.997.594-6.654 2.27-.92.928-1.385 2.096-1.385 3.466 0 1.61.458 2.886 1.362 3.8C65.842 25.43 67.557 26 69.737 26c3.135 0 4.778-1.852 5.34-2.65l.032-.043h.226v2.26H78V14.834c0-2.55-.565-4.358-1.72-5.53zm-1.286 7.796v1.673c0 1.39-.44 2.577-1.27 3.432-.88.905-2.165 1.38-3.712 1.383-.943 0-1.922-.4-2.556-1.04-.53-.536-.81-1.22-.81-1.977 0-3.195 4.324-3.54 6.182-3.54.346 0 .697.017 1.037.034.336.018.683.035 1.024.035h.104z"/><path d="M93.9 9.222c-1.066-1.07-2.603-1.612-4.57-1.612-2.468 0-4.735 1.253-5.637 3.12l-.03.06h-.238V8.04h-2.888v17.326h2.992v-8.01c0-2.248.436-4.032 1.3-5.298.932-1.37 2.32-2.064 4.128-2.064 2.738.17 3.805 1.957 3.805 6.378v8.994h2.993V15.028c0-2.617-.625-4.57-1.856-5.806"/><path d="M123.112 15.466c-1.652-.766-3.213-1.488-3.213-3.17 0-1.383 1.248-2.275 3.182-2.275.705 0 2.47.403 3.302.85l.25-2.587c-1.324-.405-2.503-.673-3.895-.673-1.997 0-3.618.575-4.688 1.66-.91.923-1.37 2.164-1.37 3.69 0 2.7 2.3 3.84 4.328 4.848 1.665.824 3.235 1.605 3.235 3.124 0 .687-.222 1.26-.66 1.707-.846.856-2.19.948-2.726.948-.856 0-2.597-.372-3.915-1.184l-.156 2.672c1.554.816 3.317.924 4.683.924 1.614 0 3.09-.465 4.15-1.314 1.204-.963 1.84-2.38 1.84-4.105 0-3.1-2.31-4.17-4.35-5.114"/><path d="M138.02 23.615c-.753 0-1.446-.277-1.95-.773-.597-.588-.91-1.446-.91-2.48v-9.75h4.708V8.225h-4.71V3.17l-3.05.967v4.088h-4.01v2.387h4.01V21.02c0 1.58.43 2.805 1.28 3.64.898.89 2.27 1.34 4.074 1.34 1.03 0 2.044-.273 2.684-.453v-2.484c-.627.36-1.34.552-2.125.552"/><path d="M171.377 0v10.622h-.234l-.03-.05c-1.135-1.827-3.064-2.752-5.733-2.752-2.038 0-3.73.656-5.03 1.95-1.58 1.574-2.448 3.995-2.448 6.814 0 3.13.95 5.872 2.61 7.524 1.26 1.257 2.886 1.892 4.834 1.892 2.977 0 5.003-1.457 5.906-2.823l.03-.047h.23v2.44h2.878V0h-3.013zm0 16.944c0 2.12-.727 4.11-1.946 5.325-.895.894-2.014 1.348-3.327 1.348-1.18 0-2.206-.435-3.044-1.29-1.48-1.514-1.958-3.902-1.92-5.485-.048-2.233.585-4.186 1.735-5.36.835-.848 1.91-1.28 3.194-1.28 1.325 0 2.46.46 3.368 1.367 1.233 1.228 1.94 3.187 1.94 5.374z"/><path d="M111.77 0v10.622h-.235l-.03-.05c-1.137-1.827-3.066-2.752-5.733-2.752-2.04 0-3.733.656-5.03 1.95-1.58 1.574-2.45 3.995-2.45 6.814 0 3.13.954 5.872 2.61 7.524 1.26 1.257 2.886 1.892 4.836 1.892 2.975 0 5-1.457 5.905-2.823l.03-.047h.232v2.44h2.875V0h-3.01zm0 16.944c0 2.12-.73 4.11-1.947 5.325-.898.894-2.017 1.348-3.328 1.348-1.182 0-2.206-.435-3.044-1.29-1.478-1.514-1.958-3.902-1.918-5.485-.048-2.233.584-4.186 1.736-5.36.834-.848 1.907-1.28 3.193-1.28 1.327 0 2.46.46 3.37 1.367 1.23 1.228 1.94 3.187 1.94 5.374z"/></g></svg>