<svg xmlns="http://www.w3.org/2000/svg" xmlns:xlink="http://www.w3.org/1999/xlink" width="250" height="70" viewBox="0 0 250 70"><defs><path id="3626a" d="M187.418 2661.106c.102 3.206.523 8.373 2.618 12.564 1.048-8.377 5.758-12.564 5.758-12.564a26.059 26.059 0 0 1 6.225-16.943 26.252 26.252 0 0 1 7.656-6.168 26.045 26.045 0 0 1 12.29-3.059c14.453 0 26.171 11.717 26.171 26.17 0 14.454-11.194 27.218-25.647 27.218-7.853 0-12.563-2.095-16.75-5.233-6.282-5.235-3.14-11.517-3.14-11.517 1.045-3.138 5.841-8.12 11.513-3.138 7.329 7.326-3.139 12.56-3.139 12.56 3.139 4.187 9.421 3.139 9.421 3.139 5.234-5.235 5.556-11.874 4.187-15.699-3.14-11.516-18.114-13.008-24.076-8.377-11.123 8.641-7.329 19.889-4.782 23.515 2.476 3.57 6.142 6.891 10.016 8.938 4.807 2.538 10.411 3.138 16.226 3.138 19.078 0 34.547-15.465 34.547-34.544 0-19.081-15.469-34.547-34.547-34.547-19.078 0-35.142 15.477-34.547 34.547z"/><path id="3626c" d="M265.85 2665v-10.742h1.333v10.805c0 3.179 1.94 5.085 4.991 5.085 3.082 0 5.053-1.906 5.053-5.116v-10.774h1.334v10.711c0 3.909-2.478 6.451-6.387 6.451-3.909 0-6.325-2.542-6.325-6.42z"/><path id="3626d" d="M286.188 2654.258h5.021v1.239h-5.021v10.329c0 3.116 1.684 4.26 4.068 4.26.476 0 .921-.032 1.431-.128v1.208c-.191.03-.859.127-1.59.127-3.051 0-5.244-1.717-5.244-5.403v-10.393h-2.606v-1.24h2.637v-3.972h1.304z"/><path id="3626e" d="M295.276 2654.258h1.08l.128 3.146h.032c1.017-2.351 3.273-3.305 4.989-3.305.35 0 .73.032 1.017.063v1.304a9.628 9.628 0 0 0-1.017-.063c-2.383 0-4.862 1.683-4.895 5.052v10.68h-1.334z"/><path id="3626f" d="M318.762 2663.157h-13.38c.223 4.354 2.956 6.991 6.77 6.991 2.034 0 4.195-.73 6.006-2.447v1.56c-1.779 1.46-3.877 2.16-6.07 2.16-4.736 0-8.04-3.369-8.04-8.677 0-5.467 3.75-8.773 7.818-8.773 3.75 0 6.96 2.861 6.96 8.391 0 .317-.03.605-.064.795zm-1.27-1.208c-.064-4.576-2.766-6.706-5.626-6.706-3.242 0-6.167 2.542-6.452 6.706z"/><path id="3626g" d="M322.384 2662.712c0-5.403 3.719-8.74 7.692-8.74 2.7 0 5.402 1.494 6.642 4.513l.19-4.227h1.048v16.877h-1.048l-.19-4.227c-1.24 3.05-3.941 4.512-6.611 4.512-4.004 0-7.723-3.337-7.723-8.708zm14.301-.032c0-4.513-2.955-7.405-6.483-7.405-3.496 0-6.484 2.86-6.484 7.437 0 4.545 3.02 7.437 6.516 7.437 3.465 0 6.452-2.892 6.452-7.47z"/><path id="3626h" d="M350.955 2670.148c1.335 0 3.083-.317 4.545-1.398v1.494c-1.303.795-2.892 1.175-4.545 1.175-4.576 0-8.168-3.655-8.168-8.74 0-4.958 3.56-8.708 8.136-8.708 1.558 0 3.147.286 4.577 1.208v1.494c-1.494-1.08-3.02-1.399-4.608-1.399-3.53 0-6.77 2.893-6.77 7.405 0 4.61 3.274 7.47 6.833 7.47z"/><path id="3626i" d="M361.536 2656.928h.033c.952-1.844 3.05-2.956 5.34-2.956 3.622 0 5.974 2.13 5.974 5.976v11.187h-1.335v-10.711c0-3.37-1.685-5.15-4.736-5.15-2.765 0-5.276 1.59-5.276 4.864v10.997h-1.334v-25.268h1.334z"/><path id="3626j" d="M378.952 2647.488h5.783c5.595 0 9.25 2.86 9.25 7.692 0 4.798-3.56 7.945-9.154 7.945h-2.924v8.01h-2.955zm12.045 7.755c0-3.21-2.32-4.99-6.007-4.99h-3.083v10.138h3.083c3.687 0 6.007-1.907 6.007-5.148z"/><path id="3626k" d="M397.89 2671.14v-25.43h2.93v25.43z"/><path id="3626l" d="M405.996 2664.523v-10.584h2.924v10.647c0 2.638 1.557 4.196 4.068 4.196 2.575 0 4.196-1.558 4.196-4.196v-10.647h2.923v10.584c0 4.132-2.701 6.992-7.12 6.992-4.385 0-6.991-2.86-6.991-6.992z"/><path id="3626m" d="M435.806 2655.053v2.892c-1.239-1.05-3.114-1.78-5.148-1.78-2.162 0-3.37.92-3.37 2.32 0 1.526 1.495 2.097 3.814 2.765 2.638.763 5.626 1.62 5.626 5.085 0 3.147-2.447 5.18-6.42 5.18-2.225 0-4.354-.635-5.943-1.905v-3.148a8.155 8.155 0 0 0 5.848 2.447c2.32 0 3.655-1.016 3.655-2.542 0-1.653-1.62-2.193-4.1-2.956-2.829-.858-5.34-1.78-5.34-4.798 0-2.893 2.384-5.054 6.198-5.054 1.97 0 3.972.572 5.18 1.494z"/><linearGradient id="3626b" x1="246.34" x2="197.24" y1="2636.62" y2="2685.72" gradientUnits="userSpaceOnUse"><stop offset="0" stop-color="#b3b3b3"/><stop offset="0" stop-color="#b3b3b3"/><stop offset=".66" stop-color="#9b9a9a"/><stop offset="1" stop-color="#979797"/></linearGradient></defs><g><g transform="translate(-187 -2626)"><use fill="url(#3626b)" xlink:href="#3626a"/></g><g transform="translate(-187 -2626)"><use fill="#4d4d4d" xlink:href="#3626c"/></g><g transform="translate(-187 -2626)"><use fill="#4d4d4d" xlink:href="#3626d"/></g><g transform="translate(-187 -2626)"><use fill="#4d4d4d" xlink:href="#3626e"/></g><g transform="translate(-187 -2626)"><use fill="#4d4d4d" xlink:href="#3626f"/></g><g transform="translate(-187 -2626)"><use fill="#4d4d4d" xlink:href="#3626g"/></g><g transform="translate(-187 -2626)"><use fill="#4d4d4d" xlink:href="#3626h"/></g><g transform="translate(-187 -2626)"><use fill="#4d4d4d" xlink:href="#3626i"/></g><g transform="translate(-187 -2626)"><use fill="#4d4d4d" xlink:href="#3626j"/></g><g transform="translate(-187 -2626)"><use fill="#4d4d4d" xlink:href="#3626k"/></g><g transform="translate(-187 -2626)"><use fill="#4d4d4d" xlink:href="#3626l"/></g><g transform="translate(-187 -2626)"><use fill="#4d4d4d" xlink:href="#3626m"/></g></g></svg>