<svg width="191" height="11" viewBox="0 0 191 11" version="1.1" xmlns="http://www.w3.org/2000/svg"><title>Tommy_hilfig_vectorlogo</title><g fill-rule="nonzero" stroke="none" stroke-width="1" fill="none"><path fill="#7D878F" d="M90.622 8.164V2.988h7.935v5.177h-7.935"/><path fill="#FFF" d="M82.688 8.164V3.002h7.934v5.162"/><path d="M19.88.29c-3.344 0-5.537 2.433-5.537 5.293 0 2.8 2.133 5.3 5.507 5.3 3.494 0 5.583-2.515 5.583-5.3 0-2.874-2.15-5.292-5.554-5.292zm142.338 0c-3.147 0-5.542 2.318-5.542 5.36 0 3.023 2.332 5.232 5.495 5.232 1.437 0 2.553-.246 3.93-.852h.006V5.66h-3.465V6.99h1.983v2.12c-.71.228-1.44.41-2.244.41-2.45 0-4.174-1.618-4.174-3.917 0-2.238 1.743-3.95 3.983-3.95 1.24 0 2.49.352 3.7 1.017v-1.5C164.27.484 163.43.29 162.22.29zM.288.43v1.328H3.86v8.99h1.482v-8.99h3.572V.428H.288zm32.104 0v10.317h1.483V2.708h.03l3.178 3.995h.244L40.5 2.708h.036v8.037h1.482V.428h-1.38L37.2 4.66 33.785.43h-1.393zm18.008 0v10.317h1.482V2.708h.03l3.18 3.995h.237l3.177-3.995h.03v8.037h1.483V.428h-1.376L55.21 4.66 51.787.43H50.4zm16.05 0l3.826 4.858v5.46h1.483V5.297l3.826-4.87H73.8l-2.797 3.554-2.77-3.554H66.45zm16.238 0v2.566h15.87V.428h-15.87zm24.27 0v10.317h1.482V6.25h5.78v4.495h1.483V.428h-1.483v4.49h-5.78V.427h-1.482zm14.888 0v10.317h1.476V.428h-1.476zm7.56 0v10.317h6.144V9.41h-4.662V.43h-1.482zm10.4 0v10.317h1.482V5.947h4.03V4.62h-4.03V1.755h4.03V.428h-5.512zm10.697 0v10.317h1.482V.428h-1.482zm21.24 0v10.317h5.995V9.41h-4.507V6.204h4.222V4.875h-4.22v-3.12h4.37V.43h-5.86zm11.06 0v10.317h1.49V6.268h.618c.757 0 1.378.24 2.74 2.357l1.356 2.12h1.774c-.71-.984-.972-1.333-1.41-2.042-.787-1.288-1.36-2.243-2.298-2.864 1.106-.44 1.726-1.33 1.726-2.525 0-1.784-1.298-2.887-3.387-2.887h-2.607zM19.88 1.648c2.314 0 4.023 1.666 4.023 3.935 0 2.255-1.71 3.935-4.024 3.935-2.3 0-4.007-1.68-4.007-3.935 0-2.27 1.706-3.934 4.006-3.934zm164.412.048h.952c1.438 0 2.007.59 2.024 1.56.014.863-.434 1.68-2.024 1.68h-.952v-3.24zM82.688 8.15v2.583h15.87V8.15h-15.87z" fill="#9CACBA"/></g></svg>