<svg xmlns="http://www.w3.org/2000/svg" xmlns:xlink="http://www.w3.org/1999/xlink" width="244" height="55" viewBox="0 0 244 55"><defs><path id="zynwa" d="M1268.428 8505.63c7.628 0 10.934 4 10.934 8.852 0 4.855-3.306 8.908-10.934 8.908h-15.522l-5.921-7.413h-.906v1.92c0 3.786.48 4.48 3.467 4.48v1.013h-10.614v-1.013c2.986 0 3.467-.694 3.467-4.48v-6.828c0-3.788-.481-4.428-3.467-4.428v-1.012h9.387c4.694 0 7.2 2.24 7.2 5.172 0 2.348-1.76 4.428-5.066 5.015l2.453 2.667c2.134 2.347 3.68 3.574 5.974 3.894 2.987 0 3.467-.694 3.467-4.48v-6.828c0-3.788-.481-4.428-3.467-4.428v-1.012zm-22.35 8.693h2.188c2.4 0 3.468-1.653 3.468-3.52 0-1.92-1.068-3.574-3.468-3.574h-2.187zm22.51 7.414c5.547 0 6.56-4.055 6.56-7.308 0-3.147-1.012-7.2-6.56-7.2h-2.56v11.574c0 2.455.267 2.934 2.187 2.934z"/><path id="zynwb" d="M1209.223 8516.297l3.68-10.882c1.067-3.147.588-4.054-2.826-4.054v-1.067h10.028v1.067c-3.361 0-4.161.8-5.494 4.695l-6.081 18.242h-.694l-5.441-16.696-5.547 16.696h-.693l-5.92-18.242c-1.281-3.895-2.134-4.695-5.228-4.695v-1.067h11.84v1.067c-3.146 0-4 .748-2.88 4.054l3.574 10.882 5.388-16.003h1.014z"/><path id="zynwc" d="M1227.357 8524.084c-5.867 0-10.668-4.32-10.668-9.601 0-5.228 4.801-9.548 10.668-9.548 5.867 0 10.667 4.32 10.667 9.548 0 5.28-4.8 9.6-10.667 9.6zm0-17.495c-4.907 0-6.614 4.427-6.614 7.894 0 3.52 1.707 7.894 6.614 7.894 4.961 0 6.668-4.373 6.668-7.894 0-3.467-1.707-7.894-6.668-7.894z"/><path id="zynwd" d="M1292.537 8522.324v1.067h-12.215v-1.067c3.574 0 4.214-.907 4.214-6.241v-8.534c0-5.335-.64-6.188-4.214-6.188v-1.067h11.041c5.493 0 8.535 2.827 8.535 6.615 0 3.68-3.042 6.56-8.535 6.56h-3.04v2.613c0 5.335.64 6.242 4.214 6.242zm-1.174-20.11h-3.04v9.282h3.04c2.987 0 4.374-2.08 4.374-4.587 0-2.56-1.387-4.695-4.374-4.695z"/><path id="zynwe" d="M1336.542 8518.377l-.267.96c-.48 1.76-1.068 2.4-4.856 2.4h-.747c-2.772 0-3.253-.64-3.253-4.427v-2.454c4.161 0 4.481.373 4.481 3.148h1.014v-7.949h-1.014c0 2.774-.32 3.147-4.48 3.147v-5.973h2.932c3.788 0 4.374.64 4.855 2.401l.267 1.012h.854l-.373-5.013h-15.682v1.012c2.986 0 3.467.64 3.467 4.428v6.827c0 3.465-.408 4.338-2.763 4.462-2.238-.342-3.774-1.562-5.877-3.875l-2.454-2.667c3.307-.587 5.067-2.667 5.067-5.015 0-2.932-2.506-5.172-7.2-5.172h-9.387v1.012c2.986 0 3.466.64 3.466 4.428v6.827c0 3.787-.48 4.481-3.466 4.481v1.013h10.614v-1.013c-2.987 0-3.467-.694-3.467-4.48v-1.92h.906l5.92 7.413h21.923l.32-5.013zm-28.27-4.055v-7.093h2.187c2.4 0 3.466 1.654 3.466 3.573 0 1.868-1.066 3.521-3.466 3.521h-2.188z"/><path id="zynwf" d="M1347.37 8524.084c-2.135 0-4.002-1.12-4.802-1.814-.267.267-.747 1.067-.853 1.814h-1.014v-7.36h1.066c.428 3.52 2.881 5.6 6.03 5.6 1.705 0 3.093-.96 3.093-2.56 0-1.387-1.227-2.453-3.415-3.467l-3.04-1.441c-2.134-1.013-3.734-2.774-3.734-5.12 0-2.56 2.4-4.747 5.708-4.747 1.76 0 3.253.64 4.16 1.387.267-.214.533-.801.694-1.441h1.013v6.295h-1.12c-.374-2.508-1.76-4.588-4.587-4.588-1.493 0-2.88.853-2.88 2.187 0 1.387 1.12 2.134 3.68 3.307l2.933 1.44c2.561 1.227 3.574 3.201 3.574 4.801 0 3.36-2.934 5.707-6.507 5.707z"/><path id="zynwg" d="M1363.797 8524.084c-2.134 0-4.001-1.12-4.801-1.814-.266.267-.746 1.067-.852 1.814h-1.014v-7.36h1.066c.427 3.52 2.88 5.6 6.028 5.6 1.707 0 3.094-.96 3.094-2.56 0-1.387-1.227-2.453-3.415-3.467l-3.04-1.441c-2.133-1.013-3.734-2.774-3.734-5.12 0-2.56 2.4-4.747 5.708-4.747 1.76 0 3.253.64 4.16 1.387.267-.214.533-.801.693-1.441h1.014v6.295h-1.12c-.374-2.508-1.761-4.588-4.587-4.588-1.493 0-2.881.853-2.881 2.187 0 1.387 1.12 2.134 3.68 3.307l2.935 1.44c2.56 1.227 3.573 3.201 3.573 4.801 0 3.36-2.934 5.707-6.507 5.707z"/><path id="zynwh" d="M1131.665 8511.482c0 9.344 5.43 17.42 13.304 21.245l-11.26-30.85a23.49 23.49 0 0 0-2.044 9.605z"/><path id="zynwi" d="M1171.206 8510.292c0-2.918-1.048-4.938-1.947-6.511-1.197-1.944-2.318-3.591-2.318-5.535 0-2.17 1.646-4.19 3.964-4.19.105 0 .204.013.306.019a23.522 23.522 0 0 0-15.94-6.197c-8.248 0-15.502 4.231-19.723 10.64.554.016 1.075.028 1.518.028 2.47 0 6.291-.299 6.291-.299 1.273-.075 1.423 1.794.152 1.944 0 0-1.279.151-2.7.225l8.594 25.569 5.166-15.493-3.677-10.077a42.414 42.414 0 0 1-2.476-.225c-1.272-.075-1.123-2.019.15-1.944 0 0 3.898.299 6.217.299 2.47 0 6.291-.299 6.291-.299 1.274-.075 1.423 1.794.152 1.944 0 0-1.282.151-2.703.225l8.532 25.375 2.354-7.867c1.021-3.266 1.797-5.61 1.797-7.631z"/><path id="zynwj" d="M1155.685 8513.548l-7.083 20.58a23.6 23.6 0 0 0 14.508-.376 2.033 2.033 0 0 1-.168-.325z"/><path id="zynwk" d="M1175.983 8500.157c.102.752.16 1.56.16 2.428 0 2.395-.448 5.088-1.796 8.455l-7.21 20.846c7.017-4.09 11.738-11.695 11.738-20.403a23.48 23.48 0 0 0-2.892-11.326z"/><path id="zynwl" d="M1155.27 8483.967c-15.172 0-27.516 12.343-27.516 27.515 0 15.175 12.344 27.518 27.517 27.518 15.172 0 27.519-12.343 27.519-27.518-.001-15.172-12.347-27.515-27.52-27.515zm0 53.771c-14.476 0-26.254-11.778-26.254-26.256 0-14.476 11.776-26.254 26.254-26.254 14.477 0 26.255 11.778 26.255 26.254 0 14.478-11.779 26.256-26.255 26.256z"/></defs><g><g transform="translate(-1127 -8484)"><g><use fill="#007498" xlink:href="#zynwa"/></g><g><use fill="#007498" xlink:href="#zynwb"/></g><g><use fill="#007498" xlink:href="#zynwc"/></g><g><use fill="#464342" xlink:href="#zynwd"/></g><g><use fill="#464342" xlink:href="#zynwe"/></g><g><use fill="#464342" xlink:href="#zynwf"/></g><g><use fill="#464342" xlink:href="#zynwg"/></g><g><use fill="#464342" xlink:href="#zynwh"/></g><g><use fill="#464342" xlink:href="#zynwi"/></g><g><use fill="#464342" xlink:href="#zynwj"/></g><g><use fill="#464342" xlink:href="#zynwk"/></g><g><use fill="#464342" xlink:href="#zynwl"/></g></g></g></svg>