<svg width="64" height="38" viewBox="0 0 64 38" version="1.1" xmlns="http://www.w3.org/2000/svg" xmlns:xlink="http://www.w3.org/1999/xlink"><title>klm</title><defs><path id="a" d="M0 .448h63.345V38H0z"/></defs><g stroke="none" stroke-width="1" fill="none" fill-rule="evenodd"><mask id="b" fill="#fff"><use xlink:href="#a"/></mask><path fill="#9CACBA" mask="url(#b)" d="M19.998 18.457h24.03v-4.204H20"/><path d="M19.827 6.527c-1.76 0-3.238 1.42-3.238 3.18 0 1.763 1.476 3.24 3.237 3.24 1.76 0 3.18-1.477 3.18-3.24 0-1.76-1.42-3.18-3.18-3.18" fill="#9CACBA" mask="url(#b)"/><path d="M27.78 6.413c-1.76 0-3.18 1.42-3.18 3.238 0 1.762 1.42 3.183 3.18 3.183 1.82 0 3.24-1.42 3.24-3.182 0-1.817-1.42-3.237-3.24-3.237" fill="#9CACBA" mask="url(#b)"/><path d="M35.62 6.413c-1.76 0-3.18 1.42-3.18 3.238 0 1.762 1.42 3.183 3.18 3.183 1.762 0 3.24-1.42 3.24-3.182 0-1.817-1.478-3.237-3.24-3.237" fill="#9CACBA" mask="url(#b)"/><path d="M43.8 6.413c-1.817 0-3.237 1.42-3.237 3.238 0 1.762 1.42 3.183 3.238 3.183 1.762 0 3.183-1.42 3.183-3.182 0-1.817-1.42-3.237-3.182-3.237" fill="#9CACBA" mask="url(#b)"/><path fill="#9CACBA" mask="url(#b)" d="M30.905 6.583h1.76V.447h-1.76"/><path fill="#9CACBA" mask="url(#b)" d="M5.965 22.206H0v15.795h5.965v-6.363l6.192 6.364h7.272l-8.295-9.034 6.76-6.76h-6.25l-5.68 5.852"/><path fill="#9CACBA" mask="url(#b)" d="M19.884 22.206h5.68v11.817H35.68V38H19.884"/><path fill="#9CACBA" mask="url(#b)" d="M50.732 31.183l3.01-8.976h9.602V38h-5.68V26.127L53.573 38H47.72L43.8 26.127V38h-5.85V22.207h9.77"/><path fill="#9CACBA" mask="url(#b)" d="M28.86 4.425h6.136v-1.76H28.86"/></g></svg>