<svg xmlns="http://www.w3.org/2000/svg" xmlns:xlink="http://www.w3.org/1999/xlink" width="170" height="60" viewBox="0 0 170 60"><defs><path id="mwk2a" d="M565.775 2657.523c-.632-.422-1.264-.844-1.896-1.054-.843-.21-1.475-.422-2.318-.422h-2.529v10.537h2.107c.843 0 1.686 0 2.53-.21.631-.212 1.474-.423 2.106-.844a3.28 3.28 0 0 0 1.265-1.686c.421-.842.421-1.686.421-2.528 0-.844-.21-1.476-.42-2.318-.423-.422-.845-1.054-1.266-1.475z"/><path id="mwk2b" d="M572.098 2631.606c16.224 0 29.5 13.274 29.5 29.5 0 16.224-13.276 29.5-29.5 29.5-16.226 0-29.5-13.276-29.5-29.5 0-16.226 13.274-29.5 29.5-29.5zm-1.265 33.924c.632-1.264.843-2.528.632-4.004 0-1.474-.211-2.95-.843-4.213-.632-1.054-1.264-2.108-2.317-2.74-1.054-.631-2.108-1.264-3.372-1.475-1.264-.21-2.528-.421-4.003-.421h-5.9v17.91h6.742c1.264 0 2.529-.21 3.793-.632 1.054-.422 2.107-.843 3.16-1.685.844-.632 1.686-1.686 2.108-2.74zm19.807-12.853h-4.003v12.432l-7.586-12.432h-5.268v17.91h4.003v-12.643l7.797 12.644h5.057z"/><path id="mwk2c" d="M613.608 2650.78h15.382v4.003h-11.378v6.323h10.535v3.793h-10.535v9.903h-4.215zm18.964 4.003a2.853 2.853 0 0 1 0-3.582c.632-.42 1.265-.631 1.897-.631.632 0 1.475.21 1.896.63l.21.212c.844 1.054.844 2.53-.21 3.37-.632.423-1.264.634-1.896.634-.843.21-1.475-.211-1.897-.633zm-.002 20.027v-16.23h4v16.23zm8.642-16.234h3.792v2.53c.422-.843.844-1.476 1.686-2.108.843-.632 2.107-.842 3.16-.842.844 0 1.897.21 2.74.63.843.423 1.475.844 1.897 1.477.42.632.842 1.264 1.053 2.106.21.633.21 1.476.21 2.319v10.114h-4.003v-9.692c-.211-.422-.211-1.055-.421-1.476-.211-.421-.421-.843-.843-1.265-.422-.211-1.053-.421-1.686-.421-.632 0-1.053.21-1.685.42-.422.212-.843.423-1.054.845l-.632 1.264c-.211.422-.211 1.054-.211 1.474v8.85h-4.003zm32.239 14.119c-.421.842-1.265 1.685-2.318 2.107-1.054.42-2.107.632-3.16.632-1.265 0-2.318-.211-3.372-.632-1.054-.422-1.897-1.054-2.53-1.896-.842-.843-1.263-1.686-1.684-2.74-.422-1.053-.633-2.318-.633-3.371 0-1.264.21-2.318.633-3.372.42-1.054 1.053-1.896 1.685-2.74.843-.842 1.686-1.474 2.529-1.896a8.463 8.463 0 0 1 3.16-.631c.843 0 1.476 0 2.108.21.42.21 1.053.42 1.475.632.21.21.632.632 1.053.843.422.21.633.632.843.843v-11.38h4.004v25.498h-3.793zm-9.271-7.796c-.422 1.052-.422 2.317 0 3.582.21.42.42 1.052.842 1.474l.21.21c1.897 1.898 4.847 1.687 6.744-.21.21-.422.632-.842.843-1.474.42-1.054.42-2.32 0-3.582-.211-.422-.422-1.054-.843-1.476l-.211-.21c-1.896-1.896-4.846-1.686-6.743.21-.211.422-.632.843-.842 1.476zm20.649 3.16c.21 1.054.633 2.107 1.476 2.739.842.632 1.896 1.054 2.949 1.054.843 0 1.686-.211 2.529-.632.843-.422 1.475-.843 1.897-1.476l2.949 2.108c-.843 1.054-1.896 1.896-3.16 2.528-1.054.633-2.318.843-3.582.843-1.054 0-2.318-.21-3.372-.632-1.053-.421-1.896-.843-2.74-1.685-.842-.843-1.474-1.686-1.896-2.74-.843-2.107-.843-4.635 0-6.953.422-1.055 1.054-1.896 1.897-2.74.843-.632 1.686-1.264 2.739-1.686 1.054-.421 2.107-.631 3.372-.631 1.053 0 2.107.21 3.16.63.843.423 1.686.844 2.318 1.687.632.844 1.054 1.685 1.475 2.74.422 1.264.633 2.528.633 3.792v1.054zm8.429-2.95c0-1.054-.211-1.896-1.054-2.74-.842-.842-1.896-1.052-2.95-1.052-1.053 0-2.107.42-2.95 1.052-.632.633-1.264 1.686-1.264 2.74zm8.428-6.533h4.004v2.53c.422-.843 1.054-1.476 1.897-2.108.843-.632 1.896-.842 2.949-.842h.633c.21 0 .42.21.632.21v4.003c-.422 0-.632-.211-1.054-.211h-1.053c-.843-.21-1.686 0-2.318.422l-1.264 1.265-.633 1.265c-.21.42-.21.63-.21 1.052v8.64h-4.004z"/></defs><g><g transform="translate(-542 -2631)"><use fill="#7e7e7e" xlink:href="#mwk2a"/></g><g transform="translate(-542 -2631)"><use fill="#7e7e7e" xlink:href="#mwk2b"/></g><g transform="translate(-542 -2631)"><use fill="#878787" xlink:href="#mwk2c"/></g></g></svg>