<svg height="31" viewBox="0 0 31 31" width="31" xmlns="http://www.w3.org/2000/svg"><g fill="#7e8f9f"><path d="m29.619 13.403-7.576-3.788a1.651 1.651 0 0 1 -.744-.742l-3.79-7.58a2.287 2.287 0 0 0 -2.056-1.271c-.877 0-1.665.487-2.057 1.271l-3.788 7.576c-.157.32-.421.584-.742.744l-7.58 3.79a2.287 2.287 0 0 0 -1.27 2.056c0 .877.486 1.664 1.27 2.056l7.576 3.789c.32.157.585.421.744.742l3.79 7.58a2.287 2.287 0 0 0 2.056 1.27c.877 0 1.665-.487 2.057-1.27l3.788-7.576c.158-.32.422-.585.742-.744l7.58-3.79a2.286 2.286 0 0 0 1.27-2.057c.001-.876-.486-1.664-1.27-2.056zm-10.553 4.421a.657.657 0 1 1 -1.314 0v-3.363l-1.89 1.511a.655.655 0 0 1 -.82 0l-1.889-1.51v3.362a.657.657 0 0 1 -1.313 0v-4.73a.657.657 0 0 1 1.067-.513l2.546 2.037 2.545-2.037a.656.656 0 0 1 1.068.513z"/><path d="m28.974 12.346.354-.408a2.288 2.288 0 0 0 .387-2.386 2.286 2.286 0 0 0 -1.961-1.414l-.54-.038-.96 2.885 2.72 1.36m-6.162-8.648-.038-.539a2.287 2.287 0 0 0 -1.414-1.961 2.294 2.294 0 0 0 -2.386.387l-.408.354 1.36 2.72zm-.925 4.882a.994.994 0 0 0 .448.447l3.325 1.663 1.264-3.793a2.287 2.287 0 0 0 -.555-2.353 2.278 2.278 0 0 0 -2.353-.555l-3.793 1.264zm-9.548-6.64-.408-.355a2.295 2.295 0 0 0 -3.8 1.574l-.038.539 2.886.962zm-7.093 8.75 3.327-1.664a.995.995 0 0 0 .447-.448l1.662-3.325-3.792-1.264a2.277 2.277 0 0 0 -2.353.555 2.285 2.285 0 0 0 -.555 2.353zm-3.314 1.657 2.72-1.36-.962-2.886-.538.038a2.287 2.287 0 0 0 -1.961 1.412 2.286 2.286 0 0 0 .387 2.386l.354.409m7.086 9.993a.994.994 0 0 0 -.448-.447l-3.324-1.663-1.264 3.793a2.286 2.286 0 0 0 .555 2.353 2.278 2.278 0 0 0 2.353.555l3.792-1.264zm-.925 4.882.039.539a2.286 2.286 0 0 0 1.413 1.96 2.314 2.314 0 0 0 2.386-.387l.408-.353-1.36-2.72zm-6.161-8.649-.354.408a2.287 2.287 0 0 0 -.387 2.386 2.285 2.285 0 0 0 1.96 1.414l.54.038.961-2.885-2.72-1.36m16.634 10.408.408.354a2.318 2.318 0 0 0 2.386.387 2.287 2.287 0 0 0 1.413-1.961l.039-.539-2.886-.961zm7.093-8.75-3.327 1.663a.993.993 0 0 0 -.446.449l-1.663 3.324 3.793 1.264a2.277 2.277 0 0 0 2.352-.555c.62-.62.833-1.522.556-2.353zm3.315-1.657-2.721 1.36.962 2.885.538-.038a2.288 2.288 0 0 0 1.962-1.413 2.287 2.287 0 0 0 -.387-2.386z"/></g></svg>