<svg height="22" viewBox="0 0 96 22" width="96" xmlns="http://www.w3.org/2000/svg"><path d="m12.55 8.109h5.762v10.203h-18.312v-10.202h5.762v5.09h6.768v-5.091zm19.486 5.217c0 1.739-1.131 2.744-2.703 2.744-1.53 0-2.682-1.026-2.682-2.744v-8.214h-2.556v8.193c0 3.226 2.305 5.28 5.26 5.28 2.975 0 5.258-2.054 5.258-5.28v-8.193h-2.556v8.214h-.02zm9.156-4.421c-.984 0-2.074.419-2.64 1.383v-1.132h-2.388v9.156h2.472v-5.28c0-1.068.629-1.906 1.718-1.906 1.195 0 1.697.796 1.697 1.823v5.342h2.473v-5.761c-.021-2.012-1.069-3.625-3.332-3.625zm9.073 3.855-1.362-.272c-.524-.105-.838-.378-.838-.818 0-.523.46-.9 1.11-.9.922 0 1.278.46 1.362 1.026h2.137c-.02-1.257-1.005-2.891-3.457-2.891-1.97 0-3.415 1.362-3.415 2.996 0 1.278.796 2.347 2.556 2.724l1.257.272c.713.147.985.482.985.901 0 .482-.44.901-1.257.901-.985 0-1.53-.566-1.655-1.215h-2.2c.125 1.362 1.11 3.1 3.876 3.1 2.388 0 3.604-1.529 3.604-3.016.02-1.341-.901-2.43-2.703-2.808zm13.242.943c0 2.766-1.74 4.819-4.317 4.819-1.257 0-2.2-.503-2.64-1.11v4.42h-2.472v-12.676h2.389v1.132c.419-.713 1.424-1.341 2.807-1.341 2.682 0 4.233 2.053 4.233 4.756zm-2.43.02c0-1.613-1.007-2.555-2.264-2.555s-2.283.942-2.283 2.556c0 1.613 1.026 2.577 2.283 2.577s2.263-.943 2.263-2.577zm14.247-4.567h2.388v9.156h-2.472v-1.131c-.419.733-1.383 1.34-2.64 1.34-2.577 0-4.316-2.052-4.316-4.818 0-2.724 1.55-4.756 4.211-4.756 1.383 0 2.368.628 2.808 1.34v-1.13h.02zm-.042 4.568c0-1.614-1.027-2.556-2.284-2.556s-2.263.942-2.263 2.556c0 1.634 1.006 2.577 2.263 2.577s2.284-.964 2.284-2.577zm-10.623 4.566h2.472v-13.178h-2.471v13.18zm27.741-9.385c-.88 0-1.886.293-2.472 1.005v-4.798h-2.473v13.18h2.473v-5.364c.062-1.006.67-1.781 1.718-1.781 1.194 0 1.697.796 1.697 1.823v5.342h2.472v-5.762c-.02-2.032-1.09-3.645-3.415-3.645zm-8.8 3.855-1.362-.272c-.524-.105-.838-.378-.838-.818 0-.523.461-.9 1.11-.9.922 0 1.279.46 1.362 1.026h2.138c-.021-1.257-1.006-2.891-3.458-2.891-1.97 0-3.415 1.362-3.415 2.996 0 1.278.796 2.347 2.556 2.724l1.257.272c.713.147.985.482.985.901 0 .482-.44.901-1.257.901-.985 0-1.53-.566-1.655-1.215h-2.2c.126 1.362 1.11 3.1 3.876 3.1 2.389 0 3.604-1.529 3.604-3.016.02-1.341-.901-2.43-2.703-2.808zm-71.05-12.76h-6.788v5.112h6.768v-5.112z" fill="#7e8f9f"/></svg>