<svg width="91" height="85" xmlns="http://www.w3.org/2000/svg"><path d="M1 52.727V44.96c0-2.43 9.011-1.274 9.011-8.774.208-.326.46-.756.712-1.17a5.232 5.232 0 01-.608-.312 5.01 5.01 0 01-2.579-3.854c-.192-2.06.875-4.105 3.187-6.106a15.192 15.192 0 017.81-3.794c1.745-.28 3.518-.34 5.277-.178 6.3-3.75 13.962-5.425 23.418-4.95 13.517.696 25.434 7.321 31.555 17.43 3.883.83 11.146 3.053 11.146 8.033 0 3.498-2.683 6.417-6.848 7.751-.163 12.391-4.654 21.21-13.34 26.249a10.271 10.271 0 01-2.46 5.929 8.226 8.226 0 01-6.269 2.593 26.5 26.5 0 01-6.166-1.363 49.192 49.192 0 00-10.642-2.238 27.612 27.612 0 00-8.477 2.164 16.704 16.704 0 01-5.38 1.482 9.026 9.026 0 01-8.39-6.996c-7.262-2.89-10.804-6.966-14.82-11.65m23.506-24.247a5.929 5.929 0 11-5.929-5.929m34.09-7.707c5.098 1.986 9.115 3.616 11.723 8.107m1.616-25.537a8.893 8.893 0 118.893 8.893" stroke="#00A5C9" stroke-width="2" fill="none"/></svg>