<svg width="90" height="84" xmlns="http://www.w3.org/2000/svg"><g stroke="#00A5C9" stroke-width="2" fill="none"><path d="M2.407 5.22C1.63 5.22 1 4.59 1 3.814V2.407C1 1.63 1.63 1 2.407 1h84.407c.777 0 1.406.63 1.406 1.407v1.407c0 .777-.63 1.406-1.406 1.406M29.136 58.678H9.44c-.777 0-1.407-.63-1.407-1.407V9.441c0-.777.63-1.407 1.407-1.407h70.34c.777 0 1.406.63 1.406 1.407v47.83c0 .777-.63 1.407-1.406 1.407H44.61V84m-3.939-15.84L28.854 79.977m31.512 0L48.55 68.16"/><path d="M17.881 50.94l17.585-17.584 10.55 10.55L71.34 19.289"/><path d="M65.712 17.881h7.034v7.034"/></g></svg>