<svg height="21" viewBox="0 0 42 21" width="42" xmlns="http://www.w3.org/2000/svg"><g fill="#7e8f9f" fill-rule="evenodd"><path d="m14.217 14.703a.231.231 0 0 1 -.074.169.226.226 0 0 1 -.171.06l-3.986.16a.219.219 0 0 1 -.245-.16l-2.056-5.944-1.97 5.924a.233.233 0 0 1 -.244.18l-3.828-.16a.197.197 0 0 1 -.157-.053.201.201 0 0 1 -.062-.155l-1.314-13.778a.222.222 0 0 1 .061-.186.217.217 0 0 1 .183-.064h3.264a.209.209 0 0 1 .173.058c.046.045.07.108.063.172l.61 8.758 1.637-7.338a.202.202 0 0 1 .219-.177h2.745a.211.211 0 0 1 .235.177l1.554 7.338.67-8.842c.006-.16.092-.235.257-.229l3.281.17a.209.209 0 0 1 .17.064c.044.047.065.11.056.174z"/><path d="m25.303 7.799c0 .557-.118 2.792-.353 6.705a7.035 7.035 0 0 1 -.05.697.248.248 0 0 1 -.078.173.242.242 0 0 1 -.178.065l-2.558.02a.23.23 0 0 1 -.197-.062.235.235 0 0 1 -.069-.196l.06-.984c-.827.297-1.7.449-2.578.448-1.135 0-2.046-.232-2.734-.697-.808-.55-1.211-1.369-1.21-2.456 0-1.258.664-2.192 1.994-2.803.998-.45 2.212-.675 3.643-.675.418.007.835.04 1.249.1l.018-.553a1.334 1.334 0 0 0 -.378-.962 1.27 1.27 0 0 0 -.945-.395c-.48 0-.846.177-1.102.53-.256.355-.4.534-.437.54l-2.985.41c-.203.027-.305-.054-.305-.248a.818.818 0 0 0 .03-.08c.32-1.07.885-1.912 1.697-2.527s1.77-.924 2.872-.926c3.062 0 4.593 1.292 4.594 3.876zm-3.172 2.59a12.35 12.35 0 0 0 -.629-.038c-1.412 0-2.118.4-2.116 1.202 0 .676.51 1.014 1.53 1.014.368 0 .734-.034 1.095-.1zm14.182-6.669c.03 3.127.004 6.09-.08 8.887a164.174 164.174 0 0 1 -.08 2.176c-.024.727-.1 1.45-.227 2.166-.234 1.276-.8 2.269-1.7 2.979-.898.71-1.996 1.067-3.296 1.07-.76 0-1.352-.088-1.77-.259a.262.262 0 0 1 -.179-.249v-3.112c0-.166.095-.248.277-.248.16.005.32.018.478.04.164.021.33.035.495.039 1.581 0 2.372-.583 2.374-1.75v-1.437a4.858 4.858 0 0 1 -1.615.258c-1.463 0-2.647-.46-3.552-1.382-.905-.92-1.358-2.12-1.358-3.597 0-1.552.535-2.781 1.604-3.688 1.004-.856 2.29-1.283 3.856-1.283.324.003.647.037.964.1v-.76c0-.16.083-.24.246-.24l3.316.02c.163 0 .246.09.246.27zm-3.75 7.653-.018-3.4c-1.503.034-2.255.67-2.255 1.91 0 1.02.59 1.53 1.772 1.531.103 0 .271-.014.501-.04zm9.376 2.297c0 .472-.285.84-.858 1.105-.456.213-.952.321-1.454.317a3.45 3.45 0 0 1 -1.505-.331c-.57-.28-.857-.663-.857-1.153 0-.458.29-.82.866-1.085.457-.21.953-.318 1.455-.318a3.361 3.361 0 0 1 1.477.338c.584.28.876.656.876 1.127zm-.384-13.31-.138 10.587c0 .159-.08.24-.246.24l-3.404-.042a.204.204 0 0 1 -.181-.061.21.21 0 0 1 -.053-.186l.219-10.539a.222.222 0 0 1 .062-.186.217.217 0 0 1 .184-.062h3.326a.207.207 0 0 1 .179.064c.045.05.065.118.052.184z" fill-rule="nonzero"/></g></svg>